G04 #@! TF.GenerationSoftware,KiCad,Pcbnew,(5.1.2)-2*
G04 #@! TF.CreationDate,2019-11-04T20:52:10+01:00*
G04 #@! TF.ProjectId,STM32_2CH_Dimmer,53544d33-325f-4324-9348-5f44696d6d65,rev?*
G04 #@! TF.SameCoordinates,Original*
G04 #@! TF.FileFunction,Soldermask,Top*
G04 #@! TF.FilePolarity,Negative*
%FSLAX46Y46*%
G04 Gerber Fmt 4.6, Leading zero omitted, Abs format (unit mm)*
G04 Created by KiCad (PCBNEW (5.1.2)-2) date 2019-11-04 20:52:10*
%MOMM*%
%LPD*%
G04 APERTURE LIST*
%ADD10C,0.100000*%
G04 APERTURE END LIST*
D10*
G36*
X148150026Y-119846115D02*
G01*
X148368411Y-119936573D01*
X148368413Y-119936574D01*
X148564955Y-120067899D01*
X148732101Y-120235045D01*
X148796610Y-120331589D01*
X148863427Y-120431589D01*
X148953885Y-120649974D01*
X149000000Y-120881809D01*
X149000000Y-121118191D01*
X148953885Y-121350026D01*
X148863427Y-121568411D01*
X148863426Y-121568413D01*
X148732101Y-121764955D01*
X148564955Y-121932101D01*
X148368413Y-122063426D01*
X148368412Y-122063427D01*
X148368411Y-122063427D01*
X148150026Y-122153885D01*
X147918191Y-122200000D01*
X147681809Y-122200000D01*
X147449974Y-122153885D01*
X147231589Y-122063427D01*
X147231588Y-122063427D01*
X147231587Y-122063426D01*
X147035045Y-121932101D01*
X146867899Y-121764955D01*
X146736574Y-121568413D01*
X146736573Y-121568411D01*
X146646115Y-121350026D01*
X146600000Y-121118191D01*
X146600000Y-120881809D01*
X146646115Y-120649974D01*
X146736573Y-120431589D01*
X146803391Y-120331589D01*
X146867899Y-120235045D01*
X147035045Y-120067899D01*
X147231587Y-119936574D01*
X147231589Y-119936573D01*
X147449974Y-119846115D01*
X147681809Y-119800000D01*
X147918191Y-119800000D01*
X148150026Y-119846115D01*
X148150026Y-119846115D01*
G37*
G36*
X199350026Y-119746115D02*
G01*
X199568411Y-119836573D01*
X199568413Y-119836574D01*
X199718072Y-119936573D01*
X199764955Y-119967899D01*
X199932101Y-120135045D01*
X200063427Y-120331589D01*
X200153885Y-120549974D01*
X200200000Y-120781809D01*
X200200000Y-121018191D01*
X200153885Y-121250026D01*
X200112463Y-121350027D01*
X200063426Y-121468413D01*
X199932101Y-121664955D01*
X199764955Y-121832101D01*
X199568413Y-121963426D01*
X199568412Y-121963427D01*
X199568411Y-121963427D01*
X199350026Y-122053885D01*
X199118191Y-122100000D01*
X198881809Y-122100000D01*
X198649974Y-122053885D01*
X198431589Y-121963427D01*
X198431588Y-121963427D01*
X198431587Y-121963426D01*
X198235045Y-121832101D01*
X198067899Y-121664955D01*
X197936574Y-121468413D01*
X197887537Y-121350027D01*
X197846115Y-121250026D01*
X197800000Y-121018191D01*
X197800000Y-120781809D01*
X197846115Y-120549974D01*
X197936573Y-120331589D01*
X198067899Y-120135045D01*
X198235045Y-119967899D01*
X198281928Y-119936573D01*
X198431587Y-119836574D01*
X198431589Y-119836573D01*
X198649974Y-119746115D01*
X198881809Y-119700000D01*
X199118191Y-119700000D01*
X199350026Y-119746115D01*
X199350026Y-119746115D01*
G37*
G36*
X159165000Y-120938000D02*
G01*
X157065000Y-120938000D01*
X157065000Y-118838000D01*
X159165000Y-118838000D01*
X159165000Y-120938000D01*
X159165000Y-120938000D01*
G37*
G36*
X174405000Y-120938000D02*
G01*
X172305000Y-120938000D01*
X172305000Y-118838000D01*
X174405000Y-118838000D01*
X174405000Y-120938000D01*
X174405000Y-120938000D01*
G37*
G36*
X177935529Y-119305710D02*
G01*
X177985378Y-119320831D01*
X178031310Y-119345382D01*
X178071574Y-119378426D01*
X178104618Y-119418690D01*
X178129169Y-119464622D01*
X178144290Y-119514471D01*
X178150000Y-119572444D01*
X178150000Y-120577556D01*
X178144290Y-120635529D01*
X178129169Y-120685378D01*
X178104618Y-120731310D01*
X178071574Y-120771574D01*
X178031310Y-120804618D01*
X177985378Y-120829169D01*
X177935529Y-120844290D01*
X177877556Y-120850000D01*
X176622444Y-120850000D01*
X176564471Y-120844290D01*
X176514622Y-120829169D01*
X176468690Y-120804618D01*
X176428426Y-120771574D01*
X176395382Y-120731310D01*
X176370831Y-120685378D01*
X176355710Y-120635529D01*
X176350000Y-120577556D01*
X176350000Y-119572444D01*
X176355710Y-119514471D01*
X176370831Y-119464622D01*
X176395382Y-119418690D01*
X176428426Y-119378426D01*
X176468690Y-119345382D01*
X176514622Y-119320831D01*
X176564471Y-119305710D01*
X176622444Y-119300000D01*
X177877556Y-119300000D01*
X177935529Y-119305710D01*
X177935529Y-119305710D01*
G37*
G36*
X189650000Y-119190000D02*
G01*
X187550000Y-119190000D01*
X187550000Y-117090000D01*
X189650000Y-117090000D01*
X189650000Y-119190000D01*
X189650000Y-119190000D01*
G37*
G36*
X186188707Y-117097597D02*
G01*
X186265836Y-117105193D01*
X186463762Y-117165233D01*
X186463765Y-117165234D01*
X186646170Y-117262732D01*
X186806055Y-117393945D01*
X186937268Y-117553830D01*
X187034766Y-117736235D01*
X187034767Y-117736238D01*
X187094807Y-117934164D01*
X187115080Y-118140000D01*
X187094807Y-118345836D01*
X187091223Y-118357650D01*
X187034766Y-118543765D01*
X186937268Y-118726170D01*
X186806055Y-118886055D01*
X186646170Y-119017268D01*
X186463765Y-119114766D01*
X186463762Y-119114767D01*
X186265836Y-119174807D01*
X186188707Y-119182403D01*
X186111580Y-119190000D01*
X186008420Y-119190000D01*
X185931293Y-119182403D01*
X185854164Y-119174807D01*
X185656238Y-119114767D01*
X185656235Y-119114766D01*
X185473830Y-119017268D01*
X185313945Y-118886055D01*
X185182732Y-118726170D01*
X185085234Y-118543765D01*
X185028777Y-118357650D01*
X185025193Y-118345836D01*
X185004920Y-118140000D01*
X185025193Y-117934164D01*
X185085233Y-117736238D01*
X185085234Y-117736235D01*
X185182732Y-117553830D01*
X185313945Y-117393945D01*
X185473830Y-117262732D01*
X185656235Y-117165234D01*
X185656238Y-117165233D01*
X185854164Y-117105193D01*
X185931293Y-117097597D01*
X186008420Y-117090000D01*
X186111580Y-117090000D01*
X186188707Y-117097597D01*
X186188707Y-117097597D01*
G37*
G36*
X183648707Y-117097597D02*
G01*
X183725836Y-117105193D01*
X183923762Y-117165233D01*
X183923765Y-117165234D01*
X184106170Y-117262732D01*
X184266055Y-117393945D01*
X184397268Y-117553830D01*
X184494766Y-117736235D01*
X184494767Y-117736238D01*
X184554807Y-117934164D01*
X184575080Y-118140000D01*
X184554807Y-118345836D01*
X184551223Y-118357650D01*
X184494766Y-118543765D01*
X184397268Y-118726170D01*
X184266055Y-118886055D01*
X184106170Y-119017268D01*
X183923765Y-119114766D01*
X183923762Y-119114767D01*
X183725836Y-119174807D01*
X183648707Y-119182403D01*
X183571580Y-119190000D01*
X183468420Y-119190000D01*
X183391293Y-119182403D01*
X183314164Y-119174807D01*
X183116238Y-119114767D01*
X183116235Y-119114766D01*
X182933830Y-119017268D01*
X182773945Y-118886055D01*
X182642732Y-118726170D01*
X182545234Y-118543765D01*
X182488777Y-118357650D01*
X182485193Y-118345836D01*
X182464920Y-118140000D01*
X182485193Y-117934164D01*
X182545233Y-117736238D01*
X182545234Y-117736235D01*
X182642732Y-117553830D01*
X182773945Y-117393945D01*
X182933830Y-117262732D01*
X183116235Y-117165234D01*
X183116238Y-117165233D01*
X183314164Y-117105193D01*
X183391293Y-117097597D01*
X183468420Y-117090000D01*
X183571580Y-117090000D01*
X183648707Y-117097597D01*
X183648707Y-117097597D01*
G37*
G36*
X177935529Y-117255710D02*
G01*
X177985378Y-117270831D01*
X178031310Y-117295382D01*
X178071574Y-117328426D01*
X178104618Y-117368690D01*
X178129169Y-117414622D01*
X178144290Y-117464471D01*
X178150000Y-117522444D01*
X178150000Y-118527556D01*
X178144290Y-118585529D01*
X178129169Y-118635378D01*
X178104618Y-118681310D01*
X178071574Y-118721574D01*
X178031310Y-118754618D01*
X177985378Y-118779169D01*
X177935529Y-118794290D01*
X177877556Y-118800000D01*
X176622444Y-118800000D01*
X176564471Y-118794290D01*
X176514622Y-118779169D01*
X176468690Y-118754618D01*
X176428426Y-118721574D01*
X176395382Y-118681310D01*
X176370831Y-118635378D01*
X176355710Y-118585529D01*
X176350000Y-118527556D01*
X176350000Y-117522444D01*
X176355710Y-117464471D01*
X176370831Y-117414622D01*
X176395382Y-117368690D01*
X176428426Y-117328426D01*
X176468690Y-117295382D01*
X176514622Y-117270831D01*
X176564471Y-117255710D01*
X176622444Y-117250000D01*
X177877556Y-117250000D01*
X177935529Y-117255710D01*
X177935529Y-117255710D01*
G37*
G36*
X173483687Y-116303027D02*
G01*
X173661274Y-116338350D01*
X173852362Y-116417502D01*
X174024336Y-116532411D01*
X174170589Y-116678664D01*
X174285498Y-116850638D01*
X174364650Y-117041726D01*
X174399973Y-117219313D01*
X174405000Y-117244583D01*
X174405000Y-117451417D01*
X174404077Y-117456055D01*
X174364650Y-117654274D01*
X174285498Y-117845362D01*
X174170589Y-118017336D01*
X174024336Y-118163589D01*
X173852362Y-118278498D01*
X173661274Y-118357650D01*
X173483687Y-118392973D01*
X173458417Y-118398000D01*
X173251583Y-118398000D01*
X173226313Y-118392973D01*
X173048726Y-118357650D01*
X172857638Y-118278498D01*
X172685664Y-118163589D01*
X172539411Y-118017336D01*
X172424502Y-117845362D01*
X172345350Y-117654274D01*
X172305923Y-117456055D01*
X172305000Y-117451417D01*
X172305000Y-117244583D01*
X172310027Y-117219313D01*
X172345350Y-117041726D01*
X172424502Y-116850638D01*
X172539411Y-116678664D01*
X172685664Y-116532411D01*
X172857638Y-116417502D01*
X173048726Y-116338350D01*
X173226313Y-116303027D01*
X173251583Y-116298000D01*
X173458417Y-116298000D01*
X173483687Y-116303027D01*
X173483687Y-116303027D01*
G37*
G36*
X158243687Y-116303027D02*
G01*
X158421274Y-116338350D01*
X158612362Y-116417502D01*
X158784336Y-116532411D01*
X158930589Y-116678664D01*
X159045498Y-116850638D01*
X159124650Y-117041726D01*
X159159973Y-117219313D01*
X159165000Y-117244583D01*
X159165000Y-117451417D01*
X159164077Y-117456055D01*
X159124650Y-117654274D01*
X159045498Y-117845362D01*
X158930589Y-118017336D01*
X158784336Y-118163589D01*
X158612362Y-118278498D01*
X158421274Y-118357650D01*
X158243687Y-118392973D01*
X158218417Y-118398000D01*
X158011583Y-118398000D01*
X157986313Y-118392973D01*
X157808726Y-118357650D01*
X157617638Y-118278498D01*
X157445664Y-118163589D01*
X157299411Y-118017336D01*
X157184502Y-117845362D01*
X157105350Y-117654274D01*
X157065923Y-117456055D01*
X157065000Y-117451417D01*
X157065000Y-117244583D01*
X157070027Y-117219313D01*
X157105350Y-117041726D01*
X157184502Y-116850638D01*
X157299411Y-116678664D01*
X157445664Y-116532411D01*
X157617638Y-116417502D01*
X157808726Y-116338350D01*
X157986313Y-116303027D01*
X158011583Y-116298000D01*
X158218417Y-116298000D01*
X158243687Y-116303027D01*
X158243687Y-116303027D01*
G37*
G36*
X148026707Y-115667596D02*
G01*
X148103836Y-115675193D01*
X148301762Y-115735233D01*
X148301765Y-115735234D01*
X148484170Y-115832732D01*
X148644055Y-115963945D01*
X148775268Y-116123830D01*
X148872766Y-116306235D01*
X148872767Y-116306238D01*
X148932807Y-116504164D01*
X148953080Y-116710000D01*
X148932807Y-116915836D01*
X148894619Y-117041726D01*
X148872766Y-117113765D01*
X148775268Y-117296170D01*
X148644055Y-117456055D01*
X148484170Y-117587268D01*
X148301765Y-117684766D01*
X148301762Y-117684767D01*
X148103836Y-117744807D01*
X148026707Y-117752403D01*
X147949580Y-117760000D01*
X147846420Y-117760000D01*
X147769293Y-117752403D01*
X147692164Y-117744807D01*
X147494238Y-117684767D01*
X147494235Y-117684766D01*
X147311830Y-117587268D01*
X147151945Y-117456055D01*
X147020732Y-117296170D01*
X146923234Y-117113765D01*
X146901381Y-117041726D01*
X146863193Y-116915836D01*
X146842920Y-116710000D01*
X146863193Y-116504164D01*
X146923233Y-116306238D01*
X146923234Y-116306235D01*
X147020732Y-116123830D01*
X147151945Y-115963945D01*
X147311830Y-115832732D01*
X147494235Y-115735234D01*
X147494238Y-115735233D01*
X147692164Y-115675193D01*
X147769293Y-115667596D01*
X147846420Y-115660000D01*
X147949580Y-115660000D01*
X148026707Y-115667596D01*
X148026707Y-115667596D01*
G37*
G36*
X152767529Y-115103710D02*
G01*
X152817378Y-115118831D01*
X152863310Y-115143382D01*
X152903574Y-115176426D01*
X152936618Y-115216690D01*
X152961169Y-115262622D01*
X152976290Y-115312471D01*
X152982000Y-115370444D01*
X152982000Y-116625556D01*
X152976290Y-116683529D01*
X152961169Y-116733378D01*
X152936618Y-116779310D01*
X152903574Y-116819574D01*
X152863310Y-116852618D01*
X152817378Y-116877169D01*
X152767529Y-116892290D01*
X152709556Y-116898000D01*
X151704444Y-116898000D01*
X151646471Y-116892290D01*
X151596622Y-116877169D01*
X151550690Y-116852618D01*
X151510426Y-116819574D01*
X151477382Y-116779310D01*
X151452831Y-116733378D01*
X151437710Y-116683529D01*
X151432000Y-116625556D01*
X151432000Y-115370444D01*
X151437710Y-115312471D01*
X151452831Y-115262622D01*
X151477382Y-115216690D01*
X151510426Y-115176426D01*
X151550690Y-115143382D01*
X151596622Y-115118831D01*
X151646471Y-115103710D01*
X151704444Y-115098000D01*
X152709556Y-115098000D01*
X152767529Y-115103710D01*
X152767529Y-115103710D01*
G37*
G36*
X154817529Y-115103710D02*
G01*
X154867378Y-115118831D01*
X154913310Y-115143382D01*
X154953574Y-115176426D01*
X154986618Y-115216690D01*
X155011169Y-115262622D01*
X155026290Y-115312471D01*
X155032000Y-115370444D01*
X155032000Y-116625556D01*
X155026290Y-116683529D01*
X155011169Y-116733378D01*
X154986618Y-116779310D01*
X154953574Y-116819574D01*
X154913310Y-116852618D01*
X154867378Y-116877169D01*
X154817529Y-116892290D01*
X154759556Y-116898000D01*
X153754444Y-116898000D01*
X153696471Y-116892290D01*
X153646622Y-116877169D01*
X153600690Y-116852618D01*
X153560426Y-116819574D01*
X153527382Y-116779310D01*
X153502831Y-116733378D01*
X153487710Y-116683529D01*
X153482000Y-116625556D01*
X153482000Y-115370444D01*
X153487710Y-115312471D01*
X153502831Y-115262622D01*
X153527382Y-115216690D01*
X153560426Y-115176426D01*
X153600690Y-115143382D01*
X153646622Y-115118831D01*
X153696471Y-115103710D01*
X153754444Y-115098000D01*
X154759556Y-115098000D01*
X154817529Y-115103710D01*
X154817529Y-115103710D01*
G37*
G36*
X173483687Y-113763027D02*
G01*
X173661274Y-113798350D01*
X173852362Y-113877502D01*
X174024336Y-113992411D01*
X174170589Y-114138664D01*
X174285498Y-114310638D01*
X174364650Y-114501726D01*
X174399973Y-114679313D01*
X174405000Y-114704583D01*
X174405000Y-114911417D01*
X174404077Y-114916055D01*
X174364650Y-115114274D01*
X174285498Y-115305362D01*
X174170589Y-115477336D01*
X174024336Y-115623589D01*
X173852362Y-115738498D01*
X173661274Y-115817650D01*
X173483687Y-115852973D01*
X173458417Y-115858000D01*
X173251583Y-115858000D01*
X173226313Y-115852973D01*
X173048726Y-115817650D01*
X172857638Y-115738498D01*
X172685664Y-115623589D01*
X172539411Y-115477336D01*
X172424502Y-115305362D01*
X172345350Y-115114274D01*
X172305923Y-114916055D01*
X172305000Y-114911417D01*
X172305000Y-114704583D01*
X172310027Y-114679313D01*
X172345350Y-114501726D01*
X172424502Y-114310638D01*
X172539411Y-114138664D01*
X172685664Y-113992411D01*
X172857638Y-113877502D01*
X173048726Y-113798350D01*
X173226313Y-113763027D01*
X173251583Y-113758000D01*
X173458417Y-113758000D01*
X173483687Y-113763027D01*
X173483687Y-113763027D01*
G37*
G36*
X158243687Y-113763027D02*
G01*
X158421274Y-113798350D01*
X158612362Y-113877502D01*
X158784336Y-113992411D01*
X158930589Y-114138664D01*
X159045498Y-114310638D01*
X159124650Y-114501726D01*
X159159973Y-114679313D01*
X159165000Y-114704583D01*
X159165000Y-114911417D01*
X159164077Y-114916055D01*
X159124650Y-115114274D01*
X159045498Y-115305362D01*
X158930589Y-115477336D01*
X158784336Y-115623589D01*
X158612362Y-115738498D01*
X158421274Y-115817650D01*
X158243687Y-115852973D01*
X158218417Y-115858000D01*
X158011583Y-115858000D01*
X157986313Y-115852973D01*
X157808726Y-115817650D01*
X157617638Y-115738498D01*
X157445664Y-115623589D01*
X157299411Y-115477336D01*
X157184502Y-115305362D01*
X157105350Y-115114274D01*
X157065923Y-114916055D01*
X157065000Y-114911417D01*
X157065000Y-114704583D01*
X157070027Y-114679313D01*
X157105350Y-114501726D01*
X157184502Y-114310638D01*
X157299411Y-114138664D01*
X157445664Y-113992411D01*
X157617638Y-113877502D01*
X157808726Y-113798350D01*
X157986313Y-113763027D01*
X158011583Y-113758000D01*
X158218417Y-113758000D01*
X158243687Y-113763027D01*
X158243687Y-113763027D01*
G37*
G36*
X199150000Y-115300000D02*
G01*
X195750000Y-115300000D01*
X195750000Y-111900000D01*
X199150000Y-111900000D01*
X199150000Y-115300000D01*
X199150000Y-115300000D01*
G37*
G36*
X148026707Y-113127597D02*
G01*
X148103836Y-113135193D01*
X148296131Y-113193525D01*
X148301765Y-113195234D01*
X148484170Y-113292732D01*
X148644055Y-113423945D01*
X148775268Y-113583830D01*
X148872766Y-113766235D01*
X148872767Y-113766238D01*
X148932807Y-113964164D01*
X148953080Y-114170000D01*
X148932807Y-114375836D01*
X148894619Y-114501726D01*
X148872766Y-114573765D01*
X148775268Y-114756170D01*
X148644055Y-114916055D01*
X148484170Y-115047268D01*
X148301765Y-115144766D01*
X148301762Y-115144767D01*
X148103836Y-115204807D01*
X148026707Y-115212403D01*
X147949580Y-115220000D01*
X147846420Y-115220000D01*
X147769293Y-115212403D01*
X147692164Y-115204807D01*
X147494238Y-115144767D01*
X147494235Y-115144766D01*
X147311830Y-115047268D01*
X147151945Y-114916055D01*
X147020732Y-114756170D01*
X146923234Y-114573765D01*
X146901381Y-114501726D01*
X146863193Y-114375836D01*
X146842920Y-114170000D01*
X146863193Y-113964164D01*
X146923233Y-113766238D01*
X146923234Y-113766235D01*
X147020732Y-113583830D01*
X147151945Y-113423945D01*
X147311830Y-113292732D01*
X147494235Y-113195234D01*
X147499869Y-113193525D01*
X147692164Y-113135193D01*
X147769293Y-113127597D01*
X147846420Y-113120000D01*
X147949580Y-113120000D01*
X148026707Y-113127597D01*
X148026707Y-113127597D01*
G37*
G36*
X154817529Y-112055710D02*
G01*
X154867378Y-112070831D01*
X154913310Y-112095382D01*
X154953574Y-112128426D01*
X154986618Y-112168690D01*
X155011169Y-112214622D01*
X155026290Y-112264471D01*
X155032000Y-112322444D01*
X155032000Y-113577556D01*
X155026290Y-113635529D01*
X155011169Y-113685378D01*
X154986618Y-113731310D01*
X154953574Y-113771574D01*
X154913310Y-113804618D01*
X154867378Y-113829169D01*
X154817529Y-113844290D01*
X154759556Y-113850000D01*
X153754444Y-113850000D01*
X153696471Y-113844290D01*
X153646622Y-113829169D01*
X153600690Y-113804618D01*
X153560426Y-113771574D01*
X153527382Y-113731310D01*
X153502831Y-113685378D01*
X153487710Y-113635529D01*
X153482000Y-113577556D01*
X153482000Y-112322444D01*
X153487710Y-112264471D01*
X153502831Y-112214622D01*
X153527382Y-112168690D01*
X153560426Y-112128426D01*
X153600690Y-112095382D01*
X153646622Y-112070831D01*
X153696471Y-112055710D01*
X153754444Y-112050000D01*
X154759556Y-112050000D01*
X154817529Y-112055710D01*
X154817529Y-112055710D01*
G37*
G36*
X152767529Y-112055710D02*
G01*
X152817378Y-112070831D01*
X152863310Y-112095382D01*
X152903574Y-112128426D01*
X152936618Y-112168690D01*
X152961169Y-112214622D01*
X152976290Y-112264471D01*
X152982000Y-112322444D01*
X152982000Y-113577556D01*
X152976290Y-113635529D01*
X152961169Y-113685378D01*
X152936618Y-113731310D01*
X152903574Y-113771574D01*
X152863310Y-113804618D01*
X152817378Y-113829169D01*
X152767529Y-113844290D01*
X152709556Y-113850000D01*
X151704444Y-113850000D01*
X151646471Y-113844290D01*
X151596622Y-113829169D01*
X151550690Y-113804618D01*
X151510426Y-113771574D01*
X151477382Y-113731310D01*
X151452831Y-113685378D01*
X151437710Y-113635529D01*
X151432000Y-113577556D01*
X151432000Y-112322444D01*
X151437710Y-112264471D01*
X151452831Y-112214622D01*
X151477382Y-112168690D01*
X151510426Y-112128426D01*
X151550690Y-112095382D01*
X151596622Y-112070831D01*
X151646471Y-112055710D01*
X151704444Y-112050000D01*
X152709556Y-112050000D01*
X152767529Y-112055710D01*
X152767529Y-112055710D01*
G37*
G36*
X173467345Y-111219776D02*
G01*
X173661274Y-111258350D01*
X173852362Y-111337502D01*
X174024336Y-111452411D01*
X174170589Y-111598664D01*
X174285498Y-111770638D01*
X174364650Y-111961726D01*
X174397808Y-112128426D01*
X174405000Y-112164583D01*
X174405000Y-112371417D01*
X174404077Y-112376055D01*
X174364650Y-112574274D01*
X174285498Y-112765362D01*
X174170589Y-112937336D01*
X174024336Y-113083589D01*
X173852362Y-113198498D01*
X173661274Y-113277650D01*
X173483687Y-113312973D01*
X173458417Y-113318000D01*
X173251583Y-113318000D01*
X173226313Y-113312973D01*
X173048726Y-113277650D01*
X172857638Y-113198498D01*
X172685664Y-113083589D01*
X172539411Y-112937336D01*
X172424502Y-112765362D01*
X172345350Y-112574274D01*
X172305923Y-112376055D01*
X172305000Y-112371417D01*
X172305000Y-112164583D01*
X172312192Y-112128426D01*
X172345350Y-111961726D01*
X172424502Y-111770638D01*
X172539411Y-111598664D01*
X172685664Y-111452411D01*
X172857638Y-111337502D01*
X173048726Y-111258350D01*
X173242655Y-111219776D01*
X173251583Y-111218000D01*
X173458417Y-111218000D01*
X173467345Y-111219776D01*
X173467345Y-111219776D01*
G37*
G36*
X158227345Y-111219776D02*
G01*
X158421274Y-111258350D01*
X158612362Y-111337502D01*
X158784336Y-111452411D01*
X158930589Y-111598664D01*
X159045498Y-111770638D01*
X159124650Y-111961726D01*
X159157808Y-112128426D01*
X159165000Y-112164583D01*
X159165000Y-112371417D01*
X159164077Y-112376055D01*
X159124650Y-112574274D01*
X159045498Y-112765362D01*
X158930589Y-112937336D01*
X158784336Y-113083589D01*
X158612362Y-113198498D01*
X158421274Y-113277650D01*
X158243687Y-113312973D01*
X158218417Y-113318000D01*
X158011583Y-113318000D01*
X157986313Y-113312973D01*
X157808726Y-113277650D01*
X157617638Y-113198498D01*
X157445664Y-113083589D01*
X157299411Y-112937336D01*
X157184502Y-112765362D01*
X157105350Y-112574274D01*
X157065923Y-112376055D01*
X157065000Y-112371417D01*
X157065000Y-112164583D01*
X157072192Y-112128426D01*
X157105350Y-111961726D01*
X157184502Y-111770638D01*
X157299411Y-111598664D01*
X157445664Y-111452411D01*
X157617638Y-111337502D01*
X157808726Y-111258350D01*
X158002655Y-111219776D01*
X158011583Y-111218000D01*
X158218417Y-111218000D01*
X158227345Y-111219776D01*
X158227345Y-111219776D01*
G37*
G36*
X177985529Y-111655710D02*
G01*
X178035378Y-111670831D01*
X178081310Y-111695382D01*
X178121574Y-111728426D01*
X178154618Y-111768690D01*
X178179169Y-111814622D01*
X178194290Y-111864471D01*
X178200000Y-111922444D01*
X178200000Y-112927556D01*
X178194290Y-112985529D01*
X178179169Y-113035378D01*
X178154618Y-113081310D01*
X178121574Y-113121574D01*
X178081310Y-113154618D01*
X178035378Y-113179169D01*
X177985529Y-113194290D01*
X177927556Y-113200000D01*
X176672444Y-113200000D01*
X176614471Y-113194290D01*
X176564622Y-113179169D01*
X176518690Y-113154618D01*
X176478426Y-113121574D01*
X176445382Y-113081310D01*
X176420831Y-113035378D01*
X176405710Y-112985529D01*
X176400000Y-112927556D01*
X176400000Y-111922444D01*
X176405710Y-111864471D01*
X176420831Y-111814622D01*
X176445382Y-111768690D01*
X176478426Y-111728426D01*
X176518690Y-111695382D01*
X176564622Y-111670831D01*
X176614471Y-111655710D01*
X176672444Y-111650000D01*
X177927556Y-111650000D01*
X177985529Y-111655710D01*
X177985529Y-111655710D01*
G37*
G36*
X191508561Y-111105757D02*
G01*
X191558865Y-111121016D01*
X191605224Y-111145796D01*
X191645857Y-111179143D01*
X191679204Y-111219776D01*
X191703984Y-111266135D01*
X191719243Y-111316439D01*
X191725000Y-111374890D01*
X191725000Y-112825110D01*
X191719243Y-112883561D01*
X191703984Y-112933865D01*
X191679204Y-112980224D01*
X191645857Y-113020857D01*
X191605224Y-113054204D01*
X191558865Y-113078984D01*
X191508561Y-113094243D01*
X191450110Y-113100000D01*
X188949890Y-113100000D01*
X188891439Y-113094243D01*
X188841135Y-113078984D01*
X188794776Y-113054204D01*
X188754143Y-113020857D01*
X188720796Y-112980224D01*
X188696016Y-112933865D01*
X188680757Y-112883561D01*
X188675000Y-112825110D01*
X188675000Y-111374890D01*
X188680757Y-111316439D01*
X188696016Y-111266135D01*
X188720796Y-111219776D01*
X188754143Y-111179143D01*
X188794776Y-111145796D01*
X188841135Y-111121016D01*
X188891439Y-111105757D01*
X188949890Y-111100000D01*
X191450110Y-111100000D01*
X191508561Y-111105757D01*
X191508561Y-111105757D01*
G37*
G36*
X148026022Y-110587529D02*
G01*
X148103836Y-110595193D01*
X148291918Y-110652247D01*
X148301765Y-110655234D01*
X148484170Y-110752732D01*
X148644055Y-110883945D01*
X148775268Y-111043830D01*
X148872766Y-111226235D01*
X148872767Y-111226238D01*
X148932807Y-111424164D01*
X148953080Y-111630000D01*
X148932807Y-111835836D01*
X148881969Y-112003427D01*
X148872766Y-112033765D01*
X148775268Y-112216170D01*
X148644055Y-112376055D01*
X148484170Y-112507268D01*
X148301765Y-112604766D01*
X148301762Y-112604767D01*
X148103836Y-112664807D01*
X148026707Y-112672404D01*
X147949580Y-112680000D01*
X147846420Y-112680000D01*
X147769293Y-112672404D01*
X147692164Y-112664807D01*
X147494238Y-112604767D01*
X147494235Y-112604766D01*
X147311830Y-112507268D01*
X147151945Y-112376055D01*
X147020732Y-112216170D01*
X146923234Y-112033765D01*
X146914031Y-112003427D01*
X146863193Y-111835836D01*
X146842920Y-111630000D01*
X146863193Y-111424164D01*
X146923233Y-111226238D01*
X146923234Y-111226235D01*
X147020732Y-111043830D01*
X147151945Y-110883945D01*
X147311830Y-110752732D01*
X147494235Y-110655234D01*
X147504082Y-110652247D01*
X147692164Y-110595193D01*
X147769978Y-110587529D01*
X147846420Y-110580000D01*
X147949580Y-110580000D01*
X148026022Y-110587529D01*
X148026022Y-110587529D01*
G37*
G36*
X183045997Y-110158280D02*
G01*
X183057422Y-110159405D01*
X183118684Y-110177989D01*
X183179947Y-110196573D01*
X183292867Y-110256930D01*
X183345709Y-110300296D01*
X183366078Y-110313906D01*
X183388717Y-110323283D01*
X183412750Y-110328063D01*
X183437254Y-110328063D01*
X183461287Y-110323282D01*
X183483926Y-110313905D01*
X183504300Y-110300291D01*
X183521627Y-110282964D01*
X183535241Y-110262589D01*
X183544618Y-110239950D01*
X183550000Y-110203666D01*
X183550000Y-110150000D01*
X184850000Y-110150000D01*
X184850000Y-112050000D01*
X183550000Y-112050000D01*
X183550000Y-111996334D01*
X183547598Y-111971948D01*
X183540485Y-111948499D01*
X183528934Y-111926888D01*
X183513389Y-111907946D01*
X183494447Y-111892401D01*
X183472836Y-111880850D01*
X183449387Y-111873737D01*
X183425001Y-111871335D01*
X183400615Y-111873737D01*
X183377166Y-111880850D01*
X183355555Y-111892401D01*
X183345728Y-111899688D01*
X183292868Y-111943070D01*
X183179948Y-112003427D01*
X183118685Y-112022011D01*
X183057423Y-112040595D01*
X183045998Y-112041720D01*
X182930000Y-112053145D01*
X182814003Y-112041720D01*
X182802578Y-112040595D01*
X182741316Y-112022011D01*
X182680053Y-112003427D01*
X182567133Y-111943070D01*
X182468158Y-111861843D01*
X182391618Y-111768579D01*
X182374300Y-111751261D01*
X182353926Y-111737647D01*
X182331287Y-111728270D01*
X182307254Y-111723489D01*
X182282750Y-111723489D01*
X182258716Y-111728269D01*
X182236077Y-111737646D01*
X182215703Y-111751260D01*
X182198379Y-111768584D01*
X182121843Y-111861843D01*
X182022868Y-111943070D01*
X181909948Y-112003427D01*
X181848685Y-112022011D01*
X181787423Y-112040595D01*
X181775998Y-112041720D01*
X181660000Y-112053145D01*
X181544003Y-112041720D01*
X181532578Y-112040595D01*
X181471316Y-112022011D01*
X181410053Y-112003427D01*
X181297133Y-111943070D01*
X181198158Y-111861843D01*
X181116931Y-111762868D01*
X181056573Y-111649948D01*
X181019405Y-111527422D01*
X181010000Y-111431932D01*
X181010000Y-110768069D01*
X181019405Y-110672579D01*
X181024667Y-110655234D01*
X181056573Y-110550054D01*
X181056573Y-110550053D01*
X181116930Y-110437133D01*
X181198157Y-110338157D01*
X181297132Y-110256930D01*
X181410052Y-110196573D01*
X181471315Y-110177989D01*
X181532577Y-110159405D01*
X181544002Y-110158280D01*
X181660000Y-110146855D01*
X181775997Y-110158280D01*
X181787422Y-110159405D01*
X181848684Y-110177989D01*
X181909947Y-110196573D01*
X182022867Y-110256930D01*
X182121843Y-110338157D01*
X182198383Y-110431421D01*
X182215701Y-110448739D01*
X182236075Y-110462353D01*
X182258714Y-110471730D01*
X182282747Y-110476511D01*
X182307251Y-110476511D01*
X182331285Y-110471731D01*
X182353924Y-110462354D01*
X182374298Y-110448740D01*
X182391621Y-110431417D01*
X182468157Y-110338157D01*
X182567132Y-110256930D01*
X182680052Y-110196573D01*
X182741315Y-110177989D01*
X182802577Y-110159405D01*
X182814002Y-110158280D01*
X182930000Y-110146855D01*
X183045997Y-110158280D01*
X183045997Y-110158280D01*
G37*
G36*
X177985529Y-109605710D02*
G01*
X178035378Y-109620831D01*
X178081310Y-109645382D01*
X178121574Y-109678426D01*
X178154618Y-109718690D01*
X178179169Y-109764622D01*
X178194290Y-109814471D01*
X178200000Y-109872444D01*
X178200000Y-110877556D01*
X178194290Y-110935529D01*
X178179169Y-110985378D01*
X178154618Y-111031310D01*
X178121574Y-111071574D01*
X178081310Y-111104618D01*
X178035378Y-111129169D01*
X177985529Y-111144290D01*
X177927556Y-111150000D01*
X176672444Y-111150000D01*
X176614471Y-111144290D01*
X176564622Y-111129169D01*
X176518690Y-111104618D01*
X176478426Y-111071574D01*
X176445382Y-111031310D01*
X176420831Y-110985378D01*
X176405710Y-110935529D01*
X176400000Y-110877556D01*
X176400000Y-109872444D01*
X176405710Y-109814471D01*
X176420831Y-109764622D01*
X176445382Y-109718690D01*
X176478426Y-109678426D01*
X176518690Y-109645382D01*
X176564622Y-109620831D01*
X176614471Y-109605710D01*
X176672444Y-109600000D01*
X177927556Y-109600000D01*
X177985529Y-109605710D01*
X177985529Y-109605710D01*
G37*
G36*
X152767529Y-109007710D02*
G01*
X152817378Y-109022831D01*
X152863310Y-109047382D01*
X152903574Y-109080426D01*
X152936618Y-109120690D01*
X152961169Y-109166622D01*
X152976290Y-109216471D01*
X152982000Y-109274444D01*
X152982000Y-110529556D01*
X152976290Y-110587529D01*
X152961169Y-110637378D01*
X152936618Y-110683310D01*
X152903574Y-110723574D01*
X152863310Y-110756618D01*
X152817378Y-110781169D01*
X152767529Y-110796290D01*
X152709556Y-110802000D01*
X151704444Y-110802000D01*
X151646471Y-110796290D01*
X151596622Y-110781169D01*
X151550690Y-110756618D01*
X151510426Y-110723574D01*
X151477382Y-110683310D01*
X151452831Y-110637378D01*
X151437710Y-110587529D01*
X151432000Y-110529556D01*
X151432000Y-109274444D01*
X151437710Y-109216471D01*
X151452831Y-109166622D01*
X151477382Y-109120690D01*
X151510426Y-109080426D01*
X151550690Y-109047382D01*
X151596622Y-109022831D01*
X151646471Y-109007710D01*
X151704444Y-109002000D01*
X152709556Y-109002000D01*
X152767529Y-109007710D01*
X152767529Y-109007710D01*
G37*
G36*
X154817529Y-109007710D02*
G01*
X154867378Y-109022831D01*
X154913310Y-109047382D01*
X154953574Y-109080426D01*
X154986618Y-109120690D01*
X155011169Y-109166622D01*
X155026290Y-109216471D01*
X155032000Y-109274444D01*
X155032000Y-110529556D01*
X155026290Y-110587529D01*
X155011169Y-110637378D01*
X154986618Y-110683310D01*
X154953574Y-110723574D01*
X154913310Y-110756618D01*
X154867378Y-110781169D01*
X154817529Y-110796290D01*
X154759556Y-110802000D01*
X153754444Y-110802000D01*
X153696471Y-110796290D01*
X153646622Y-110781169D01*
X153600690Y-110756618D01*
X153560426Y-110723574D01*
X153527382Y-110683310D01*
X153502831Y-110637378D01*
X153487710Y-110587529D01*
X153482000Y-110529556D01*
X153482000Y-109274444D01*
X153487710Y-109216471D01*
X153502831Y-109166622D01*
X153527382Y-109120690D01*
X153560426Y-109080426D01*
X153600690Y-109047382D01*
X153646622Y-109022831D01*
X153696471Y-109007710D01*
X153754444Y-109002000D01*
X154759556Y-109002000D01*
X154817529Y-109007710D01*
X154817529Y-109007710D01*
G37*
G36*
X173483687Y-108683027D02*
G01*
X173661274Y-108718350D01*
X173852362Y-108797502D01*
X174024336Y-108912411D01*
X174170589Y-109058664D01*
X174285498Y-109230638D01*
X174364650Y-109421726D01*
X174399973Y-109599313D01*
X174405000Y-109624583D01*
X174405000Y-109831417D01*
X174404077Y-109836055D01*
X174364650Y-110034274D01*
X174285498Y-110225362D01*
X174170589Y-110397336D01*
X174024336Y-110543589D01*
X173852362Y-110658498D01*
X173661274Y-110737650D01*
X173483687Y-110772973D01*
X173458417Y-110778000D01*
X173251583Y-110778000D01*
X173226313Y-110772973D01*
X173048726Y-110737650D01*
X172857638Y-110658498D01*
X172685664Y-110543589D01*
X172539411Y-110397336D01*
X172424502Y-110225362D01*
X172345350Y-110034274D01*
X172305923Y-109836055D01*
X172305000Y-109831417D01*
X172305000Y-109624583D01*
X172310027Y-109599313D01*
X172345350Y-109421726D01*
X172424502Y-109230638D01*
X172539411Y-109058664D01*
X172685664Y-108912411D01*
X172857638Y-108797502D01*
X173048726Y-108718350D01*
X173226313Y-108683027D01*
X173251583Y-108678000D01*
X173458417Y-108678000D01*
X173483687Y-108683027D01*
X173483687Y-108683027D01*
G37*
G36*
X158243687Y-108683027D02*
G01*
X158421274Y-108718350D01*
X158612362Y-108797502D01*
X158784336Y-108912411D01*
X158930589Y-109058664D01*
X159045498Y-109230638D01*
X159124650Y-109421726D01*
X159159973Y-109599313D01*
X159165000Y-109624583D01*
X159165000Y-109831417D01*
X159164077Y-109836055D01*
X159124650Y-110034274D01*
X159045498Y-110225362D01*
X158930589Y-110397336D01*
X158784336Y-110543589D01*
X158612362Y-110658498D01*
X158421274Y-110737650D01*
X158243687Y-110772973D01*
X158218417Y-110778000D01*
X158011583Y-110778000D01*
X157986313Y-110772973D01*
X157808726Y-110737650D01*
X157617638Y-110658498D01*
X157445664Y-110543589D01*
X157299411Y-110397336D01*
X157184502Y-110225362D01*
X157105350Y-110034274D01*
X157065923Y-109836055D01*
X157065000Y-109831417D01*
X157065000Y-109624583D01*
X157070027Y-109599313D01*
X157105350Y-109421726D01*
X157184502Y-109230638D01*
X157299411Y-109058664D01*
X157445664Y-108912411D01*
X157617638Y-108797502D01*
X157808726Y-108718350D01*
X157986313Y-108683027D01*
X158011583Y-108678000D01*
X158218417Y-108678000D01*
X158243687Y-108683027D01*
X158243687Y-108683027D01*
G37*
G36*
X197781654Y-106852665D02*
G01*
X197945872Y-106885330D01*
X198255252Y-107013479D01*
X198533687Y-107199523D01*
X198770477Y-107436313D01*
X198956521Y-107714748D01*
X199084670Y-108024128D01*
X199117335Y-108188347D01*
X199150000Y-108352563D01*
X199150000Y-108687437D01*
X199117335Y-108851654D01*
X199084670Y-109015872D01*
X198956521Y-109325252D01*
X198770477Y-109603687D01*
X198533687Y-109840477D01*
X198255252Y-110026521D01*
X197945872Y-110154670D01*
X197781654Y-110187335D01*
X197617437Y-110220000D01*
X197282563Y-110220000D01*
X197118346Y-110187335D01*
X196954128Y-110154670D01*
X196644748Y-110026521D01*
X196366313Y-109840477D01*
X196129523Y-109603687D01*
X195943479Y-109325252D01*
X195815330Y-109015872D01*
X195782665Y-108851654D01*
X195750000Y-108687437D01*
X195750000Y-108352563D01*
X195782665Y-108188347D01*
X195815330Y-108024128D01*
X195943479Y-107714748D01*
X196129523Y-107436313D01*
X196366313Y-107199523D01*
X196644748Y-107013479D01*
X196954128Y-106885330D01*
X197118346Y-106852665D01*
X197282563Y-106820000D01*
X197617437Y-106820000D01*
X197781654Y-106852665D01*
X197781654Y-106852665D01*
G37*
G36*
X148026707Y-108047596D02*
G01*
X148103836Y-108055193D01*
X148251545Y-108100000D01*
X148301765Y-108115234D01*
X148484170Y-108212732D01*
X148644055Y-108343945D01*
X148775268Y-108503830D01*
X148872766Y-108686235D01*
X148872767Y-108686238D01*
X148932807Y-108884164D01*
X148953080Y-109090000D01*
X148932807Y-109295836D01*
X148894619Y-109421726D01*
X148872766Y-109493765D01*
X148775268Y-109676170D01*
X148644055Y-109836055D01*
X148484170Y-109967268D01*
X148301765Y-110064766D01*
X148301762Y-110064767D01*
X148103836Y-110124807D01*
X148026707Y-110132404D01*
X147949580Y-110140000D01*
X147846420Y-110140000D01*
X147769293Y-110132404D01*
X147692164Y-110124807D01*
X147494238Y-110064767D01*
X147494235Y-110064766D01*
X147311830Y-109967268D01*
X147151945Y-109836055D01*
X147020732Y-109676170D01*
X146923234Y-109493765D01*
X146901381Y-109421726D01*
X146863193Y-109295836D01*
X146842920Y-109090000D01*
X146863193Y-108884164D01*
X146923233Y-108686238D01*
X146923234Y-108686235D01*
X147020732Y-108503830D01*
X147151945Y-108343945D01*
X147311830Y-108212732D01*
X147494235Y-108115234D01*
X147544455Y-108100000D01*
X147692164Y-108055193D01*
X147769293Y-108047596D01*
X147846420Y-108040000D01*
X147949580Y-108040000D01*
X148026707Y-108047596D01*
X148026707Y-108047596D01*
G37*
G36*
X191508561Y-107905757D02*
G01*
X191558865Y-107921016D01*
X191605224Y-107945796D01*
X191645857Y-107979143D01*
X191679204Y-108019776D01*
X191703984Y-108066135D01*
X191719243Y-108116439D01*
X191725000Y-108174890D01*
X191725000Y-109625110D01*
X191719243Y-109683561D01*
X191703984Y-109733865D01*
X191679204Y-109780224D01*
X191645857Y-109820857D01*
X191605224Y-109854204D01*
X191558865Y-109878984D01*
X191508561Y-109894243D01*
X191450110Y-109900000D01*
X188949890Y-109900000D01*
X188891439Y-109894243D01*
X188841135Y-109878984D01*
X188794776Y-109854204D01*
X188754143Y-109820857D01*
X188720796Y-109780224D01*
X188696016Y-109733865D01*
X188680757Y-109683561D01*
X188675000Y-109625110D01*
X188675000Y-108174890D01*
X188680757Y-108116439D01*
X188696016Y-108066135D01*
X188720796Y-108019776D01*
X188754143Y-107979143D01*
X188794776Y-107945796D01*
X188841135Y-107921016D01*
X188891439Y-107905757D01*
X188949890Y-107900000D01*
X191450110Y-107900000D01*
X191508561Y-107905757D01*
X191508561Y-107905757D01*
G37*
G36*
X173483687Y-106143027D02*
G01*
X173661274Y-106178350D01*
X173852362Y-106257502D01*
X174024336Y-106372411D01*
X174170589Y-106518664D01*
X174285498Y-106690638D01*
X174364650Y-106881726D01*
X174405000Y-107084584D01*
X174405000Y-107291416D01*
X174364650Y-107494274D01*
X174285498Y-107685362D01*
X174170589Y-107857336D01*
X174024336Y-108003589D01*
X173852362Y-108118498D01*
X173661274Y-108197650D01*
X173483687Y-108232973D01*
X173458417Y-108238000D01*
X173251583Y-108238000D01*
X173226313Y-108232973D01*
X173048726Y-108197650D01*
X172857638Y-108118498D01*
X172685664Y-108003589D01*
X172539411Y-107857336D01*
X172424502Y-107685362D01*
X172345350Y-107494274D01*
X172305000Y-107291416D01*
X172305000Y-107084584D01*
X172345350Y-106881726D01*
X172424502Y-106690638D01*
X172539411Y-106518664D01*
X172685664Y-106372411D01*
X172857638Y-106257502D01*
X173048726Y-106178350D01*
X173226313Y-106143027D01*
X173251583Y-106138000D01*
X173458417Y-106138000D01*
X173483687Y-106143027D01*
X173483687Y-106143027D01*
G37*
G36*
X158243687Y-106143027D02*
G01*
X158421274Y-106178350D01*
X158612362Y-106257502D01*
X158784336Y-106372411D01*
X158930589Y-106518664D01*
X159045498Y-106690638D01*
X159124650Y-106881726D01*
X159165000Y-107084584D01*
X159165000Y-107291416D01*
X159124650Y-107494274D01*
X159045498Y-107685362D01*
X158930589Y-107857336D01*
X158784336Y-108003589D01*
X158612362Y-108118498D01*
X158421274Y-108197650D01*
X158243687Y-108232973D01*
X158218417Y-108238000D01*
X158011583Y-108238000D01*
X157986313Y-108232973D01*
X157808726Y-108197650D01*
X157617638Y-108118498D01*
X157445664Y-108003589D01*
X157299411Y-107857336D01*
X157184502Y-107685362D01*
X157105350Y-107494274D01*
X157065000Y-107291416D01*
X157065000Y-107084584D01*
X157105350Y-106881726D01*
X157184502Y-106690638D01*
X157299411Y-106518664D01*
X157445664Y-106372411D01*
X157617638Y-106257502D01*
X157808726Y-106178350D01*
X157986313Y-106143027D01*
X158011583Y-106138000D01*
X158218417Y-106138000D01*
X158243687Y-106143027D01*
X158243687Y-106143027D01*
G37*
G36*
X177985529Y-106555710D02*
G01*
X178035378Y-106570831D01*
X178081310Y-106595382D01*
X178121574Y-106628426D01*
X178154618Y-106668690D01*
X178179169Y-106714622D01*
X178194290Y-106764471D01*
X178200000Y-106822444D01*
X178200000Y-107827556D01*
X178194290Y-107885529D01*
X178179169Y-107935378D01*
X178154618Y-107981310D01*
X178121574Y-108021574D01*
X178081310Y-108054618D01*
X178035378Y-108079169D01*
X177985529Y-108094290D01*
X177927556Y-108100000D01*
X176672444Y-108100000D01*
X176614471Y-108094290D01*
X176564622Y-108079169D01*
X176518690Y-108054618D01*
X176478426Y-108021574D01*
X176445382Y-107981310D01*
X176420831Y-107935378D01*
X176405710Y-107885529D01*
X176400000Y-107827556D01*
X176400000Y-106822444D01*
X176405710Y-106764471D01*
X176420831Y-106714622D01*
X176445382Y-106668690D01*
X176478426Y-106628426D01*
X176518690Y-106595382D01*
X176564622Y-106570831D01*
X176614471Y-106555710D01*
X176672444Y-106550000D01*
X177927556Y-106550000D01*
X177985529Y-106555710D01*
X177985529Y-106555710D01*
G37*
G36*
X154817529Y-105959710D02*
G01*
X154867378Y-105974831D01*
X154913310Y-105999382D01*
X154953574Y-106032426D01*
X154986618Y-106072690D01*
X155011169Y-106118622D01*
X155026290Y-106168471D01*
X155032000Y-106226444D01*
X155032000Y-107481556D01*
X155026290Y-107539529D01*
X155011169Y-107589378D01*
X154986618Y-107635310D01*
X154953574Y-107675574D01*
X154913310Y-107708618D01*
X154867378Y-107733169D01*
X154817529Y-107748290D01*
X154759556Y-107754000D01*
X153754444Y-107754000D01*
X153696471Y-107748290D01*
X153646622Y-107733169D01*
X153600690Y-107708618D01*
X153560426Y-107675574D01*
X153527382Y-107635310D01*
X153502831Y-107589378D01*
X153487710Y-107539529D01*
X153482000Y-107481556D01*
X153482000Y-106226444D01*
X153487710Y-106168471D01*
X153502831Y-106118622D01*
X153527382Y-106072690D01*
X153560426Y-106032426D01*
X153600690Y-105999382D01*
X153646622Y-105974831D01*
X153696471Y-105959710D01*
X153754444Y-105954000D01*
X154759556Y-105954000D01*
X154817529Y-105959710D01*
X154817529Y-105959710D01*
G37*
G36*
X152767529Y-105959710D02*
G01*
X152817378Y-105974831D01*
X152863310Y-105999382D01*
X152903574Y-106032426D01*
X152936618Y-106072690D01*
X152961169Y-106118622D01*
X152976290Y-106168471D01*
X152982000Y-106226444D01*
X152982000Y-107481556D01*
X152976290Y-107539529D01*
X152961169Y-107589378D01*
X152936618Y-107635310D01*
X152903574Y-107675574D01*
X152863310Y-107708618D01*
X152817378Y-107733169D01*
X152767529Y-107748290D01*
X152709556Y-107754000D01*
X151704444Y-107754000D01*
X151646471Y-107748290D01*
X151596622Y-107733169D01*
X151550690Y-107708618D01*
X151510426Y-107675574D01*
X151477382Y-107635310D01*
X151452831Y-107589378D01*
X151437710Y-107539529D01*
X151432000Y-107481556D01*
X151432000Y-106226444D01*
X151437710Y-106168471D01*
X151452831Y-106118622D01*
X151477382Y-106072690D01*
X151510426Y-106032426D01*
X151550690Y-105999382D01*
X151596622Y-105974831D01*
X151646471Y-105959710D01*
X151704444Y-105954000D01*
X152709556Y-105954000D01*
X152767529Y-105959710D01*
X152767529Y-105959710D01*
G37*
G36*
X148948000Y-107600000D02*
G01*
X146848000Y-107600000D01*
X146848000Y-105500000D01*
X148948000Y-105500000D01*
X148948000Y-107600000D01*
X148948000Y-107600000D01*
G37*
G36*
X177985529Y-104505710D02*
G01*
X178035378Y-104520831D01*
X178081310Y-104545382D01*
X178121574Y-104578426D01*
X178154618Y-104618690D01*
X178179169Y-104664622D01*
X178194290Y-104714471D01*
X178200000Y-104772444D01*
X178200000Y-105777556D01*
X178194290Y-105835529D01*
X178179169Y-105885378D01*
X178154618Y-105931310D01*
X178121574Y-105971574D01*
X178081310Y-106004618D01*
X178035378Y-106029169D01*
X177985529Y-106044290D01*
X177927556Y-106050000D01*
X176672444Y-106050000D01*
X176614471Y-106044290D01*
X176564622Y-106029169D01*
X176518690Y-106004618D01*
X176478426Y-105971574D01*
X176445382Y-105931310D01*
X176420831Y-105885378D01*
X176405710Y-105835529D01*
X176400000Y-105777556D01*
X176400000Y-104772444D01*
X176405710Y-104714471D01*
X176420831Y-104664622D01*
X176445382Y-104618690D01*
X176478426Y-104578426D01*
X176518690Y-104545382D01*
X176564622Y-104520831D01*
X176614471Y-104505710D01*
X176672444Y-104500000D01*
X177927556Y-104500000D01*
X177985529Y-104505710D01*
X177985529Y-104505710D01*
G37*
G36*
X184116991Y-98378617D02*
G01*
X184173429Y-98384176D01*
X184361775Y-98441310D01*
X184390679Y-98450078D01*
X184548342Y-98534351D01*
X184590893Y-98557095D01*
X184636607Y-98594612D01*
X184766384Y-98701116D01*
X184872888Y-98830893D01*
X184910405Y-98876607D01*
X184910406Y-98876609D01*
X185017422Y-99076821D01*
X185017423Y-99076824D01*
X185083324Y-99294071D01*
X185105576Y-99520000D01*
X185083324Y-99745929D01*
X185044391Y-99874274D01*
X185017422Y-99963179D01*
X184934247Y-100118787D01*
X184910405Y-100163393D01*
X184872888Y-100209107D01*
X184766384Y-100338884D01*
X184649030Y-100435193D01*
X184590893Y-100482905D01*
X184590891Y-100482906D01*
X184390679Y-100589922D01*
X184390676Y-100589923D01*
X184173429Y-100655824D01*
X184163651Y-100656787D01*
X184074141Y-100665603D01*
X184050108Y-100670383D01*
X184027469Y-100679761D01*
X184007094Y-100693375D01*
X183989767Y-100710702D01*
X183976154Y-100731076D01*
X183966776Y-100753715D01*
X183961996Y-100777748D01*
X183961996Y-100802252D01*
X183966776Y-100826285D01*
X183976154Y-100848924D01*
X183989768Y-100869299D01*
X184007095Y-100886626D01*
X184027469Y-100900239D01*
X184050108Y-100909617D01*
X184074141Y-100914397D01*
X184173429Y-100924176D01*
X184390676Y-100990077D01*
X184390679Y-100990078D01*
X184570344Y-101086112D01*
X184590893Y-101097095D01*
X184592423Y-101098351D01*
X184766384Y-101241116D01*
X184872888Y-101370893D01*
X184910405Y-101416607D01*
X184910406Y-101416609D01*
X185017422Y-101616821D01*
X185017423Y-101616824D01*
X185083324Y-101834071D01*
X185105576Y-102060000D01*
X185083324Y-102285929D01*
X185027235Y-102470831D01*
X185017422Y-102503179D01*
X184982405Y-102568690D01*
X184910405Y-102703393D01*
X184895775Y-102721219D01*
X184766384Y-102878884D01*
X184636607Y-102985388D01*
X184590893Y-103022905D01*
X184590891Y-103022906D01*
X184390679Y-103129922D01*
X184390676Y-103129923D01*
X184173429Y-103195824D01*
X184150278Y-103198104D01*
X184126245Y-103202885D01*
X184103607Y-103212262D01*
X184083232Y-103225876D01*
X184065905Y-103243203D01*
X184052292Y-103263577D01*
X184042914Y-103286216D01*
X184038134Y-103310249D01*
X184038134Y-103334753D01*
X184042915Y-103358787D01*
X184052292Y-103381425D01*
X184065906Y-103401800D01*
X184083233Y-103419127D01*
X184103607Y-103432740D01*
X184126246Y-103442118D01*
X184162531Y-103447500D01*
X185100000Y-103447500D01*
X185100000Y-105752500D01*
X182700000Y-105752500D01*
X182700000Y-103447500D01*
X183637469Y-103447500D01*
X183661855Y-103445098D01*
X183685304Y-103437985D01*
X183706915Y-103426434D01*
X183725857Y-103410889D01*
X183741402Y-103391947D01*
X183752953Y-103370336D01*
X183760066Y-103346887D01*
X183762468Y-103322501D01*
X183760066Y-103298115D01*
X183752953Y-103274666D01*
X183741402Y-103253055D01*
X183725857Y-103234113D01*
X183706915Y-103218568D01*
X183685304Y-103207017D01*
X183649721Y-103198104D01*
X183626571Y-103195824D01*
X183409324Y-103129923D01*
X183409321Y-103129922D01*
X183209109Y-103022906D01*
X183209107Y-103022905D01*
X183163393Y-102985388D01*
X183033616Y-102878884D01*
X182904225Y-102721219D01*
X182889595Y-102703393D01*
X182817595Y-102568690D01*
X182782578Y-102503179D01*
X182772765Y-102470831D01*
X182716676Y-102285929D01*
X182694424Y-102060000D01*
X182716676Y-101834071D01*
X182782577Y-101616824D01*
X182782578Y-101616821D01*
X182889594Y-101416609D01*
X182889595Y-101416607D01*
X182927112Y-101370893D01*
X183033616Y-101241116D01*
X183207577Y-101098351D01*
X183209107Y-101097095D01*
X183229656Y-101086112D01*
X183409321Y-100990078D01*
X183409324Y-100990077D01*
X183626571Y-100924176D01*
X183725859Y-100914397D01*
X183749892Y-100909617D01*
X183772531Y-100900239D01*
X183792906Y-100886625D01*
X183810233Y-100869298D01*
X183823846Y-100848924D01*
X183833224Y-100826285D01*
X183838004Y-100802252D01*
X183838004Y-100777748D01*
X183833224Y-100753715D01*
X183823846Y-100731076D01*
X183810232Y-100710701D01*
X183792905Y-100693374D01*
X183772531Y-100679761D01*
X183749892Y-100670383D01*
X183725859Y-100665603D01*
X183636349Y-100656787D01*
X183626571Y-100655824D01*
X183409324Y-100589923D01*
X183409321Y-100589922D01*
X183209109Y-100482906D01*
X183209107Y-100482905D01*
X183150970Y-100435193D01*
X183033616Y-100338884D01*
X182927112Y-100209107D01*
X182889595Y-100163393D01*
X182865753Y-100118787D01*
X182782578Y-99963179D01*
X182755609Y-99874274D01*
X182716676Y-99745929D01*
X182694424Y-99520000D01*
X182716676Y-99294071D01*
X182782577Y-99076824D01*
X182782578Y-99076821D01*
X182889594Y-98876609D01*
X182889595Y-98876607D01*
X182927112Y-98830893D01*
X183033616Y-98701116D01*
X183163393Y-98594612D01*
X183209107Y-98557095D01*
X183251658Y-98534351D01*
X183409321Y-98450078D01*
X183438225Y-98441310D01*
X183626571Y-98384176D01*
X183683009Y-98378617D01*
X183795884Y-98367500D01*
X184004116Y-98367500D01*
X184116991Y-98378617D01*
X184116991Y-98378617D01*
G37*
G36*
X173483687Y-103603027D02*
G01*
X173661274Y-103638350D01*
X173852362Y-103717502D01*
X174024336Y-103832411D01*
X174170589Y-103978664D01*
X174285498Y-104150638D01*
X174364650Y-104341726D01*
X174405000Y-104544584D01*
X174405000Y-104751416D01*
X174364650Y-104954274D01*
X174285498Y-105145362D01*
X174170589Y-105317336D01*
X174024336Y-105463589D01*
X173852362Y-105578498D01*
X173661274Y-105657650D01*
X173483687Y-105692973D01*
X173458417Y-105698000D01*
X173251583Y-105698000D01*
X173226313Y-105692973D01*
X173048726Y-105657650D01*
X172857638Y-105578498D01*
X172685664Y-105463589D01*
X172539411Y-105317336D01*
X172424502Y-105145362D01*
X172345350Y-104954274D01*
X172305000Y-104751416D01*
X172305000Y-104544584D01*
X172345350Y-104341726D01*
X172424502Y-104150638D01*
X172539411Y-103978664D01*
X172685664Y-103832411D01*
X172857638Y-103717502D01*
X173048726Y-103638350D01*
X173226313Y-103603027D01*
X173251583Y-103598000D01*
X173458417Y-103598000D01*
X173483687Y-103603027D01*
X173483687Y-103603027D01*
G37*
G36*
X158243687Y-103603027D02*
G01*
X158421274Y-103638350D01*
X158612362Y-103717502D01*
X158784336Y-103832411D01*
X158930589Y-103978664D01*
X159045498Y-104150638D01*
X159124650Y-104341726D01*
X159165000Y-104544584D01*
X159165000Y-104751416D01*
X159124650Y-104954274D01*
X159045498Y-105145362D01*
X158930589Y-105317336D01*
X158784336Y-105463589D01*
X158612362Y-105578498D01*
X158421274Y-105657650D01*
X158243687Y-105692973D01*
X158218417Y-105698000D01*
X158011583Y-105698000D01*
X157986313Y-105692973D01*
X157808726Y-105657650D01*
X157617638Y-105578498D01*
X157445664Y-105463589D01*
X157299411Y-105317336D01*
X157184502Y-105145362D01*
X157105350Y-104954274D01*
X157065000Y-104751416D01*
X157065000Y-104544584D01*
X157105350Y-104341726D01*
X157184502Y-104150638D01*
X157299411Y-103978664D01*
X157445664Y-103832411D01*
X157617638Y-103717502D01*
X157808726Y-103638350D01*
X157986313Y-103603027D01*
X158011583Y-103598000D01*
X158218417Y-103598000D01*
X158243687Y-103603027D01*
X158243687Y-103603027D01*
G37*
G36*
X197781654Y-101832665D02*
G01*
X197945872Y-101865330D01*
X198255252Y-101993479D01*
X198533687Y-102179523D01*
X198770477Y-102416313D01*
X198956521Y-102694748D01*
X199084670Y-103004128D01*
X199107251Y-103117649D01*
X199147999Y-103322501D01*
X199150000Y-103332565D01*
X199150000Y-103667435D01*
X199084670Y-103995872D01*
X198956521Y-104305252D01*
X198770477Y-104583687D01*
X198533687Y-104820477D01*
X198255252Y-105006521D01*
X197945872Y-105134670D01*
X197781654Y-105167335D01*
X197617437Y-105200000D01*
X197282563Y-105200000D01*
X197118347Y-105167335D01*
X196954128Y-105134670D01*
X196644748Y-105006521D01*
X196366313Y-104820477D01*
X196129523Y-104583687D01*
X195943479Y-104305252D01*
X195815330Y-103995872D01*
X195750000Y-103667435D01*
X195750000Y-103332565D01*
X195752002Y-103322501D01*
X195792749Y-103117649D01*
X195815330Y-103004128D01*
X195943479Y-102694748D01*
X196129523Y-102416313D01*
X196366313Y-102179523D01*
X196644748Y-101993479D01*
X196954128Y-101865330D01*
X197118347Y-101832665D01*
X197282563Y-101800000D01*
X197617437Y-101800000D01*
X197781654Y-101832665D01*
X197781654Y-101832665D01*
G37*
G36*
X191100000Y-104150000D02*
G01*
X188900000Y-104150000D01*
X188900000Y-101250000D01*
X191100000Y-101250000D01*
X191100000Y-104150000D01*
X191100000Y-104150000D01*
G37*
G36*
X177985529Y-102455710D02*
G01*
X178035378Y-102470831D01*
X178081310Y-102495382D01*
X178121574Y-102528426D01*
X178154618Y-102568690D01*
X178179169Y-102614622D01*
X178194290Y-102664471D01*
X178200000Y-102722444D01*
X178200000Y-103727556D01*
X178194290Y-103785529D01*
X178179169Y-103835378D01*
X178154618Y-103881310D01*
X178121574Y-103921574D01*
X178081310Y-103954618D01*
X178035378Y-103979169D01*
X177985529Y-103994290D01*
X177927556Y-104000000D01*
X176672444Y-104000000D01*
X176614471Y-103994290D01*
X176564622Y-103979169D01*
X176518690Y-103954618D01*
X176478426Y-103921574D01*
X176445382Y-103881310D01*
X176420831Y-103835378D01*
X176405710Y-103785529D01*
X176400000Y-103727556D01*
X176400000Y-102722444D01*
X176405710Y-102664471D01*
X176420831Y-102614622D01*
X176445382Y-102568690D01*
X176478426Y-102528426D01*
X176518690Y-102495382D01*
X176564622Y-102470831D01*
X176614471Y-102455710D01*
X176672444Y-102450000D01*
X177927556Y-102450000D01*
X177985529Y-102455710D01*
X177985529Y-102455710D01*
G37*
G36*
X173483687Y-101063027D02*
G01*
X173661274Y-101098350D01*
X173852362Y-101177502D01*
X174024336Y-101292411D01*
X174170589Y-101438664D01*
X174285498Y-101610638D01*
X174364650Y-101801726D01*
X174389041Y-101924351D01*
X174405000Y-102004583D01*
X174405000Y-102211417D01*
X174404077Y-102216055D01*
X174364650Y-102414274D01*
X174285498Y-102605362D01*
X174170589Y-102777336D01*
X174024336Y-102923589D01*
X173852362Y-103038498D01*
X173661274Y-103117650D01*
X173483687Y-103152973D01*
X173458417Y-103158000D01*
X173251583Y-103158000D01*
X173226313Y-103152973D01*
X173048726Y-103117650D01*
X172857638Y-103038498D01*
X172685664Y-102923589D01*
X172539411Y-102777336D01*
X172424502Y-102605362D01*
X172345350Y-102414274D01*
X172305923Y-102216055D01*
X172305000Y-102211417D01*
X172305000Y-102004583D01*
X172320959Y-101924351D01*
X172345350Y-101801726D01*
X172424502Y-101610638D01*
X172539411Y-101438664D01*
X172685664Y-101292411D01*
X172857638Y-101177502D01*
X173048726Y-101098350D01*
X173226313Y-101063027D01*
X173251583Y-101058000D01*
X173458417Y-101058000D01*
X173483687Y-101063027D01*
X173483687Y-101063027D01*
G37*
G36*
X158243687Y-101063027D02*
G01*
X158421274Y-101098350D01*
X158612362Y-101177502D01*
X158784336Y-101292411D01*
X158930589Y-101438664D01*
X159045498Y-101610638D01*
X159124650Y-101801726D01*
X159149041Y-101924351D01*
X159165000Y-102004583D01*
X159165000Y-102211417D01*
X159164077Y-102216055D01*
X159124650Y-102414274D01*
X159045498Y-102605362D01*
X158930589Y-102777336D01*
X158784336Y-102923589D01*
X158612362Y-103038498D01*
X158421274Y-103117650D01*
X158243687Y-103152973D01*
X158218417Y-103158000D01*
X158011583Y-103158000D01*
X157986313Y-103152973D01*
X157808726Y-103117650D01*
X157617638Y-103038498D01*
X157445664Y-102923589D01*
X157299411Y-102777336D01*
X157184502Y-102605362D01*
X157105350Y-102414274D01*
X157065923Y-102216055D01*
X157065000Y-102211417D01*
X157065000Y-102004583D01*
X157080959Y-101924351D01*
X157105350Y-101801726D01*
X157184502Y-101610638D01*
X157299411Y-101438664D01*
X157445664Y-101292411D01*
X157617638Y-101177502D01*
X157808726Y-101098350D01*
X157986313Y-101063027D01*
X158011583Y-101058000D01*
X158218417Y-101058000D01*
X158243687Y-101063027D01*
X158243687Y-101063027D01*
G37*
G36*
X148006934Y-100425649D02*
G01*
X148103836Y-100435193D01*
X148261125Y-100482906D01*
X148301765Y-100495234D01*
X148484170Y-100592732D01*
X148644055Y-100723945D01*
X148775268Y-100883830D01*
X148872766Y-101066235D01*
X148872767Y-101066238D01*
X148932807Y-101264164D01*
X148953080Y-101470000D01*
X148932807Y-101675836D01*
X148884807Y-101834071D01*
X148872766Y-101873765D01*
X148775268Y-102056170D01*
X148644055Y-102216055D01*
X148484170Y-102347268D01*
X148301765Y-102444766D01*
X148301762Y-102444767D01*
X148103836Y-102504807D01*
X148026707Y-102512404D01*
X147949580Y-102520000D01*
X147846420Y-102520000D01*
X147769293Y-102512403D01*
X147692164Y-102504807D01*
X147494238Y-102444767D01*
X147494235Y-102444766D01*
X147311830Y-102347268D01*
X147151945Y-102216055D01*
X147020732Y-102056170D01*
X146923234Y-101873765D01*
X146911193Y-101834071D01*
X146863193Y-101675836D01*
X146842920Y-101470000D01*
X146863193Y-101264164D01*
X146923233Y-101066238D01*
X146923234Y-101066235D01*
X147020732Y-100883830D01*
X147151945Y-100723945D01*
X147311830Y-100592732D01*
X147494235Y-100495234D01*
X147534875Y-100482906D01*
X147692164Y-100435193D01*
X147789066Y-100425649D01*
X147846420Y-100420000D01*
X147949580Y-100420000D01*
X148006934Y-100425649D01*
X148006934Y-100425649D01*
G37*
G36*
X169285529Y-100605710D02*
G01*
X169335378Y-100620831D01*
X169381310Y-100645382D01*
X169421574Y-100678426D01*
X169454618Y-100718690D01*
X169479169Y-100764622D01*
X169494290Y-100814471D01*
X169500000Y-100872444D01*
X169500000Y-102127556D01*
X169494290Y-102185529D01*
X169479169Y-102235378D01*
X169454618Y-102281310D01*
X169421574Y-102321574D01*
X169381310Y-102354618D01*
X169335378Y-102379169D01*
X169285529Y-102394290D01*
X169227556Y-102400000D01*
X168222444Y-102400000D01*
X168164471Y-102394290D01*
X168114622Y-102379169D01*
X168068690Y-102354618D01*
X168028426Y-102321574D01*
X167995382Y-102281310D01*
X167970831Y-102235378D01*
X167955710Y-102185529D01*
X167950000Y-102127556D01*
X167950000Y-100872444D01*
X167955710Y-100814471D01*
X167970831Y-100764622D01*
X167995382Y-100718690D01*
X168028426Y-100678426D01*
X168068690Y-100645382D01*
X168114622Y-100620831D01*
X168164471Y-100605710D01*
X168222444Y-100600000D01*
X169227556Y-100600000D01*
X169285529Y-100605710D01*
X169285529Y-100605710D01*
G37*
G36*
X167235529Y-100605710D02*
G01*
X167285378Y-100620831D01*
X167331310Y-100645382D01*
X167371574Y-100678426D01*
X167404618Y-100718690D01*
X167429169Y-100764622D01*
X167444290Y-100814471D01*
X167450000Y-100872444D01*
X167450000Y-102127556D01*
X167444290Y-102185529D01*
X167429169Y-102235378D01*
X167404618Y-102281310D01*
X167371574Y-102321574D01*
X167331310Y-102354618D01*
X167285378Y-102379169D01*
X167235529Y-102394290D01*
X167177556Y-102400000D01*
X166172444Y-102400000D01*
X166114471Y-102394290D01*
X166064622Y-102379169D01*
X166018690Y-102354618D01*
X165978426Y-102321574D01*
X165945382Y-102281310D01*
X165920831Y-102235378D01*
X165905710Y-102185529D01*
X165900000Y-102127556D01*
X165900000Y-100872444D01*
X165905710Y-100814471D01*
X165920831Y-100764622D01*
X165945382Y-100718690D01*
X165978426Y-100678426D01*
X166018690Y-100645382D01*
X166064622Y-100620831D01*
X166114471Y-100605710D01*
X166172444Y-100600000D01*
X167177556Y-100600000D01*
X167235529Y-100605710D01*
X167235529Y-100605710D01*
G37*
G36*
X177985529Y-100405710D02*
G01*
X178035378Y-100420831D01*
X178081310Y-100445382D01*
X178121574Y-100478426D01*
X178154618Y-100518690D01*
X178179169Y-100564622D01*
X178194290Y-100614471D01*
X178200000Y-100672444D01*
X178200000Y-101677556D01*
X178194290Y-101735529D01*
X178179169Y-101785378D01*
X178154618Y-101831310D01*
X178121574Y-101871574D01*
X178081310Y-101904618D01*
X178035378Y-101929169D01*
X177985529Y-101944290D01*
X177927556Y-101950000D01*
X176672444Y-101950000D01*
X176614471Y-101944290D01*
X176564622Y-101929169D01*
X176518690Y-101904618D01*
X176478426Y-101871574D01*
X176445382Y-101831310D01*
X176420831Y-101785378D01*
X176405710Y-101735529D01*
X176400000Y-101677556D01*
X176400000Y-100672444D01*
X176405710Y-100614471D01*
X176420831Y-100564622D01*
X176445382Y-100518690D01*
X176478426Y-100478426D01*
X176518690Y-100445382D01*
X176564622Y-100420831D01*
X176614471Y-100405710D01*
X176672444Y-100400000D01*
X177927556Y-100400000D01*
X177985529Y-100405710D01*
X177985529Y-100405710D01*
G37*
G36*
X154817529Y-100067710D02*
G01*
X154867378Y-100082831D01*
X154913310Y-100107382D01*
X154953574Y-100140426D01*
X154986618Y-100180690D01*
X155011169Y-100226622D01*
X155026290Y-100276471D01*
X155032000Y-100334444D01*
X155032000Y-101589556D01*
X155026290Y-101647529D01*
X155011169Y-101697378D01*
X154986618Y-101743310D01*
X154953574Y-101783574D01*
X154913310Y-101816618D01*
X154867378Y-101841169D01*
X154817529Y-101856290D01*
X154759556Y-101862000D01*
X153754444Y-101862000D01*
X153696471Y-101856290D01*
X153646622Y-101841169D01*
X153600690Y-101816618D01*
X153560426Y-101783574D01*
X153527382Y-101743310D01*
X153502831Y-101697378D01*
X153487710Y-101647529D01*
X153482000Y-101589556D01*
X153482000Y-100334444D01*
X153487710Y-100276471D01*
X153502831Y-100226622D01*
X153527382Y-100180690D01*
X153560426Y-100140426D01*
X153600690Y-100107382D01*
X153646622Y-100082831D01*
X153696471Y-100067710D01*
X153754444Y-100062000D01*
X154759556Y-100062000D01*
X154817529Y-100067710D01*
X154817529Y-100067710D01*
G37*
G36*
X152767529Y-100067710D02*
G01*
X152817378Y-100082831D01*
X152863310Y-100107382D01*
X152903574Y-100140426D01*
X152936618Y-100180690D01*
X152961169Y-100226622D01*
X152976290Y-100276471D01*
X152982000Y-100334444D01*
X152982000Y-101589556D01*
X152976290Y-101647529D01*
X152961169Y-101697378D01*
X152936618Y-101743310D01*
X152903574Y-101783574D01*
X152863310Y-101816618D01*
X152817378Y-101841169D01*
X152767529Y-101856290D01*
X152709556Y-101862000D01*
X151704444Y-101862000D01*
X151646471Y-101856290D01*
X151596622Y-101841169D01*
X151550690Y-101816618D01*
X151510426Y-101783574D01*
X151477382Y-101743310D01*
X151452831Y-101697378D01*
X151437710Y-101647529D01*
X151432000Y-101589556D01*
X151432000Y-100334444D01*
X151437710Y-100276471D01*
X151452831Y-100226622D01*
X151477382Y-100180690D01*
X151510426Y-100140426D01*
X151550690Y-100107382D01*
X151596622Y-100082831D01*
X151646471Y-100067710D01*
X151704444Y-100062000D01*
X152709556Y-100062000D01*
X152767529Y-100067710D01*
X152767529Y-100067710D01*
G37*
G36*
X173483687Y-98523027D02*
G01*
X173661274Y-98558350D01*
X173852362Y-98637502D01*
X174024336Y-98752411D01*
X174170589Y-98898664D01*
X174285498Y-99070638D01*
X174364650Y-99261726D01*
X174399191Y-99435378D01*
X174405000Y-99464583D01*
X174405000Y-99671417D01*
X174404077Y-99676055D01*
X174364650Y-99874274D01*
X174285498Y-100065362D01*
X174170589Y-100237336D01*
X174024336Y-100383589D01*
X173852362Y-100498498D01*
X173661274Y-100577650D01*
X173483687Y-100612973D01*
X173458417Y-100618000D01*
X173251583Y-100618000D01*
X173226313Y-100612973D01*
X173048726Y-100577650D01*
X172857638Y-100498498D01*
X172685664Y-100383589D01*
X172539411Y-100237336D01*
X172424502Y-100065362D01*
X172345350Y-99874274D01*
X172305923Y-99676055D01*
X172305000Y-99671417D01*
X172305000Y-99464583D01*
X172310809Y-99435378D01*
X172345350Y-99261726D01*
X172424502Y-99070638D01*
X172539411Y-98898664D01*
X172685664Y-98752411D01*
X172857638Y-98637502D01*
X173048726Y-98558350D01*
X173226313Y-98523027D01*
X173251583Y-98518000D01*
X173458417Y-98518000D01*
X173483687Y-98523027D01*
X173483687Y-98523027D01*
G37*
G36*
X158243687Y-98523027D02*
G01*
X158421274Y-98558350D01*
X158612362Y-98637502D01*
X158784336Y-98752411D01*
X158930589Y-98898664D01*
X159045498Y-99070638D01*
X159124650Y-99261726D01*
X159159191Y-99435378D01*
X159165000Y-99464583D01*
X159165000Y-99671417D01*
X159164077Y-99676055D01*
X159124650Y-99874274D01*
X159045498Y-100065362D01*
X158930589Y-100237336D01*
X158784336Y-100383589D01*
X158612362Y-100498498D01*
X158421274Y-100577650D01*
X158243687Y-100612973D01*
X158218417Y-100618000D01*
X158011583Y-100618000D01*
X157986313Y-100612973D01*
X157808726Y-100577650D01*
X157617638Y-100498498D01*
X157445664Y-100383589D01*
X157299411Y-100237336D01*
X157184502Y-100065362D01*
X157105350Y-99874274D01*
X157065923Y-99676055D01*
X157065000Y-99671417D01*
X157065000Y-99464583D01*
X157070809Y-99435378D01*
X157105350Y-99261726D01*
X157184502Y-99070638D01*
X157299411Y-98898664D01*
X157445664Y-98752411D01*
X157617638Y-98637502D01*
X157808726Y-98558350D01*
X157986313Y-98523027D01*
X158011583Y-98518000D01*
X158218417Y-98518000D01*
X158243687Y-98523027D01*
X158243687Y-98523027D01*
G37*
G36*
X191100000Y-100150000D02*
G01*
X188900000Y-100150000D01*
X188900000Y-97250000D01*
X191100000Y-97250000D01*
X191100000Y-100150000D01*
X191100000Y-100150000D01*
G37*
G36*
X197781653Y-96752665D02*
G01*
X197945872Y-96785330D01*
X198255252Y-96913479D01*
X198533687Y-97099523D01*
X198770477Y-97336313D01*
X198956521Y-97614748D01*
X199084670Y-97924128D01*
X199101050Y-98006475D01*
X199141138Y-98208009D01*
X199150000Y-98252565D01*
X199150000Y-98587435D01*
X199084670Y-98915872D01*
X198956521Y-99225252D01*
X198770477Y-99503687D01*
X198533687Y-99740477D01*
X198255252Y-99926521D01*
X197945872Y-100054670D01*
X197781654Y-100087335D01*
X197617437Y-100120000D01*
X197282563Y-100120000D01*
X197118346Y-100087335D01*
X196954128Y-100054670D01*
X196644748Y-99926521D01*
X196366313Y-99740477D01*
X196129523Y-99503687D01*
X195943479Y-99225252D01*
X195815330Y-98915872D01*
X195750000Y-98587435D01*
X195750000Y-98252565D01*
X195758863Y-98208009D01*
X195798950Y-98006475D01*
X195815330Y-97924128D01*
X195943479Y-97614748D01*
X196129523Y-97336313D01*
X196366313Y-97099523D01*
X196644748Y-96913479D01*
X196954128Y-96785330D01*
X197118346Y-96752665D01*
X197282563Y-96720000D01*
X197617437Y-96720000D01*
X197781653Y-96752665D01*
X197781653Y-96752665D01*
G37*
G36*
X148026707Y-97887596D02*
G01*
X148103836Y-97895193D01*
X148301762Y-97955233D01*
X148301765Y-97955234D01*
X148484170Y-98052732D01*
X148644055Y-98183945D01*
X148775268Y-98343830D01*
X148872766Y-98526235D01*
X148872767Y-98526238D01*
X148932807Y-98724164D01*
X148953080Y-98930000D01*
X148932807Y-99135836D01*
X148874278Y-99328781D01*
X148872766Y-99333765D01*
X148775268Y-99516170D01*
X148644055Y-99676055D01*
X148484170Y-99807268D01*
X148301765Y-99904766D01*
X148301762Y-99904767D01*
X148103836Y-99964807D01*
X148026707Y-99972403D01*
X147949580Y-99980000D01*
X147846420Y-99980000D01*
X147769293Y-99972403D01*
X147692164Y-99964807D01*
X147494238Y-99904767D01*
X147494235Y-99904766D01*
X147311830Y-99807268D01*
X147151945Y-99676055D01*
X147020732Y-99516170D01*
X146923234Y-99333765D01*
X146921722Y-99328781D01*
X146863193Y-99135836D01*
X146842920Y-98930000D01*
X146863193Y-98724164D01*
X146923233Y-98526238D01*
X146923234Y-98526235D01*
X147020732Y-98343830D01*
X147151945Y-98183945D01*
X147311830Y-98052732D01*
X147494235Y-97955234D01*
X147494238Y-97955233D01*
X147692164Y-97895193D01*
X147769293Y-97887596D01*
X147846420Y-97880000D01*
X147949580Y-97880000D01*
X148026707Y-97887596D01*
X148026707Y-97887596D01*
G37*
G36*
X169285529Y-98005710D02*
G01*
X169335378Y-98020831D01*
X169381310Y-98045382D01*
X169421574Y-98078426D01*
X169454618Y-98118690D01*
X169479169Y-98164622D01*
X169494290Y-98214471D01*
X169500000Y-98272444D01*
X169500000Y-99527556D01*
X169494290Y-99585529D01*
X169479169Y-99635378D01*
X169454618Y-99681310D01*
X169421574Y-99721574D01*
X169381310Y-99754618D01*
X169335378Y-99779169D01*
X169285529Y-99794290D01*
X169227556Y-99800000D01*
X168222444Y-99800000D01*
X168164471Y-99794290D01*
X168114622Y-99779169D01*
X168068690Y-99754618D01*
X168028426Y-99721574D01*
X167995382Y-99681310D01*
X167970831Y-99635378D01*
X167955710Y-99585529D01*
X167950000Y-99527556D01*
X167950000Y-98272444D01*
X167955710Y-98214471D01*
X167970831Y-98164622D01*
X167995382Y-98118690D01*
X168028426Y-98078426D01*
X168068690Y-98045382D01*
X168114622Y-98020831D01*
X168164471Y-98005710D01*
X168222444Y-98000000D01*
X169227556Y-98000000D01*
X169285529Y-98005710D01*
X169285529Y-98005710D01*
G37*
G36*
X167235529Y-98005710D02*
G01*
X167285378Y-98020831D01*
X167331310Y-98045382D01*
X167371574Y-98078426D01*
X167404618Y-98118690D01*
X167429169Y-98164622D01*
X167444290Y-98214471D01*
X167450000Y-98272444D01*
X167450000Y-99527556D01*
X167444290Y-99585529D01*
X167429169Y-99635378D01*
X167404618Y-99681310D01*
X167371574Y-99721574D01*
X167331310Y-99754618D01*
X167285378Y-99779169D01*
X167235529Y-99794290D01*
X167177556Y-99800000D01*
X166172444Y-99800000D01*
X166114471Y-99794290D01*
X166064622Y-99779169D01*
X166018690Y-99754618D01*
X165978426Y-99721574D01*
X165945382Y-99681310D01*
X165920831Y-99635378D01*
X165905710Y-99585529D01*
X165900000Y-99527556D01*
X165900000Y-98272444D01*
X165905710Y-98214471D01*
X165920831Y-98164622D01*
X165945382Y-98118690D01*
X165978426Y-98078426D01*
X166018690Y-98045382D01*
X166064622Y-98020831D01*
X166114471Y-98005710D01*
X166172444Y-98000000D01*
X167177556Y-98000000D01*
X167235529Y-98005710D01*
X167235529Y-98005710D01*
G37*
G36*
X177985529Y-98055710D02*
G01*
X178035378Y-98070831D01*
X178081310Y-98095382D01*
X178121574Y-98128426D01*
X178154618Y-98168690D01*
X178179169Y-98214622D01*
X178194290Y-98264471D01*
X178200000Y-98322444D01*
X178200000Y-99327556D01*
X178194290Y-99385529D01*
X178179169Y-99435378D01*
X178154618Y-99481310D01*
X178121574Y-99521574D01*
X178081310Y-99554618D01*
X178035378Y-99579169D01*
X177985529Y-99594290D01*
X177927556Y-99600000D01*
X176672444Y-99600000D01*
X176614471Y-99594290D01*
X176564622Y-99579169D01*
X176518690Y-99554618D01*
X176478426Y-99521574D01*
X176445382Y-99481310D01*
X176420831Y-99435378D01*
X176405710Y-99385529D01*
X176400000Y-99327556D01*
X176400000Y-98322444D01*
X176405710Y-98264471D01*
X176420831Y-98214622D01*
X176445382Y-98168690D01*
X176478426Y-98128426D01*
X176518690Y-98095382D01*
X176564622Y-98070831D01*
X176614471Y-98055710D01*
X176672444Y-98050000D01*
X177927556Y-98050000D01*
X177985529Y-98055710D01*
X177985529Y-98055710D01*
G37*
G36*
X154817529Y-96765710D02*
G01*
X154867378Y-96780831D01*
X154913310Y-96805382D01*
X154953574Y-96838426D01*
X154986618Y-96878690D01*
X155011169Y-96924622D01*
X155026290Y-96974471D01*
X155032000Y-97032444D01*
X155032000Y-98287556D01*
X155026290Y-98345529D01*
X155011169Y-98395378D01*
X154986618Y-98441310D01*
X154953574Y-98481574D01*
X154913310Y-98514618D01*
X154867378Y-98539169D01*
X154817529Y-98554290D01*
X154759556Y-98560000D01*
X153754444Y-98560000D01*
X153696471Y-98554290D01*
X153646622Y-98539169D01*
X153600690Y-98514618D01*
X153560426Y-98481574D01*
X153527382Y-98441310D01*
X153502831Y-98395378D01*
X153487710Y-98345529D01*
X153482000Y-98287556D01*
X153482000Y-97032444D01*
X153487710Y-96974471D01*
X153502831Y-96924622D01*
X153527382Y-96878690D01*
X153560426Y-96838426D01*
X153600690Y-96805382D01*
X153646622Y-96780831D01*
X153696471Y-96765710D01*
X153754444Y-96760000D01*
X154759556Y-96760000D01*
X154817529Y-96765710D01*
X154817529Y-96765710D01*
G37*
G36*
X152767529Y-96765710D02*
G01*
X152817378Y-96780831D01*
X152863310Y-96805382D01*
X152903574Y-96838426D01*
X152936618Y-96878690D01*
X152961169Y-96924622D01*
X152976290Y-96974471D01*
X152982000Y-97032444D01*
X152982000Y-98287556D01*
X152976290Y-98345529D01*
X152961169Y-98395378D01*
X152936618Y-98441310D01*
X152903574Y-98481574D01*
X152863310Y-98514618D01*
X152817378Y-98539169D01*
X152767529Y-98554290D01*
X152709556Y-98560000D01*
X151704444Y-98560000D01*
X151646471Y-98554290D01*
X151596622Y-98539169D01*
X151550690Y-98514618D01*
X151510426Y-98481574D01*
X151477382Y-98441310D01*
X151452831Y-98395378D01*
X151437710Y-98345529D01*
X151432000Y-98287556D01*
X151432000Y-97032444D01*
X151437710Y-96974471D01*
X151452831Y-96924622D01*
X151477382Y-96878690D01*
X151510426Y-96838426D01*
X151550690Y-96805382D01*
X151596622Y-96780831D01*
X151646471Y-96765710D01*
X151704444Y-96760000D01*
X152709556Y-96760000D01*
X152767529Y-96765710D01*
X152767529Y-96765710D01*
G37*
G36*
X173483687Y-95983027D02*
G01*
X173661274Y-96018350D01*
X173852362Y-96097502D01*
X174024336Y-96212411D01*
X174170589Y-96358664D01*
X174285498Y-96530638D01*
X174364650Y-96721726D01*
X174395871Y-96878690D01*
X174405000Y-96924583D01*
X174405000Y-97131417D01*
X174404077Y-97136055D01*
X174364650Y-97334274D01*
X174285498Y-97525362D01*
X174170589Y-97697336D01*
X174024336Y-97843589D01*
X173852362Y-97958498D01*
X173661274Y-98037650D01*
X173483687Y-98072973D01*
X173458417Y-98078000D01*
X173251583Y-98078000D01*
X173226313Y-98072973D01*
X173048726Y-98037650D01*
X172857638Y-97958498D01*
X172685664Y-97843589D01*
X172539411Y-97697336D01*
X172424502Y-97525362D01*
X172345350Y-97334274D01*
X172305923Y-97136055D01*
X172305000Y-97131417D01*
X172305000Y-96924583D01*
X172314129Y-96878690D01*
X172345350Y-96721726D01*
X172424502Y-96530638D01*
X172539411Y-96358664D01*
X172685664Y-96212411D01*
X172857638Y-96097502D01*
X173048726Y-96018350D01*
X173226313Y-95983027D01*
X173251583Y-95978000D01*
X173458417Y-95978000D01*
X173483687Y-95983027D01*
X173483687Y-95983027D01*
G37*
G36*
X158243687Y-95983027D02*
G01*
X158421274Y-96018350D01*
X158612362Y-96097502D01*
X158784336Y-96212411D01*
X158930589Y-96358664D01*
X159045498Y-96530638D01*
X159124650Y-96721726D01*
X159155871Y-96878690D01*
X159165000Y-96924583D01*
X159165000Y-97131417D01*
X159164077Y-97136055D01*
X159124650Y-97334274D01*
X159045498Y-97525362D01*
X158930589Y-97697336D01*
X158784336Y-97843589D01*
X158612362Y-97958498D01*
X158421274Y-98037650D01*
X158243687Y-98072973D01*
X158218417Y-98078000D01*
X158011583Y-98078000D01*
X157986313Y-98072973D01*
X157808726Y-98037650D01*
X157617638Y-97958498D01*
X157445664Y-97843589D01*
X157299411Y-97697336D01*
X157184502Y-97525362D01*
X157105350Y-97334274D01*
X157065923Y-97136055D01*
X157065000Y-97131417D01*
X157065000Y-96924583D01*
X157074129Y-96878690D01*
X157105350Y-96721726D01*
X157184502Y-96530638D01*
X157299411Y-96358664D01*
X157445664Y-96212411D01*
X157617638Y-96097502D01*
X157808726Y-96018350D01*
X157986313Y-95983027D01*
X158011583Y-95978000D01*
X158218417Y-95978000D01*
X158243687Y-95983027D01*
X158243687Y-95983027D01*
G37*
G36*
X177985529Y-96005710D02*
G01*
X178035378Y-96020831D01*
X178081310Y-96045382D01*
X178121574Y-96078426D01*
X178154618Y-96118690D01*
X178179169Y-96164622D01*
X178194290Y-96214471D01*
X178200000Y-96272444D01*
X178200000Y-97277556D01*
X178194290Y-97335529D01*
X178179169Y-97385378D01*
X178154618Y-97431310D01*
X178121574Y-97471574D01*
X178081310Y-97504618D01*
X178035378Y-97529169D01*
X177985529Y-97544290D01*
X177927556Y-97550000D01*
X176672444Y-97550000D01*
X176614471Y-97544290D01*
X176564622Y-97529169D01*
X176518690Y-97504618D01*
X176478426Y-97471574D01*
X176445382Y-97431310D01*
X176420831Y-97385378D01*
X176405710Y-97335529D01*
X176400000Y-97277556D01*
X176400000Y-96272444D01*
X176405710Y-96214471D01*
X176420831Y-96164622D01*
X176445382Y-96118690D01*
X176478426Y-96078426D01*
X176518690Y-96045382D01*
X176564622Y-96020831D01*
X176614471Y-96005710D01*
X176672444Y-96000000D01*
X177927556Y-96000000D01*
X177985529Y-96005710D01*
X177985529Y-96005710D01*
G37*
G36*
X148026707Y-95347597D02*
G01*
X148103836Y-95355193D01*
X148255857Y-95401308D01*
X148301765Y-95415234D01*
X148484170Y-95512732D01*
X148644055Y-95643945D01*
X148775268Y-95803830D01*
X148872766Y-95986235D01*
X148872767Y-95986238D01*
X148932807Y-96184164D01*
X148953080Y-96390000D01*
X148932807Y-96595836D01*
X148875325Y-96785330D01*
X148872766Y-96793765D01*
X148775268Y-96976170D01*
X148644055Y-97136055D01*
X148484170Y-97267268D01*
X148301765Y-97364766D01*
X148301762Y-97364767D01*
X148103836Y-97424807D01*
X148026707Y-97432404D01*
X147949580Y-97440000D01*
X147846420Y-97440000D01*
X147769293Y-97432403D01*
X147692164Y-97424807D01*
X147494238Y-97364767D01*
X147494235Y-97364766D01*
X147311830Y-97267268D01*
X147151945Y-97136055D01*
X147020732Y-96976170D01*
X146923234Y-96793765D01*
X146920675Y-96785330D01*
X146863193Y-96595836D01*
X146842920Y-96390000D01*
X146863193Y-96184164D01*
X146923233Y-95986238D01*
X146923234Y-95986235D01*
X147020732Y-95803830D01*
X147151945Y-95643945D01*
X147311830Y-95512732D01*
X147494235Y-95415234D01*
X147540143Y-95401308D01*
X147692164Y-95355193D01*
X147769293Y-95347597D01*
X147846420Y-95340000D01*
X147949580Y-95340000D01*
X148026707Y-95347597D01*
X148026707Y-95347597D01*
G37*
G36*
X158243687Y-93443027D02*
G01*
X158421274Y-93478350D01*
X158612362Y-93557502D01*
X158784336Y-93672411D01*
X158930589Y-93818664D01*
X159045498Y-93990638D01*
X159124650Y-94181726D01*
X159159973Y-94359313D01*
X159165000Y-94384583D01*
X159165000Y-94591417D01*
X159164077Y-94596055D01*
X159124650Y-94794274D01*
X159045498Y-94985362D01*
X158930589Y-95157336D01*
X158784336Y-95303589D01*
X158612362Y-95418498D01*
X158421274Y-95497650D01*
X158243687Y-95532973D01*
X158218417Y-95538000D01*
X158011583Y-95538000D01*
X157986313Y-95532973D01*
X157808726Y-95497650D01*
X157617638Y-95418498D01*
X157445664Y-95303589D01*
X157299411Y-95157336D01*
X157184502Y-94985362D01*
X157105350Y-94794274D01*
X157065923Y-94596055D01*
X157065000Y-94591417D01*
X157065000Y-94384583D01*
X157070027Y-94359313D01*
X157105350Y-94181726D01*
X157184502Y-93990638D01*
X157299411Y-93818664D01*
X157445664Y-93672411D01*
X157617638Y-93557502D01*
X157808726Y-93478350D01*
X157986313Y-93443027D01*
X158011583Y-93438000D01*
X158218417Y-93438000D01*
X158243687Y-93443027D01*
X158243687Y-93443027D01*
G37*
G36*
X173483687Y-93443027D02*
G01*
X173661274Y-93478350D01*
X173852362Y-93557502D01*
X174024336Y-93672411D01*
X174170589Y-93818664D01*
X174285498Y-93990638D01*
X174364650Y-94181726D01*
X174399973Y-94359313D01*
X174405000Y-94384583D01*
X174405000Y-94591417D01*
X174404077Y-94596055D01*
X174364650Y-94794274D01*
X174285498Y-94985362D01*
X174170589Y-95157336D01*
X174024336Y-95303589D01*
X173852362Y-95418498D01*
X173661274Y-95497650D01*
X173483687Y-95532973D01*
X173458417Y-95538000D01*
X173251583Y-95538000D01*
X173226313Y-95532973D01*
X173048726Y-95497650D01*
X172857638Y-95418498D01*
X172685664Y-95303589D01*
X172539411Y-95157336D01*
X172424502Y-94985362D01*
X172345350Y-94794274D01*
X172305923Y-94596055D01*
X172305000Y-94591417D01*
X172305000Y-94384583D01*
X172310027Y-94359313D01*
X172345350Y-94181726D01*
X172424502Y-93990638D01*
X172539411Y-93818664D01*
X172685664Y-93672411D01*
X172857638Y-93557502D01*
X173048726Y-93478350D01*
X173226313Y-93443027D01*
X173251583Y-93438000D01*
X173458417Y-93438000D01*
X173483687Y-93443027D01*
X173483687Y-93443027D01*
G37*
G36*
X177985529Y-93955710D02*
G01*
X178035378Y-93970831D01*
X178081310Y-93995382D01*
X178121574Y-94028426D01*
X178154618Y-94068690D01*
X178179169Y-94114622D01*
X178194290Y-94164471D01*
X178200000Y-94222444D01*
X178200000Y-95227556D01*
X178194290Y-95285529D01*
X178179169Y-95335378D01*
X178154618Y-95381310D01*
X178121574Y-95421574D01*
X178081310Y-95454618D01*
X178035378Y-95479169D01*
X177985529Y-95494290D01*
X177927556Y-95500000D01*
X176672444Y-95500000D01*
X176614471Y-95494290D01*
X176564622Y-95479169D01*
X176518690Y-95454618D01*
X176478426Y-95421574D01*
X176445382Y-95381310D01*
X176420831Y-95335378D01*
X176405710Y-95285529D01*
X176400000Y-95227556D01*
X176400000Y-94222444D01*
X176405710Y-94164471D01*
X176420831Y-94114622D01*
X176445382Y-94068690D01*
X176478426Y-94028426D01*
X176518690Y-93995382D01*
X176564622Y-93970831D01*
X176614471Y-93955710D01*
X176672444Y-93950000D01*
X177927556Y-93950000D01*
X177985529Y-93955710D01*
X177985529Y-93955710D01*
G37*
G36*
X154817529Y-93463710D02*
G01*
X154867378Y-93478831D01*
X154913310Y-93503382D01*
X154953574Y-93536426D01*
X154986618Y-93576690D01*
X155011169Y-93622622D01*
X155026290Y-93672471D01*
X155032000Y-93730444D01*
X155032000Y-94985556D01*
X155026290Y-95043529D01*
X155011169Y-95093378D01*
X154986618Y-95139310D01*
X154953574Y-95179574D01*
X154913310Y-95212618D01*
X154867378Y-95237169D01*
X154817529Y-95252290D01*
X154759556Y-95258000D01*
X153754444Y-95258000D01*
X153696471Y-95252290D01*
X153646622Y-95237169D01*
X153600690Y-95212618D01*
X153560426Y-95179574D01*
X153527382Y-95139310D01*
X153502831Y-95093378D01*
X153487710Y-95043529D01*
X153482000Y-94985556D01*
X153482000Y-93730444D01*
X153487710Y-93672471D01*
X153502831Y-93622622D01*
X153527382Y-93576690D01*
X153560426Y-93536426D01*
X153600690Y-93503382D01*
X153646622Y-93478831D01*
X153696471Y-93463710D01*
X153754444Y-93458000D01*
X154759556Y-93458000D01*
X154817529Y-93463710D01*
X154817529Y-93463710D01*
G37*
G36*
X152767529Y-93463710D02*
G01*
X152817378Y-93478831D01*
X152863310Y-93503382D01*
X152903574Y-93536426D01*
X152936618Y-93576690D01*
X152961169Y-93622622D01*
X152976290Y-93672471D01*
X152982000Y-93730444D01*
X152982000Y-94985556D01*
X152976290Y-95043529D01*
X152961169Y-95093378D01*
X152936618Y-95139310D01*
X152903574Y-95179574D01*
X152863310Y-95212618D01*
X152817378Y-95237169D01*
X152767529Y-95252290D01*
X152709556Y-95258000D01*
X151704444Y-95258000D01*
X151646471Y-95252290D01*
X151596622Y-95237169D01*
X151550690Y-95212618D01*
X151510426Y-95179574D01*
X151477382Y-95139310D01*
X151452831Y-95093378D01*
X151437710Y-95043529D01*
X151432000Y-94985556D01*
X151432000Y-93730444D01*
X151437710Y-93672471D01*
X151452831Y-93622622D01*
X151477382Y-93576690D01*
X151510426Y-93536426D01*
X151550690Y-93503382D01*
X151596622Y-93478831D01*
X151646471Y-93463710D01*
X151704444Y-93458000D01*
X152709556Y-93458000D01*
X152767529Y-93463710D01*
X152767529Y-93463710D01*
G37*
G36*
X197781653Y-91732665D02*
G01*
X197945872Y-91765330D01*
X198255252Y-91893479D01*
X198533687Y-92079523D01*
X198770477Y-92316313D01*
X198956521Y-92594748D01*
X199084670Y-92904128D01*
X199084670Y-92904130D01*
X199150000Y-93232563D01*
X199150000Y-93567437D01*
X199129119Y-93672411D01*
X199084670Y-93895872D01*
X198956521Y-94205252D01*
X198770477Y-94483687D01*
X198533687Y-94720477D01*
X198255252Y-94906521D01*
X197945872Y-95034670D01*
X197781653Y-95067335D01*
X197617437Y-95100000D01*
X197282563Y-95100000D01*
X197118347Y-95067335D01*
X196954128Y-95034670D01*
X196644748Y-94906521D01*
X196366313Y-94720477D01*
X196129523Y-94483687D01*
X195943479Y-94205252D01*
X195815330Y-93895872D01*
X195770881Y-93672411D01*
X195750000Y-93567437D01*
X195750000Y-93232563D01*
X195815330Y-92904130D01*
X195815330Y-92904128D01*
X195943479Y-92594748D01*
X196129523Y-92316313D01*
X196366313Y-92079523D01*
X196644748Y-91893479D01*
X196954128Y-91765330D01*
X197118347Y-91732665D01*
X197282563Y-91700000D01*
X197617437Y-91700000D01*
X197781653Y-91732665D01*
X197781653Y-91732665D01*
G37*
G36*
X148026707Y-92807596D02*
G01*
X148103836Y-92815193D01*
X148301762Y-92875233D01*
X148301765Y-92875234D01*
X148484170Y-92972732D01*
X148644055Y-93103945D01*
X148775268Y-93263830D01*
X148872766Y-93446235D01*
X148872767Y-93446238D01*
X148932807Y-93644164D01*
X148953080Y-93850000D01*
X148932807Y-94055836D01*
X148901813Y-94158009D01*
X148872766Y-94253765D01*
X148775268Y-94436170D01*
X148644055Y-94596055D01*
X148484170Y-94727268D01*
X148301765Y-94824766D01*
X148301762Y-94824767D01*
X148103836Y-94884807D01*
X148026707Y-94892404D01*
X147949580Y-94900000D01*
X147846420Y-94900000D01*
X147769293Y-94892403D01*
X147692164Y-94884807D01*
X147494238Y-94824767D01*
X147494235Y-94824766D01*
X147311830Y-94727268D01*
X147151945Y-94596055D01*
X147020732Y-94436170D01*
X146923234Y-94253765D01*
X146894187Y-94158009D01*
X146863193Y-94055836D01*
X146842920Y-93850000D01*
X146863193Y-93644164D01*
X146923233Y-93446238D01*
X146923234Y-93446235D01*
X147020732Y-93263830D01*
X147151945Y-93103945D01*
X147311830Y-92972732D01*
X147494235Y-92875234D01*
X147494238Y-92875233D01*
X147692164Y-92815193D01*
X147769293Y-92807596D01*
X147846420Y-92800000D01*
X147949580Y-92800000D01*
X148026707Y-92807596D01*
X148026707Y-92807596D01*
G37*
G36*
X184116991Y-87278617D02*
G01*
X184173429Y-87284176D01*
X184390676Y-87350077D01*
X184390679Y-87350078D01*
X184570344Y-87446112D01*
X184590893Y-87457095D01*
X184636607Y-87494612D01*
X184766384Y-87601116D01*
X184834066Y-87683588D01*
X184910405Y-87776607D01*
X184910406Y-87776609D01*
X185017422Y-87976821D01*
X185017423Y-87976824D01*
X185070733Y-88152563D01*
X185083324Y-88194072D01*
X185105576Y-88420000D01*
X185083324Y-88645928D01*
X185017422Y-88863179D01*
X184992053Y-88910640D01*
X184910405Y-89063393D01*
X184878946Y-89101726D01*
X184766384Y-89238884D01*
X184636607Y-89345388D01*
X184590893Y-89382905D01*
X184590891Y-89382906D01*
X184390679Y-89489922D01*
X184390676Y-89489923D01*
X184173429Y-89555824D01*
X184095961Y-89563454D01*
X184074141Y-89565603D01*
X184050108Y-89570383D01*
X184027469Y-89579761D01*
X184007094Y-89593375D01*
X183989767Y-89610702D01*
X183976154Y-89631076D01*
X183966776Y-89653715D01*
X183961996Y-89677748D01*
X183961996Y-89702252D01*
X183966776Y-89726285D01*
X183976154Y-89748924D01*
X183989768Y-89769299D01*
X184007095Y-89786626D01*
X184027469Y-89800239D01*
X184050108Y-89809617D01*
X184074141Y-89814397D01*
X184173429Y-89824176D01*
X184390676Y-89890077D01*
X184390679Y-89890078D01*
X184570344Y-89986112D01*
X184590893Y-89997095D01*
X184636607Y-90034612D01*
X184766384Y-90141116D01*
X184872888Y-90270893D01*
X184910405Y-90316607D01*
X184910406Y-90316609D01*
X185017422Y-90516821D01*
X185017423Y-90516824D01*
X185067292Y-90681219D01*
X185083324Y-90734072D01*
X185105576Y-90960000D01*
X185083324Y-91185928D01*
X185017422Y-91403179D01*
X184992053Y-91450640D01*
X184910405Y-91603393D01*
X184878946Y-91641726D01*
X184766384Y-91778884D01*
X184636607Y-91885388D01*
X184590893Y-91922905D01*
X184590891Y-91922906D01*
X184390679Y-92029922D01*
X184390676Y-92029923D01*
X184173429Y-92095824D01*
X184150278Y-92098104D01*
X184126245Y-92102885D01*
X184103607Y-92112262D01*
X184083232Y-92125876D01*
X184065905Y-92143203D01*
X184052292Y-92163577D01*
X184042914Y-92186216D01*
X184038134Y-92210249D01*
X184038134Y-92234753D01*
X184042915Y-92258787D01*
X184052292Y-92281425D01*
X184065906Y-92301800D01*
X184083233Y-92319127D01*
X184103607Y-92332740D01*
X184126246Y-92342118D01*
X184162531Y-92347500D01*
X185100000Y-92347500D01*
X185100000Y-94652500D01*
X182700000Y-94652500D01*
X182700000Y-92347500D01*
X183637469Y-92347500D01*
X183661855Y-92345098D01*
X183685304Y-92337985D01*
X183706915Y-92326434D01*
X183725857Y-92310889D01*
X183741402Y-92291947D01*
X183752953Y-92270336D01*
X183760066Y-92246887D01*
X183762468Y-92222501D01*
X183760066Y-92198115D01*
X183752953Y-92174666D01*
X183741402Y-92153055D01*
X183725857Y-92134113D01*
X183706915Y-92118568D01*
X183685304Y-92107017D01*
X183649721Y-92098104D01*
X183626571Y-92095824D01*
X183409324Y-92029923D01*
X183409321Y-92029922D01*
X183209109Y-91922906D01*
X183209107Y-91922905D01*
X183163393Y-91885388D01*
X183033616Y-91778884D01*
X182921054Y-91641726D01*
X182889595Y-91603393D01*
X182807947Y-91450640D01*
X182782578Y-91403179D01*
X182716676Y-91185928D01*
X182694424Y-90960000D01*
X182716676Y-90734072D01*
X182732709Y-90681219D01*
X182782577Y-90516824D01*
X182782578Y-90516821D01*
X182889594Y-90316609D01*
X182889595Y-90316607D01*
X182927112Y-90270893D01*
X183033616Y-90141116D01*
X183163393Y-90034612D01*
X183209107Y-89997095D01*
X183229656Y-89986112D01*
X183409321Y-89890078D01*
X183409324Y-89890077D01*
X183626571Y-89824176D01*
X183725859Y-89814397D01*
X183749892Y-89809617D01*
X183772531Y-89800239D01*
X183792906Y-89786625D01*
X183810233Y-89769298D01*
X183823846Y-89748924D01*
X183833224Y-89726285D01*
X183838004Y-89702252D01*
X183838004Y-89677748D01*
X183833224Y-89653715D01*
X183823846Y-89631076D01*
X183810232Y-89610701D01*
X183792905Y-89593374D01*
X183772531Y-89579761D01*
X183749892Y-89570383D01*
X183725859Y-89565603D01*
X183704039Y-89563454D01*
X183626571Y-89555824D01*
X183409324Y-89489923D01*
X183409321Y-89489922D01*
X183209109Y-89382906D01*
X183209107Y-89382905D01*
X183163393Y-89345388D01*
X183033616Y-89238884D01*
X182921054Y-89101726D01*
X182889595Y-89063393D01*
X182807947Y-88910640D01*
X182782578Y-88863179D01*
X182716676Y-88645928D01*
X182694424Y-88420000D01*
X182716676Y-88194072D01*
X182729268Y-88152563D01*
X182782577Y-87976824D01*
X182782578Y-87976821D01*
X182889594Y-87776609D01*
X182889595Y-87776607D01*
X182965934Y-87683588D01*
X183033616Y-87601116D01*
X183163393Y-87494612D01*
X183209107Y-87457095D01*
X183229656Y-87446112D01*
X183409321Y-87350078D01*
X183409324Y-87350077D01*
X183626571Y-87284176D01*
X183683009Y-87278617D01*
X183795884Y-87267500D01*
X184004116Y-87267500D01*
X184116991Y-87278617D01*
X184116991Y-87278617D01*
G37*
G36*
X191100000Y-94150000D02*
G01*
X188900000Y-94150000D01*
X188900000Y-91250000D01*
X191100000Y-91250000D01*
X191100000Y-94150000D01*
X191100000Y-94150000D01*
G37*
G36*
X177985529Y-91905710D02*
G01*
X178035378Y-91920831D01*
X178081310Y-91945382D01*
X178121574Y-91978426D01*
X178154618Y-92018690D01*
X178179169Y-92064622D01*
X178194290Y-92114471D01*
X178200000Y-92172444D01*
X178200000Y-93177556D01*
X178194290Y-93235529D01*
X178179169Y-93285378D01*
X178154618Y-93331310D01*
X178121574Y-93371574D01*
X178081310Y-93404618D01*
X178035378Y-93429169D01*
X177985529Y-93444290D01*
X177927556Y-93450000D01*
X176672444Y-93450000D01*
X176614471Y-93444290D01*
X176564622Y-93429169D01*
X176518690Y-93404618D01*
X176478426Y-93371574D01*
X176445382Y-93331310D01*
X176420831Y-93285378D01*
X176405710Y-93235529D01*
X176400000Y-93177556D01*
X176400000Y-92172444D01*
X176405710Y-92114471D01*
X176420831Y-92064622D01*
X176445382Y-92018690D01*
X176478426Y-91978426D01*
X176518690Y-91945382D01*
X176564622Y-91920831D01*
X176614471Y-91905710D01*
X176672444Y-91900000D01*
X177927556Y-91900000D01*
X177985529Y-91905710D01*
X177985529Y-91905710D01*
G37*
G36*
X158243687Y-90903027D02*
G01*
X158421274Y-90938350D01*
X158612362Y-91017502D01*
X158784336Y-91132411D01*
X158930589Y-91278664D01*
X159045498Y-91450638D01*
X159124650Y-91641726D01*
X159159973Y-91819313D01*
X159165000Y-91844583D01*
X159165000Y-92051417D01*
X159162373Y-92064622D01*
X159124650Y-92254274D01*
X159045498Y-92445362D01*
X158930589Y-92617336D01*
X158784336Y-92763589D01*
X158612362Y-92878498D01*
X158421274Y-92957650D01*
X158243687Y-92992973D01*
X158218417Y-92998000D01*
X158011583Y-92998000D01*
X157986313Y-92992973D01*
X157808726Y-92957650D01*
X157617638Y-92878498D01*
X157445664Y-92763589D01*
X157299411Y-92617336D01*
X157184502Y-92445362D01*
X157105350Y-92254274D01*
X157067627Y-92064622D01*
X157065000Y-92051417D01*
X157065000Y-91844583D01*
X157070027Y-91819313D01*
X157105350Y-91641726D01*
X157184502Y-91450638D01*
X157299411Y-91278664D01*
X157445664Y-91132411D01*
X157617638Y-91017502D01*
X157808726Y-90938350D01*
X157986313Y-90903027D01*
X158011583Y-90898000D01*
X158218417Y-90898000D01*
X158243687Y-90903027D01*
X158243687Y-90903027D01*
G37*
G36*
X173483687Y-90903027D02*
G01*
X173661274Y-90938350D01*
X173852362Y-91017502D01*
X174024336Y-91132411D01*
X174170589Y-91278664D01*
X174285498Y-91450638D01*
X174364650Y-91641726D01*
X174399973Y-91819313D01*
X174405000Y-91844583D01*
X174405000Y-92051417D01*
X174402373Y-92064622D01*
X174364650Y-92254274D01*
X174285498Y-92445362D01*
X174170589Y-92617336D01*
X174024336Y-92763589D01*
X173852362Y-92878498D01*
X173661274Y-92957650D01*
X173483687Y-92992973D01*
X173458417Y-92998000D01*
X173251583Y-92998000D01*
X173226313Y-92992973D01*
X173048726Y-92957650D01*
X172857638Y-92878498D01*
X172685664Y-92763589D01*
X172539411Y-92617336D01*
X172424502Y-92445362D01*
X172345350Y-92254274D01*
X172307627Y-92064622D01*
X172305000Y-92051417D01*
X172305000Y-91844583D01*
X172310027Y-91819313D01*
X172345350Y-91641726D01*
X172424502Y-91450638D01*
X172539411Y-91278664D01*
X172685664Y-91132411D01*
X172857638Y-91017502D01*
X173048726Y-90938350D01*
X173226313Y-90903027D01*
X173251583Y-90898000D01*
X173458417Y-90898000D01*
X173483687Y-90903027D01*
X173483687Y-90903027D01*
G37*
G36*
X148948000Y-92360000D02*
G01*
X146848000Y-92360000D01*
X146848000Y-90260000D01*
X148948000Y-90260000D01*
X148948000Y-92360000D01*
X148948000Y-92360000D01*
G37*
G36*
X152767529Y-90415710D02*
G01*
X152817378Y-90430831D01*
X152863310Y-90455382D01*
X152903574Y-90488426D01*
X152936618Y-90528690D01*
X152961169Y-90574622D01*
X152976290Y-90624471D01*
X152982000Y-90682444D01*
X152982000Y-91937556D01*
X152976290Y-91995529D01*
X152961169Y-92045378D01*
X152936618Y-92091310D01*
X152903574Y-92131574D01*
X152863310Y-92164618D01*
X152817378Y-92189169D01*
X152767529Y-92204290D01*
X152709556Y-92210000D01*
X151704444Y-92210000D01*
X151646471Y-92204290D01*
X151596622Y-92189169D01*
X151550690Y-92164618D01*
X151510426Y-92131574D01*
X151477382Y-92091310D01*
X151452831Y-92045378D01*
X151437710Y-91995529D01*
X151432000Y-91937556D01*
X151432000Y-90682444D01*
X151437710Y-90624471D01*
X151452831Y-90574622D01*
X151477382Y-90528690D01*
X151510426Y-90488426D01*
X151550690Y-90455382D01*
X151596622Y-90430831D01*
X151646471Y-90415710D01*
X151704444Y-90410000D01*
X152709556Y-90410000D01*
X152767529Y-90415710D01*
X152767529Y-90415710D01*
G37*
G36*
X154817529Y-90415710D02*
G01*
X154867378Y-90430831D01*
X154913310Y-90455382D01*
X154953574Y-90488426D01*
X154986618Y-90528690D01*
X155011169Y-90574622D01*
X155026290Y-90624471D01*
X155032000Y-90682444D01*
X155032000Y-91937556D01*
X155026290Y-91995529D01*
X155011169Y-92045378D01*
X154986618Y-92091310D01*
X154953574Y-92131574D01*
X154913310Y-92164618D01*
X154867378Y-92189169D01*
X154817529Y-92204290D01*
X154759556Y-92210000D01*
X153754444Y-92210000D01*
X153696471Y-92204290D01*
X153646622Y-92189169D01*
X153600690Y-92164618D01*
X153560426Y-92131574D01*
X153527382Y-92091310D01*
X153502831Y-92045378D01*
X153487710Y-91995529D01*
X153482000Y-91937556D01*
X153482000Y-90682444D01*
X153487710Y-90624471D01*
X153502831Y-90574622D01*
X153527382Y-90528690D01*
X153560426Y-90488426D01*
X153600690Y-90455382D01*
X153646622Y-90430831D01*
X153696471Y-90415710D01*
X153754444Y-90410000D01*
X154759556Y-90410000D01*
X154817529Y-90415710D01*
X154817529Y-90415710D01*
G37*
G36*
X173483687Y-88363027D02*
G01*
X173661274Y-88398350D01*
X173852362Y-88477502D01*
X174024336Y-88592411D01*
X174170589Y-88738664D01*
X174285498Y-88910638D01*
X174364650Y-89101726D01*
X174405000Y-89304584D01*
X174405000Y-89511416D01*
X174364650Y-89714274D01*
X174285498Y-89905362D01*
X174170589Y-90077336D01*
X174024336Y-90223589D01*
X173852362Y-90338498D01*
X173661274Y-90417650D01*
X173483687Y-90452973D01*
X173458417Y-90458000D01*
X173251583Y-90458000D01*
X173226313Y-90452973D01*
X173048726Y-90417650D01*
X172857638Y-90338498D01*
X172685664Y-90223589D01*
X172539411Y-90077336D01*
X172424502Y-89905362D01*
X172345350Y-89714274D01*
X172305000Y-89511416D01*
X172305000Y-89304584D01*
X172345350Y-89101726D01*
X172424502Y-88910638D01*
X172539411Y-88738664D01*
X172685664Y-88592411D01*
X172857638Y-88477502D01*
X173048726Y-88398350D01*
X173226313Y-88363027D01*
X173251583Y-88358000D01*
X173458417Y-88358000D01*
X173483687Y-88363027D01*
X173483687Y-88363027D01*
G37*
G36*
X158243687Y-88363027D02*
G01*
X158421274Y-88398350D01*
X158612362Y-88477502D01*
X158784336Y-88592411D01*
X158930589Y-88738664D01*
X159045498Y-88910638D01*
X159124650Y-89101726D01*
X159165000Y-89304584D01*
X159165000Y-89511416D01*
X159124650Y-89714274D01*
X159045498Y-89905362D01*
X158930589Y-90077336D01*
X158784336Y-90223589D01*
X158612362Y-90338498D01*
X158421274Y-90417650D01*
X158243687Y-90452973D01*
X158218417Y-90458000D01*
X158011583Y-90458000D01*
X157986313Y-90452973D01*
X157808726Y-90417650D01*
X157617638Y-90338498D01*
X157445664Y-90223589D01*
X157299411Y-90077336D01*
X157184502Y-89905362D01*
X157105350Y-89714274D01*
X157065000Y-89511416D01*
X157065000Y-89304584D01*
X157105350Y-89101726D01*
X157184502Y-88910638D01*
X157299411Y-88738664D01*
X157445664Y-88592411D01*
X157617638Y-88477502D01*
X157808726Y-88398350D01*
X157986313Y-88363027D01*
X158011583Y-88358000D01*
X158218417Y-88358000D01*
X158243687Y-88363027D01*
X158243687Y-88363027D01*
G37*
G36*
X191100000Y-90150000D02*
G01*
X188900000Y-90150000D01*
X188900000Y-87250000D01*
X191100000Y-87250000D01*
X191100000Y-90150000D01*
X191100000Y-90150000D01*
G37*
G36*
X197781654Y-86652665D02*
G01*
X197945872Y-86685330D01*
X198255252Y-86813479D01*
X198533687Y-86999523D01*
X198770477Y-87236313D01*
X198956521Y-87514748D01*
X199084670Y-87824128D01*
X199150000Y-88152565D01*
X199150000Y-88487435D01*
X199084670Y-88815872D01*
X198956521Y-89125252D01*
X198770477Y-89403687D01*
X198533687Y-89640477D01*
X198255252Y-89826521D01*
X197945872Y-89954670D01*
X197781653Y-89987335D01*
X197617437Y-90020000D01*
X197282563Y-90020000D01*
X197118346Y-89987335D01*
X196954128Y-89954670D01*
X196644748Y-89826521D01*
X196366313Y-89640477D01*
X196129523Y-89403687D01*
X195943479Y-89125252D01*
X195815330Y-88815872D01*
X195750000Y-88487435D01*
X195750000Y-88152565D01*
X195815330Y-87824128D01*
X195943479Y-87514748D01*
X196129523Y-87236313D01*
X196366313Y-86999523D01*
X196644748Y-86813479D01*
X196954128Y-86685330D01*
X197118347Y-86652665D01*
X197282563Y-86620000D01*
X197617437Y-86620000D01*
X197781654Y-86652665D01*
X197781654Y-86652665D01*
G37*
G36*
X173483687Y-85823027D02*
G01*
X173661274Y-85858350D01*
X173852362Y-85937502D01*
X174024336Y-86052411D01*
X174170589Y-86198664D01*
X174285498Y-86370638D01*
X174364650Y-86561726D01*
X174405000Y-86764584D01*
X174405000Y-86971416D01*
X174364650Y-87174274D01*
X174285498Y-87365362D01*
X174170589Y-87537336D01*
X174024336Y-87683589D01*
X173852362Y-87798498D01*
X173661274Y-87877650D01*
X173483687Y-87912973D01*
X173458417Y-87918000D01*
X173251583Y-87918000D01*
X173226313Y-87912973D01*
X173048726Y-87877650D01*
X172857638Y-87798498D01*
X172685664Y-87683589D01*
X172539411Y-87537336D01*
X172424502Y-87365362D01*
X172345350Y-87174274D01*
X172305000Y-86971416D01*
X172305000Y-86764584D01*
X172345350Y-86561726D01*
X172424502Y-86370638D01*
X172539411Y-86198664D01*
X172685664Y-86052411D01*
X172857638Y-85937502D01*
X173048726Y-85858350D01*
X173226313Y-85823027D01*
X173251583Y-85818000D01*
X173458417Y-85818000D01*
X173483687Y-85823027D01*
X173483687Y-85823027D01*
G37*
G36*
X158243687Y-85823027D02*
G01*
X158421274Y-85858350D01*
X158612362Y-85937502D01*
X158784336Y-86052411D01*
X158930589Y-86198664D01*
X159045498Y-86370638D01*
X159124650Y-86561726D01*
X159165000Y-86764584D01*
X159165000Y-86971416D01*
X159124650Y-87174274D01*
X159045498Y-87365362D01*
X158930589Y-87537336D01*
X158784336Y-87683589D01*
X158612362Y-87798498D01*
X158421274Y-87877650D01*
X158243687Y-87912973D01*
X158218417Y-87918000D01*
X158011583Y-87918000D01*
X157986313Y-87912973D01*
X157808726Y-87877650D01*
X157617638Y-87798498D01*
X157445664Y-87683589D01*
X157299411Y-87537336D01*
X157184502Y-87365362D01*
X157105350Y-87174274D01*
X157065000Y-86971416D01*
X157065000Y-86764584D01*
X157105350Y-86561726D01*
X157184502Y-86370638D01*
X157299411Y-86198664D01*
X157445664Y-86052411D01*
X157617638Y-85937502D01*
X157808726Y-85858350D01*
X157986313Y-85823027D01*
X158011583Y-85818000D01*
X158218417Y-85818000D01*
X158243687Y-85823027D01*
X158243687Y-85823027D01*
G37*
G36*
X158243687Y-83283027D02*
G01*
X158421274Y-83318350D01*
X158612362Y-83397502D01*
X158784336Y-83512411D01*
X158930589Y-83658664D01*
X159045498Y-83830638D01*
X159124650Y-84021726D01*
X159165000Y-84224584D01*
X159165000Y-84431416D01*
X159124650Y-84634274D01*
X159045498Y-84825362D01*
X158930589Y-84997336D01*
X158784336Y-85143589D01*
X158612362Y-85258498D01*
X158421274Y-85337650D01*
X158243687Y-85372973D01*
X158218417Y-85378000D01*
X158011583Y-85378000D01*
X157986313Y-85372973D01*
X157808726Y-85337650D01*
X157617638Y-85258498D01*
X157445664Y-85143589D01*
X157299411Y-84997336D01*
X157184502Y-84825362D01*
X157105350Y-84634274D01*
X157065000Y-84431416D01*
X157065000Y-84224584D01*
X157105350Y-84021726D01*
X157184502Y-83830638D01*
X157299411Y-83658664D01*
X157445664Y-83512411D01*
X157617638Y-83397502D01*
X157808726Y-83318350D01*
X157986313Y-83283027D01*
X158011583Y-83278000D01*
X158218417Y-83278000D01*
X158243687Y-83283027D01*
X158243687Y-83283027D01*
G37*
G36*
X173483687Y-83283027D02*
G01*
X173661274Y-83318350D01*
X173852362Y-83397502D01*
X174024336Y-83512411D01*
X174170589Y-83658664D01*
X174285498Y-83830638D01*
X174364650Y-84021726D01*
X174405000Y-84224584D01*
X174405000Y-84431416D01*
X174364650Y-84634274D01*
X174285498Y-84825362D01*
X174170589Y-84997336D01*
X174024336Y-85143589D01*
X173852362Y-85258498D01*
X173661274Y-85337650D01*
X173483687Y-85372973D01*
X173458417Y-85378000D01*
X173251583Y-85378000D01*
X173226313Y-85372973D01*
X173048726Y-85337650D01*
X172857638Y-85258498D01*
X172685664Y-85143589D01*
X172539411Y-84997336D01*
X172424502Y-84825362D01*
X172345350Y-84634274D01*
X172305000Y-84431416D01*
X172305000Y-84224584D01*
X172345350Y-84021726D01*
X172424502Y-83830638D01*
X172539411Y-83658664D01*
X172685664Y-83512411D01*
X172857638Y-83397502D01*
X173048726Y-83318350D01*
X173226313Y-83283027D01*
X173251583Y-83278000D01*
X173458417Y-83278000D01*
X173483687Y-83283027D01*
X173483687Y-83283027D01*
G37*
G36*
X181162000Y-84800000D02*
G01*
X178238000Y-84800000D01*
X178238000Y-83200000D01*
X181162000Y-83200000D01*
X181162000Y-84800000D01*
X181162000Y-84800000D01*
G37*
G36*
X173483687Y-80743027D02*
G01*
X173661274Y-80778350D01*
X173852362Y-80857502D01*
X174024336Y-80972411D01*
X174170589Y-81118664D01*
X174285498Y-81290638D01*
X174364650Y-81481726D01*
X174405000Y-81684584D01*
X174405000Y-81891416D01*
X174364650Y-82094274D01*
X174285498Y-82285362D01*
X174170589Y-82457336D01*
X174024336Y-82603589D01*
X173852362Y-82718498D01*
X173661274Y-82797650D01*
X173483687Y-82832973D01*
X173458417Y-82838000D01*
X173251583Y-82838000D01*
X173226313Y-82832973D01*
X173048726Y-82797650D01*
X172857638Y-82718498D01*
X172685664Y-82603589D01*
X172539411Y-82457336D01*
X172424502Y-82285362D01*
X172345350Y-82094274D01*
X172305000Y-81891416D01*
X172305000Y-81684584D01*
X172345350Y-81481726D01*
X172424502Y-81290638D01*
X172539411Y-81118664D01*
X172685664Y-80972411D01*
X172857638Y-80857502D01*
X173048726Y-80778350D01*
X173226313Y-80743027D01*
X173251583Y-80738000D01*
X173458417Y-80738000D01*
X173483687Y-80743027D01*
X173483687Y-80743027D01*
G37*
G36*
X158243687Y-80743027D02*
G01*
X158421274Y-80778350D01*
X158612362Y-80857502D01*
X158784336Y-80972411D01*
X158930589Y-81118664D01*
X159045498Y-81290638D01*
X159124650Y-81481726D01*
X159165000Y-81684584D01*
X159165000Y-81891416D01*
X159124650Y-82094274D01*
X159045498Y-82285362D01*
X158930589Y-82457336D01*
X158784336Y-82603589D01*
X158612362Y-82718498D01*
X158421274Y-82797650D01*
X158243687Y-82832973D01*
X158218417Y-82838000D01*
X158011583Y-82838000D01*
X157986313Y-82832973D01*
X157808726Y-82797650D01*
X157617638Y-82718498D01*
X157445664Y-82603589D01*
X157299411Y-82457336D01*
X157184502Y-82285362D01*
X157105350Y-82094274D01*
X157065000Y-81891416D01*
X157065000Y-81684584D01*
X157105350Y-81481726D01*
X157184502Y-81290638D01*
X157299411Y-81118664D01*
X157445664Y-80972411D01*
X157617638Y-80857502D01*
X157808726Y-80778350D01*
X157986313Y-80743027D01*
X158011583Y-80738000D01*
X158218417Y-80738000D01*
X158243687Y-80743027D01*
X158243687Y-80743027D01*
G37*
G36*
X181162000Y-82800000D02*
G01*
X178238000Y-82800000D01*
X178238000Y-81200000D01*
X181162000Y-81200000D01*
X181162000Y-82800000D01*
X181162000Y-82800000D01*
G37*
G36*
X148050026Y-80046115D02*
G01*
X148268411Y-80136573D01*
X148268413Y-80136574D01*
X148449615Y-80257649D01*
X148464955Y-80267899D01*
X148632101Y-80435045D01*
X148763427Y-80631589D01*
X148853885Y-80849974D01*
X148900000Y-81081809D01*
X148900000Y-81318191D01*
X148853885Y-81550026D01*
X148798149Y-81684584D01*
X148763426Y-81768413D01*
X148632101Y-81964955D01*
X148464955Y-82132101D01*
X148268413Y-82263426D01*
X148268412Y-82263427D01*
X148268411Y-82263427D01*
X148050026Y-82353885D01*
X147818191Y-82400000D01*
X147581809Y-82400000D01*
X147349974Y-82353885D01*
X147131589Y-82263427D01*
X147131588Y-82263427D01*
X147131587Y-82263426D01*
X146935045Y-82132101D01*
X146767899Y-81964955D01*
X146636574Y-81768413D01*
X146601851Y-81684584D01*
X146546115Y-81550026D01*
X146500000Y-81318191D01*
X146500000Y-81081809D01*
X146546115Y-80849974D01*
X146636573Y-80631589D01*
X146767899Y-80435045D01*
X146935045Y-80267899D01*
X146950385Y-80257649D01*
X147131587Y-80136574D01*
X147131589Y-80136573D01*
X147349974Y-80046115D01*
X147581809Y-80000000D01*
X147818191Y-80000000D01*
X148050026Y-80046115D01*
X148050026Y-80046115D01*
G37*
G36*
X152550026Y-80046115D02*
G01*
X152768411Y-80136573D01*
X152768413Y-80136574D01*
X152949615Y-80257649D01*
X152964955Y-80267899D01*
X153132101Y-80435045D01*
X153263427Y-80631589D01*
X153353885Y-80849974D01*
X153400000Y-81081809D01*
X153400000Y-81318191D01*
X153353885Y-81550026D01*
X153298149Y-81684584D01*
X153263426Y-81768413D01*
X153132101Y-81964955D01*
X152964955Y-82132101D01*
X152768413Y-82263426D01*
X152768412Y-82263427D01*
X152768411Y-82263427D01*
X152550026Y-82353885D01*
X152318191Y-82400000D01*
X152081809Y-82400000D01*
X151849974Y-82353885D01*
X151631589Y-82263427D01*
X151631588Y-82263427D01*
X151631587Y-82263426D01*
X151435045Y-82132101D01*
X151267899Y-81964955D01*
X151136574Y-81768413D01*
X151101851Y-81684584D01*
X151046115Y-81550026D01*
X151000000Y-81318191D01*
X151000000Y-81081809D01*
X151046115Y-80849974D01*
X151136573Y-80631589D01*
X151267899Y-80435045D01*
X151435045Y-80267899D01*
X151450385Y-80257649D01*
X151631587Y-80136574D01*
X151631589Y-80136573D01*
X151849974Y-80046115D01*
X152081809Y-80000000D01*
X152318191Y-80000000D01*
X152550026Y-80046115D01*
X152550026Y-80046115D01*
G37*
G36*
X200162000Y-76600000D02*
G01*
X199081858Y-76600000D01*
X199057472Y-76602402D01*
X199034023Y-76609515D01*
X199012412Y-76621066D01*
X198993470Y-76636611D01*
X198977925Y-76655553D01*
X198966374Y-76677164D01*
X198959261Y-76700613D01*
X198956859Y-76724999D01*
X198959261Y-76749385D01*
X198966374Y-76772834D01*
X198977925Y-76794445D01*
X198993470Y-76813387D01*
X199012412Y-76828932D01*
X199034023Y-76840483D01*
X199043014Y-76843211D01*
X199050028Y-76846116D01*
X199050027Y-76846116D01*
X199268413Y-76936574D01*
X199464955Y-77067899D01*
X199632101Y-77235045D01*
X199727177Y-77377336D01*
X199763427Y-77431589D01*
X199853885Y-77649974D01*
X199900000Y-77881809D01*
X199900000Y-78118191D01*
X199853885Y-78350026D01*
X199763427Y-78568411D01*
X199763426Y-78568413D01*
X199632101Y-78764955D01*
X199464955Y-78932101D01*
X199268413Y-79063426D01*
X199268412Y-79063427D01*
X199268411Y-79063427D01*
X199043016Y-79156789D01*
X199034022Y-79159517D01*
X199012412Y-79171069D01*
X198993470Y-79186614D01*
X198977925Y-79205556D01*
X198966374Y-79227167D01*
X198959261Y-79250616D01*
X198956859Y-79275002D01*
X198959261Y-79299388D01*
X198966374Y-79322837D01*
X198977926Y-79344447D01*
X198993471Y-79363389D01*
X199012413Y-79378934D01*
X199034024Y-79390485D01*
X199057473Y-79397598D01*
X199081858Y-79400000D01*
X200162000Y-79400000D01*
X200162000Y-81000000D01*
X197238000Y-81000000D01*
X197238000Y-79400000D01*
X198318142Y-79400000D01*
X198342528Y-79397598D01*
X198365977Y-79390485D01*
X198387588Y-79378934D01*
X198406530Y-79363389D01*
X198422075Y-79344447D01*
X198433626Y-79322836D01*
X198440739Y-79299387D01*
X198443141Y-79275001D01*
X198440739Y-79250615D01*
X198433626Y-79227166D01*
X198422075Y-79205555D01*
X198406530Y-79186613D01*
X198387588Y-79171068D01*
X198365977Y-79159517D01*
X198356986Y-79156789D01*
X198131589Y-79063427D01*
X198131588Y-79063427D01*
X198131587Y-79063426D01*
X197935045Y-78932101D01*
X197858095Y-78855151D01*
X197839153Y-78839606D01*
X197817542Y-78828055D01*
X197794093Y-78820942D01*
X197769707Y-78818540D01*
X197246060Y-78818540D01*
X197246060Y-77218540D01*
X197732627Y-77218540D01*
X197757013Y-77216138D01*
X197780462Y-77209025D01*
X197802073Y-77197474D01*
X197821015Y-77181929D01*
X197935045Y-77067899D01*
X198015304Y-77014272D01*
X198131587Y-76936574D01*
X198131589Y-76936573D01*
X198356984Y-76843211D01*
X198365978Y-76840483D01*
X198387588Y-76828931D01*
X198406530Y-76813386D01*
X198422075Y-76794444D01*
X198433626Y-76772833D01*
X198440739Y-76749384D01*
X198443141Y-76724998D01*
X198440739Y-76700612D01*
X198433626Y-76677163D01*
X198422074Y-76655553D01*
X198406529Y-76636611D01*
X198387587Y-76621066D01*
X198365976Y-76609515D01*
X198342527Y-76602402D01*
X198318142Y-76600000D01*
X197238000Y-76600000D01*
X197238000Y-75000000D01*
X200162000Y-75000000D01*
X200162000Y-76600000D01*
X200162000Y-76600000D01*
G37*
G36*
X181162000Y-80800000D02*
G01*
X178238000Y-80800000D01*
X178238000Y-79200000D01*
X181162000Y-79200000D01*
X181162000Y-80800000D01*
X181162000Y-80800000D01*
G37*
G36*
X158243687Y-78203027D02*
G01*
X158421274Y-78238350D01*
X158612362Y-78317502D01*
X158784336Y-78432411D01*
X158930589Y-78578664D01*
X159045498Y-78750638D01*
X159124650Y-78941726D01*
X159148857Y-79063426D01*
X159165000Y-79144583D01*
X159165000Y-79351417D01*
X159159973Y-79376687D01*
X159124650Y-79554274D01*
X159045498Y-79745362D01*
X158930589Y-79917336D01*
X158784336Y-80063589D01*
X158612362Y-80178498D01*
X158421274Y-80257650D01*
X158243687Y-80292973D01*
X158218417Y-80298000D01*
X158011583Y-80298000D01*
X157986313Y-80292973D01*
X157808726Y-80257650D01*
X157617638Y-80178498D01*
X157445664Y-80063589D01*
X157299411Y-79917336D01*
X157184502Y-79745362D01*
X157105350Y-79554274D01*
X157070027Y-79376687D01*
X157065000Y-79351417D01*
X157065000Y-79144583D01*
X157081143Y-79063426D01*
X157105350Y-78941726D01*
X157184502Y-78750638D01*
X157299411Y-78578664D01*
X157445664Y-78432411D01*
X157617638Y-78317502D01*
X157808726Y-78238350D01*
X157986313Y-78203027D01*
X158011583Y-78198000D01*
X158218417Y-78198000D01*
X158243687Y-78203027D01*
X158243687Y-78203027D01*
G37*
G36*
X173483687Y-78203027D02*
G01*
X173661274Y-78238350D01*
X173852362Y-78317502D01*
X174024336Y-78432411D01*
X174170589Y-78578664D01*
X174285498Y-78750638D01*
X174364650Y-78941726D01*
X174388857Y-79063426D01*
X174405000Y-79144583D01*
X174405000Y-79351417D01*
X174399973Y-79376687D01*
X174364650Y-79554274D01*
X174285498Y-79745362D01*
X174170589Y-79917336D01*
X174024336Y-80063589D01*
X173852362Y-80178498D01*
X173661274Y-80257650D01*
X173483687Y-80292973D01*
X173458417Y-80298000D01*
X173251583Y-80298000D01*
X173226313Y-80292973D01*
X173048726Y-80257650D01*
X172857638Y-80178498D01*
X172685664Y-80063589D01*
X172539411Y-79917336D01*
X172424502Y-79745362D01*
X172345350Y-79554274D01*
X172310027Y-79376687D01*
X172305000Y-79351417D01*
X172305000Y-79144583D01*
X172321143Y-79063426D01*
X172345350Y-78941726D01*
X172424502Y-78750638D01*
X172539411Y-78578664D01*
X172685664Y-78432411D01*
X172857638Y-78317502D01*
X173048726Y-78238350D01*
X173226313Y-78203027D01*
X173251583Y-78198000D01*
X173458417Y-78198000D01*
X173483687Y-78203027D01*
X173483687Y-78203027D01*
G37*
G36*
X181162000Y-78800000D02*
G01*
X178238000Y-78800000D01*
X178238000Y-77200000D01*
X181162000Y-77200000D01*
X181162000Y-78800000D01*
X181162000Y-78800000D01*
G37*
G36*
X158243687Y-75663027D02*
G01*
X158421274Y-75698350D01*
X158612362Y-75777502D01*
X158784336Y-75892411D01*
X158930589Y-76038664D01*
X159045498Y-76210638D01*
X159124650Y-76401726D01*
X159165000Y-76604584D01*
X159165000Y-76811416D01*
X159124650Y-77014274D01*
X159045498Y-77205362D01*
X158930589Y-77377336D01*
X158784336Y-77523589D01*
X158612362Y-77638498D01*
X158421274Y-77717650D01*
X158243687Y-77752973D01*
X158218417Y-77758000D01*
X158011583Y-77758000D01*
X157986313Y-77752973D01*
X157808726Y-77717650D01*
X157617638Y-77638498D01*
X157445664Y-77523589D01*
X157299411Y-77377336D01*
X157184502Y-77205362D01*
X157105350Y-77014274D01*
X157065000Y-76811416D01*
X157065000Y-76604584D01*
X157105350Y-76401726D01*
X157184502Y-76210638D01*
X157299411Y-76038664D01*
X157445664Y-75892411D01*
X157617638Y-75777502D01*
X157808726Y-75698350D01*
X157986313Y-75663027D01*
X158011583Y-75658000D01*
X158218417Y-75658000D01*
X158243687Y-75663027D01*
X158243687Y-75663027D01*
G37*
G36*
X173483687Y-75663027D02*
G01*
X173661274Y-75698350D01*
X173852362Y-75777502D01*
X174024336Y-75892411D01*
X174170589Y-76038664D01*
X174285498Y-76210638D01*
X174364650Y-76401726D01*
X174405000Y-76604584D01*
X174405000Y-76811416D01*
X174364650Y-77014274D01*
X174285498Y-77205362D01*
X174170589Y-77377336D01*
X174024336Y-77523589D01*
X173852362Y-77638498D01*
X173661274Y-77717650D01*
X173483687Y-77752973D01*
X173458417Y-77758000D01*
X173251583Y-77758000D01*
X173226313Y-77752973D01*
X173048726Y-77717650D01*
X172857638Y-77638498D01*
X172685664Y-77523589D01*
X172539411Y-77377336D01*
X172424502Y-77205362D01*
X172345350Y-77014274D01*
X172305000Y-76811416D01*
X172305000Y-76604584D01*
X172345350Y-76401726D01*
X172424502Y-76210638D01*
X172539411Y-76038664D01*
X172685664Y-75892411D01*
X172857638Y-75777502D01*
X173048726Y-75698350D01*
X173226313Y-75663027D01*
X173251583Y-75658000D01*
X173458417Y-75658000D01*
X173483687Y-75663027D01*
X173483687Y-75663027D01*
G37*
G36*
X181162000Y-76800000D02*
G01*
X178238000Y-76800000D01*
X178238000Y-75200000D01*
X181162000Y-75200000D01*
X181162000Y-76800000D01*
X181162000Y-76800000D01*
G37*
G36*
X164265000Y-76475000D02*
G01*
X163265000Y-76475000D01*
X163265000Y-74525000D01*
X164265000Y-74525000D01*
X164265000Y-76475000D01*
X164265000Y-76475000D01*
G37*
G36*
X166805000Y-76475000D02*
G01*
X165805000Y-76475000D01*
X165805000Y-74525000D01*
X166805000Y-74525000D01*
X166805000Y-76475000D01*
X166805000Y-76475000D01*
G37*
G36*
X165535000Y-76475000D02*
G01*
X164535000Y-76475000D01*
X164535000Y-74525000D01*
X165535000Y-74525000D01*
X165535000Y-76475000D01*
X165535000Y-76475000D01*
G37*
G36*
X162995000Y-76475000D02*
G01*
X161995000Y-76475000D01*
X161995000Y-74525000D01*
X162995000Y-74525000D01*
X162995000Y-76475000D01*
X162995000Y-76475000D01*
G37*
G36*
X169785529Y-74855710D02*
G01*
X169835378Y-74870831D01*
X169881310Y-74895382D01*
X169921574Y-74928426D01*
X169954618Y-74968690D01*
X169979169Y-75014622D01*
X169994290Y-75064471D01*
X170000000Y-75122444D01*
X170000000Y-76127556D01*
X169994290Y-76185529D01*
X169979169Y-76235378D01*
X169954618Y-76281310D01*
X169921574Y-76321574D01*
X169881310Y-76354618D01*
X169835378Y-76379169D01*
X169785529Y-76394290D01*
X169727556Y-76400000D01*
X168472444Y-76400000D01*
X168414471Y-76394290D01*
X168364622Y-76379169D01*
X168318690Y-76354618D01*
X168278426Y-76321574D01*
X168245382Y-76281310D01*
X168220831Y-76235378D01*
X168205710Y-76185529D01*
X168200000Y-76127556D01*
X168200000Y-75122444D01*
X168205710Y-75064471D01*
X168220831Y-75014622D01*
X168245382Y-74968690D01*
X168278426Y-74928426D01*
X168318690Y-74895382D01*
X168364622Y-74870831D01*
X168414471Y-74855710D01*
X168472444Y-74850000D01*
X169727556Y-74850000D01*
X169785529Y-74855710D01*
X169785529Y-74855710D01*
G37*
G36*
X148050026Y-73546115D02*
G01*
X148268411Y-73636573D01*
X148268413Y-73636574D01*
X148464955Y-73767899D01*
X148632101Y-73935045D01*
X148727324Y-74077556D01*
X148763427Y-74131589D01*
X148853885Y-74349974D01*
X148900000Y-74581809D01*
X148900000Y-74818191D01*
X148853885Y-75050026D01*
X148784308Y-75218000D01*
X148763426Y-75268413D01*
X148632101Y-75464955D01*
X148464955Y-75632101D01*
X148268413Y-75763426D01*
X148268412Y-75763427D01*
X148268411Y-75763427D01*
X148050026Y-75853885D01*
X147818191Y-75900000D01*
X147581809Y-75900000D01*
X147349974Y-75853885D01*
X147131589Y-75763427D01*
X147131588Y-75763427D01*
X147131587Y-75763426D01*
X146935045Y-75632101D01*
X146767899Y-75464955D01*
X146636574Y-75268413D01*
X146615692Y-75218000D01*
X146546115Y-75050026D01*
X146500000Y-74818191D01*
X146500000Y-74581809D01*
X146546115Y-74349974D01*
X146636573Y-74131589D01*
X146672677Y-74077556D01*
X146767899Y-73935045D01*
X146935045Y-73767899D01*
X147131587Y-73636574D01*
X147131589Y-73636573D01*
X147349974Y-73546115D01*
X147581809Y-73500000D01*
X147818191Y-73500000D01*
X148050026Y-73546115D01*
X148050026Y-73546115D01*
G37*
G36*
X152550026Y-73546115D02*
G01*
X152768411Y-73636573D01*
X152768413Y-73636574D01*
X152964955Y-73767899D01*
X153132101Y-73935045D01*
X153227324Y-74077556D01*
X153263427Y-74131589D01*
X153353885Y-74349974D01*
X153400000Y-74581809D01*
X153400000Y-74818191D01*
X153353885Y-75050026D01*
X153284308Y-75218000D01*
X153263426Y-75268413D01*
X153132101Y-75464955D01*
X152964955Y-75632101D01*
X152768413Y-75763426D01*
X152768412Y-75763427D01*
X152768411Y-75763427D01*
X152550026Y-75853885D01*
X152318191Y-75900000D01*
X152081809Y-75900000D01*
X151849974Y-75853885D01*
X151631589Y-75763427D01*
X151631588Y-75763427D01*
X151631587Y-75763426D01*
X151435045Y-75632101D01*
X151267899Y-75464955D01*
X151136574Y-75268413D01*
X151115692Y-75218000D01*
X151046115Y-75050026D01*
X151000000Y-74818191D01*
X151000000Y-74581809D01*
X151046115Y-74349974D01*
X151136573Y-74131589D01*
X151172677Y-74077556D01*
X151267899Y-73935045D01*
X151435045Y-73767899D01*
X151631587Y-73636574D01*
X151631589Y-73636573D01*
X151849974Y-73546115D01*
X152081809Y-73500000D01*
X152318191Y-73500000D01*
X152550026Y-73546115D01*
X152550026Y-73546115D01*
G37*
G36*
X173483687Y-73123027D02*
G01*
X173661274Y-73158350D01*
X173852362Y-73237502D01*
X174024336Y-73352411D01*
X174170589Y-73498664D01*
X174285498Y-73670638D01*
X174364650Y-73861726D01*
X174405000Y-74064584D01*
X174405000Y-74271416D01*
X174364650Y-74474274D01*
X174285498Y-74665362D01*
X174170589Y-74837336D01*
X174024336Y-74983589D01*
X173852362Y-75098498D01*
X173661274Y-75177650D01*
X173483687Y-75212973D01*
X173458417Y-75218000D01*
X173251583Y-75218000D01*
X173226313Y-75212973D01*
X173048726Y-75177650D01*
X172857638Y-75098498D01*
X172685664Y-74983589D01*
X172539411Y-74837336D01*
X172424502Y-74665362D01*
X172345350Y-74474274D01*
X172305000Y-74271416D01*
X172305000Y-74064584D01*
X172345350Y-73861726D01*
X172424502Y-73670638D01*
X172539411Y-73498664D01*
X172685664Y-73352411D01*
X172857638Y-73237502D01*
X173048726Y-73158350D01*
X173226313Y-73123027D01*
X173251583Y-73118000D01*
X173458417Y-73118000D01*
X173483687Y-73123027D01*
X173483687Y-73123027D01*
G37*
G36*
X158243687Y-73123027D02*
G01*
X158421274Y-73158350D01*
X158612362Y-73237502D01*
X158784336Y-73352411D01*
X158930589Y-73498664D01*
X159045498Y-73670638D01*
X159124650Y-73861726D01*
X159165000Y-74064584D01*
X159165000Y-74271416D01*
X159124650Y-74474274D01*
X159045498Y-74665362D01*
X158930589Y-74837336D01*
X158784336Y-74983589D01*
X158612362Y-75098498D01*
X158421274Y-75177650D01*
X158243687Y-75212973D01*
X158218417Y-75218000D01*
X158011583Y-75218000D01*
X157986313Y-75212973D01*
X157808726Y-75177650D01*
X157617638Y-75098498D01*
X157445664Y-74983589D01*
X157299411Y-74837336D01*
X157184502Y-74665362D01*
X157105350Y-74474274D01*
X157065000Y-74271416D01*
X157065000Y-74064584D01*
X157105350Y-73861726D01*
X157184502Y-73670638D01*
X157299411Y-73498664D01*
X157445664Y-73352411D01*
X157617638Y-73237502D01*
X157808726Y-73158350D01*
X157986313Y-73123027D01*
X158011583Y-73118000D01*
X158218417Y-73118000D01*
X158243687Y-73123027D01*
X158243687Y-73123027D01*
G37*
G36*
X181162000Y-74800000D02*
G01*
X178238000Y-74800000D01*
X178238000Y-73200000D01*
X181162000Y-73200000D01*
X181162000Y-74800000D01*
X181162000Y-74800000D01*
G37*
G36*
X169785529Y-72805710D02*
G01*
X169835378Y-72820831D01*
X169881310Y-72845382D01*
X169921574Y-72878426D01*
X169954618Y-72918690D01*
X169979169Y-72964622D01*
X169994290Y-73014471D01*
X170000000Y-73072444D01*
X170000000Y-74077556D01*
X169994290Y-74135529D01*
X169979169Y-74185378D01*
X169954618Y-74231310D01*
X169921574Y-74271574D01*
X169881310Y-74304618D01*
X169835378Y-74329169D01*
X169785529Y-74344290D01*
X169727556Y-74350000D01*
X168472444Y-74350000D01*
X168414471Y-74344290D01*
X168364622Y-74329169D01*
X168318690Y-74304618D01*
X168278426Y-74271574D01*
X168245382Y-74231310D01*
X168220831Y-74185378D01*
X168205710Y-74135529D01*
X168200000Y-74077556D01*
X168200000Y-73072444D01*
X168205710Y-73014471D01*
X168220831Y-72964622D01*
X168245382Y-72918690D01*
X168278426Y-72878426D01*
X168318690Y-72845382D01*
X168364622Y-72820831D01*
X168414471Y-72805710D01*
X168472444Y-72800000D01*
X169727556Y-72800000D01*
X169785529Y-72805710D01*
X169785529Y-72805710D01*
G37*
G36*
X177685529Y-71255710D02*
G01*
X177735378Y-71270831D01*
X177781310Y-71295382D01*
X177821574Y-71328426D01*
X177854618Y-71368690D01*
X177879169Y-71414622D01*
X177894290Y-71464471D01*
X177900000Y-71522444D01*
X177900000Y-72527556D01*
X177894290Y-72585529D01*
X177879169Y-72635378D01*
X177854618Y-72681310D01*
X177821574Y-72721574D01*
X177781310Y-72754618D01*
X177735378Y-72779169D01*
X177685529Y-72794290D01*
X177627556Y-72800000D01*
X176372444Y-72800000D01*
X176314471Y-72794290D01*
X176264622Y-72779169D01*
X176218690Y-72754618D01*
X176178426Y-72721574D01*
X176145382Y-72681310D01*
X176120831Y-72635378D01*
X176105710Y-72585529D01*
X176100000Y-72527556D01*
X176100000Y-71522444D01*
X176105710Y-71464471D01*
X176120831Y-71414622D01*
X176145382Y-71368690D01*
X176178426Y-71328426D01*
X176218690Y-71295382D01*
X176264622Y-71270831D01*
X176314471Y-71255710D01*
X176372444Y-71250000D01*
X177627556Y-71250000D01*
X177685529Y-71255710D01*
X177685529Y-71255710D01*
G37*
G36*
X181162000Y-72800000D02*
G01*
X178238000Y-72800000D01*
X178238000Y-71200000D01*
X181162000Y-71200000D01*
X181162000Y-72800000D01*
X181162000Y-72800000D01*
G37*
G36*
X173483687Y-70583027D02*
G01*
X173661274Y-70618350D01*
X173852362Y-70697502D01*
X174024336Y-70812411D01*
X174170589Y-70958664D01*
X174285498Y-71130638D01*
X174364650Y-71321726D01*
X174393043Y-71464471D01*
X174404575Y-71522444D01*
X174405000Y-71524584D01*
X174405000Y-71731416D01*
X174364650Y-71934274D01*
X174285498Y-72125362D01*
X174170589Y-72297336D01*
X174024336Y-72443589D01*
X173852362Y-72558498D01*
X173661274Y-72637650D01*
X173483687Y-72672973D01*
X173458417Y-72678000D01*
X173251583Y-72678000D01*
X173226313Y-72672973D01*
X173048726Y-72637650D01*
X172857638Y-72558498D01*
X172685664Y-72443589D01*
X172539411Y-72297336D01*
X172424502Y-72125362D01*
X172345350Y-71934274D01*
X172305000Y-71731416D01*
X172305000Y-71524584D01*
X172305426Y-71522444D01*
X172316957Y-71464471D01*
X172345350Y-71321726D01*
X172424502Y-71130638D01*
X172539411Y-70958664D01*
X172685664Y-70812411D01*
X172857638Y-70697502D01*
X173048726Y-70618350D01*
X173226313Y-70583027D01*
X173251583Y-70578000D01*
X173458417Y-70578000D01*
X173483687Y-70583027D01*
X173483687Y-70583027D01*
G37*
G36*
X158243687Y-70583027D02*
G01*
X158421274Y-70618350D01*
X158612362Y-70697502D01*
X158784336Y-70812411D01*
X158930589Y-70958664D01*
X159045498Y-71130638D01*
X159124650Y-71321726D01*
X159153043Y-71464471D01*
X159164575Y-71522444D01*
X159165000Y-71524584D01*
X159165000Y-71731416D01*
X159124650Y-71934274D01*
X159045498Y-72125362D01*
X158930589Y-72297336D01*
X158784336Y-72443589D01*
X158612362Y-72558498D01*
X158421274Y-72637650D01*
X158243687Y-72672973D01*
X158218417Y-72678000D01*
X158011583Y-72678000D01*
X157986313Y-72672973D01*
X157808726Y-72637650D01*
X157617638Y-72558498D01*
X157445664Y-72443589D01*
X157299411Y-72297336D01*
X157184502Y-72125362D01*
X157105350Y-71934274D01*
X157065000Y-71731416D01*
X157065000Y-71524584D01*
X157065426Y-71522444D01*
X157076957Y-71464471D01*
X157105350Y-71321726D01*
X157184502Y-71130638D01*
X157299411Y-70958664D01*
X157445664Y-70812411D01*
X157617638Y-70697502D01*
X157808726Y-70618350D01*
X157986313Y-70583027D01*
X158011583Y-70578000D01*
X158218417Y-70578000D01*
X158243687Y-70583027D01*
X158243687Y-70583027D01*
G37*
G36*
X148250026Y-69446115D02*
G01*
X148468411Y-69536573D01*
X148468413Y-69536574D01*
X148664955Y-69667899D01*
X148832101Y-69835045D01*
X148963427Y-70031589D01*
X149053885Y-70249974D01*
X149100000Y-70481809D01*
X149100000Y-70718191D01*
X149053885Y-70950026D01*
X149002119Y-71075000D01*
X148963426Y-71168413D01*
X148832101Y-71364955D01*
X148664955Y-71532101D01*
X148468413Y-71663426D01*
X148468412Y-71663427D01*
X148468411Y-71663427D01*
X148250026Y-71753885D01*
X148018191Y-71800000D01*
X147781809Y-71800000D01*
X147549974Y-71753885D01*
X147331589Y-71663427D01*
X147331588Y-71663427D01*
X147331587Y-71663426D01*
X147135045Y-71532101D01*
X146967899Y-71364955D01*
X146836574Y-71168413D01*
X146797881Y-71075000D01*
X146746115Y-70950026D01*
X146700000Y-70718191D01*
X146700000Y-70481809D01*
X146746115Y-70249974D01*
X146836573Y-70031589D01*
X146967899Y-69835045D01*
X147135045Y-69667899D01*
X147331587Y-69536574D01*
X147331589Y-69536573D01*
X147549974Y-69446115D01*
X147781809Y-69400000D01*
X148018191Y-69400000D01*
X148250026Y-69446115D01*
X148250026Y-69446115D01*
G37*
G36*
X162995000Y-71075000D02*
G01*
X161995000Y-71075000D01*
X161995000Y-69125000D01*
X162995000Y-69125000D01*
X162995000Y-71075000D01*
X162995000Y-71075000D01*
G37*
G36*
X164265000Y-71075000D02*
G01*
X163265000Y-71075000D01*
X163265000Y-69125000D01*
X164265000Y-69125000D01*
X164265000Y-71075000D01*
X164265000Y-71075000D01*
G37*
G36*
X165535000Y-71075000D02*
G01*
X164535000Y-71075000D01*
X164535000Y-69125000D01*
X165535000Y-69125000D01*
X165535000Y-71075000D01*
X165535000Y-71075000D01*
G37*
G36*
X166805000Y-71075000D02*
G01*
X165805000Y-71075000D01*
X165805000Y-69125000D01*
X166805000Y-69125000D01*
X166805000Y-71075000D01*
X166805000Y-71075000D01*
G37*
G36*
X181162000Y-70800000D02*
G01*
X178238000Y-70800000D01*
X178238000Y-69200000D01*
X181162000Y-69200000D01*
X181162000Y-70800000D01*
X181162000Y-70800000D01*
G37*
G36*
X177685529Y-69205710D02*
G01*
X177735378Y-69220831D01*
X177781310Y-69245382D01*
X177821574Y-69278426D01*
X177854618Y-69318690D01*
X177879169Y-69364622D01*
X177894290Y-69414471D01*
X177900000Y-69472444D01*
X177900000Y-70477556D01*
X177894290Y-70535529D01*
X177879169Y-70585378D01*
X177854618Y-70631310D01*
X177821574Y-70671574D01*
X177781310Y-70704618D01*
X177735378Y-70729169D01*
X177685529Y-70744290D01*
X177627556Y-70750000D01*
X176372444Y-70750000D01*
X176314471Y-70744290D01*
X176264622Y-70729169D01*
X176218690Y-70704618D01*
X176178426Y-70671574D01*
X176145382Y-70631310D01*
X176120831Y-70585378D01*
X176105710Y-70535529D01*
X176100000Y-70477556D01*
X176100000Y-69472444D01*
X176105710Y-69414471D01*
X176120831Y-69364622D01*
X176145382Y-69318690D01*
X176178426Y-69278426D01*
X176218690Y-69245382D01*
X176264622Y-69220831D01*
X176314471Y-69205710D01*
X176372444Y-69200000D01*
X177627556Y-69200000D01*
X177685529Y-69205710D01*
X177685529Y-69205710D01*
G37*
M02*
