G04 #@! TF.GenerationSoftware,KiCad,Pcbnew,(5.1.2)-2*
G04 #@! TF.CreationDate,2019-11-16T00:04:25+01:00*
G04 #@! TF.ProjectId,STM32_2CH_Dimmer,53544d33-325f-4324-9348-5f44696d6d65,rev?*
G04 #@! TF.SameCoordinates,Original*
G04 #@! TF.FileFunction,Legend,Bot*
G04 #@! TF.FilePolarity,Positive*
%FSLAX46Y46*%
G04 Gerber Fmt 4.6, Leading zero omitted, Abs format (unit mm)*
G04 Created by KiCad (PCBNEW (5.1.2)-2) date 2019-11-16 00:04:25*
%MOMM*%
%LPD*%
G04 APERTURE LIST*
%ADD10C,0.100000*%
%ADD11C,0.150000*%
%ADD12C,0.125000*%
%ADD13C,0.120000*%
%ADD14C,0.010000*%
G04 APERTURE END LIST*
D10*
X175928571Y-102300000D02*
X175642857Y-102300000D01*
X175985714Y-102471428D02*
X175785714Y-101871428D01*
X175585714Y-102471428D01*
X175442857Y-101871428D02*
X175071428Y-101871428D01*
X175271428Y-102100000D01*
X175185714Y-102100000D01*
X175128571Y-102128571D01*
X175100000Y-102157142D01*
X175071428Y-102214285D01*
X175071428Y-102357142D01*
X175100000Y-102414285D01*
X175128571Y-102442857D01*
X175185714Y-102471428D01*
X175357142Y-102471428D01*
X175414285Y-102442857D01*
X175442857Y-102414285D01*
X175928571Y-99700000D02*
X175642857Y-99700000D01*
X175985714Y-99871428D02*
X175785714Y-99271428D01*
X175585714Y-99871428D01*
X175128571Y-99471428D02*
X175128571Y-99871428D01*
X175271428Y-99242857D02*
X175414285Y-99671428D01*
X175042857Y-99671428D01*
X175928571Y-97200000D02*
X175642857Y-97200000D01*
X175985714Y-97371428D02*
X175785714Y-96771428D01*
X175585714Y-97371428D01*
X175100000Y-96771428D02*
X175385714Y-96771428D01*
X175414285Y-97057142D01*
X175385714Y-97028571D01*
X175328571Y-97000000D01*
X175185714Y-97000000D01*
X175128571Y-97028571D01*
X175100000Y-97057142D01*
X175071428Y-97114285D01*
X175071428Y-97257142D01*
X175100000Y-97314285D01*
X175128571Y-97342857D01*
X175185714Y-97371428D01*
X175328571Y-97371428D01*
X175385714Y-97342857D01*
X175414285Y-97314285D01*
X175928571Y-94600000D02*
X175642857Y-94600000D01*
X175985714Y-94771428D02*
X175785714Y-94171428D01*
X175585714Y-94771428D01*
X175128571Y-94171428D02*
X175242857Y-94171428D01*
X175300000Y-94200000D01*
X175328571Y-94228571D01*
X175385714Y-94314285D01*
X175414285Y-94428571D01*
X175414285Y-94657142D01*
X175385714Y-94714285D01*
X175357142Y-94742857D01*
X175300000Y-94771428D01*
X175185714Y-94771428D01*
X175128571Y-94742857D01*
X175100000Y-94714285D01*
X175071428Y-94657142D01*
X175071428Y-94514285D01*
X175100000Y-94457142D01*
X175128571Y-94428571D01*
X175185714Y-94400000D01*
X175300000Y-94400000D01*
X175357142Y-94428571D01*
X175385714Y-94457142D01*
X175414285Y-94514285D01*
X175928571Y-92200000D02*
X175642857Y-92200000D01*
X175985714Y-92371428D02*
X175785714Y-91771428D01*
X175585714Y-92371428D01*
X175442857Y-91771428D02*
X175042857Y-91771428D01*
X175300000Y-92371428D01*
X175742857Y-89357142D02*
X175657142Y-89385714D01*
X175628571Y-89414285D01*
X175600000Y-89471428D01*
X175600000Y-89557142D01*
X175628571Y-89614285D01*
X175657142Y-89642857D01*
X175714285Y-89671428D01*
X175942857Y-89671428D01*
X175942857Y-89071428D01*
X175742857Y-89071428D01*
X175685714Y-89100000D01*
X175657142Y-89128571D01*
X175628571Y-89185714D01*
X175628571Y-89242857D01*
X175657142Y-89300000D01*
X175685714Y-89328571D01*
X175742857Y-89357142D01*
X175942857Y-89357142D01*
X175228571Y-89071428D02*
X175171428Y-89071428D01*
X175114285Y-89100000D01*
X175085714Y-89128571D01*
X175057142Y-89185714D01*
X175028571Y-89300000D01*
X175028571Y-89442857D01*
X175057142Y-89557142D01*
X175085714Y-89614285D01*
X175114285Y-89642857D01*
X175171428Y-89671428D01*
X175228571Y-89671428D01*
X175285714Y-89642857D01*
X175314285Y-89614285D01*
X175342857Y-89557142D01*
X175371428Y-89442857D01*
X175371428Y-89300000D01*
X175342857Y-89185714D01*
X175314285Y-89128571D01*
X175285714Y-89100000D01*
X175228571Y-89071428D01*
X175742857Y-86757142D02*
X175657142Y-86785714D01*
X175628571Y-86814285D01*
X175600000Y-86871428D01*
X175600000Y-86957142D01*
X175628571Y-87014285D01*
X175657142Y-87042857D01*
X175714285Y-87071428D01*
X175942857Y-87071428D01*
X175942857Y-86471428D01*
X175742857Y-86471428D01*
X175685714Y-86500000D01*
X175657142Y-86528571D01*
X175628571Y-86585714D01*
X175628571Y-86642857D01*
X175657142Y-86700000D01*
X175685714Y-86728571D01*
X175742857Y-86757142D01*
X175942857Y-86757142D01*
X175028571Y-87071428D02*
X175371428Y-87071428D01*
X175200000Y-87071428D02*
X175200000Y-86471428D01*
X175257142Y-86557142D01*
X175314285Y-86614285D01*
X175371428Y-86642857D01*
X176328571Y-84457142D02*
X176242857Y-84485714D01*
X176214285Y-84514285D01*
X176185714Y-84571428D01*
X176185714Y-84657142D01*
X176214285Y-84714285D01*
X176242857Y-84742857D01*
X176300000Y-84771428D01*
X176528571Y-84771428D01*
X176528571Y-84171428D01*
X176328571Y-84171428D01*
X176271428Y-84200000D01*
X176242857Y-84228571D01*
X176214285Y-84285714D01*
X176214285Y-84342857D01*
X176242857Y-84400000D01*
X176271428Y-84428571D01*
X176328571Y-84457142D01*
X176528571Y-84457142D01*
X175614285Y-84771428D02*
X175957142Y-84771428D01*
X175785714Y-84771428D02*
X175785714Y-84171428D01*
X175842857Y-84257142D01*
X175900000Y-84314285D01*
X175957142Y-84342857D01*
X175242857Y-84171428D02*
X175185714Y-84171428D01*
X175128571Y-84200000D01*
X175100000Y-84228571D01*
X175071428Y-84285714D01*
X175042857Y-84400000D01*
X175042857Y-84542857D01*
X175071428Y-84657142D01*
X175100000Y-84714285D01*
X175128571Y-84742857D01*
X175185714Y-84771428D01*
X175242857Y-84771428D01*
X175300000Y-84742857D01*
X175328571Y-84714285D01*
X175357142Y-84657142D01*
X175385714Y-84542857D01*
X175385714Y-84400000D01*
X175357142Y-84285714D01*
X175328571Y-84228571D01*
X175300000Y-84200000D01*
X175242857Y-84171428D01*
X176328571Y-76371428D02*
X175957142Y-76371428D01*
X176157142Y-76600000D01*
X176071428Y-76600000D01*
X176014285Y-76628571D01*
X175985714Y-76657142D01*
X175957142Y-76714285D01*
X175957142Y-76857142D01*
X175985714Y-76914285D01*
X176014285Y-76942857D01*
X176071428Y-76971428D01*
X176242857Y-76971428D01*
X176300000Y-76942857D01*
X176328571Y-76914285D01*
X175700000Y-76914285D02*
X175671428Y-76942857D01*
X175700000Y-76971428D01*
X175728571Y-76942857D01*
X175700000Y-76914285D01*
X175700000Y-76971428D01*
X175471428Y-76371428D02*
X175100000Y-76371428D01*
X175300000Y-76600000D01*
X175214285Y-76600000D01*
X175157142Y-76628571D01*
X175128571Y-76657142D01*
X175100000Y-76714285D01*
X175100000Y-76857142D01*
X175128571Y-76914285D01*
X175157142Y-76942857D01*
X175214285Y-76971428D01*
X175385714Y-76971428D01*
X175442857Y-76942857D01*
X175471428Y-76914285D01*
X175142857Y-73900000D02*
X175200000Y-73871428D01*
X175285714Y-73871428D01*
X175371428Y-73900000D01*
X175428571Y-73957142D01*
X175457142Y-74014285D01*
X175485714Y-74128571D01*
X175485714Y-74214285D01*
X175457142Y-74328571D01*
X175428571Y-74385714D01*
X175371428Y-74442857D01*
X175285714Y-74471428D01*
X175228571Y-74471428D01*
X175142857Y-74442857D01*
X175114285Y-74414285D01*
X175114285Y-74214285D01*
X175228571Y-74214285D01*
X175142857Y-71400000D02*
X175200000Y-71371428D01*
X175285714Y-71371428D01*
X175371428Y-71400000D01*
X175428571Y-71457142D01*
X175457142Y-71514285D01*
X175485714Y-71628571D01*
X175485714Y-71714285D01*
X175457142Y-71828571D01*
X175428571Y-71885714D01*
X175371428Y-71942857D01*
X175285714Y-71971428D01*
X175228571Y-71971428D01*
X175142857Y-71942857D01*
X175114285Y-71914285D01*
X175114285Y-71714285D01*
X175228571Y-71714285D01*
X156142857Y-102157142D02*
X156057142Y-102185714D01*
X156028571Y-102214285D01*
X156000000Y-102271428D01*
X156000000Y-102357142D01*
X156028571Y-102414285D01*
X156057142Y-102442857D01*
X156114285Y-102471428D01*
X156342857Y-102471428D01*
X156342857Y-101871428D01*
X156142857Y-101871428D01*
X156085714Y-101900000D01*
X156057142Y-101928571D01*
X156028571Y-101985714D01*
X156028571Y-102042857D01*
X156057142Y-102100000D01*
X156085714Y-102128571D01*
X156142857Y-102157142D01*
X156342857Y-102157142D01*
X155457142Y-101871428D02*
X155742857Y-101871428D01*
X155771428Y-102157142D01*
X155742857Y-102128571D01*
X155685714Y-102100000D01*
X155542857Y-102100000D01*
X155485714Y-102128571D01*
X155457142Y-102157142D01*
X155428571Y-102214285D01*
X155428571Y-102357142D01*
X155457142Y-102414285D01*
X155485714Y-102442857D01*
X155542857Y-102471428D01*
X155685714Y-102471428D01*
X155742857Y-102442857D01*
X155771428Y-102414285D01*
X156142857Y-104657142D02*
X156057142Y-104685714D01*
X156028571Y-104714285D01*
X156000000Y-104771428D01*
X156000000Y-104857142D01*
X156028571Y-104914285D01*
X156057142Y-104942857D01*
X156114285Y-104971428D01*
X156342857Y-104971428D01*
X156342857Y-104371428D01*
X156142857Y-104371428D01*
X156085714Y-104400000D01*
X156057142Y-104428571D01*
X156028571Y-104485714D01*
X156028571Y-104542857D01*
X156057142Y-104600000D01*
X156085714Y-104628571D01*
X156142857Y-104657142D01*
X156342857Y-104657142D01*
X155485714Y-104371428D02*
X155600000Y-104371428D01*
X155657142Y-104400000D01*
X155685714Y-104428571D01*
X155742857Y-104514285D01*
X155771428Y-104628571D01*
X155771428Y-104857142D01*
X155742857Y-104914285D01*
X155714285Y-104942857D01*
X155657142Y-104971428D01*
X155542857Y-104971428D01*
X155485714Y-104942857D01*
X155457142Y-104914285D01*
X155428571Y-104857142D01*
X155428571Y-104714285D01*
X155457142Y-104657142D01*
X155485714Y-104628571D01*
X155542857Y-104600000D01*
X155657142Y-104600000D01*
X155714285Y-104628571D01*
X155742857Y-104657142D01*
X155771428Y-104714285D01*
X156142857Y-107257142D02*
X156057142Y-107285714D01*
X156028571Y-107314285D01*
X156000000Y-107371428D01*
X156000000Y-107457142D01*
X156028571Y-107514285D01*
X156057142Y-107542857D01*
X156114285Y-107571428D01*
X156342857Y-107571428D01*
X156342857Y-106971428D01*
X156142857Y-106971428D01*
X156085714Y-107000000D01*
X156057142Y-107028571D01*
X156028571Y-107085714D01*
X156028571Y-107142857D01*
X156057142Y-107200000D01*
X156085714Y-107228571D01*
X156142857Y-107257142D01*
X156342857Y-107257142D01*
X155800000Y-106971428D02*
X155400000Y-106971428D01*
X155657142Y-107571428D01*
X156142857Y-109757142D02*
X156057142Y-109785714D01*
X156028571Y-109814285D01*
X156000000Y-109871428D01*
X156000000Y-109957142D01*
X156028571Y-110014285D01*
X156057142Y-110042857D01*
X156114285Y-110071428D01*
X156342857Y-110071428D01*
X156342857Y-109471428D01*
X156142857Y-109471428D01*
X156085714Y-109500000D01*
X156057142Y-109528571D01*
X156028571Y-109585714D01*
X156028571Y-109642857D01*
X156057142Y-109700000D01*
X156085714Y-109728571D01*
X156142857Y-109757142D01*
X156342857Y-109757142D01*
X155657142Y-109728571D02*
X155714285Y-109700000D01*
X155742857Y-109671428D01*
X155771428Y-109614285D01*
X155771428Y-109585714D01*
X155742857Y-109528571D01*
X155714285Y-109500000D01*
X155657142Y-109471428D01*
X155542857Y-109471428D01*
X155485714Y-109500000D01*
X155457142Y-109528571D01*
X155428571Y-109585714D01*
X155428571Y-109614285D01*
X155457142Y-109671428D01*
X155485714Y-109700000D01*
X155542857Y-109728571D01*
X155657142Y-109728571D01*
X155714285Y-109757142D01*
X155742857Y-109785714D01*
X155771428Y-109842857D01*
X155771428Y-109957142D01*
X155742857Y-110014285D01*
X155714285Y-110042857D01*
X155657142Y-110071428D01*
X155542857Y-110071428D01*
X155485714Y-110042857D01*
X155457142Y-110014285D01*
X155428571Y-109957142D01*
X155428571Y-109842857D01*
X155457142Y-109785714D01*
X155485714Y-109757142D01*
X155542857Y-109728571D01*
X156192857Y-112307142D02*
X156107142Y-112335714D01*
X156078571Y-112364285D01*
X156050000Y-112421428D01*
X156050000Y-112507142D01*
X156078571Y-112564285D01*
X156107142Y-112592857D01*
X156164285Y-112621428D01*
X156392857Y-112621428D01*
X156392857Y-112021428D01*
X156192857Y-112021428D01*
X156135714Y-112050000D01*
X156107142Y-112078571D01*
X156078571Y-112135714D01*
X156078571Y-112192857D01*
X156107142Y-112250000D01*
X156135714Y-112278571D01*
X156192857Y-112307142D01*
X156392857Y-112307142D01*
X155764285Y-112621428D02*
X155650000Y-112621428D01*
X155592857Y-112592857D01*
X155564285Y-112564285D01*
X155507142Y-112478571D01*
X155478571Y-112364285D01*
X155478571Y-112135714D01*
X155507142Y-112078571D01*
X155535714Y-112050000D01*
X155592857Y-112021428D01*
X155707142Y-112021428D01*
X155764285Y-112050000D01*
X155792857Y-112078571D01*
X155821428Y-112135714D01*
X155821428Y-112278571D01*
X155792857Y-112335714D01*
X155764285Y-112364285D01*
X155707142Y-112392857D01*
X155592857Y-112392857D01*
X155535714Y-112364285D01*
X155507142Y-112335714D01*
X155478571Y-112278571D01*
X156042857Y-117100000D02*
X156100000Y-117071428D01*
X156185714Y-117071428D01*
X156271428Y-117100000D01*
X156328571Y-117157142D01*
X156357142Y-117214285D01*
X156385714Y-117328571D01*
X156385714Y-117414285D01*
X156357142Y-117528571D01*
X156328571Y-117585714D01*
X156271428Y-117642857D01*
X156185714Y-117671428D01*
X156128571Y-117671428D01*
X156042857Y-117642857D01*
X156014285Y-117614285D01*
X156014285Y-117414285D01*
X156128571Y-117414285D01*
X156428571Y-119671428D02*
X156057142Y-119671428D01*
X156257142Y-119900000D01*
X156171428Y-119900000D01*
X156114285Y-119928571D01*
X156085714Y-119957142D01*
X156057142Y-120014285D01*
X156057142Y-120157142D01*
X156085714Y-120214285D01*
X156114285Y-120242857D01*
X156171428Y-120271428D01*
X156342857Y-120271428D01*
X156400000Y-120242857D01*
X156428571Y-120214285D01*
X155800000Y-120214285D02*
X155771428Y-120242857D01*
X155800000Y-120271428D01*
X155828571Y-120242857D01*
X155800000Y-120214285D01*
X155800000Y-120271428D01*
X155571428Y-119671428D02*
X155200000Y-119671428D01*
X155400000Y-119900000D01*
X155314285Y-119900000D01*
X155257142Y-119928571D01*
X155228571Y-119957142D01*
X155200000Y-120014285D01*
X155200000Y-120157142D01*
X155228571Y-120214285D01*
X155257142Y-120242857D01*
X155314285Y-120271428D01*
X155485714Y-120271428D01*
X155542857Y-120242857D01*
X155571428Y-120214285D01*
X156364285Y-87050000D02*
X156078571Y-87050000D01*
X156421428Y-87221428D02*
X156221428Y-86621428D01*
X156021428Y-87221428D01*
X155507142Y-87221428D02*
X155850000Y-87221428D01*
X155678571Y-87221428D02*
X155678571Y-86621428D01*
X155735714Y-86707142D01*
X155792857Y-86764285D01*
X155850000Y-86792857D01*
X155135714Y-86621428D02*
X155078571Y-86621428D01*
X155021428Y-86650000D01*
X154992857Y-86678571D01*
X154964285Y-86735714D01*
X154935714Y-86850000D01*
X154935714Y-86992857D01*
X154964285Y-87107142D01*
X154992857Y-87164285D01*
X155021428Y-87192857D01*
X155078571Y-87221428D01*
X155135714Y-87221428D01*
X155192857Y-87192857D01*
X155221428Y-87164285D01*
X155250000Y-87107142D01*
X155278571Y-86992857D01*
X155278571Y-86850000D01*
X155250000Y-86735714D01*
X155221428Y-86678571D01*
X155192857Y-86650000D01*
X155135714Y-86621428D01*
X156378571Y-84550000D02*
X156092857Y-84550000D01*
X156435714Y-84721428D02*
X156235714Y-84121428D01*
X156035714Y-84721428D01*
X155807142Y-84721428D02*
X155692857Y-84721428D01*
X155635714Y-84692857D01*
X155607142Y-84664285D01*
X155550000Y-84578571D01*
X155521428Y-84464285D01*
X155521428Y-84235714D01*
X155550000Y-84178571D01*
X155578571Y-84150000D01*
X155635714Y-84121428D01*
X155750000Y-84121428D01*
X155807142Y-84150000D01*
X155835714Y-84178571D01*
X155864285Y-84235714D01*
X155864285Y-84378571D01*
X155835714Y-84435714D01*
X155807142Y-84464285D01*
X155750000Y-84492857D01*
X155635714Y-84492857D01*
X155578571Y-84464285D01*
X155550000Y-84435714D01*
X155521428Y-84378571D01*
X156228571Y-79257142D02*
X156142857Y-79285714D01*
X156114285Y-79314285D01*
X156085714Y-79371428D01*
X156085714Y-79457142D01*
X156114285Y-79514285D01*
X156142857Y-79542857D01*
X156200000Y-79571428D01*
X156428571Y-79571428D01*
X156428571Y-78971428D01*
X156228571Y-78971428D01*
X156171428Y-79000000D01*
X156142857Y-79028571D01*
X156114285Y-79085714D01*
X156114285Y-79142857D01*
X156142857Y-79200000D01*
X156171428Y-79228571D01*
X156228571Y-79257142D01*
X156428571Y-79257142D01*
X155514285Y-79571428D02*
X155857142Y-79571428D01*
X155685714Y-79571428D02*
X155685714Y-78971428D01*
X155742857Y-79057142D01*
X155800000Y-79114285D01*
X155857142Y-79142857D01*
X154971428Y-78971428D02*
X155257142Y-78971428D01*
X155285714Y-79257142D01*
X155257142Y-79228571D01*
X155200000Y-79200000D01*
X155057142Y-79200000D01*
X155000000Y-79228571D01*
X154971428Y-79257142D01*
X154942857Y-79314285D01*
X154942857Y-79457142D01*
X154971428Y-79514285D01*
X155000000Y-79542857D01*
X155057142Y-79571428D01*
X155200000Y-79571428D01*
X155257142Y-79542857D01*
X155285714Y-79514285D01*
X156228571Y-76757142D02*
X156142857Y-76785714D01*
X156114285Y-76814285D01*
X156085714Y-76871428D01*
X156085714Y-76957142D01*
X156114285Y-77014285D01*
X156142857Y-77042857D01*
X156200000Y-77071428D01*
X156428571Y-77071428D01*
X156428571Y-76471428D01*
X156228571Y-76471428D01*
X156171428Y-76500000D01*
X156142857Y-76528571D01*
X156114285Y-76585714D01*
X156114285Y-76642857D01*
X156142857Y-76700000D01*
X156171428Y-76728571D01*
X156228571Y-76757142D01*
X156428571Y-76757142D01*
X155514285Y-77071428D02*
X155857142Y-77071428D01*
X155685714Y-77071428D02*
X155685714Y-76471428D01*
X155742857Y-76557142D01*
X155800000Y-76614285D01*
X155857142Y-76642857D01*
X155000000Y-76671428D02*
X155000000Y-77071428D01*
X155142857Y-76442857D02*
X155285714Y-76871428D01*
X154914285Y-76871428D01*
X156228571Y-74107142D02*
X156142857Y-74135714D01*
X156114285Y-74164285D01*
X156085714Y-74221428D01*
X156085714Y-74307142D01*
X156114285Y-74364285D01*
X156142857Y-74392857D01*
X156200000Y-74421428D01*
X156428571Y-74421428D01*
X156428571Y-73821428D01*
X156228571Y-73821428D01*
X156171428Y-73850000D01*
X156142857Y-73878571D01*
X156114285Y-73935714D01*
X156114285Y-73992857D01*
X156142857Y-74050000D01*
X156171428Y-74078571D01*
X156228571Y-74107142D01*
X156428571Y-74107142D01*
X155514285Y-74421428D02*
X155857142Y-74421428D01*
X155685714Y-74421428D02*
X155685714Y-73821428D01*
X155742857Y-73907142D01*
X155800000Y-73964285D01*
X155857142Y-73992857D01*
X155314285Y-73821428D02*
X154942857Y-73821428D01*
X155142857Y-74050000D01*
X155057142Y-74050000D01*
X155000000Y-74078571D01*
X154971428Y-74107142D01*
X154942857Y-74164285D01*
X154942857Y-74307142D01*
X154971428Y-74364285D01*
X155000000Y-74392857D01*
X155057142Y-74421428D01*
X155228571Y-74421428D01*
X155285714Y-74392857D01*
X155314285Y-74364285D01*
X156228571Y-71607142D02*
X156142857Y-71635714D01*
X156114285Y-71664285D01*
X156085714Y-71721428D01*
X156085714Y-71807142D01*
X156114285Y-71864285D01*
X156142857Y-71892857D01*
X156200000Y-71921428D01*
X156428571Y-71921428D01*
X156428571Y-71321428D01*
X156228571Y-71321428D01*
X156171428Y-71350000D01*
X156142857Y-71378571D01*
X156114285Y-71435714D01*
X156114285Y-71492857D01*
X156142857Y-71550000D01*
X156171428Y-71578571D01*
X156228571Y-71607142D01*
X156428571Y-71607142D01*
X155514285Y-71921428D02*
X155857142Y-71921428D01*
X155685714Y-71921428D02*
X155685714Y-71321428D01*
X155742857Y-71407142D01*
X155800000Y-71464285D01*
X155857142Y-71492857D01*
X155285714Y-71378571D02*
X155257142Y-71350000D01*
X155200000Y-71321428D01*
X155057142Y-71321428D01*
X155000000Y-71350000D01*
X154971428Y-71378571D01*
X154942857Y-71435714D01*
X154942857Y-71492857D01*
X154971428Y-71578571D01*
X155314285Y-71921428D01*
X154942857Y-71921428D01*
D11*
X161900000Y-79400000D02*
X161900000Y-70200000D01*
X169900000Y-79400000D02*
X161900000Y-79400000D01*
X169900000Y-70200000D02*
X169900000Y-79400000D01*
X161900000Y-70200000D02*
X169900000Y-70200000D01*
D12*
X166788095Y-75202380D02*
X166716666Y-75226190D01*
X166597619Y-75226190D01*
X166550000Y-75202380D01*
X166526190Y-75178571D01*
X166502380Y-75130952D01*
X166502380Y-75083333D01*
X166526190Y-75035714D01*
X166550000Y-75011904D01*
X166597619Y-74988095D01*
X166692857Y-74964285D01*
X166740476Y-74940476D01*
X166764285Y-74916666D01*
X166788095Y-74869047D01*
X166788095Y-74821428D01*
X166764285Y-74773809D01*
X166740476Y-74750000D01*
X166692857Y-74726190D01*
X166573809Y-74726190D01*
X166502380Y-74750000D01*
X166097619Y-75202380D02*
X166145238Y-75226190D01*
X166240476Y-75226190D01*
X166288095Y-75202380D01*
X166311904Y-75154761D01*
X166311904Y-74964285D01*
X166288095Y-74916666D01*
X166240476Y-74892857D01*
X166145238Y-74892857D01*
X166097619Y-74916666D01*
X166073809Y-74964285D01*
X166073809Y-75011904D01*
X166311904Y-75059523D01*
X165859523Y-75226190D02*
X165859523Y-74892857D01*
X165859523Y-74988095D02*
X165835714Y-74940476D01*
X165811904Y-74916666D01*
X165764285Y-74892857D01*
X165716666Y-74892857D01*
X165550000Y-75226190D02*
X165550000Y-74892857D01*
X165550000Y-74726190D02*
X165573809Y-74750000D01*
X165550000Y-74773809D01*
X165526190Y-74750000D01*
X165550000Y-74726190D01*
X165550000Y-74773809D01*
X165097619Y-75226190D02*
X165097619Y-74964285D01*
X165121428Y-74916666D01*
X165169047Y-74892857D01*
X165264285Y-74892857D01*
X165311904Y-74916666D01*
X165097619Y-75202380D02*
X165145238Y-75226190D01*
X165264285Y-75226190D01*
X165311904Y-75202380D01*
X165335714Y-75154761D01*
X165335714Y-75107142D01*
X165311904Y-75059523D01*
X165264285Y-75035714D01*
X165145238Y-75035714D01*
X165097619Y-75011904D01*
X164788095Y-75226190D02*
X164835714Y-75202380D01*
X164859523Y-75154761D01*
X164859523Y-74726190D01*
D11*
X159393201Y-86864200D02*
G75*
G03X159393201Y-86864200I-1274755J0D01*
G01*
X159367801Y-84349600D02*
G75*
G03X159367801Y-84349600I-1274755J0D01*
G01*
X168809523Y-73180000D02*
X168885714Y-73141904D01*
X169000000Y-73141904D01*
X169114285Y-73180000D01*
X169190476Y-73256190D01*
X169228571Y-73332380D01*
X169266666Y-73484761D01*
X169266666Y-73599047D01*
X169228571Y-73751428D01*
X169190476Y-73827619D01*
X169114285Y-73903809D01*
X169000000Y-73941904D01*
X168923809Y-73941904D01*
X168809523Y-73903809D01*
X168771428Y-73865714D01*
X168771428Y-73599047D01*
X168923809Y-73599047D01*
X168428571Y-73941904D02*
X168428571Y-73141904D01*
X167971428Y-73941904D01*
X167971428Y-73141904D01*
X167590476Y-73941904D02*
X167590476Y-73141904D01*
X167400000Y-73141904D01*
X167285714Y-73180000D01*
X167209523Y-73256190D01*
X167171428Y-73332380D01*
X167133333Y-73484761D01*
X167133333Y-73599047D01*
X167171428Y-73751428D01*
X167209523Y-73827619D01*
X167285714Y-73903809D01*
X167400000Y-73941904D01*
X167590476Y-73941904D01*
X169266666Y-78221904D02*
X169000000Y-79021904D01*
X168733333Y-78221904D01*
X168009523Y-78945714D02*
X168047619Y-78983809D01*
X168161904Y-79021904D01*
X168238095Y-79021904D01*
X168352380Y-78983809D01*
X168428571Y-78907619D01*
X168466666Y-78831428D01*
X168504761Y-78679047D01*
X168504761Y-78564761D01*
X168466666Y-78412380D01*
X168428571Y-78336190D01*
X168352380Y-78260000D01*
X168238095Y-78221904D01*
X168161904Y-78221904D01*
X168047619Y-78260000D01*
X168009523Y-78298095D01*
X167209523Y-78945714D02*
X167247619Y-78983809D01*
X167361904Y-79021904D01*
X167438095Y-79021904D01*
X167552380Y-78983809D01*
X167628571Y-78907619D01*
X167666666Y-78831428D01*
X167704761Y-78679047D01*
X167704761Y-78564761D01*
X167666666Y-78412380D01*
X167628571Y-78336190D01*
X167552380Y-78260000D01*
X167438095Y-78221904D01*
X167361904Y-78221904D01*
X167247619Y-78260000D01*
X167209523Y-78298095D01*
X163387333Y-79021904D02*
X163654000Y-78640952D01*
X163844476Y-79021904D02*
X163844476Y-78221904D01*
X163539714Y-78221904D01*
X163463523Y-78260000D01*
X163425428Y-78298095D01*
X163387333Y-78374285D01*
X163387333Y-78488571D01*
X163425428Y-78564761D01*
X163463523Y-78602857D01*
X163539714Y-78640952D01*
X163844476Y-78640952D01*
X163120666Y-78221904D02*
X162587333Y-79021904D01*
X162587333Y-78221904D02*
X163120666Y-79021904D01*
X163863523Y-73141904D02*
X163406380Y-73141904D01*
X163634952Y-73941904D02*
X163634952Y-73141904D01*
X163215904Y-73141904D02*
X162682571Y-73941904D01*
X162682571Y-73141904D02*
X163215904Y-73941904D01*
X151245428Y-117892857D02*
X151245428Y-117130952D01*
X150959714Y-117130952D02*
X150959714Y-117892857D01*
X150769238Y-115940476D02*
X150721619Y-115845238D01*
X150721619Y-115654761D01*
X150769238Y-115559523D01*
X150864476Y-115511904D01*
X150912095Y-115511904D01*
X151007333Y-115559523D01*
X151054952Y-115654761D01*
X151054952Y-115797619D01*
X151102571Y-115892857D01*
X151197809Y-115940476D01*
X151245428Y-115940476D01*
X151340666Y-115892857D01*
X151388285Y-115797619D01*
X151388285Y-115654761D01*
X151340666Y-115559523D01*
X150721619Y-114940476D02*
X150769238Y-115035714D01*
X150816857Y-115083333D01*
X150912095Y-115130952D01*
X151197809Y-115130952D01*
X151293047Y-115083333D01*
X151340666Y-115035714D01*
X151388285Y-114940476D01*
X151388285Y-114797619D01*
X151340666Y-114702380D01*
X151293047Y-114654761D01*
X151197809Y-114607142D01*
X150912095Y-114607142D01*
X150816857Y-114654761D01*
X150769238Y-114702380D01*
X150721619Y-114797619D01*
X150721619Y-114940476D01*
X150721619Y-114035714D02*
X150769238Y-114130952D01*
X150864476Y-114178571D01*
X151721619Y-114178571D01*
X150721619Y-113226190D02*
X151721619Y-113226190D01*
X150769238Y-113226190D02*
X150721619Y-113321428D01*
X150721619Y-113511904D01*
X150769238Y-113607142D01*
X150816857Y-113654761D01*
X150912095Y-113702380D01*
X151197809Y-113702380D01*
X151293047Y-113654761D01*
X151340666Y-113607142D01*
X151388285Y-113511904D01*
X151388285Y-113321428D01*
X151340666Y-113226190D01*
X150769238Y-112369047D02*
X150721619Y-112464285D01*
X150721619Y-112654761D01*
X150769238Y-112750000D01*
X150864476Y-112797619D01*
X151245428Y-112797619D01*
X151340666Y-112750000D01*
X151388285Y-112654761D01*
X151388285Y-112464285D01*
X151340666Y-112369047D01*
X151245428Y-112321428D01*
X151150190Y-112321428D01*
X151054952Y-112797619D01*
X150721619Y-111892857D02*
X151388285Y-111892857D01*
X151197809Y-111892857D02*
X151293047Y-111845238D01*
X151340666Y-111797619D01*
X151388285Y-111702380D01*
X151388285Y-111607142D01*
X150721619Y-110511904D02*
X151721619Y-110511904D01*
X151721619Y-110130952D01*
X151674000Y-110035714D01*
X151626380Y-109988095D01*
X151531142Y-109940476D01*
X151388285Y-109940476D01*
X151293047Y-109988095D01*
X151245428Y-110035714D01*
X151197809Y-110130952D01*
X151197809Y-110511904D01*
X150721619Y-109511904D02*
X151388285Y-109511904D01*
X151721619Y-109511904D02*
X151674000Y-109559523D01*
X151626380Y-109511904D01*
X151674000Y-109464285D01*
X151721619Y-109511904D01*
X151626380Y-109511904D01*
X151388285Y-109035714D02*
X150721619Y-109035714D01*
X151293047Y-109035714D02*
X151340666Y-108988095D01*
X151388285Y-108892857D01*
X151388285Y-108750000D01*
X151340666Y-108654761D01*
X151245428Y-108607142D01*
X150721619Y-108607142D01*
X152473509Y-120000000D02*
G75*
G03X152473509Y-120000000I-1274755J0D01*
G01*
X182047619Y-97823809D02*
X181047619Y-97490476D01*
X182047619Y-97157142D01*
X181047619Y-96300000D02*
X181047619Y-96871428D01*
X181047619Y-96585714D02*
X182047619Y-96585714D01*
X181904761Y-96680952D01*
X181809523Y-96776190D01*
X181761904Y-96871428D01*
X181142857Y-95871428D02*
X181095238Y-95823809D01*
X181047619Y-95871428D01*
X181095238Y-95919047D01*
X181142857Y-95871428D01*
X181047619Y-95871428D01*
X181714285Y-94966666D02*
X181047619Y-94966666D01*
X182095238Y-95204761D02*
X181380952Y-95442857D01*
X181380952Y-94823809D01*
X179147619Y-116071428D02*
X180147619Y-116071428D01*
X179147619Y-115642857D02*
X179671428Y-115642857D01*
X179766666Y-115690476D01*
X179814285Y-115785714D01*
X179814285Y-115928571D01*
X179766666Y-116023809D01*
X179719047Y-116071428D01*
X179814285Y-115309523D02*
X179814285Y-114928571D01*
X180147619Y-115166666D02*
X179290476Y-115166666D01*
X179195238Y-115119047D01*
X179147619Y-115023809D01*
X179147619Y-114928571D01*
X179814285Y-114738095D02*
X179814285Y-114357142D01*
X180147619Y-114595238D02*
X179290476Y-114595238D01*
X179195238Y-114547619D01*
X179147619Y-114452380D01*
X179147619Y-114357142D01*
X179814285Y-114023809D02*
X178814285Y-114023809D01*
X179766666Y-114023809D02*
X179814285Y-113928571D01*
X179814285Y-113738095D01*
X179766666Y-113642857D01*
X179719047Y-113595238D01*
X179623809Y-113547619D01*
X179338095Y-113547619D01*
X179242857Y-113595238D01*
X179195238Y-113642857D01*
X179147619Y-113738095D01*
X179147619Y-113928571D01*
X179195238Y-114023809D01*
X179195238Y-113166666D02*
X179147619Y-113071428D01*
X179147619Y-112880952D01*
X179195238Y-112785714D01*
X179290476Y-112738095D01*
X179338095Y-112738095D01*
X179433333Y-112785714D01*
X179480952Y-112880952D01*
X179480952Y-113023809D01*
X179528571Y-113119047D01*
X179623809Y-113166666D01*
X179671428Y-113166666D01*
X179766666Y-113119047D01*
X179814285Y-113023809D01*
X179814285Y-112880952D01*
X179766666Y-112785714D01*
X179242857Y-112309523D02*
X179195238Y-112261904D01*
X179147619Y-112309523D01*
X179195238Y-112357142D01*
X179242857Y-112309523D01*
X179147619Y-112309523D01*
X179766666Y-112309523D02*
X179719047Y-112261904D01*
X179671428Y-112309523D01*
X179719047Y-112357142D01*
X179766666Y-112309523D01*
X179671428Y-112309523D01*
X180195238Y-111119047D02*
X178909523Y-111976190D01*
X180195238Y-110071428D02*
X178909523Y-110928571D01*
X179814285Y-109309523D02*
X179004761Y-109309523D01*
X178909523Y-109357142D01*
X178861904Y-109404761D01*
X178814285Y-109500000D01*
X178814285Y-109642857D01*
X178861904Y-109738095D01*
X179195238Y-109309523D02*
X179147619Y-109404761D01*
X179147619Y-109595238D01*
X179195238Y-109690476D01*
X179242857Y-109738095D01*
X179338095Y-109785714D01*
X179623809Y-109785714D01*
X179719047Y-109738095D01*
X179766666Y-109690476D01*
X179814285Y-109595238D01*
X179814285Y-109404761D01*
X179766666Y-109309523D01*
X179147619Y-108833333D02*
X179814285Y-108833333D01*
X180147619Y-108833333D02*
X180100000Y-108880952D01*
X180052380Y-108833333D01*
X180100000Y-108785714D01*
X180147619Y-108833333D01*
X180052380Y-108833333D01*
X179814285Y-108500000D02*
X179814285Y-108119047D01*
X180147619Y-108357142D02*
X179290476Y-108357142D01*
X179195238Y-108309523D01*
X179147619Y-108214285D01*
X179147619Y-108119047D01*
X179147619Y-107785714D02*
X180147619Y-107785714D01*
X179147619Y-107357142D02*
X179671428Y-107357142D01*
X179766666Y-107404761D01*
X179814285Y-107500000D01*
X179814285Y-107642857D01*
X179766666Y-107738095D01*
X179719047Y-107785714D01*
X179814285Y-106452380D02*
X179147619Y-106452380D01*
X179814285Y-106880952D02*
X179290476Y-106880952D01*
X179195238Y-106833333D01*
X179147619Y-106738095D01*
X179147619Y-106595238D01*
X179195238Y-106500000D01*
X179242857Y-106452380D01*
X179147619Y-105976190D02*
X180147619Y-105976190D01*
X179766666Y-105976190D02*
X179814285Y-105880952D01*
X179814285Y-105690476D01*
X179766666Y-105595238D01*
X179719047Y-105547619D01*
X179623809Y-105500000D01*
X179338095Y-105500000D01*
X179242857Y-105547619D01*
X179195238Y-105595238D01*
X179147619Y-105690476D01*
X179147619Y-105880952D01*
X179195238Y-105976190D01*
X179242857Y-105071428D02*
X179195238Y-105023809D01*
X179147619Y-105071428D01*
X179195238Y-105119047D01*
X179242857Y-105071428D01*
X179147619Y-105071428D01*
X179195238Y-104166666D02*
X179147619Y-104261904D01*
X179147619Y-104452380D01*
X179195238Y-104547619D01*
X179242857Y-104595238D01*
X179338095Y-104642857D01*
X179623809Y-104642857D01*
X179719047Y-104595238D01*
X179766666Y-104547619D01*
X179814285Y-104452380D01*
X179814285Y-104261904D01*
X179766666Y-104166666D01*
X179147619Y-103595238D02*
X179195238Y-103690476D01*
X179242857Y-103738095D01*
X179338095Y-103785714D01*
X179623809Y-103785714D01*
X179719047Y-103738095D01*
X179766666Y-103690476D01*
X179814285Y-103595238D01*
X179814285Y-103452380D01*
X179766666Y-103357142D01*
X179719047Y-103309523D01*
X179623809Y-103261904D01*
X179338095Y-103261904D01*
X179242857Y-103309523D01*
X179195238Y-103357142D01*
X179147619Y-103452380D01*
X179147619Y-103595238D01*
X179147619Y-102833333D02*
X179814285Y-102833333D01*
X179719047Y-102833333D02*
X179766666Y-102785714D01*
X179814285Y-102690476D01*
X179814285Y-102547619D01*
X179766666Y-102452380D01*
X179671428Y-102404761D01*
X179147619Y-102404761D01*
X179671428Y-102404761D02*
X179766666Y-102357142D01*
X179814285Y-102261904D01*
X179814285Y-102119047D01*
X179766666Y-102023809D01*
X179671428Y-101976190D01*
X179147619Y-101976190D01*
X180195238Y-100785714D02*
X178909523Y-101642857D01*
X179147619Y-100023809D02*
X180147619Y-100023809D01*
X179195238Y-100023809D02*
X179147619Y-100119047D01*
X179147619Y-100309523D01*
X179195238Y-100404761D01*
X179242857Y-100452380D01*
X179338095Y-100500000D01*
X179623809Y-100500000D01*
X179719047Y-100452380D01*
X179766666Y-100404761D01*
X179814285Y-100309523D01*
X179814285Y-100119047D01*
X179766666Y-100023809D01*
X179195238Y-99166666D02*
X179147619Y-99261904D01*
X179147619Y-99452380D01*
X179195238Y-99547619D01*
X179290476Y-99595238D01*
X179671428Y-99595238D01*
X179766666Y-99547619D01*
X179814285Y-99452380D01*
X179814285Y-99261904D01*
X179766666Y-99166666D01*
X179671428Y-99119047D01*
X179576190Y-99119047D01*
X179480952Y-99595238D01*
X179147619Y-98690476D02*
X179814285Y-98690476D01*
X179623809Y-98690476D02*
X179719047Y-98642857D01*
X179766666Y-98595238D01*
X179814285Y-98500000D01*
X179814285Y-98404761D01*
X179528571Y-98071428D02*
X179528571Y-97309523D01*
X179814285Y-96833333D02*
X178814285Y-96833333D01*
X179766666Y-96833333D02*
X179814285Y-96738095D01*
X179814285Y-96547619D01*
X179766666Y-96452380D01*
X179719047Y-96404761D01*
X179623809Y-96357142D01*
X179338095Y-96357142D01*
X179242857Y-96404761D01*
X179195238Y-96452380D01*
X179147619Y-96547619D01*
X179147619Y-96738095D01*
X179195238Y-96833333D01*
X179814285Y-96023809D02*
X179147619Y-95833333D01*
X179623809Y-95642857D01*
X179147619Y-95452380D01*
X179814285Y-95261904D01*
X180195238Y-94166666D02*
X178909523Y-95023809D01*
X179147619Y-93833333D02*
X180147619Y-93833333D01*
X179147619Y-93404761D02*
X179671428Y-93404761D01*
X179766666Y-93452380D01*
X179814285Y-93547619D01*
X179814285Y-93690476D01*
X179766666Y-93785714D01*
X179719047Y-93833333D01*
X179147619Y-92928571D02*
X179814285Y-92928571D01*
X179719047Y-92928571D02*
X179766666Y-92880952D01*
X179814285Y-92785714D01*
X179814285Y-92642857D01*
X179766666Y-92547619D01*
X179671428Y-92500000D01*
X179147619Y-92500000D01*
X179671428Y-92500000D02*
X179766666Y-92452380D01*
X179814285Y-92357142D01*
X179814285Y-92214285D01*
X179766666Y-92119047D01*
X179671428Y-92071428D01*
X179147619Y-92071428D01*
X179052380Y-91833333D02*
X179052380Y-91071428D01*
X179195238Y-90880952D02*
X179147619Y-90785714D01*
X179147619Y-90595238D01*
X179195238Y-90500000D01*
X179290476Y-90452380D01*
X179338095Y-90452380D01*
X179433333Y-90500000D01*
X179480952Y-90595238D01*
X179480952Y-90738095D01*
X179528571Y-90833333D01*
X179623809Y-90880952D01*
X179671428Y-90880952D01*
X179766666Y-90833333D01*
X179814285Y-90738095D01*
X179814285Y-90595238D01*
X179766666Y-90500000D01*
X179814285Y-90166666D02*
X179814285Y-89785714D01*
X180147619Y-90023809D02*
X179290476Y-90023809D01*
X179195238Y-89976190D01*
X179147619Y-89880952D01*
X179147619Y-89785714D01*
X179147619Y-89452380D02*
X179814285Y-89452380D01*
X179719047Y-89452380D02*
X179766666Y-89404761D01*
X179814285Y-89309523D01*
X179814285Y-89166666D01*
X179766666Y-89071428D01*
X179671428Y-89023809D01*
X179147619Y-89023809D01*
X179671428Y-89023809D02*
X179766666Y-88976190D01*
X179814285Y-88880952D01*
X179814285Y-88738095D01*
X179766666Y-88642857D01*
X179671428Y-88595238D01*
X179147619Y-88595238D01*
X180147619Y-88214285D02*
X180147619Y-87595238D01*
X179766666Y-87928571D01*
X179766666Y-87785714D01*
X179719047Y-87690476D01*
X179671428Y-87642857D01*
X179576190Y-87595238D01*
X179338095Y-87595238D01*
X179242857Y-87642857D01*
X179195238Y-87690476D01*
X179147619Y-87785714D01*
X179147619Y-88071428D01*
X179195238Y-88166666D01*
X179242857Y-88214285D01*
X180052380Y-87214285D02*
X180100000Y-87166666D01*
X180147619Y-87071428D01*
X180147619Y-86833333D01*
X180100000Y-86738095D01*
X180052380Y-86690476D01*
X179957142Y-86642857D01*
X179861904Y-86642857D01*
X179719047Y-86690476D01*
X179147619Y-87261904D01*
X179147619Y-86642857D01*
X179052380Y-86452380D02*
X179052380Y-85690476D01*
X180052380Y-85500000D02*
X180100000Y-85452380D01*
X180147619Y-85357142D01*
X180147619Y-85119047D01*
X180100000Y-85023809D01*
X180052380Y-84976190D01*
X179957142Y-84928571D01*
X179861904Y-84928571D01*
X179719047Y-84976190D01*
X179147619Y-85547619D01*
X179147619Y-84928571D01*
X179195238Y-84071428D02*
X179147619Y-84166666D01*
X179147619Y-84357142D01*
X179195238Y-84452380D01*
X179242857Y-84500000D01*
X179338095Y-84547619D01*
X179623809Y-84547619D01*
X179719047Y-84500000D01*
X179766666Y-84452380D01*
X179814285Y-84357142D01*
X179814285Y-84166666D01*
X179766666Y-84071428D01*
X179147619Y-83642857D02*
X180147619Y-83642857D01*
X179147619Y-83214285D02*
X179671428Y-83214285D01*
X179766666Y-83261904D01*
X179814285Y-83357142D01*
X179814285Y-83500000D01*
X179766666Y-83595238D01*
X179719047Y-83642857D01*
X179052380Y-82976190D02*
X179052380Y-82214285D01*
X179147619Y-81547619D02*
X180147619Y-81547619D01*
X179195238Y-81547619D02*
X179147619Y-81642857D01*
X179147619Y-81833333D01*
X179195238Y-81928571D01*
X179242857Y-81976190D01*
X179338095Y-82023809D01*
X179623809Y-82023809D01*
X179719047Y-81976190D01*
X179766666Y-81928571D01*
X179814285Y-81833333D01*
X179814285Y-81642857D01*
X179766666Y-81547619D01*
X179147619Y-81071428D02*
X179814285Y-81071428D01*
X180147619Y-81071428D02*
X180100000Y-81119047D01*
X180052380Y-81071428D01*
X180100000Y-81023809D01*
X180147619Y-81071428D01*
X180052380Y-81071428D01*
X179147619Y-80595238D02*
X179814285Y-80595238D01*
X179719047Y-80595238D02*
X179766666Y-80547619D01*
X179814285Y-80452380D01*
X179814285Y-80309523D01*
X179766666Y-80214285D01*
X179671428Y-80166666D01*
X179147619Y-80166666D01*
X179671428Y-80166666D02*
X179766666Y-80119047D01*
X179814285Y-80023809D01*
X179814285Y-79880952D01*
X179766666Y-79785714D01*
X179671428Y-79738095D01*
X179147619Y-79738095D01*
X179147619Y-79261904D02*
X179814285Y-79261904D01*
X179719047Y-79261904D02*
X179766666Y-79214285D01*
X179814285Y-79119047D01*
X179814285Y-78976190D01*
X179766666Y-78880952D01*
X179671428Y-78833333D01*
X179147619Y-78833333D01*
X179671428Y-78833333D02*
X179766666Y-78785714D01*
X179814285Y-78690476D01*
X179814285Y-78547619D01*
X179766666Y-78452380D01*
X179671428Y-78404761D01*
X179147619Y-78404761D01*
X179195238Y-77547619D02*
X179147619Y-77642857D01*
X179147619Y-77833333D01*
X179195238Y-77928571D01*
X179290476Y-77976190D01*
X179671428Y-77976190D01*
X179766666Y-77928571D01*
X179814285Y-77833333D01*
X179814285Y-77642857D01*
X179766666Y-77547619D01*
X179671428Y-77500000D01*
X179576190Y-77500000D01*
X179480952Y-77976190D01*
X179147619Y-77071428D02*
X179814285Y-77071428D01*
X179623809Y-77071428D02*
X179719047Y-77023809D01*
X179766666Y-76976190D01*
X179814285Y-76880952D01*
X179814285Y-76785714D01*
X159389755Y-117352754D02*
G75*
G03X159389755Y-117352754I-1274755J0D01*
G01*
X174629755Y-71632754D02*
G75*
G03X174629755Y-71632754I-1274755J0D01*
G01*
X174629755Y-74147354D02*
G75*
G03X174629755Y-74147354I-1274755J0D01*
G01*
X174629755Y-76712754D02*
G75*
G03X174629755Y-76712754I-1274755J0D01*
G01*
X174629755Y-84307354D02*
G75*
G03X174629755Y-84307354I-1274755J0D01*
G01*
X174629755Y-86847354D02*
G75*
G03X174629755Y-86847354I-1274755J0D01*
G01*
X174629755Y-89387354D02*
G75*
G03X174629755Y-89387354I-1274755J0D01*
G01*
X174629755Y-91952754D02*
G75*
G03X174629755Y-91952754I-1274755J0D01*
G01*
X174629755Y-94488000D02*
G75*
G03X174629755Y-94488000I-1274755J0D01*
G01*
X174629755Y-97028000D02*
G75*
G03X174629755Y-97028000I-1274755J0D01*
G01*
X174629755Y-99568000D02*
G75*
G03X174629755Y-99568000I-1274755J0D01*
G01*
X174629755Y-102108000D02*
G75*
G03X174629755Y-102108000I-1274755J0D01*
G01*
X159415155Y-119913400D02*
G75*
G03X159415155Y-119913400I-1274755J0D01*
G01*
X159389755Y-112263246D02*
G75*
G03X159389755Y-112263246I-1274755J0D01*
G01*
X159389755Y-109723246D02*
G75*
G03X159389755Y-109723246I-1274755J0D01*
G01*
X159385001Y-107188000D02*
G75*
G03X159385001Y-107188000I-1274755J0D01*
G01*
X159385001Y-104648000D02*
G75*
G03X159385001Y-104648000I-1274755J0D01*
G01*
X159385001Y-102112754D02*
G75*
G03X159385001Y-102112754I-1274755J0D01*
G01*
X159385001Y-79248000D02*
G75*
G03X159385001Y-79248000I-1274755J0D01*
G01*
X159385001Y-76708000D02*
G75*
G03X159385001Y-76708000I-1274755J0D01*
G01*
X159385001Y-74168000D02*
G75*
G03X159385001Y-74168000I-1274755J0D01*
G01*
X159389755Y-71632754D02*
G75*
G03X159389755Y-71632754I-1274755J0D01*
G01*
D13*
X169360200Y-76678800D02*
G75*
G03X169360200Y-76678800I-950000J0D01*
G01*
X164280200Y-71598800D02*
G75*
G03X164280200Y-71598800I-950000J0D01*
G01*
X164280200Y-76678800D02*
G75*
G03X164280200Y-76678800I-950000J0D01*
G01*
X169360200Y-71598800D02*
G75*
G03X169360200Y-71598800I-950000J0D01*
G01*
D14*
G36*
X168433072Y-106633388D02*
G01*
X168431976Y-106551055D01*
X168429804Y-106412751D01*
X168427384Y-106302581D01*
X168424247Y-106214816D01*
X168419918Y-106143723D01*
X168413928Y-106083572D01*
X168405804Y-106028631D01*
X168395073Y-105973171D01*
X168381266Y-105911458D01*
X168378266Y-105898598D01*
X168288574Y-105582085D01*
X168171833Y-105285004D01*
X168026938Y-105005410D01*
X167852784Y-104741360D01*
X167648266Y-104490911D01*
X167476530Y-104313003D01*
X167248664Y-104110796D01*
X167011197Y-103937689D01*
X166760454Y-103791761D01*
X166492761Y-103671092D01*
X166204440Y-103573763D01*
X165932130Y-103506189D01*
X165862391Y-103491888D01*
X165801313Y-103480921D01*
X165742668Y-103472836D01*
X165680224Y-103467180D01*
X165607754Y-103463499D01*
X165519026Y-103461342D01*
X165407812Y-103460255D01*
X165294467Y-103459843D01*
X165129584Y-103460391D01*
X164991236Y-103463469D01*
X164872132Y-103469979D01*
X164764980Y-103480822D01*
X164662488Y-103496899D01*
X164557363Y-103519111D01*
X164442315Y-103548359D01*
X164334540Y-103578488D01*
X164048567Y-103678031D01*
X163773668Y-103808779D01*
X163511611Y-103969374D01*
X163264167Y-104158460D01*
X163033103Y-104374677D01*
X162820188Y-104616668D01*
X162627193Y-104883075D01*
X162619420Y-104894978D01*
X162464215Y-105164052D01*
X162335187Y-105452709D01*
X162233574Y-105757617D01*
X162160613Y-106075445D01*
X162144380Y-106173582D01*
X162133280Y-106274799D01*
X162125875Y-106400338D01*
X162122149Y-106540860D01*
X162122084Y-106687026D01*
X162125663Y-106829495D01*
X162132868Y-106958929D01*
X162143683Y-107065987D01*
X162146078Y-107082600D01*
X162212147Y-107405428D01*
X162309112Y-107715037D01*
X162436244Y-108010321D01*
X162592815Y-108290174D01*
X162778094Y-108553493D01*
X162991353Y-108799170D01*
X163231862Y-109026102D01*
X163498893Y-109233183D01*
X163618067Y-109313512D01*
X163882209Y-109465697D01*
X164157412Y-109587551D01*
X164445135Y-109679451D01*
X164746833Y-109741775D01*
X165063963Y-109774900D01*
X165337268Y-109778422D01*
X165337268Y-109191375D01*
X165059591Y-109181577D01*
X164783912Y-109140544D01*
X164512446Y-109068394D01*
X164247411Y-108965240D01*
X163991020Y-108831199D01*
X163745491Y-108666386D01*
X163674582Y-108611201D01*
X163469782Y-108425892D01*
X163283266Y-108215698D01*
X163118198Y-107985501D01*
X162977741Y-107740182D01*
X162865059Y-107484622D01*
X162788509Y-107244142D01*
X162749603Y-107055623D01*
X162724492Y-106849874D01*
X162713764Y-106638609D01*
X162718011Y-106433543D01*
X162737822Y-106246391D01*
X162738141Y-106244400D01*
X162802751Y-105946870D01*
X162898512Y-105662108D01*
X163024754Y-105391283D01*
X163180810Y-105135564D01*
X163366010Y-104896119D01*
X163579688Y-104674116D01*
X163694267Y-104572324D01*
X163821516Y-104476023D01*
X163971597Y-104380706D01*
X164133844Y-104292348D01*
X164297591Y-104216923D01*
X164397001Y-104178638D01*
X164514607Y-104139131D01*
X164619663Y-104108780D01*
X164720355Y-104086233D01*
X164824870Y-104070134D01*
X164941394Y-104059131D01*
X165078113Y-104051870D01*
X165184400Y-104048443D01*
X165310170Y-104045553D01*
X165409801Y-104044681D01*
X165490979Y-104046191D01*
X165561393Y-104050447D01*
X165628730Y-104057810D01*
X165700676Y-104068644D01*
X165734734Y-104074423D01*
X165967304Y-104124835D01*
X166182355Y-104193771D01*
X166393188Y-104285708D01*
X166454401Y-104316769D01*
X166642426Y-104422754D01*
X166807695Y-104533893D01*
X166961205Y-104658112D01*
X167073311Y-104762733D01*
X167269550Y-104974341D01*
X167435093Y-105194346D01*
X167572867Y-105427091D01*
X167680445Y-105663318D01*
X167767348Y-105926029D01*
X167825015Y-106199249D01*
X167853574Y-106478540D01*
X167853148Y-106759466D01*
X167823865Y-107037588D01*
X167765850Y-107308469D01*
X167679229Y-107567672D01*
X167622817Y-107696590D01*
X167482382Y-107954310D01*
X167316529Y-108190587D01*
X167124292Y-108406514D01*
X166904707Y-108603186D01*
X166678074Y-108767816D01*
X166423642Y-108915920D01*
X166160130Y-109032212D01*
X165889754Y-109116809D01*
X165614727Y-109169824D01*
X165337268Y-109191375D01*
X165337268Y-109778422D01*
X165397981Y-109779205D01*
X165412700Y-109778751D01*
X165735179Y-109752865D01*
X166044649Y-109696314D01*
X166342637Y-109608548D01*
X166630670Y-109489018D01*
X166910275Y-109337177D01*
X167182979Y-109152475D01*
X167207934Y-109133691D01*
X167450051Y-108930095D01*
X167670007Y-108704735D01*
X167866019Y-108460482D01*
X168036305Y-108200206D01*
X168179080Y-107926777D01*
X168292563Y-107643067D01*
X168374968Y-107351946D01*
X168403063Y-107209818D01*
X168414054Y-107141382D01*
X168422373Y-107078276D01*
X168428282Y-107014520D01*
X168432044Y-106944134D01*
X168433922Y-106861137D01*
X168434177Y-106759548D01*
X168433072Y-106633388D01*
X168433072Y-106633388D01*
G37*
X168433072Y-106633388D02*
X168431976Y-106551055D01*
X168429804Y-106412751D01*
X168427384Y-106302581D01*
X168424247Y-106214816D01*
X168419918Y-106143723D01*
X168413928Y-106083572D01*
X168405804Y-106028631D01*
X168395073Y-105973171D01*
X168381266Y-105911458D01*
X168378266Y-105898598D01*
X168288574Y-105582085D01*
X168171833Y-105285004D01*
X168026938Y-105005410D01*
X167852784Y-104741360D01*
X167648266Y-104490911D01*
X167476530Y-104313003D01*
X167248664Y-104110796D01*
X167011197Y-103937689D01*
X166760454Y-103791761D01*
X166492761Y-103671092D01*
X166204440Y-103573763D01*
X165932130Y-103506189D01*
X165862391Y-103491888D01*
X165801313Y-103480921D01*
X165742668Y-103472836D01*
X165680224Y-103467180D01*
X165607754Y-103463499D01*
X165519026Y-103461342D01*
X165407812Y-103460255D01*
X165294467Y-103459843D01*
X165129584Y-103460391D01*
X164991236Y-103463469D01*
X164872132Y-103469979D01*
X164764980Y-103480822D01*
X164662488Y-103496899D01*
X164557363Y-103519111D01*
X164442315Y-103548359D01*
X164334540Y-103578488D01*
X164048567Y-103678031D01*
X163773668Y-103808779D01*
X163511611Y-103969374D01*
X163264167Y-104158460D01*
X163033103Y-104374677D01*
X162820188Y-104616668D01*
X162627193Y-104883075D01*
X162619420Y-104894978D01*
X162464215Y-105164052D01*
X162335187Y-105452709D01*
X162233574Y-105757617D01*
X162160613Y-106075445D01*
X162144380Y-106173582D01*
X162133280Y-106274799D01*
X162125875Y-106400338D01*
X162122149Y-106540860D01*
X162122084Y-106687026D01*
X162125663Y-106829495D01*
X162132868Y-106958929D01*
X162143683Y-107065987D01*
X162146078Y-107082600D01*
X162212147Y-107405428D01*
X162309112Y-107715037D01*
X162436244Y-108010321D01*
X162592815Y-108290174D01*
X162778094Y-108553493D01*
X162991353Y-108799170D01*
X163231862Y-109026102D01*
X163498893Y-109233183D01*
X163618067Y-109313512D01*
X163882209Y-109465697D01*
X164157412Y-109587551D01*
X164445135Y-109679451D01*
X164746833Y-109741775D01*
X165063963Y-109774900D01*
X165337268Y-109778422D01*
X165337268Y-109191375D01*
X165059591Y-109181577D01*
X164783912Y-109140544D01*
X164512446Y-109068394D01*
X164247411Y-108965240D01*
X163991020Y-108831199D01*
X163745491Y-108666386D01*
X163674582Y-108611201D01*
X163469782Y-108425892D01*
X163283266Y-108215698D01*
X163118198Y-107985501D01*
X162977741Y-107740182D01*
X162865059Y-107484622D01*
X162788509Y-107244142D01*
X162749603Y-107055623D01*
X162724492Y-106849874D01*
X162713764Y-106638609D01*
X162718011Y-106433543D01*
X162737822Y-106246391D01*
X162738141Y-106244400D01*
X162802751Y-105946870D01*
X162898512Y-105662108D01*
X163024754Y-105391283D01*
X163180810Y-105135564D01*
X163366010Y-104896119D01*
X163579688Y-104674116D01*
X163694267Y-104572324D01*
X163821516Y-104476023D01*
X163971597Y-104380706D01*
X164133844Y-104292348D01*
X164297591Y-104216923D01*
X164397001Y-104178638D01*
X164514607Y-104139131D01*
X164619663Y-104108780D01*
X164720355Y-104086233D01*
X164824870Y-104070134D01*
X164941394Y-104059131D01*
X165078113Y-104051870D01*
X165184400Y-104048443D01*
X165310170Y-104045553D01*
X165409801Y-104044681D01*
X165490979Y-104046191D01*
X165561393Y-104050447D01*
X165628730Y-104057810D01*
X165700676Y-104068644D01*
X165734734Y-104074423D01*
X165967304Y-104124835D01*
X166182355Y-104193771D01*
X166393188Y-104285708D01*
X166454401Y-104316769D01*
X166642426Y-104422754D01*
X166807695Y-104533893D01*
X166961205Y-104658112D01*
X167073311Y-104762733D01*
X167269550Y-104974341D01*
X167435093Y-105194346D01*
X167572867Y-105427091D01*
X167680445Y-105663318D01*
X167767348Y-105926029D01*
X167825015Y-106199249D01*
X167853574Y-106478540D01*
X167853148Y-106759466D01*
X167823865Y-107037588D01*
X167765850Y-107308469D01*
X167679229Y-107567672D01*
X167622817Y-107696590D01*
X167482382Y-107954310D01*
X167316529Y-108190587D01*
X167124292Y-108406514D01*
X166904707Y-108603186D01*
X166678074Y-108767816D01*
X166423642Y-108915920D01*
X166160130Y-109032212D01*
X165889754Y-109116809D01*
X165614727Y-109169824D01*
X165337268Y-109191375D01*
X165337268Y-109778422D01*
X165397981Y-109779205D01*
X165412700Y-109778751D01*
X165735179Y-109752865D01*
X166044649Y-109696314D01*
X166342637Y-109608548D01*
X166630670Y-109489018D01*
X166910275Y-109337177D01*
X167182979Y-109152475D01*
X167207934Y-109133691D01*
X167450051Y-108930095D01*
X167670007Y-108704735D01*
X167866019Y-108460482D01*
X168036305Y-108200206D01*
X168179080Y-107926777D01*
X168292563Y-107643067D01*
X168374968Y-107351946D01*
X168403063Y-107209818D01*
X168414054Y-107141382D01*
X168422373Y-107078276D01*
X168428282Y-107014520D01*
X168432044Y-106944134D01*
X168433922Y-106861137D01*
X168434177Y-106759548D01*
X168433072Y-106633388D01*
G36*
X168432580Y-99853132D02*
G01*
X168430979Y-99751400D01*
X168427493Y-99587054D01*
X168422542Y-99450246D01*
X168415237Y-99334651D01*
X168404688Y-99233943D01*
X168390007Y-99141799D01*
X168370303Y-99051893D01*
X168344688Y-98957902D01*
X168312273Y-98853500D01*
X168299023Y-98812926D01*
X168183607Y-98516185D01*
X168037933Y-98232587D01*
X167863808Y-97964373D01*
X167663036Y-97713782D01*
X167437426Y-97483052D01*
X167188781Y-97274425D01*
X166918908Y-97090139D01*
X166901195Y-97079371D01*
X166640948Y-96939998D01*
X166369297Y-96829699D01*
X166083854Y-96747810D01*
X165782229Y-96693666D01*
X165462033Y-96666600D01*
X165412106Y-96664831D01*
X165119206Y-96664502D01*
X164849685Y-96682242D01*
X164597605Y-96719165D01*
X164357027Y-96776384D01*
X164122014Y-96855013D01*
X163904961Y-96947524D01*
X163660941Y-97079084D01*
X163424125Y-97240462D01*
X163197868Y-97427833D01*
X162985523Y-97637368D01*
X162790445Y-97865239D01*
X162615989Y-98107620D01*
X162465508Y-98360682D01*
X162342356Y-98620597D01*
X162272222Y-98810666D01*
X162227220Y-98957551D01*
X162192366Y-99092086D01*
X162166386Y-99222665D01*
X162148007Y-99357684D01*
X162135954Y-99505535D01*
X162128952Y-99674614D01*
X162126985Y-99767400D01*
X162125391Y-99924884D01*
X162126344Y-100053567D01*
X162130011Y-100158432D01*
X162136554Y-100244461D01*
X162144939Y-100309266D01*
X162208880Y-100619354D01*
X162299021Y-100913594D01*
X162414295Y-101189141D01*
X162553637Y-101443150D01*
X162592841Y-101504058D01*
X162793050Y-101778707D01*
X163011334Y-102028193D01*
X163246071Y-102251309D01*
X163495639Y-102446846D01*
X163758414Y-102613598D01*
X164032774Y-102750356D01*
X164317096Y-102855913D01*
X164464885Y-102897213D01*
X164575343Y-102923940D01*
X164670730Y-102944649D01*
X164758171Y-102960076D01*
X164844794Y-102970958D01*
X164937725Y-102978031D01*
X165044089Y-102982032D01*
X165171013Y-102983697D01*
X165302934Y-102983821D01*
X165323698Y-102983738D01*
X165323698Y-102399420D01*
X165177395Y-102398356D01*
X165037572Y-102392784D01*
X164914243Y-102382701D01*
X164861247Y-102375870D01*
X164603391Y-102320256D01*
X164350188Y-102233035D01*
X164104624Y-102116429D01*
X163869682Y-101972655D01*
X163648345Y-101803935D01*
X163443599Y-101612486D01*
X163258426Y-101400529D01*
X163095811Y-101170283D01*
X162988232Y-100982670D01*
X162883043Y-100758702D01*
X162804795Y-100541375D01*
X162750713Y-100321084D01*
X162718023Y-100088222D01*
X162713087Y-100029866D01*
X162707377Y-99943049D01*
X162704670Y-99867160D01*
X162705129Y-99792229D01*
X162708914Y-99708287D01*
X162716187Y-99605364D01*
X162720884Y-99547266D01*
X162758629Y-99290923D01*
X162827797Y-99036573D01*
X162925963Y-98787447D01*
X163050705Y-98546777D01*
X163199602Y-98317794D01*
X163370230Y-98103729D01*
X163560167Y-97907813D01*
X163766991Y-97733279D01*
X163988278Y-97583356D01*
X164221606Y-97461276D01*
X164313857Y-97422493D01*
X164471290Y-97364882D01*
X164617714Y-97321103D01*
X164761923Y-97289612D01*
X164912713Y-97268867D01*
X165078878Y-97257324D01*
X165269215Y-97253440D01*
X165277534Y-97253422D01*
X165502437Y-97258955D01*
X165703671Y-97277531D01*
X165889526Y-97311000D01*
X166068296Y-97361209D01*
X166248272Y-97430008D01*
X166412067Y-97506314D01*
X166674316Y-97655291D01*
X166913760Y-97828503D01*
X167129241Y-98024427D01*
X167319599Y-98241543D01*
X167483675Y-98478329D01*
X167620311Y-98733266D01*
X167728347Y-99004832D01*
X167806625Y-99291505D01*
X167818992Y-99352533D01*
X167834244Y-99460439D01*
X167844577Y-99592292D01*
X167849964Y-99738527D01*
X167850378Y-99889581D01*
X167845792Y-100035889D01*
X167836177Y-100167887D01*
X167821621Y-100275400D01*
X167753029Y-100559431D01*
X167654593Y-100832183D01*
X167528016Y-101089378D01*
X167440799Y-101232133D01*
X167277645Y-101450879D01*
X167088942Y-101653501D01*
X166878667Y-101837386D01*
X166650799Y-101999918D01*
X166409315Y-102138481D01*
X166158195Y-102250460D01*
X165901417Y-102333241D01*
X165701372Y-102375597D01*
X165595698Y-102388037D01*
X165466470Y-102395979D01*
X165323698Y-102399420D01*
X165323698Y-102983738D01*
X165436091Y-102983284D01*
X165541751Y-102982016D01*
X165626279Y-102979545D01*
X165696043Y-102975400D01*
X165757410Y-102969111D01*
X165816748Y-102960206D01*
X165880424Y-102948214D01*
X165933705Y-102937155D01*
X166249623Y-102854421D01*
X166547814Y-102743520D01*
X166829841Y-102603591D01*
X167097267Y-102433778D01*
X167351655Y-102233220D01*
X167544805Y-102052100D01*
X167764265Y-101808452D01*
X167954454Y-101549442D01*
X168114675Y-101276400D01*
X168244231Y-100990654D01*
X168342426Y-100693533D01*
X168403947Y-100414343D01*
X168414635Y-100347840D01*
X168422726Y-100286501D01*
X168428461Y-100224495D01*
X168432075Y-100155989D01*
X168433808Y-100075148D01*
X168433897Y-99976141D01*
X168432580Y-99853132D01*
X168432580Y-99853132D01*
G37*
X168432580Y-99853132D02*
X168430979Y-99751400D01*
X168427493Y-99587054D01*
X168422542Y-99450246D01*
X168415237Y-99334651D01*
X168404688Y-99233943D01*
X168390007Y-99141799D01*
X168370303Y-99051893D01*
X168344688Y-98957902D01*
X168312273Y-98853500D01*
X168299023Y-98812926D01*
X168183607Y-98516185D01*
X168037933Y-98232587D01*
X167863808Y-97964373D01*
X167663036Y-97713782D01*
X167437426Y-97483052D01*
X167188781Y-97274425D01*
X166918908Y-97090139D01*
X166901195Y-97079371D01*
X166640948Y-96939998D01*
X166369297Y-96829699D01*
X166083854Y-96747810D01*
X165782229Y-96693666D01*
X165462033Y-96666600D01*
X165412106Y-96664831D01*
X165119206Y-96664502D01*
X164849685Y-96682242D01*
X164597605Y-96719165D01*
X164357027Y-96776384D01*
X164122014Y-96855013D01*
X163904961Y-96947524D01*
X163660941Y-97079084D01*
X163424125Y-97240462D01*
X163197868Y-97427833D01*
X162985523Y-97637368D01*
X162790445Y-97865239D01*
X162615989Y-98107620D01*
X162465508Y-98360682D01*
X162342356Y-98620597D01*
X162272222Y-98810666D01*
X162227220Y-98957551D01*
X162192366Y-99092086D01*
X162166386Y-99222665D01*
X162148007Y-99357684D01*
X162135954Y-99505535D01*
X162128952Y-99674614D01*
X162126985Y-99767400D01*
X162125391Y-99924884D01*
X162126344Y-100053567D01*
X162130011Y-100158432D01*
X162136554Y-100244461D01*
X162144939Y-100309266D01*
X162208880Y-100619354D01*
X162299021Y-100913594D01*
X162414295Y-101189141D01*
X162553637Y-101443150D01*
X162592841Y-101504058D01*
X162793050Y-101778707D01*
X163011334Y-102028193D01*
X163246071Y-102251309D01*
X163495639Y-102446846D01*
X163758414Y-102613598D01*
X164032774Y-102750356D01*
X164317096Y-102855913D01*
X164464885Y-102897213D01*
X164575343Y-102923940D01*
X164670730Y-102944649D01*
X164758171Y-102960076D01*
X164844794Y-102970958D01*
X164937725Y-102978031D01*
X165044089Y-102982032D01*
X165171013Y-102983697D01*
X165302934Y-102983821D01*
X165323698Y-102983738D01*
X165323698Y-102399420D01*
X165177395Y-102398356D01*
X165037572Y-102392784D01*
X164914243Y-102382701D01*
X164861247Y-102375870D01*
X164603391Y-102320256D01*
X164350188Y-102233035D01*
X164104624Y-102116429D01*
X163869682Y-101972655D01*
X163648345Y-101803935D01*
X163443599Y-101612486D01*
X163258426Y-101400529D01*
X163095811Y-101170283D01*
X162988232Y-100982670D01*
X162883043Y-100758702D01*
X162804795Y-100541375D01*
X162750713Y-100321084D01*
X162718023Y-100088222D01*
X162713087Y-100029866D01*
X162707377Y-99943049D01*
X162704670Y-99867160D01*
X162705129Y-99792229D01*
X162708914Y-99708287D01*
X162716187Y-99605364D01*
X162720884Y-99547266D01*
X162758629Y-99290923D01*
X162827797Y-99036573D01*
X162925963Y-98787447D01*
X163050705Y-98546777D01*
X163199602Y-98317794D01*
X163370230Y-98103729D01*
X163560167Y-97907813D01*
X163766991Y-97733279D01*
X163988278Y-97583356D01*
X164221606Y-97461276D01*
X164313857Y-97422493D01*
X164471290Y-97364882D01*
X164617714Y-97321103D01*
X164761923Y-97289612D01*
X164912713Y-97268867D01*
X165078878Y-97257324D01*
X165269215Y-97253440D01*
X165277534Y-97253422D01*
X165502437Y-97258955D01*
X165703671Y-97277531D01*
X165889526Y-97311000D01*
X166068296Y-97361209D01*
X166248272Y-97430008D01*
X166412067Y-97506314D01*
X166674316Y-97655291D01*
X166913760Y-97828503D01*
X167129241Y-98024427D01*
X167319599Y-98241543D01*
X167483675Y-98478329D01*
X167620311Y-98733266D01*
X167728347Y-99004832D01*
X167806625Y-99291505D01*
X167818992Y-99352533D01*
X167834244Y-99460439D01*
X167844577Y-99592292D01*
X167849964Y-99738527D01*
X167850378Y-99889581D01*
X167845792Y-100035889D01*
X167836177Y-100167887D01*
X167821621Y-100275400D01*
X167753029Y-100559431D01*
X167654593Y-100832183D01*
X167528016Y-101089378D01*
X167440799Y-101232133D01*
X167277645Y-101450879D01*
X167088942Y-101653501D01*
X166878667Y-101837386D01*
X166650799Y-101999918D01*
X166409315Y-102138481D01*
X166158195Y-102250460D01*
X165901417Y-102333241D01*
X165701372Y-102375597D01*
X165595698Y-102388037D01*
X165466470Y-102395979D01*
X165323698Y-102399420D01*
X165323698Y-102983738D01*
X165436091Y-102983284D01*
X165541751Y-102982016D01*
X165626279Y-102979545D01*
X165696043Y-102975400D01*
X165757410Y-102969111D01*
X165816748Y-102960206D01*
X165880424Y-102948214D01*
X165933705Y-102937155D01*
X166249623Y-102854421D01*
X166547814Y-102743520D01*
X166829841Y-102603591D01*
X167097267Y-102433778D01*
X167351655Y-102233220D01*
X167544805Y-102052100D01*
X167764265Y-101808452D01*
X167954454Y-101549442D01*
X168114675Y-101276400D01*
X168244231Y-100990654D01*
X168342426Y-100693533D01*
X168403947Y-100414343D01*
X168414635Y-100347840D01*
X168422726Y-100286501D01*
X168428461Y-100224495D01*
X168432075Y-100155989D01*
X168433808Y-100075148D01*
X168433897Y-99976141D01*
X168432580Y-99853132D01*
G36*
X168432580Y-93062866D02*
G01*
X168430979Y-92961133D01*
X168427493Y-92796788D01*
X168422542Y-92659980D01*
X168415237Y-92544384D01*
X168404688Y-92443676D01*
X168390007Y-92351532D01*
X168370303Y-92261626D01*
X168344688Y-92167635D01*
X168312273Y-92063233D01*
X168299023Y-92022659D01*
X168192013Y-91741854D01*
X168061071Y-91478871D01*
X167903561Y-91229414D01*
X167716846Y-90989192D01*
X167555660Y-90812090D01*
X167331917Y-90599477D01*
X167100297Y-90417438D01*
X166855778Y-90262799D01*
X166593334Y-90132385D01*
X166307943Y-90023024D01*
X166304760Y-90021961D01*
X166169085Y-89979060D01*
X166043950Y-89945322D01*
X165922282Y-89919770D01*
X165797010Y-89901424D01*
X165661061Y-89889304D01*
X165507364Y-89882432D01*
X165328845Y-89879828D01*
X165277534Y-89879729D01*
X165139181Y-89880089D01*
X165028569Y-89881379D01*
X164939577Y-89883977D01*
X164866084Y-89888260D01*
X164801967Y-89894603D01*
X164741108Y-89903384D01*
X164677383Y-89914979D01*
X164665051Y-89917411D01*
X164357933Y-89991425D01*
X164074290Y-90087418D01*
X163810260Y-90207376D01*
X163561980Y-90353285D01*
X163325588Y-90527132D01*
X163112814Y-90715830D01*
X162913529Y-90925312D01*
X162730766Y-91153279D01*
X162568188Y-91394048D01*
X162429457Y-91641935D01*
X162318235Y-91891257D01*
X162272222Y-92020400D01*
X162227220Y-92167284D01*
X162192366Y-92301819D01*
X162166386Y-92432399D01*
X162148007Y-92567417D01*
X162135954Y-92715268D01*
X162128952Y-92884347D01*
X162126985Y-92977133D01*
X162125387Y-93133853D01*
X162126304Y-93261838D01*
X162129906Y-93366138D01*
X162136360Y-93451804D01*
X162145041Y-93519000D01*
X162200531Y-93799860D01*
X162275063Y-94060263D01*
X162371313Y-94306129D01*
X162491953Y-94543381D01*
X162639658Y-94777941D01*
X162817101Y-95015731D01*
X162825724Y-95026473D01*
X163001081Y-95224947D01*
X163198889Y-95414648D01*
X163412233Y-95590054D01*
X163634198Y-95745644D01*
X163857870Y-95875898D01*
X163941633Y-95917489D01*
X164128935Y-95998456D01*
X164319870Y-96065239D01*
X164526375Y-96121767D01*
X164641527Y-96147913D01*
X164709617Y-96162053D01*
X164769015Y-96172923D01*
X164825778Y-96180949D01*
X164885963Y-96186558D01*
X164955626Y-96190179D01*
X165040826Y-96192239D01*
X165147619Y-96193164D01*
X165282062Y-96193382D01*
X165286000Y-96193382D01*
X165380066Y-96193247D01*
X165380066Y-95620963D01*
X165112380Y-95616668D01*
X165065183Y-95612757D01*
X164775222Y-95570600D01*
X164501488Y-95499548D01*
X164242343Y-95398818D01*
X163996149Y-95267629D01*
X163761267Y-95105200D01*
X163536059Y-94910749D01*
X163481639Y-94857604D01*
X163276968Y-94631061D01*
X163103264Y-94391670D01*
X162960795Y-94139950D01*
X162849834Y-93876420D01*
X162770651Y-93601599D01*
X162738944Y-93434333D01*
X162724530Y-93305603D01*
X162716551Y-93155914D01*
X162715025Y-92997560D01*
X162719972Y-92842835D01*
X162731409Y-92704035D01*
X162737743Y-92656149D01*
X162798322Y-92365502D01*
X162890446Y-92086824D01*
X163013646Y-91821256D01*
X163167455Y-91569940D01*
X163204312Y-91518104D01*
X163256918Y-91452621D01*
X163329066Y-91372106D01*
X163415038Y-91282113D01*
X163509111Y-91188198D01*
X163605565Y-91095915D01*
X163698679Y-91010819D01*
X163782731Y-90938465D01*
X163852002Y-90884408D01*
X163869252Y-90872452D01*
X163928222Y-90834121D01*
X163976734Y-90804207D01*
X164007870Y-90786898D01*
X164015001Y-90784266D01*
X164026742Y-90798799D01*
X164048309Y-90838117D01*
X164076374Y-90895797D01*
X164100616Y-90949366D01*
X164128674Y-91012779D01*
X164167660Y-91100227D01*
X164214520Y-91204900D01*
X164266203Y-91319985D01*
X164319656Y-91438671D01*
X164348466Y-91502488D01*
X164396705Y-91609780D01*
X164440213Y-91707573D01*
X164477047Y-91791417D01*
X164505265Y-91856862D01*
X164522924Y-91899457D01*
X164528132Y-91914031D01*
X164515399Y-91934251D01*
X164473192Y-91956906D01*
X164446328Y-91966973D01*
X164305853Y-92032355D01*
X164178218Y-92126265D01*
X164066693Y-92244744D01*
X163974551Y-92383833D01*
X163905064Y-92539573D01*
X163869872Y-92664511D01*
X163841092Y-92798437D01*
X163602580Y-92803119D01*
X163364067Y-92807800D01*
X163354491Y-93188800D01*
X163846667Y-93188800D01*
X163847034Y-93260767D01*
X163855344Y-93354324D01*
X163877565Y-93466703D01*
X163910858Y-93587287D01*
X163952387Y-93705461D01*
X163987665Y-93787031D01*
X164023953Y-93857531D01*
X164066559Y-93931838D01*
X164111515Y-94003999D01*
X164154856Y-94068058D01*
X164192615Y-94118061D01*
X164220826Y-94148055D01*
X164232110Y-94154000D01*
X164247654Y-94142566D01*
X164282944Y-94110798D01*
X164333962Y-94062494D01*
X164396694Y-94001451D01*
X164462888Y-93935717D01*
X164547724Y-93849247D01*
X164608811Y-93783505D01*
X164647676Y-93736681D01*
X164665847Y-93706965D01*
X164666588Y-93694417D01*
X164648828Y-93668684D01*
X164618189Y-93627051D01*
X164594050Y-93595200D01*
X164505449Y-93452854D01*
X164442802Y-93293469D01*
X164408611Y-93124439D01*
X164402848Y-93030453D01*
X164408990Y-92907976D01*
X164431274Y-92810614D01*
X164471184Y-92732953D01*
X164491490Y-92707243D01*
X164556749Y-92656644D01*
X164637661Y-92628649D01*
X164724063Y-92624293D01*
X164805791Y-92644615D01*
X164850384Y-92670615D01*
X164867528Y-92691056D01*
X164891495Y-92732337D01*
X164923387Y-92796762D01*
X164964305Y-92886637D01*
X165015351Y-93004267D01*
X165057607Y-93104133D01*
X165074338Y-93142993D01*
X165102827Y-93208043D01*
X165140987Y-93294567D01*
X165186731Y-93397847D01*
X165237971Y-93513168D01*
X165292623Y-93635811D01*
X165312293Y-93679867D01*
X165368607Y-93806081D01*
X165423111Y-93928519D01*
X165473536Y-94042062D01*
X165517613Y-94141589D01*
X165553070Y-94221982D01*
X165577640Y-94278120D01*
X165582548Y-94289467D01*
X165608507Y-94348886D01*
X165644728Y-94430595D01*
X165687410Y-94526076D01*
X165732751Y-94626810D01*
X165760180Y-94687400D01*
X165847399Y-94880026D01*
X165920907Y-95043370D01*
X165981314Y-95178837D01*
X166029231Y-95287834D01*
X166065268Y-95371767D01*
X166090035Y-95432043D01*
X166104142Y-95470068D01*
X166108201Y-95487250D01*
X166107790Y-95488388D01*
X166089046Y-95495637D01*
X166044391Y-95509098D01*
X165980764Y-95526768D01*
X165914466Y-95544238D01*
X165651055Y-95596527D01*
X165380066Y-95620963D01*
X165380066Y-96193247D01*
X165420931Y-96193187D01*
X165528103Y-96192312D01*
X165613624Y-96190316D01*
X165683600Y-96186761D01*
X165744139Y-96181208D01*
X165801348Y-96173218D01*
X165861334Y-96162353D01*
X165930204Y-96148173D01*
X165937934Y-96146530D01*
X166253505Y-96063721D01*
X166550790Y-95953122D01*
X166696614Y-95880742D01*
X166696614Y-95185574D01*
X166538605Y-94834887D01*
X166462810Y-94666104D01*
X166393906Y-94511550D01*
X166332934Y-94373621D01*
X166280937Y-94254714D01*
X166238955Y-94157225D01*
X166208031Y-94083552D01*
X166189206Y-94036090D01*
X166183467Y-94017681D01*
X166197351Y-94003069D01*
X166232943Y-93980448D01*
X166262690Y-93964688D01*
X166348619Y-93910974D01*
X166437704Y-93836602D01*
X166518953Y-93751682D01*
X166573842Y-93678452D01*
X166630747Y-93572922D01*
X166678240Y-93452843D01*
X166710600Y-93333850D01*
X166719114Y-93281397D01*
X166729997Y-93188800D01*
X167217510Y-93188800D01*
X167207934Y-92807800D01*
X166966634Y-92803102D01*
X166725334Y-92798403D01*
X166725215Y-92752302D01*
X166718900Y-92691754D01*
X166702013Y-92609910D01*
X166677285Y-92516615D01*
X166647446Y-92421719D01*
X166615225Y-92335068D01*
X166599507Y-92298844D01*
X166564731Y-92229167D01*
X166525978Y-92160333D01*
X166487467Y-92098877D01*
X166453415Y-92051334D01*
X166428042Y-92024239D01*
X166419769Y-92020400D01*
X166404690Y-92031707D01*
X166370746Y-92062460D01*
X166322747Y-92107905D01*
X166265503Y-92163287D01*
X166203822Y-92223853D01*
X166142515Y-92284849D01*
X166086390Y-92341520D01*
X166040256Y-92389113D01*
X166008924Y-92422874D01*
X165997203Y-92438049D01*
X165997200Y-92438102D01*
X166004280Y-92455882D01*
X166023434Y-92497288D01*
X166051534Y-92555684D01*
X166077634Y-92608727D01*
X166158067Y-92770752D01*
X166158067Y-92967076D01*
X166157241Y-93056076D01*
X166153997Y-93119438D01*
X166147186Y-93165363D01*
X166135662Y-93202056D01*
X166120860Y-93232942D01*
X166070132Y-93297881D01*
X166003712Y-93332850D01*
X165927850Y-93338189D01*
X165871416Y-93332733D01*
X165640908Y-92816266D01*
X165484773Y-92466192D01*
X165324032Y-92105294D01*
X165155529Y-91726487D01*
X165003965Y-91385400D01*
X164978622Y-91328740D01*
X164942352Y-91248190D01*
X164898283Y-91150670D01*
X164849544Y-91043103D01*
X164799265Y-90932408D01*
X164785793Y-90902800D01*
X164740221Y-90802296D01*
X164699700Y-90712202D01*
X164666241Y-90637053D01*
X164641857Y-90581379D01*
X164628558Y-90549714D01*
X164626696Y-90544312D01*
X164640346Y-90533197D01*
X164672167Y-90523561D01*
X164770701Y-90504750D01*
X164858376Y-90490959D01*
X164943774Y-90481488D01*
X165035479Y-90475636D01*
X165142073Y-90472702D01*
X165272138Y-90471985D01*
X165302934Y-90472050D01*
X165470456Y-90474578D01*
X165612873Y-90481883D01*
X165738759Y-90495207D01*
X165856691Y-90515794D01*
X165975245Y-90544885D01*
X166102996Y-90583723D01*
X166125963Y-90591290D01*
X166359452Y-90685162D01*
X166590097Y-90809359D01*
X166812884Y-90960410D01*
X167022804Y-91134842D01*
X167214845Y-91329184D01*
X167251459Y-91371062D01*
X167332130Y-91467361D01*
X167396251Y-91549814D01*
X167450891Y-91628846D01*
X167503120Y-91714880D01*
X167560006Y-91818342D01*
X167578490Y-91853296D01*
X167675961Y-92057566D01*
X167750091Y-92258015D01*
X167803048Y-92463129D01*
X167836997Y-92681397D01*
X167854107Y-92921305D01*
X167854585Y-92934800D01*
X167850619Y-93234134D01*
X167817412Y-93517580D01*
X167754277Y-93787455D01*
X167660528Y-94046078D01*
X167535481Y-94295770D01*
X167381215Y-94535000D01*
X167306000Y-94630142D01*
X167210115Y-94736909D01*
X167101013Y-94848057D01*
X166986147Y-94956342D01*
X166872971Y-95054521D01*
X166768938Y-95135350D01*
X166749074Y-95149356D01*
X166696614Y-95185574D01*
X166696614Y-95880742D01*
X166831536Y-95813773D01*
X167097491Y-95644715D01*
X167350403Y-95444988D01*
X167540107Y-95266928D01*
X167761765Y-95021258D01*
X167953221Y-94761420D01*
X168114048Y-94488226D01*
X168243818Y-94202489D01*
X168342103Y-93905023D01*
X168403947Y-93624077D01*
X168414635Y-93557573D01*
X168422726Y-93496235D01*
X168428461Y-93434229D01*
X168432075Y-93365722D01*
X168433808Y-93284882D01*
X168433897Y-93185874D01*
X168432580Y-93062866D01*
X168432580Y-93062866D01*
G37*
X168432580Y-93062866D02*
X168430979Y-92961133D01*
X168427493Y-92796788D01*
X168422542Y-92659980D01*
X168415237Y-92544384D01*
X168404688Y-92443676D01*
X168390007Y-92351532D01*
X168370303Y-92261626D01*
X168344688Y-92167635D01*
X168312273Y-92063233D01*
X168299023Y-92022659D01*
X168192013Y-91741854D01*
X168061071Y-91478871D01*
X167903561Y-91229414D01*
X167716846Y-90989192D01*
X167555660Y-90812090D01*
X167331917Y-90599477D01*
X167100297Y-90417438D01*
X166855778Y-90262799D01*
X166593334Y-90132385D01*
X166307943Y-90023024D01*
X166304760Y-90021961D01*
X166169085Y-89979060D01*
X166043950Y-89945322D01*
X165922282Y-89919770D01*
X165797010Y-89901424D01*
X165661061Y-89889304D01*
X165507364Y-89882432D01*
X165328845Y-89879828D01*
X165277534Y-89879729D01*
X165139181Y-89880089D01*
X165028569Y-89881379D01*
X164939577Y-89883977D01*
X164866084Y-89888260D01*
X164801967Y-89894603D01*
X164741108Y-89903384D01*
X164677383Y-89914979D01*
X164665051Y-89917411D01*
X164357933Y-89991425D01*
X164074290Y-90087418D01*
X163810260Y-90207376D01*
X163561980Y-90353285D01*
X163325588Y-90527132D01*
X163112814Y-90715830D01*
X162913529Y-90925312D01*
X162730766Y-91153279D01*
X162568188Y-91394048D01*
X162429457Y-91641935D01*
X162318235Y-91891257D01*
X162272222Y-92020400D01*
X162227220Y-92167284D01*
X162192366Y-92301819D01*
X162166386Y-92432399D01*
X162148007Y-92567417D01*
X162135954Y-92715268D01*
X162128952Y-92884347D01*
X162126985Y-92977133D01*
X162125387Y-93133853D01*
X162126304Y-93261838D01*
X162129906Y-93366138D01*
X162136360Y-93451804D01*
X162145041Y-93519000D01*
X162200531Y-93799860D01*
X162275063Y-94060263D01*
X162371313Y-94306129D01*
X162491953Y-94543381D01*
X162639658Y-94777941D01*
X162817101Y-95015731D01*
X162825724Y-95026473D01*
X163001081Y-95224947D01*
X163198889Y-95414648D01*
X163412233Y-95590054D01*
X163634198Y-95745644D01*
X163857870Y-95875898D01*
X163941633Y-95917489D01*
X164128935Y-95998456D01*
X164319870Y-96065239D01*
X164526375Y-96121767D01*
X164641527Y-96147913D01*
X164709617Y-96162053D01*
X164769015Y-96172923D01*
X164825778Y-96180949D01*
X164885963Y-96186558D01*
X164955626Y-96190179D01*
X165040826Y-96192239D01*
X165147619Y-96193164D01*
X165282062Y-96193382D01*
X165286000Y-96193382D01*
X165380066Y-96193247D01*
X165380066Y-95620963D01*
X165112380Y-95616668D01*
X165065183Y-95612757D01*
X164775222Y-95570600D01*
X164501488Y-95499548D01*
X164242343Y-95398818D01*
X163996149Y-95267629D01*
X163761267Y-95105200D01*
X163536059Y-94910749D01*
X163481639Y-94857604D01*
X163276968Y-94631061D01*
X163103264Y-94391670D01*
X162960795Y-94139950D01*
X162849834Y-93876420D01*
X162770651Y-93601599D01*
X162738944Y-93434333D01*
X162724530Y-93305603D01*
X162716551Y-93155914D01*
X162715025Y-92997560D01*
X162719972Y-92842835D01*
X162731409Y-92704035D01*
X162737743Y-92656149D01*
X162798322Y-92365502D01*
X162890446Y-92086824D01*
X163013646Y-91821256D01*
X163167455Y-91569940D01*
X163204312Y-91518104D01*
X163256918Y-91452621D01*
X163329066Y-91372106D01*
X163415038Y-91282113D01*
X163509111Y-91188198D01*
X163605565Y-91095915D01*
X163698679Y-91010819D01*
X163782731Y-90938465D01*
X163852002Y-90884408D01*
X163869252Y-90872452D01*
X163928222Y-90834121D01*
X163976734Y-90804207D01*
X164007870Y-90786898D01*
X164015001Y-90784266D01*
X164026742Y-90798799D01*
X164048309Y-90838117D01*
X164076374Y-90895797D01*
X164100616Y-90949366D01*
X164128674Y-91012779D01*
X164167660Y-91100227D01*
X164214520Y-91204900D01*
X164266203Y-91319985D01*
X164319656Y-91438671D01*
X164348466Y-91502488D01*
X164396705Y-91609780D01*
X164440213Y-91707573D01*
X164477047Y-91791417D01*
X164505265Y-91856862D01*
X164522924Y-91899457D01*
X164528132Y-91914031D01*
X164515399Y-91934251D01*
X164473192Y-91956906D01*
X164446328Y-91966973D01*
X164305853Y-92032355D01*
X164178218Y-92126265D01*
X164066693Y-92244744D01*
X163974551Y-92383833D01*
X163905064Y-92539573D01*
X163869872Y-92664511D01*
X163841092Y-92798437D01*
X163602580Y-92803119D01*
X163364067Y-92807800D01*
X163354491Y-93188800D01*
X163846667Y-93188800D01*
X163847034Y-93260767D01*
X163855344Y-93354324D01*
X163877565Y-93466703D01*
X163910858Y-93587287D01*
X163952387Y-93705461D01*
X163987665Y-93787031D01*
X164023953Y-93857531D01*
X164066559Y-93931838D01*
X164111515Y-94003999D01*
X164154856Y-94068058D01*
X164192615Y-94118061D01*
X164220826Y-94148055D01*
X164232110Y-94154000D01*
X164247654Y-94142566D01*
X164282944Y-94110798D01*
X164333962Y-94062494D01*
X164396694Y-94001451D01*
X164462888Y-93935717D01*
X164547724Y-93849247D01*
X164608811Y-93783505D01*
X164647676Y-93736681D01*
X164665847Y-93706965D01*
X164666588Y-93694417D01*
X164648828Y-93668684D01*
X164618189Y-93627051D01*
X164594050Y-93595200D01*
X164505449Y-93452854D01*
X164442802Y-93293469D01*
X164408611Y-93124439D01*
X164402848Y-93030453D01*
X164408990Y-92907976D01*
X164431274Y-92810614D01*
X164471184Y-92732953D01*
X164491490Y-92707243D01*
X164556749Y-92656644D01*
X164637661Y-92628649D01*
X164724063Y-92624293D01*
X164805791Y-92644615D01*
X164850384Y-92670615D01*
X164867528Y-92691056D01*
X164891495Y-92732337D01*
X164923387Y-92796762D01*
X164964305Y-92886637D01*
X165015351Y-93004267D01*
X165057607Y-93104133D01*
X165074338Y-93142993D01*
X165102827Y-93208043D01*
X165140987Y-93294567D01*
X165186731Y-93397847D01*
X165237971Y-93513168D01*
X165292623Y-93635811D01*
X165312293Y-93679867D01*
X165368607Y-93806081D01*
X165423111Y-93928519D01*
X165473536Y-94042062D01*
X165517613Y-94141589D01*
X165553070Y-94221982D01*
X165577640Y-94278120D01*
X165582548Y-94289467D01*
X165608507Y-94348886D01*
X165644728Y-94430595D01*
X165687410Y-94526076D01*
X165732751Y-94626810D01*
X165760180Y-94687400D01*
X165847399Y-94880026D01*
X165920907Y-95043370D01*
X165981314Y-95178837D01*
X166029231Y-95287834D01*
X166065268Y-95371767D01*
X166090035Y-95432043D01*
X166104142Y-95470068D01*
X166108201Y-95487250D01*
X166107790Y-95488388D01*
X166089046Y-95495637D01*
X166044391Y-95509098D01*
X165980764Y-95526768D01*
X165914466Y-95544238D01*
X165651055Y-95596527D01*
X165380066Y-95620963D01*
X165380066Y-96193247D01*
X165420931Y-96193187D01*
X165528103Y-96192312D01*
X165613624Y-96190316D01*
X165683600Y-96186761D01*
X165744139Y-96181208D01*
X165801348Y-96173218D01*
X165861334Y-96162353D01*
X165930204Y-96148173D01*
X165937934Y-96146530D01*
X166253505Y-96063721D01*
X166550790Y-95953122D01*
X166696614Y-95880742D01*
X166696614Y-95185574D01*
X166538605Y-94834887D01*
X166462810Y-94666104D01*
X166393906Y-94511550D01*
X166332934Y-94373621D01*
X166280937Y-94254714D01*
X166238955Y-94157225D01*
X166208031Y-94083552D01*
X166189206Y-94036090D01*
X166183467Y-94017681D01*
X166197351Y-94003069D01*
X166232943Y-93980448D01*
X166262690Y-93964688D01*
X166348619Y-93910974D01*
X166437704Y-93836602D01*
X166518953Y-93751682D01*
X166573842Y-93678452D01*
X166630747Y-93572922D01*
X166678240Y-93452843D01*
X166710600Y-93333850D01*
X166719114Y-93281397D01*
X166729997Y-93188800D01*
X167217510Y-93188800D01*
X167207934Y-92807800D01*
X166966634Y-92803102D01*
X166725334Y-92798403D01*
X166725215Y-92752302D01*
X166718900Y-92691754D01*
X166702013Y-92609910D01*
X166677285Y-92516615D01*
X166647446Y-92421719D01*
X166615225Y-92335068D01*
X166599507Y-92298844D01*
X166564731Y-92229167D01*
X166525978Y-92160333D01*
X166487467Y-92098877D01*
X166453415Y-92051334D01*
X166428042Y-92024239D01*
X166419769Y-92020400D01*
X166404690Y-92031707D01*
X166370746Y-92062460D01*
X166322747Y-92107905D01*
X166265503Y-92163287D01*
X166203822Y-92223853D01*
X166142515Y-92284849D01*
X166086390Y-92341520D01*
X166040256Y-92389113D01*
X166008924Y-92422874D01*
X165997203Y-92438049D01*
X165997200Y-92438102D01*
X166004280Y-92455882D01*
X166023434Y-92497288D01*
X166051534Y-92555684D01*
X166077634Y-92608727D01*
X166158067Y-92770752D01*
X166158067Y-92967076D01*
X166157241Y-93056076D01*
X166153997Y-93119438D01*
X166147186Y-93165363D01*
X166135662Y-93202056D01*
X166120860Y-93232942D01*
X166070132Y-93297881D01*
X166003712Y-93332850D01*
X165927850Y-93338189D01*
X165871416Y-93332733D01*
X165640908Y-92816266D01*
X165484773Y-92466192D01*
X165324032Y-92105294D01*
X165155529Y-91726487D01*
X165003965Y-91385400D01*
X164978622Y-91328740D01*
X164942352Y-91248190D01*
X164898283Y-91150670D01*
X164849544Y-91043103D01*
X164799265Y-90932408D01*
X164785793Y-90902800D01*
X164740221Y-90802296D01*
X164699700Y-90712202D01*
X164666241Y-90637053D01*
X164641857Y-90581379D01*
X164628558Y-90549714D01*
X164626696Y-90544312D01*
X164640346Y-90533197D01*
X164672167Y-90523561D01*
X164770701Y-90504750D01*
X164858376Y-90490959D01*
X164943774Y-90481488D01*
X165035479Y-90475636D01*
X165142073Y-90472702D01*
X165272138Y-90471985D01*
X165302934Y-90472050D01*
X165470456Y-90474578D01*
X165612873Y-90481883D01*
X165738759Y-90495207D01*
X165856691Y-90515794D01*
X165975245Y-90544885D01*
X166102996Y-90583723D01*
X166125963Y-90591290D01*
X166359452Y-90685162D01*
X166590097Y-90809359D01*
X166812884Y-90960410D01*
X167022804Y-91134842D01*
X167214845Y-91329184D01*
X167251459Y-91371062D01*
X167332130Y-91467361D01*
X167396251Y-91549814D01*
X167450891Y-91628846D01*
X167503120Y-91714880D01*
X167560006Y-91818342D01*
X167578490Y-91853296D01*
X167675961Y-92057566D01*
X167750091Y-92258015D01*
X167803048Y-92463129D01*
X167836997Y-92681397D01*
X167854107Y-92921305D01*
X167854585Y-92934800D01*
X167850619Y-93234134D01*
X167817412Y-93517580D01*
X167754277Y-93787455D01*
X167660528Y-94046078D01*
X167535481Y-94295770D01*
X167381215Y-94535000D01*
X167306000Y-94630142D01*
X167210115Y-94736909D01*
X167101013Y-94848057D01*
X166986147Y-94956342D01*
X166872971Y-95054521D01*
X166768938Y-95135350D01*
X166749074Y-95149356D01*
X166696614Y-95185574D01*
X166696614Y-95880742D01*
X166831536Y-95813773D01*
X167097491Y-95644715D01*
X167350403Y-95444988D01*
X167540107Y-95266928D01*
X167761765Y-95021258D01*
X167953221Y-94761420D01*
X168114048Y-94488226D01*
X168243818Y-94202489D01*
X168342103Y-93905023D01*
X168403947Y-93624077D01*
X168414635Y-93557573D01*
X168422726Y-93496235D01*
X168428461Y-93434229D01*
X168432075Y-93365722D01*
X168433808Y-93284882D01*
X168433897Y-93185874D01*
X168432580Y-93062866D01*
G36*
X168426636Y-86092399D02*
G01*
X168426067Y-85975950D01*
X168424767Y-85883270D01*
X168422395Y-85809310D01*
X168418608Y-85749022D01*
X168413066Y-85697357D01*
X168405425Y-85649266D01*
X168395345Y-85599700D01*
X168382483Y-85543611D01*
X168378750Y-85527798D01*
X168296328Y-85233647D01*
X168192087Y-84959806D01*
X168063583Y-84701890D01*
X167908372Y-84455513D01*
X167724010Y-84216290D01*
X167526618Y-83998823D01*
X167372805Y-83852216D01*
X167204091Y-83711910D01*
X167028455Y-83583740D01*
X166853877Y-83473546D01*
X166693970Y-83389756D01*
X166553170Y-83329466D01*
X166395440Y-83270095D01*
X166233082Y-83215812D01*
X166078397Y-83170786D01*
X165971800Y-83144951D01*
X165916289Y-83133492D01*
X165865437Y-83124454D01*
X165814249Y-83117555D01*
X165757732Y-83112510D01*
X165690890Y-83109039D01*
X165608729Y-83106859D01*
X165506256Y-83105687D01*
X165378474Y-83105242D01*
X165269067Y-83105211D01*
X165122645Y-83105352D01*
X165005110Y-83105867D01*
X164911482Y-83107089D01*
X164836782Y-83109353D01*
X164776028Y-83112994D01*
X164724243Y-83118347D01*
X164676446Y-83125746D01*
X164627657Y-83135525D01*
X164572896Y-83148020D01*
X164549401Y-83153569D01*
X164246472Y-83238343D01*
X163967675Y-83344267D01*
X163709035Y-83473592D01*
X163466581Y-83628571D01*
X163236340Y-83811455D01*
X163016023Y-84022737D01*
X162795624Y-84273426D01*
X162607461Y-84532820D01*
X162450597Y-84802807D01*
X162324095Y-85085271D01*
X162227019Y-85382098D01*
X162158431Y-85695175D01*
X162145923Y-85774173D01*
X162134368Y-85880522D01*
X162126480Y-86011236D01*
X162122264Y-86157030D01*
X162121725Y-86308621D01*
X162124867Y-86456726D01*
X162131696Y-86592060D01*
X162142217Y-86705341D01*
X162145433Y-86729184D01*
X162206541Y-87038110D01*
X162297406Y-87334887D01*
X162416951Y-87616629D01*
X162564098Y-87880450D01*
X162590274Y-87921021D01*
X162779392Y-88182238D01*
X162989748Y-88424762D01*
X163217873Y-88645440D01*
X163460300Y-88841119D01*
X163713560Y-89008645D01*
X163894470Y-89106998D01*
X164118388Y-89206858D01*
X164347903Y-89285976D01*
X164591902Y-89347029D01*
X164828135Y-89388298D01*
X164959881Y-89402151D01*
X165114059Y-89409871D01*
X165281427Y-89411675D01*
X165300175Y-89411249D01*
X165300175Y-88827244D01*
X165141434Y-88824698D01*
X164991803Y-88815762D01*
X164861872Y-88800441D01*
X164837267Y-88796265D01*
X164569838Y-88731351D01*
X164305996Y-88635275D01*
X164051891Y-88510646D01*
X163821267Y-88365461D01*
X163719750Y-88286729D01*
X163607429Y-88187925D01*
X163491214Y-88076120D01*
X163378015Y-87958386D01*
X163274743Y-87841795D01*
X163188307Y-87733418D01*
X163148539Y-87677000D01*
X163001979Y-87433736D01*
X162886798Y-87193038D01*
X162801312Y-86950149D01*
X162743832Y-86700312D01*
X162713423Y-86449333D01*
X162708334Y-86373595D01*
X162705476Y-86309779D01*
X162704979Y-86249039D01*
X162706976Y-86182527D01*
X162711597Y-86101396D01*
X162718975Y-85996801D01*
X162720434Y-85977095D01*
X162757066Y-85711421D01*
X162826692Y-85450547D01*
X162928611Y-85195859D01*
X163062122Y-84948741D01*
X163226524Y-84710579D01*
X163421119Y-84482758D01*
X163533408Y-84369414D01*
X163737454Y-84189849D01*
X163946162Y-84040592D01*
X164165089Y-83918710D01*
X164399794Y-83821268D01*
X164655834Y-83745332D01*
X164761067Y-83721253D01*
X164876040Y-83702815D01*
X165015191Y-83689891D01*
X165169270Y-83682563D01*
X165329026Y-83680911D01*
X165485209Y-83685018D01*
X165628570Y-83694964D01*
X165749858Y-83710831D01*
X165759007Y-83712484D01*
X166035947Y-83779500D01*
X166298105Y-83875437D01*
X166547039Y-84001166D01*
X166784306Y-84157558D01*
X167011462Y-84345485D01*
X167172461Y-84503785D01*
X167289334Y-84633559D01*
X167388313Y-84760130D01*
X167476444Y-84893763D01*
X167560774Y-85044720D01*
X167607179Y-85136987D01*
X167715583Y-85397266D01*
X167793633Y-85669727D01*
X167840996Y-85950881D01*
X167857343Y-86237240D01*
X167842342Y-86525314D01*
X167795661Y-86811615D01*
X167774588Y-86899919D01*
X167689634Y-87163549D01*
X167574424Y-87416215D01*
X167431438Y-87655623D01*
X167263158Y-87879473D01*
X167072068Y-88085470D01*
X166860647Y-88271317D01*
X166631380Y-88434717D01*
X166386747Y-88573373D01*
X166129230Y-88684988D01*
X165861311Y-88767266D01*
X165725140Y-88796517D01*
X165602619Y-88813157D01*
X165457434Y-88823398D01*
X165300175Y-88827244D01*
X165300175Y-89411249D01*
X165452744Y-89407782D01*
X165618767Y-89398411D01*
X165770255Y-89383778D01*
X165897966Y-89364104D01*
X165904067Y-89362890D01*
X166220259Y-89283000D01*
X166519885Y-89174059D01*
X166803950Y-89035509D01*
X167073459Y-88866792D01*
X167329416Y-88667351D01*
X167572412Y-88437058D01*
X167782707Y-88199598D01*
X167961867Y-87954854D01*
X168112040Y-87698783D01*
X168235375Y-87427342D01*
X168334020Y-87136486D01*
X168397063Y-86884982D01*
X168406069Y-86838137D01*
X168413133Y-86787612D01*
X168418468Y-86728757D01*
X168422289Y-86656922D01*
X168424808Y-86567458D01*
X168426240Y-86455715D01*
X168426798Y-86317042D01*
X168426817Y-86237666D01*
X168426636Y-86092399D01*
X168426636Y-86092399D01*
G37*
X168426636Y-86092399D02*
X168426067Y-85975950D01*
X168424767Y-85883270D01*
X168422395Y-85809310D01*
X168418608Y-85749022D01*
X168413066Y-85697357D01*
X168405425Y-85649266D01*
X168395345Y-85599700D01*
X168382483Y-85543611D01*
X168378750Y-85527798D01*
X168296328Y-85233647D01*
X168192087Y-84959806D01*
X168063583Y-84701890D01*
X167908372Y-84455513D01*
X167724010Y-84216290D01*
X167526618Y-83998823D01*
X167372805Y-83852216D01*
X167204091Y-83711910D01*
X167028455Y-83583740D01*
X166853877Y-83473546D01*
X166693970Y-83389756D01*
X166553170Y-83329466D01*
X166395440Y-83270095D01*
X166233082Y-83215812D01*
X166078397Y-83170786D01*
X165971800Y-83144951D01*
X165916289Y-83133492D01*
X165865437Y-83124454D01*
X165814249Y-83117555D01*
X165757732Y-83112510D01*
X165690890Y-83109039D01*
X165608729Y-83106859D01*
X165506256Y-83105687D01*
X165378474Y-83105242D01*
X165269067Y-83105211D01*
X165122645Y-83105352D01*
X165005110Y-83105867D01*
X164911482Y-83107089D01*
X164836782Y-83109353D01*
X164776028Y-83112994D01*
X164724243Y-83118347D01*
X164676446Y-83125746D01*
X164627657Y-83135525D01*
X164572896Y-83148020D01*
X164549401Y-83153569D01*
X164246472Y-83238343D01*
X163967675Y-83344267D01*
X163709035Y-83473592D01*
X163466581Y-83628571D01*
X163236340Y-83811455D01*
X163016023Y-84022737D01*
X162795624Y-84273426D01*
X162607461Y-84532820D01*
X162450597Y-84802807D01*
X162324095Y-85085271D01*
X162227019Y-85382098D01*
X162158431Y-85695175D01*
X162145923Y-85774173D01*
X162134368Y-85880522D01*
X162126480Y-86011236D01*
X162122264Y-86157030D01*
X162121725Y-86308621D01*
X162124867Y-86456726D01*
X162131696Y-86592060D01*
X162142217Y-86705341D01*
X162145433Y-86729184D01*
X162206541Y-87038110D01*
X162297406Y-87334887D01*
X162416951Y-87616629D01*
X162564098Y-87880450D01*
X162590274Y-87921021D01*
X162779392Y-88182238D01*
X162989748Y-88424762D01*
X163217873Y-88645440D01*
X163460300Y-88841119D01*
X163713560Y-89008645D01*
X163894470Y-89106998D01*
X164118388Y-89206858D01*
X164347903Y-89285976D01*
X164591902Y-89347029D01*
X164828135Y-89388298D01*
X164959881Y-89402151D01*
X165114059Y-89409871D01*
X165281427Y-89411675D01*
X165300175Y-89411249D01*
X165300175Y-88827244D01*
X165141434Y-88824698D01*
X164991803Y-88815762D01*
X164861872Y-88800441D01*
X164837267Y-88796265D01*
X164569838Y-88731351D01*
X164305996Y-88635275D01*
X164051891Y-88510646D01*
X163821267Y-88365461D01*
X163719750Y-88286729D01*
X163607429Y-88187925D01*
X163491214Y-88076120D01*
X163378015Y-87958386D01*
X163274743Y-87841795D01*
X163188307Y-87733418D01*
X163148539Y-87677000D01*
X163001979Y-87433736D01*
X162886798Y-87193038D01*
X162801312Y-86950149D01*
X162743832Y-86700312D01*
X162713423Y-86449333D01*
X162708334Y-86373595D01*
X162705476Y-86309779D01*
X162704979Y-86249039D01*
X162706976Y-86182527D01*
X162711597Y-86101396D01*
X162718975Y-85996801D01*
X162720434Y-85977095D01*
X162757066Y-85711421D01*
X162826692Y-85450547D01*
X162928611Y-85195859D01*
X163062122Y-84948741D01*
X163226524Y-84710579D01*
X163421119Y-84482758D01*
X163533408Y-84369414D01*
X163737454Y-84189849D01*
X163946162Y-84040592D01*
X164165089Y-83918710D01*
X164399794Y-83821268D01*
X164655834Y-83745332D01*
X164761067Y-83721253D01*
X164876040Y-83702815D01*
X165015191Y-83689891D01*
X165169270Y-83682563D01*
X165329026Y-83680911D01*
X165485209Y-83685018D01*
X165628570Y-83694964D01*
X165749858Y-83710831D01*
X165759007Y-83712484D01*
X166035947Y-83779500D01*
X166298105Y-83875437D01*
X166547039Y-84001166D01*
X166784306Y-84157558D01*
X167011462Y-84345485D01*
X167172461Y-84503785D01*
X167289334Y-84633559D01*
X167388313Y-84760130D01*
X167476444Y-84893763D01*
X167560774Y-85044720D01*
X167607179Y-85136987D01*
X167715583Y-85397266D01*
X167793633Y-85669727D01*
X167840996Y-85950881D01*
X167857343Y-86237240D01*
X167842342Y-86525314D01*
X167795661Y-86811615D01*
X167774588Y-86899919D01*
X167689634Y-87163549D01*
X167574424Y-87416215D01*
X167431438Y-87655623D01*
X167263158Y-87879473D01*
X167072068Y-88085470D01*
X166860647Y-88271317D01*
X166631380Y-88434717D01*
X166386747Y-88573373D01*
X166129230Y-88684988D01*
X165861311Y-88767266D01*
X165725140Y-88796517D01*
X165602619Y-88813157D01*
X165457434Y-88823398D01*
X165300175Y-88827244D01*
X165300175Y-89411249D01*
X165452744Y-89407782D01*
X165618767Y-89398411D01*
X165770255Y-89383778D01*
X165897966Y-89364104D01*
X165904067Y-89362890D01*
X166220259Y-89283000D01*
X166519885Y-89174059D01*
X166803950Y-89035509D01*
X167073459Y-88866792D01*
X167329416Y-88667351D01*
X167572412Y-88437058D01*
X167782707Y-88199598D01*
X167961867Y-87954854D01*
X168112040Y-87698783D01*
X168235375Y-87427342D01*
X168334020Y-87136486D01*
X168397063Y-86884982D01*
X168406069Y-86838137D01*
X168413133Y-86787612D01*
X168418468Y-86728757D01*
X168422289Y-86656922D01*
X168424808Y-86567458D01*
X168426240Y-86455715D01*
X168426798Y-86317042D01*
X168426817Y-86237666D01*
X168426636Y-86092399D01*
G36*
X166260516Y-107314739D02*
G01*
X166236237Y-107170632D01*
X166193164Y-107044926D01*
X166129160Y-106931525D01*
X166042090Y-106824334D01*
X166034496Y-106816297D01*
X165958908Y-106742785D01*
X165893059Y-106690174D01*
X165840184Y-106660686D01*
X165803516Y-106656544D01*
X165802529Y-106656900D01*
X165786209Y-106674856D01*
X165758794Y-106717388D01*
X165723830Y-106778532D01*
X165684860Y-106852327D01*
X165676448Y-106868976D01*
X165574846Y-107071660D01*
X165660400Y-107133124D01*
X165743419Y-107211835D01*
X165797964Y-107305296D01*
X165822941Y-107408330D01*
X165817262Y-107515761D01*
X165779835Y-107622412D01*
X165768040Y-107643884D01*
X165735764Y-107690719D01*
X165696724Y-107726365D01*
X165640261Y-107759634D01*
X165610265Y-107774319D01*
X165561261Y-107796685D01*
X165520283Y-107811735D01*
X165478553Y-107820912D01*
X165427289Y-107825663D01*
X165357713Y-107827430D01*
X165286000Y-107827667D01*
X165193095Y-107826925D01*
X165125780Y-107823978D01*
X165075798Y-107817740D01*
X165034893Y-107807123D01*
X164994805Y-107791043D01*
X164989667Y-107788699D01*
X164899072Y-107735819D01*
X164824266Y-107670290D01*
X164773457Y-107599566D01*
X164767515Y-107586910D01*
X164751558Y-107525251D01*
X164744871Y-107445682D01*
X164747299Y-107361999D01*
X164758688Y-107287997D01*
X164771274Y-107250657D01*
X164810511Y-107193017D01*
X164875615Y-107127126D01*
X164961383Y-107058209D01*
X164967025Y-107054126D01*
X165006601Y-107025653D01*
X164906696Y-106833993D01*
X164868675Y-106761330D01*
X164836455Y-106700272D01*
X164813163Y-106656709D01*
X164801926Y-106636530D01*
X164801506Y-106635921D01*
X164783453Y-106638511D01*
X164746971Y-106659413D01*
X164698377Y-106693818D01*
X164643989Y-106736916D01*
X164590126Y-106783900D01*
X164543103Y-106829961D01*
X164534857Y-106838881D01*
X164444640Y-106951443D01*
X164379281Y-107065801D01*
X164331714Y-107195058D01*
X164320430Y-107236447D01*
X164292070Y-107414008D01*
X164295023Y-107598701D01*
X164314741Y-107724349D01*
X164366428Y-107886917D01*
X164448775Y-108035197D01*
X164543865Y-108151123D01*
X164649237Y-108246707D01*
X164761875Y-108319193D01*
X164887023Y-108370492D01*
X165029927Y-108402516D01*
X165195830Y-108417178D01*
X165277534Y-108418621D01*
X165472201Y-108408191D01*
X165642630Y-108376040D01*
X165791593Y-108320875D01*
X165921864Y-108241405D01*
X166036215Y-108136337D01*
X166124194Y-108024148D01*
X166184781Y-107923087D01*
X166227126Y-107820480D01*
X166253498Y-107707799D01*
X166266166Y-107576519D01*
X166268134Y-107483344D01*
X166260516Y-107314739D01*
X166260516Y-107314739D01*
G37*
X166260516Y-107314739D02*
X166236237Y-107170632D01*
X166193164Y-107044926D01*
X166129160Y-106931525D01*
X166042090Y-106824334D01*
X166034496Y-106816297D01*
X165958908Y-106742785D01*
X165893059Y-106690174D01*
X165840184Y-106660686D01*
X165803516Y-106656544D01*
X165802529Y-106656900D01*
X165786209Y-106674856D01*
X165758794Y-106717388D01*
X165723830Y-106778532D01*
X165684860Y-106852327D01*
X165676448Y-106868976D01*
X165574846Y-107071660D01*
X165660400Y-107133124D01*
X165743419Y-107211835D01*
X165797964Y-107305296D01*
X165822941Y-107408330D01*
X165817262Y-107515761D01*
X165779835Y-107622412D01*
X165768040Y-107643884D01*
X165735764Y-107690719D01*
X165696724Y-107726365D01*
X165640261Y-107759634D01*
X165610265Y-107774319D01*
X165561261Y-107796685D01*
X165520283Y-107811735D01*
X165478553Y-107820912D01*
X165427289Y-107825663D01*
X165357713Y-107827430D01*
X165286000Y-107827667D01*
X165193095Y-107826925D01*
X165125780Y-107823978D01*
X165075798Y-107817740D01*
X165034893Y-107807123D01*
X164994805Y-107791043D01*
X164989667Y-107788699D01*
X164899072Y-107735819D01*
X164824266Y-107670290D01*
X164773457Y-107599566D01*
X164767515Y-107586910D01*
X164751558Y-107525251D01*
X164744871Y-107445682D01*
X164747299Y-107361999D01*
X164758688Y-107287997D01*
X164771274Y-107250657D01*
X164810511Y-107193017D01*
X164875615Y-107127126D01*
X164961383Y-107058209D01*
X164967025Y-107054126D01*
X165006601Y-107025653D01*
X164906696Y-106833993D01*
X164868675Y-106761330D01*
X164836455Y-106700272D01*
X164813163Y-106656709D01*
X164801926Y-106636530D01*
X164801506Y-106635921D01*
X164783453Y-106638511D01*
X164746971Y-106659413D01*
X164698377Y-106693818D01*
X164643989Y-106736916D01*
X164590126Y-106783900D01*
X164543103Y-106829961D01*
X164534857Y-106838881D01*
X164444640Y-106951443D01*
X164379281Y-107065801D01*
X164331714Y-107195058D01*
X164320430Y-107236447D01*
X164292070Y-107414008D01*
X164295023Y-107598701D01*
X164314741Y-107724349D01*
X164366428Y-107886917D01*
X164448775Y-108035197D01*
X164543865Y-108151123D01*
X164649237Y-108246707D01*
X164761875Y-108319193D01*
X164887023Y-108370492D01*
X165029927Y-108402516D01*
X165195830Y-108417178D01*
X165277534Y-108418621D01*
X165472201Y-108408191D01*
X165642630Y-108376040D01*
X165791593Y-108320875D01*
X165921864Y-108241405D01*
X166036215Y-108136337D01*
X166124194Y-108024148D01*
X166184781Y-107923087D01*
X166227126Y-107820480D01*
X166253498Y-107707799D01*
X166266166Y-107576519D01*
X166268134Y-107483344D01*
X166260516Y-107314739D01*
G36*
X166262700Y-105506294D02*
G01*
X166245348Y-105381408D01*
X166213904Y-105270206D01*
X166166399Y-105163373D01*
X166162467Y-105155904D01*
X166124211Y-105095586D01*
X166073754Y-105032369D01*
X166016049Y-104970636D01*
X165956053Y-104914766D01*
X165898719Y-104869143D01*
X165849004Y-104838147D01*
X165811861Y-104826160D01*
X165795781Y-104831655D01*
X165782816Y-104851858D01*
X165757613Y-104895956D01*
X165723589Y-104957813D01*
X165684164Y-105031295D01*
X165676621Y-105045542D01*
X165571929Y-105243685D01*
X165639282Y-105286203D01*
X165726554Y-105359327D01*
X165787770Y-105449642D01*
X165820277Y-105551837D01*
X165822418Y-105652906D01*
X165795365Y-105765473D01*
X165743129Y-105856227D01*
X165665172Y-105925634D01*
X165560955Y-105974154D01*
X165429940Y-106002252D01*
X165413656Y-106004138D01*
X165253316Y-106010987D01*
X165109763Y-105996152D01*
X164985886Y-105960489D01*
X164884576Y-105904853D01*
X164808721Y-105830099D01*
X164804120Y-105823719D01*
X164776637Y-105780142D01*
X164760145Y-105738350D01*
X164751212Y-105686098D01*
X164746756Y-105619106D01*
X164745353Y-105543254D01*
X164750524Y-105488959D01*
X164763997Y-105444257D01*
X164775583Y-105419404D01*
X164825648Y-105346886D01*
X164893397Y-105282046D01*
X164959575Y-105240532D01*
X164988969Y-105220862D01*
X164998134Y-105205260D01*
X164990968Y-105185824D01*
X164971832Y-105143469D01*
X164944274Y-105085382D01*
X164911839Y-105018749D01*
X164878073Y-104950757D01*
X164846521Y-104888590D01*
X164820729Y-104839435D01*
X164804244Y-104810479D01*
X164801362Y-104806482D01*
X164785369Y-104811751D01*
X164749533Y-104832317D01*
X164701546Y-104863756D01*
X164700553Y-104864440D01*
X164565387Y-104977298D01*
X164455690Y-105110518D01*
X164372695Y-105260805D01*
X164317633Y-105424868D01*
X164291737Y-105599414D01*
X164296238Y-105781148D01*
X164314741Y-105895549D01*
X164365947Y-106057029D01*
X164447627Y-106204508D01*
X164546166Y-106324719D01*
X164658063Y-106423476D01*
X164782491Y-106497966D01*
X164923367Y-106549609D01*
X165084611Y-106579828D01*
X165270139Y-106590044D01*
X165277534Y-106590056D01*
X165453491Y-106582098D01*
X165605203Y-106556804D01*
X165738688Y-106512046D01*
X165859962Y-106445696D01*
X165975040Y-106355625D01*
X165996737Y-106335619D01*
X166098219Y-106226731D01*
X166173608Y-106113593D01*
X166225344Y-105990072D01*
X166255869Y-105850039D01*
X166267621Y-105687362D01*
X166267933Y-105654177D01*
X166262700Y-105506294D01*
X166262700Y-105506294D01*
G37*
X166262700Y-105506294D02*
X166245348Y-105381408D01*
X166213904Y-105270206D01*
X166166399Y-105163373D01*
X166162467Y-105155904D01*
X166124211Y-105095586D01*
X166073754Y-105032369D01*
X166016049Y-104970636D01*
X165956053Y-104914766D01*
X165898719Y-104869143D01*
X165849004Y-104838147D01*
X165811861Y-104826160D01*
X165795781Y-104831655D01*
X165782816Y-104851858D01*
X165757613Y-104895956D01*
X165723589Y-104957813D01*
X165684164Y-105031295D01*
X165676621Y-105045542D01*
X165571929Y-105243685D01*
X165639282Y-105286203D01*
X165726554Y-105359327D01*
X165787770Y-105449642D01*
X165820277Y-105551837D01*
X165822418Y-105652906D01*
X165795365Y-105765473D01*
X165743129Y-105856227D01*
X165665172Y-105925634D01*
X165560955Y-105974154D01*
X165429940Y-106002252D01*
X165413656Y-106004138D01*
X165253316Y-106010987D01*
X165109763Y-105996152D01*
X164985886Y-105960489D01*
X164884576Y-105904853D01*
X164808721Y-105830099D01*
X164804120Y-105823719D01*
X164776637Y-105780142D01*
X164760145Y-105738350D01*
X164751212Y-105686098D01*
X164746756Y-105619106D01*
X164745353Y-105543254D01*
X164750524Y-105488959D01*
X164763997Y-105444257D01*
X164775583Y-105419404D01*
X164825648Y-105346886D01*
X164893397Y-105282046D01*
X164959575Y-105240532D01*
X164988969Y-105220862D01*
X164998134Y-105205260D01*
X164990968Y-105185824D01*
X164971832Y-105143469D01*
X164944274Y-105085382D01*
X164911839Y-105018749D01*
X164878073Y-104950757D01*
X164846521Y-104888590D01*
X164820729Y-104839435D01*
X164804244Y-104810479D01*
X164801362Y-104806482D01*
X164785369Y-104811751D01*
X164749533Y-104832317D01*
X164701546Y-104863756D01*
X164700553Y-104864440D01*
X164565387Y-104977298D01*
X164455690Y-105110518D01*
X164372695Y-105260805D01*
X164317633Y-105424868D01*
X164291737Y-105599414D01*
X164296238Y-105781148D01*
X164314741Y-105895549D01*
X164365947Y-106057029D01*
X164447627Y-106204508D01*
X164546166Y-106324719D01*
X164658063Y-106423476D01*
X164782491Y-106497966D01*
X164923367Y-106549609D01*
X165084611Y-106579828D01*
X165270139Y-106590044D01*
X165277534Y-106590056D01*
X165453491Y-106582098D01*
X165605203Y-106556804D01*
X165738688Y-106512046D01*
X165859962Y-106445696D01*
X165975040Y-106355625D01*
X165996737Y-106335619D01*
X166098219Y-106226731D01*
X166173608Y-106113593D01*
X166225344Y-105990072D01*
X166255869Y-105850039D01*
X166267621Y-105687362D01*
X166267933Y-105654177D01*
X166262700Y-105506294D01*
G36*
X166276558Y-99650886D02*
G01*
X166276332Y-99505784D01*
X166275777Y-99388172D01*
X166274746Y-99294861D01*
X166273093Y-99222664D01*
X166270672Y-99168391D01*
X166267336Y-99128856D01*
X166262939Y-99100868D01*
X166257335Y-99081241D01*
X166250377Y-99066785D01*
X166241919Y-99054312D01*
X166241101Y-99053208D01*
X166224588Y-99031610D01*
X166207947Y-99013794D01*
X166187936Y-98999393D01*
X166161309Y-98988044D01*
X166124823Y-98979380D01*
X166075234Y-98973037D01*
X166009299Y-98968649D01*
X165923772Y-98965851D01*
X165815410Y-98964279D01*
X165680970Y-98963566D01*
X165517206Y-98963347D01*
X165442634Y-98963316D01*
X164761067Y-98963066D01*
X164761067Y-99318666D01*
X164017385Y-99318666D01*
X163861160Y-99318894D01*
X163714878Y-99319546D01*
X163582127Y-99320574D01*
X163466495Y-99321931D01*
X163371568Y-99323568D01*
X163300933Y-99325437D01*
X163258177Y-99327491D01*
X163246919Y-99328945D01*
X163239069Y-99335237D01*
X163232896Y-99349806D01*
X163228204Y-99376268D01*
X163224798Y-99418239D01*
X163222483Y-99479333D01*
X163221064Y-99563168D01*
X163220346Y-99673359D01*
X163220135Y-99813520D01*
X163220134Y-99825656D01*
X163220512Y-99950759D01*
X163221582Y-100064725D01*
X163223244Y-100163193D01*
X163225399Y-100241802D01*
X163227948Y-100296189D01*
X163230793Y-100321994D01*
X163231423Y-100323378D01*
X163250179Y-100325711D01*
X163299348Y-100327882D01*
X163375477Y-100329839D01*
X163475113Y-100331532D01*
X163594803Y-100332911D01*
X163731093Y-100333924D01*
X163880530Y-100334522D01*
X164001889Y-100334666D01*
X164761067Y-100334666D01*
X164761067Y-100690266D01*
X165442634Y-100690017D01*
X165619057Y-100689894D01*
X165764857Y-100689423D01*
X165883278Y-100688238D01*
X165977564Y-100685975D01*
X166050960Y-100682268D01*
X166106709Y-100676753D01*
X166148056Y-100669062D01*
X166178243Y-100658833D01*
X166200516Y-100645699D01*
X166218118Y-100629295D01*
X166234293Y-100609256D01*
X166241101Y-100600125D01*
X166249698Y-100587674D01*
X166256781Y-100573519D01*
X166262499Y-100554472D01*
X166266995Y-100527344D01*
X166270418Y-100488947D01*
X166272914Y-100436093D01*
X166274628Y-100365593D01*
X166275708Y-100274260D01*
X166276299Y-100158904D01*
X166276547Y-100016337D01*
X166276600Y-99843371D01*
X166276600Y-99826666D01*
X166276558Y-99650886D01*
X166276558Y-99650886D01*
G37*
X166276558Y-99650886D02*
X166276332Y-99505784D01*
X166275777Y-99388172D01*
X166274746Y-99294861D01*
X166273093Y-99222664D01*
X166270672Y-99168391D01*
X166267336Y-99128856D01*
X166262939Y-99100868D01*
X166257335Y-99081241D01*
X166250377Y-99066785D01*
X166241919Y-99054312D01*
X166241101Y-99053208D01*
X166224588Y-99031610D01*
X166207947Y-99013794D01*
X166187936Y-98999393D01*
X166161309Y-98988044D01*
X166124823Y-98979380D01*
X166075234Y-98973037D01*
X166009299Y-98968649D01*
X165923772Y-98965851D01*
X165815410Y-98964279D01*
X165680970Y-98963566D01*
X165517206Y-98963347D01*
X165442634Y-98963316D01*
X164761067Y-98963066D01*
X164761067Y-99318666D01*
X164017385Y-99318666D01*
X163861160Y-99318894D01*
X163714878Y-99319546D01*
X163582127Y-99320574D01*
X163466495Y-99321931D01*
X163371568Y-99323568D01*
X163300933Y-99325437D01*
X163258177Y-99327491D01*
X163246919Y-99328945D01*
X163239069Y-99335237D01*
X163232896Y-99349806D01*
X163228204Y-99376268D01*
X163224798Y-99418239D01*
X163222483Y-99479333D01*
X163221064Y-99563168D01*
X163220346Y-99673359D01*
X163220135Y-99813520D01*
X163220134Y-99825656D01*
X163220512Y-99950759D01*
X163221582Y-100064725D01*
X163223244Y-100163193D01*
X163225399Y-100241802D01*
X163227948Y-100296189D01*
X163230793Y-100321994D01*
X163231423Y-100323378D01*
X163250179Y-100325711D01*
X163299348Y-100327882D01*
X163375477Y-100329839D01*
X163475113Y-100331532D01*
X163594803Y-100332911D01*
X163731093Y-100333924D01*
X163880530Y-100334522D01*
X164001889Y-100334666D01*
X164761067Y-100334666D01*
X164761067Y-100690266D01*
X165442634Y-100690017D01*
X165619057Y-100689894D01*
X165764857Y-100689423D01*
X165883278Y-100688238D01*
X165977564Y-100685975D01*
X166050960Y-100682268D01*
X166106709Y-100676753D01*
X166148056Y-100669062D01*
X166178243Y-100658833D01*
X166200516Y-100645699D01*
X166218118Y-100629295D01*
X166234293Y-100609256D01*
X166241101Y-100600125D01*
X166249698Y-100587674D01*
X166256781Y-100573519D01*
X166262499Y-100554472D01*
X166266995Y-100527344D01*
X166270418Y-100488947D01*
X166272914Y-100436093D01*
X166274628Y-100365593D01*
X166275708Y-100274260D01*
X166276299Y-100158904D01*
X166276547Y-100016337D01*
X166276600Y-99843371D01*
X166276600Y-99826666D01*
X166276558Y-99650886D01*
G36*
X167326329Y-99702164D02*
G01*
X167299459Y-99602908D01*
X167251705Y-99524306D01*
X167180637Y-99461769D01*
X167124379Y-99429338D01*
X167068673Y-99403716D01*
X167020009Y-99388571D01*
X166965451Y-99381268D01*
X166892064Y-99379171D01*
X166877967Y-99379143D01*
X166799182Y-99380804D01*
X166741309Y-99387454D01*
X166691488Y-99401592D01*
X166636856Y-99425714D01*
X166635964Y-99426150D01*
X166577908Y-99459919D01*
X166527865Y-99498266D01*
X166503583Y-99524138D01*
X166459807Y-99609688D01*
X166432002Y-99714999D01*
X166421480Y-99829303D01*
X166429548Y-99941834D01*
X166444831Y-100007180D01*
X166484633Y-100098556D01*
X166542980Y-100167717D01*
X166626995Y-100222849D01*
X166636842Y-100227788D01*
X166692420Y-100252541D01*
X166742596Y-100266998D01*
X166800498Y-100273752D01*
X166877734Y-100275400D01*
X166954849Y-100273828D01*
X167011395Y-100267290D01*
X167060598Y-100253049D01*
X167115682Y-100228369D01*
X167123267Y-100224600D01*
X167210195Y-100169596D01*
X167272213Y-100101675D01*
X167311810Y-100016157D01*
X167331473Y-99908361D01*
X167334745Y-99826666D01*
X167326329Y-99702164D01*
X167326329Y-99702164D01*
G37*
X167326329Y-99702164D02*
X167299459Y-99602908D01*
X167251705Y-99524306D01*
X167180637Y-99461769D01*
X167124379Y-99429338D01*
X167068673Y-99403716D01*
X167020009Y-99388571D01*
X166965451Y-99381268D01*
X166892064Y-99379171D01*
X166877967Y-99379143D01*
X166799182Y-99380804D01*
X166741309Y-99387454D01*
X166691488Y-99401592D01*
X166636856Y-99425714D01*
X166635964Y-99426150D01*
X166577908Y-99459919D01*
X166527865Y-99498266D01*
X166503583Y-99524138D01*
X166459807Y-99609688D01*
X166432002Y-99714999D01*
X166421480Y-99829303D01*
X166429548Y-99941834D01*
X166444831Y-100007180D01*
X166484633Y-100098556D01*
X166542980Y-100167717D01*
X166626995Y-100222849D01*
X166636842Y-100227788D01*
X166692420Y-100252541D01*
X166742596Y-100266998D01*
X166800498Y-100273752D01*
X166877734Y-100275400D01*
X166954849Y-100273828D01*
X167011395Y-100267290D01*
X167060598Y-100253049D01*
X167115682Y-100228369D01*
X167123267Y-100224600D01*
X167210195Y-100169596D01*
X167272213Y-100101675D01*
X167311810Y-100016157D01*
X167331473Y-99908361D01*
X167334745Y-99826666D01*
X167326329Y-99702164D01*
G36*
X166940058Y-86013152D02*
G01*
X166909076Y-85812423D01*
X166856359Y-85630726D01*
X166780156Y-85463308D01*
X166678717Y-85305416D01*
X166552012Y-85154140D01*
X166384767Y-84996829D01*
X166203063Y-84868435D01*
X166005475Y-84768377D01*
X165790575Y-84696077D01*
X165556938Y-84650952D01*
X165303137Y-84632422D01*
X165269067Y-84631940D01*
X165033196Y-84639490D01*
X164820664Y-84667231D01*
X164626395Y-84716931D01*
X164445308Y-84790361D01*
X164272326Y-84889290D01*
X164102369Y-85015488D01*
X164056228Y-85054564D01*
X163907052Y-85206068D01*
X163780851Y-85379943D01*
X163678930Y-85572533D01*
X163602592Y-85780184D01*
X163553142Y-85999239D01*
X163531884Y-86226044D01*
X163540122Y-86456944D01*
X163543831Y-86490445D01*
X163583841Y-86691232D01*
X163653079Y-86883744D01*
X163748807Y-87063593D01*
X163868287Y-87226394D01*
X164008783Y-87367761D01*
X164161056Y-87479340D01*
X164242672Y-87523360D01*
X164341612Y-87567259D01*
X164449295Y-87608132D01*
X164557135Y-87643078D01*
X164656551Y-87669195D01*
X164738957Y-87683580D01*
X164770641Y-87685466D01*
X164778437Y-87680887D01*
X164784419Y-87664670D01*
X164788809Y-87633099D01*
X164791832Y-87582456D01*
X164793711Y-87509023D01*
X164794670Y-87409083D01*
X164794934Y-87281993D01*
X164794934Y-86878520D01*
X164682522Y-86857808D01*
X164573589Y-86830826D01*
X164487520Y-86791831D01*
X164413939Y-86735307D01*
X164374227Y-86693832D01*
X164305513Y-86597177D01*
X164258450Y-86485638D01*
X164230985Y-86353441D01*
X164223467Y-86269416D01*
X164222114Y-86142359D01*
X164235406Y-86037055D01*
X164265638Y-85943721D01*
X164315099Y-85852579D01*
X164324507Y-85838211D01*
X164416636Y-85730258D01*
X164537246Y-85638620D01*
X164684621Y-85564278D01*
X164857043Y-85508217D01*
X164929345Y-85491795D01*
X165018883Y-85479188D01*
X165130459Y-85471815D01*
X165254881Y-85469486D01*
X165382956Y-85472012D01*
X165505491Y-85479200D01*
X165613293Y-85490861D01*
X165697168Y-85506804D01*
X165700867Y-85507791D01*
X165867079Y-85565528D01*
X166004585Y-85640363D01*
X166113130Y-85732086D01*
X166192457Y-85840490D01*
X166236518Y-85944918D01*
X166259366Y-86058024D01*
X166266982Y-86187121D01*
X166259781Y-86319153D01*
X166238184Y-86441065D01*
X166218632Y-86503547D01*
X166156740Y-86619224D01*
X166068182Y-86718529D01*
X165957855Y-86797363D01*
X165830660Y-86851624D01*
X165789767Y-86862539D01*
X165743200Y-86873312D01*
X165743200Y-86763922D01*
X165741220Y-86706407D01*
X165736047Y-86663727D01*
X165729398Y-86646002D01*
X165714253Y-86655209D01*
X165678623Y-86685520D01*
X165625770Y-86733890D01*
X165558957Y-86797274D01*
X165481443Y-86872628D01*
X165399325Y-86954071D01*
X165083055Y-87270671D01*
X165395372Y-87583628D01*
X165479939Y-87667949D01*
X165557115Y-87744101D01*
X165623553Y-87808848D01*
X165675910Y-87858953D01*
X165710841Y-87891181D01*
X165724680Y-87902249D01*
X165734175Y-87889645D01*
X165741878Y-87849106D01*
X165746664Y-87786559D01*
X165746669Y-87786450D01*
X165751667Y-87664987D01*
X165912534Y-87624709D01*
X166119209Y-87556922D01*
X166310085Y-87461860D01*
X166481586Y-87341687D01*
X166630135Y-87198567D01*
X166645157Y-87181239D01*
X166755267Y-87032824D01*
X166839516Y-86875055D01*
X166899258Y-86703751D01*
X166935851Y-86514728D01*
X166950649Y-86303807D01*
X166951056Y-86237666D01*
X166940058Y-86013152D01*
X166940058Y-86013152D01*
G37*
X166940058Y-86013152D02*
X166909076Y-85812423D01*
X166856359Y-85630726D01*
X166780156Y-85463308D01*
X166678717Y-85305416D01*
X166552012Y-85154140D01*
X166384767Y-84996829D01*
X166203063Y-84868435D01*
X166005475Y-84768377D01*
X165790575Y-84696077D01*
X165556938Y-84650952D01*
X165303137Y-84632422D01*
X165269067Y-84631940D01*
X165033196Y-84639490D01*
X164820664Y-84667231D01*
X164626395Y-84716931D01*
X164445308Y-84790361D01*
X164272326Y-84889290D01*
X164102369Y-85015488D01*
X164056228Y-85054564D01*
X163907052Y-85206068D01*
X163780851Y-85379943D01*
X163678930Y-85572533D01*
X163602592Y-85780184D01*
X163553142Y-85999239D01*
X163531884Y-86226044D01*
X163540122Y-86456944D01*
X163543831Y-86490445D01*
X163583841Y-86691232D01*
X163653079Y-86883744D01*
X163748807Y-87063593D01*
X163868287Y-87226394D01*
X164008783Y-87367761D01*
X164161056Y-87479340D01*
X164242672Y-87523360D01*
X164341612Y-87567259D01*
X164449295Y-87608132D01*
X164557135Y-87643078D01*
X164656551Y-87669195D01*
X164738957Y-87683580D01*
X164770641Y-87685466D01*
X164778437Y-87680887D01*
X164784419Y-87664670D01*
X164788809Y-87633099D01*
X164791832Y-87582456D01*
X164793711Y-87509023D01*
X164794670Y-87409083D01*
X164794934Y-87281993D01*
X164794934Y-86878520D01*
X164682522Y-86857808D01*
X164573589Y-86830826D01*
X164487520Y-86791831D01*
X164413939Y-86735307D01*
X164374227Y-86693832D01*
X164305513Y-86597177D01*
X164258450Y-86485638D01*
X164230985Y-86353441D01*
X164223467Y-86269416D01*
X164222114Y-86142359D01*
X164235406Y-86037055D01*
X164265638Y-85943721D01*
X164315099Y-85852579D01*
X164324507Y-85838211D01*
X164416636Y-85730258D01*
X164537246Y-85638620D01*
X164684621Y-85564278D01*
X164857043Y-85508217D01*
X164929345Y-85491795D01*
X165018883Y-85479188D01*
X165130459Y-85471815D01*
X165254881Y-85469486D01*
X165382956Y-85472012D01*
X165505491Y-85479200D01*
X165613293Y-85490861D01*
X165697168Y-85506804D01*
X165700867Y-85507791D01*
X165867079Y-85565528D01*
X166004585Y-85640363D01*
X166113130Y-85732086D01*
X166192457Y-85840490D01*
X166236518Y-85944918D01*
X166259366Y-86058024D01*
X166266982Y-86187121D01*
X166259781Y-86319153D01*
X166238184Y-86441065D01*
X166218632Y-86503547D01*
X166156740Y-86619224D01*
X166068182Y-86718529D01*
X165957855Y-86797363D01*
X165830660Y-86851624D01*
X165789767Y-86862539D01*
X165743200Y-86873312D01*
X165743200Y-86763922D01*
X165741220Y-86706407D01*
X165736047Y-86663727D01*
X165729398Y-86646002D01*
X165714253Y-86655209D01*
X165678623Y-86685520D01*
X165625770Y-86733890D01*
X165558957Y-86797274D01*
X165481443Y-86872628D01*
X165399325Y-86954071D01*
X165083055Y-87270671D01*
X165395372Y-87583628D01*
X165479939Y-87667949D01*
X165557115Y-87744101D01*
X165623553Y-87808848D01*
X165675910Y-87858953D01*
X165710841Y-87891181D01*
X165724680Y-87902249D01*
X165734175Y-87889645D01*
X165741878Y-87849106D01*
X165746664Y-87786559D01*
X165746669Y-87786450D01*
X165751667Y-87664987D01*
X165912534Y-87624709D01*
X166119209Y-87556922D01*
X166310085Y-87461860D01*
X166481586Y-87341687D01*
X166630135Y-87198567D01*
X166645157Y-87181239D01*
X166755267Y-87032824D01*
X166839516Y-86875055D01*
X166899258Y-86703751D01*
X166935851Y-86514728D01*
X166950649Y-86303807D01*
X166951056Y-86237666D01*
X166940058Y-86013152D01*
M02*
