G04 #@! TF.GenerationSoftware,KiCad,Pcbnew,(5.1.2)-2*
G04 #@! TF.CreationDate,2019-11-16T00:04:25+01:00*
G04 #@! TF.ProjectId,STM32_2CH_Dimmer,53544d33-325f-4324-9348-5f44696d6d65,rev?*
G04 #@! TF.SameCoordinates,Original*
G04 #@! TF.FileFunction,Legend,Top*
G04 #@! TF.FilePolarity,Positive*
%FSLAX46Y46*%
G04 Gerber Fmt 4.6, Leading zero omitted, Abs format (unit mm)*
G04 Created by KiCad (PCBNEW (5.1.2)-2) date 2019-11-16 00:04:25*
%MOMM*%
%LPD*%
G04 APERTURE LIST*
%ADD10C,0.150000*%
%ADD11C,0.300000*%
%ADD12C,0.125000*%
%ADD13C,0.250000*%
%ADD14C,0.200000*%
%ADD15C,0.120000*%
%ADD16C,1.000000*%
%ADD17C,0.100000*%
G04 APERTURE END LIST*
D10*
X165500000Y-86900000D02*
X165300000Y-86500000D01*
X165100000Y-86900000D02*
X165500000Y-86900000D01*
X165300000Y-86500000D02*
X165100000Y-86900000D01*
X165300000Y-87700000D02*
X165300000Y-86500000D01*
X164961904Y-90309523D02*
X165609523Y-90309523D01*
X165685714Y-90271428D01*
X165723809Y-90233333D01*
X165761904Y-90157142D01*
X165761904Y-90004761D01*
X165723809Y-89928571D01*
X165685714Y-89890476D01*
X165609523Y-89852380D01*
X164961904Y-89852380D01*
X165723809Y-89509523D02*
X165761904Y-89395238D01*
X165761904Y-89204761D01*
X165723809Y-89128571D01*
X165685714Y-89090476D01*
X165609523Y-89052380D01*
X165533333Y-89052380D01*
X165457142Y-89090476D01*
X165419047Y-89128571D01*
X165380952Y-89204761D01*
X165342857Y-89357142D01*
X165304761Y-89433333D01*
X165266666Y-89471428D01*
X165190476Y-89509523D01*
X165114285Y-89509523D01*
X165038095Y-89471428D01*
X165000000Y-89433333D01*
X164961904Y-89357142D01*
X164961904Y-89166666D01*
X165000000Y-89052380D01*
X165342857Y-88442857D02*
X165380952Y-88328571D01*
X165419047Y-88290476D01*
X165495238Y-88252380D01*
X165609523Y-88252380D01*
X165685714Y-88290476D01*
X165723809Y-88328571D01*
X165761904Y-88404761D01*
X165761904Y-88709523D01*
X164961904Y-88709523D01*
X164961904Y-88442857D01*
X165000000Y-88366666D01*
X165038095Y-88328571D01*
X165114285Y-88290476D01*
X165190476Y-88290476D01*
X165266666Y-88328571D01*
X165304761Y-88366666D01*
X165342857Y-88442857D01*
X165342857Y-88709523D01*
X156900000Y-121100000D02*
X156900000Y-118700000D01*
X159300000Y-121100000D02*
X156900000Y-121100000D01*
X159300000Y-118700000D02*
X159300000Y-121100000D01*
X156900000Y-118700000D02*
X159300000Y-118700000D01*
D11*
X166541421Y-71658579D02*
G75*
G03X166541421Y-71658579I-141421J0D01*
G01*
D12*
X200700000Y-113742857D02*
X200700000Y-113285714D01*
X200966666Y-113514285D02*
X200433333Y-113514285D01*
X200966666Y-112085714D02*
X200266666Y-112085714D01*
X200266666Y-111857142D01*
X200300000Y-111800000D01*
X200333333Y-111771428D01*
X200400000Y-111742857D01*
X200500000Y-111742857D01*
X200566666Y-111771428D01*
X200600000Y-111800000D01*
X200633333Y-111857142D01*
X200633333Y-112085714D01*
X200966666Y-111400000D02*
X200933333Y-111457142D01*
X200900000Y-111485714D01*
X200833333Y-111514285D01*
X200633333Y-111514285D01*
X200566666Y-111485714D01*
X200533333Y-111457142D01*
X200500000Y-111400000D01*
X200500000Y-111314285D01*
X200533333Y-111257142D01*
X200566666Y-111228571D01*
X200633333Y-111200000D01*
X200833333Y-111200000D01*
X200900000Y-111228571D01*
X200933333Y-111257142D01*
X200966666Y-111314285D01*
X200966666Y-111400000D01*
X200500000Y-111000000D02*
X200966666Y-110885714D01*
X200633333Y-110771428D01*
X200966666Y-110657142D01*
X200500000Y-110542857D01*
X200933333Y-110085714D02*
X200966666Y-110142857D01*
X200966666Y-110257142D01*
X200933333Y-110314285D01*
X200866666Y-110342857D01*
X200600000Y-110342857D01*
X200533333Y-110314285D01*
X200500000Y-110257142D01*
X200500000Y-110142857D01*
X200533333Y-110085714D01*
X200600000Y-110057142D01*
X200666666Y-110057142D01*
X200733333Y-110342857D01*
X200966666Y-109800000D02*
X200500000Y-109800000D01*
X200633333Y-109800000D02*
X200566666Y-109771428D01*
X200533333Y-109742857D01*
X200500000Y-109685714D01*
X200500000Y-109628571D01*
X200700000Y-108514285D02*
X200700000Y-108057142D01*
X200700000Y-103742857D02*
X200700000Y-103285714D01*
X200966666Y-103514285D02*
X200433333Y-103514285D01*
X200966666Y-101800000D02*
X200966666Y-102085714D01*
X200266666Y-102085714D01*
X200600000Y-101600000D02*
X200600000Y-101400000D01*
X200966666Y-101314285D02*
X200966666Y-101600000D01*
X200266666Y-101600000D01*
X200266666Y-101314285D01*
X200966666Y-101057142D02*
X200266666Y-101057142D01*
X200266666Y-100914285D01*
X200300000Y-100828571D01*
X200366666Y-100771428D01*
X200433333Y-100742857D01*
X200566666Y-100714285D01*
X200666666Y-100714285D01*
X200800000Y-100742857D01*
X200866666Y-100771428D01*
X200933333Y-100828571D01*
X200966666Y-100914285D01*
X200966666Y-101057142D01*
X200966666Y-99685714D02*
X200966666Y-100028571D01*
X200966666Y-99857142D02*
X200266666Y-99857142D01*
X200366666Y-99914285D01*
X200433333Y-99971428D01*
X200466666Y-100028571D01*
X200700000Y-98514285D02*
X200700000Y-98057142D01*
X200650000Y-93592857D02*
X200650000Y-93135714D01*
X200916666Y-93364285D02*
X200383333Y-93364285D01*
X200916666Y-91650000D02*
X200916666Y-91935714D01*
X200216666Y-91935714D01*
X200550000Y-91450000D02*
X200550000Y-91250000D01*
X200916666Y-91164285D02*
X200916666Y-91450000D01*
X200216666Y-91450000D01*
X200216666Y-91164285D01*
X200916666Y-90907142D02*
X200216666Y-90907142D01*
X200216666Y-90764285D01*
X200250000Y-90678571D01*
X200316666Y-90621428D01*
X200383333Y-90592857D01*
X200516666Y-90564285D01*
X200616666Y-90564285D01*
X200750000Y-90592857D01*
X200816666Y-90621428D01*
X200883333Y-90678571D01*
X200916666Y-90764285D01*
X200916666Y-90907142D01*
X200283333Y-89878571D02*
X200250000Y-89850000D01*
X200216666Y-89792857D01*
X200216666Y-89650000D01*
X200250000Y-89592857D01*
X200283333Y-89564285D01*
X200350000Y-89535714D01*
X200416666Y-89535714D01*
X200516666Y-89564285D01*
X200916666Y-89907142D01*
X200916666Y-89535714D01*
X200650000Y-88364285D02*
X200650000Y-87907142D01*
D10*
X192771428Y-108380952D02*
X192771428Y-107619047D01*
X192419047Y-113571428D02*
X193180952Y-113571428D01*
X192800000Y-113952380D02*
X192800000Y-113190476D01*
D13*
X194256666Y-117572095D02*
X195123333Y-117572095D01*
X194566190Y-118872095D01*
X195618571Y-118376857D02*
X196609047Y-118376857D01*
X197166190Y-117695904D02*
X197228095Y-117634000D01*
X197351904Y-117572095D01*
X197661428Y-117572095D01*
X197785238Y-117634000D01*
X197847142Y-117695904D01*
X197909047Y-117819714D01*
X197909047Y-117943523D01*
X197847142Y-118129238D01*
X197104285Y-118872095D01*
X197909047Y-118872095D01*
X199023333Y-118005428D02*
X199023333Y-118872095D01*
X198713809Y-117510190D02*
X198404285Y-118438761D01*
X199209047Y-118438761D01*
X199518571Y-117572095D02*
X199951904Y-118872095D01*
X200385238Y-117572095D01*
D10*
X192671428Y-98580952D02*
X192671428Y-97819047D01*
X192671428Y-88380952D02*
X192671428Y-87619047D01*
X192219047Y-93171428D02*
X192980952Y-93171428D01*
X192600000Y-93552380D02*
X192600000Y-92790476D01*
X192219047Y-103471428D02*
X192980952Y-103471428D01*
X192600000Y-103852380D02*
X192600000Y-103090476D01*
D14*
X166362857Y-115431428D02*
X165162857Y-115431428D01*
X165734285Y-115431428D02*
X165734285Y-114745714D01*
X166362857Y-114745714D02*
X165162857Y-114745714D01*
X166362857Y-114174285D02*
X165162857Y-114174285D01*
X166020000Y-113774285D01*
X165162857Y-113374285D01*
X166362857Y-113374285D01*
X166305714Y-111945714D02*
X166362857Y-111774285D01*
X166362857Y-111488571D01*
X166305714Y-111374285D01*
X166248571Y-111317142D01*
X166134285Y-111260000D01*
X166020000Y-111260000D01*
X165905714Y-111317142D01*
X165848571Y-111374285D01*
X165791428Y-111488571D01*
X165734285Y-111717142D01*
X165677142Y-111831428D01*
X165620000Y-111888571D01*
X165505714Y-111945714D01*
X165391428Y-111945714D01*
X165277142Y-111888571D01*
X165220000Y-111831428D01*
X165162857Y-111717142D01*
X165162857Y-111431428D01*
X165220000Y-111260000D01*
X165162857Y-110917142D02*
X165162857Y-110231428D01*
X166362857Y-110574285D02*
X165162857Y-110574285D01*
X166362857Y-109831428D02*
X165162857Y-109831428D01*
X166020000Y-109431428D01*
X165162857Y-109031428D01*
X166362857Y-109031428D01*
X165162857Y-108574285D02*
X165162857Y-107831428D01*
X165620000Y-108231428D01*
X165620000Y-108060000D01*
X165677142Y-107945714D01*
X165734285Y-107888571D01*
X165848571Y-107831428D01*
X166134285Y-107831428D01*
X166248571Y-107888571D01*
X166305714Y-107945714D01*
X166362857Y-108060000D01*
X166362857Y-108402857D01*
X166305714Y-108517142D01*
X166248571Y-108574285D01*
X165277142Y-107374285D02*
X165220000Y-107317142D01*
X165162857Y-107202857D01*
X165162857Y-106917142D01*
X165220000Y-106802857D01*
X165277142Y-106745714D01*
X165391428Y-106688571D01*
X165505714Y-106688571D01*
X165677142Y-106745714D01*
X166362857Y-107431428D01*
X166362857Y-106688571D01*
X167277142Y-117488571D02*
X167220000Y-117431428D01*
X167162857Y-117317142D01*
X167162857Y-117031428D01*
X167220000Y-116917142D01*
X167277142Y-116860000D01*
X167391428Y-116802857D01*
X167505714Y-116802857D01*
X167677142Y-116860000D01*
X168362857Y-117545714D01*
X168362857Y-116802857D01*
X168248571Y-115602857D02*
X168305714Y-115660000D01*
X168362857Y-115831428D01*
X168362857Y-115945714D01*
X168305714Y-116117142D01*
X168191428Y-116231428D01*
X168077142Y-116288571D01*
X167848571Y-116345714D01*
X167677142Y-116345714D01*
X167448571Y-116288571D01*
X167334285Y-116231428D01*
X167220000Y-116117142D01*
X167162857Y-115945714D01*
X167162857Y-115831428D01*
X167220000Y-115660000D01*
X167277142Y-115602857D01*
X168362857Y-115088571D02*
X167162857Y-115088571D01*
X167734285Y-115088571D02*
X167734285Y-114402857D01*
X168362857Y-114402857D02*
X167162857Y-114402857D01*
X168362857Y-112917142D02*
X167162857Y-112917142D01*
X167162857Y-112631428D01*
X167220000Y-112460000D01*
X167334285Y-112345714D01*
X167448571Y-112288571D01*
X167677142Y-112231428D01*
X167848571Y-112231428D01*
X168077142Y-112288571D01*
X168191428Y-112345714D01*
X168305714Y-112460000D01*
X168362857Y-112631428D01*
X168362857Y-112917142D01*
X168362857Y-111717142D02*
X167562857Y-111717142D01*
X167162857Y-111717142D02*
X167220000Y-111774285D01*
X167277142Y-111717142D01*
X167220000Y-111660000D01*
X167162857Y-111717142D01*
X167277142Y-111717142D01*
X168362857Y-111145714D02*
X167562857Y-111145714D01*
X167677142Y-111145714D02*
X167620000Y-111088571D01*
X167562857Y-110974285D01*
X167562857Y-110802857D01*
X167620000Y-110688571D01*
X167734285Y-110631428D01*
X168362857Y-110631428D01*
X167734285Y-110631428D02*
X167620000Y-110574285D01*
X167562857Y-110460000D01*
X167562857Y-110288571D01*
X167620000Y-110174285D01*
X167734285Y-110117142D01*
X168362857Y-110117142D01*
X168362857Y-109545714D02*
X167562857Y-109545714D01*
X167677142Y-109545714D02*
X167620000Y-109488571D01*
X167562857Y-109374285D01*
X167562857Y-109202857D01*
X167620000Y-109088571D01*
X167734285Y-109031428D01*
X168362857Y-109031428D01*
X167734285Y-109031428D02*
X167620000Y-108974285D01*
X167562857Y-108860000D01*
X167562857Y-108688571D01*
X167620000Y-108574285D01*
X167734285Y-108517142D01*
X168362857Y-108517142D01*
X168305714Y-107488571D02*
X168362857Y-107602857D01*
X168362857Y-107831428D01*
X168305714Y-107945714D01*
X168191428Y-108002857D01*
X167734285Y-108002857D01*
X167620000Y-107945714D01*
X167562857Y-107831428D01*
X167562857Y-107602857D01*
X167620000Y-107488571D01*
X167734285Y-107431428D01*
X167848571Y-107431428D01*
X167962857Y-108002857D01*
X168362857Y-106917142D02*
X167562857Y-106917142D01*
X167791428Y-106917142D02*
X167677142Y-106860000D01*
X167620000Y-106802857D01*
X167562857Y-106688571D01*
X167562857Y-106574285D01*
D10*
X149854666Y-116460000D02*
X149788000Y-116426666D01*
X149688000Y-116426666D01*
X149588000Y-116460000D01*
X149521333Y-116526666D01*
X149488000Y-116593333D01*
X149454666Y-116726666D01*
X149454666Y-116826666D01*
X149488000Y-116960000D01*
X149521333Y-117026666D01*
X149588000Y-117093333D01*
X149688000Y-117126666D01*
X149754666Y-117126666D01*
X149854666Y-117093333D01*
X149888000Y-117060000D01*
X149888000Y-116826666D01*
X149754666Y-116826666D01*
X150188000Y-117126666D02*
X150188000Y-116426666D01*
X150588000Y-117126666D01*
X150588000Y-116426666D01*
X150921333Y-117126666D02*
X150921333Y-116426666D01*
X151088000Y-116426666D01*
X151188000Y-116460000D01*
X151254666Y-116526666D01*
X151288000Y-116593333D01*
X151321333Y-116726666D01*
X151321333Y-116826666D01*
X151288000Y-116960000D01*
X151254666Y-117026666D01*
X151188000Y-117093333D01*
X151088000Y-117126666D01*
X150921333Y-117126666D01*
X149454666Y-113886666D02*
X149688000Y-114586666D01*
X149921333Y-113886666D01*
X150554666Y-114520000D02*
X150521333Y-114553333D01*
X150421333Y-114586666D01*
X150354666Y-114586666D01*
X150254666Y-114553333D01*
X150188000Y-114486666D01*
X150154666Y-114420000D01*
X150121333Y-114286666D01*
X150121333Y-114186666D01*
X150154666Y-114053333D01*
X150188000Y-113986666D01*
X150254666Y-113920000D01*
X150354666Y-113886666D01*
X150421333Y-113886666D01*
X150521333Y-113920000D01*
X150554666Y-113953333D01*
X151254666Y-114520000D02*
X151221333Y-114553333D01*
X151121333Y-114586666D01*
X151054666Y-114586666D01*
X150954666Y-114553333D01*
X150888000Y-114486666D01*
X150854666Y-114420000D01*
X150821333Y-114286666D01*
X150821333Y-114186666D01*
X150854666Y-114053333D01*
X150888000Y-113986666D01*
X150954666Y-113920000D01*
X151054666Y-113886666D01*
X151121333Y-113886666D01*
X151221333Y-113920000D01*
X151254666Y-113953333D01*
X149534000Y-112013333D02*
X149634000Y-112046666D01*
X149800666Y-112046666D01*
X149867333Y-112013333D01*
X149900666Y-111980000D01*
X149934000Y-111913333D01*
X149934000Y-111846666D01*
X149900666Y-111780000D01*
X149867333Y-111746666D01*
X149800666Y-111713333D01*
X149667333Y-111680000D01*
X149600666Y-111646666D01*
X149567333Y-111613333D01*
X149534000Y-111546666D01*
X149534000Y-111480000D01*
X149567333Y-111413333D01*
X149600666Y-111380000D01*
X149667333Y-111346666D01*
X149834000Y-111346666D01*
X149934000Y-111380000D01*
X150167333Y-111346666D02*
X150334000Y-112046666D01*
X150467333Y-111546666D01*
X150600666Y-112046666D01*
X150767333Y-111346666D01*
X149430000Y-109506666D02*
X149430000Y-108806666D01*
X149596666Y-108806666D01*
X149696666Y-108840000D01*
X149763333Y-108906666D01*
X149796666Y-108973333D01*
X149830000Y-109106666D01*
X149830000Y-109206666D01*
X149796666Y-109340000D01*
X149763333Y-109406666D01*
X149696666Y-109473333D01*
X149596666Y-109506666D01*
X149430000Y-109506666D01*
X150030000Y-108806666D02*
X150430000Y-108806666D01*
X150230000Y-109506666D02*
X150230000Y-108806666D01*
X149717333Y-106900000D02*
X149684000Y-106933333D01*
X149584000Y-106966666D01*
X149517333Y-106966666D01*
X149417333Y-106933333D01*
X149350666Y-106866666D01*
X149317333Y-106800000D01*
X149284000Y-106666666D01*
X149284000Y-106566666D01*
X149317333Y-106433333D01*
X149350666Y-106366666D01*
X149417333Y-106300000D01*
X149517333Y-106266666D01*
X149584000Y-106266666D01*
X149684000Y-106300000D01*
X149717333Y-106333333D01*
X150350666Y-106966666D02*
X150017333Y-106966666D01*
X150017333Y-106266666D01*
X150584000Y-106966666D02*
X150584000Y-106266666D01*
X150984000Y-106966666D02*
X150684000Y-106566666D01*
X150984000Y-106266666D02*
X150584000Y-106666666D01*
X149717333Y-91610000D02*
X149684000Y-91643333D01*
X149584000Y-91676666D01*
X149517333Y-91676666D01*
X149417333Y-91643333D01*
X149350666Y-91576666D01*
X149317333Y-91510000D01*
X149284000Y-91376666D01*
X149284000Y-91276666D01*
X149317333Y-91143333D01*
X149350666Y-91076666D01*
X149417333Y-91010000D01*
X149517333Y-90976666D01*
X149584000Y-90976666D01*
X149684000Y-91010000D01*
X149717333Y-91043333D01*
X150350666Y-91676666D02*
X150017333Y-91676666D01*
X150017333Y-90976666D01*
X150584000Y-91676666D02*
X150584000Y-90976666D01*
X150984000Y-91676666D02*
X150684000Y-91276666D01*
X150984000Y-90976666D02*
X150584000Y-91376666D01*
X149430000Y-94216666D02*
X149430000Y-93516666D01*
X149596666Y-93516666D01*
X149696666Y-93550000D01*
X149763333Y-93616666D01*
X149796666Y-93683333D01*
X149830000Y-93816666D01*
X149830000Y-93916666D01*
X149796666Y-94050000D01*
X149763333Y-94116666D01*
X149696666Y-94183333D01*
X149596666Y-94216666D01*
X149430000Y-94216666D01*
X150030000Y-93516666D02*
X150430000Y-93516666D01*
X150230000Y-94216666D02*
X150230000Y-93516666D01*
X149534000Y-96977333D02*
X149634000Y-97010666D01*
X149800666Y-97010666D01*
X149867333Y-96977333D01*
X149900666Y-96944000D01*
X149934000Y-96877333D01*
X149934000Y-96810666D01*
X149900666Y-96744000D01*
X149867333Y-96710666D01*
X149800666Y-96677333D01*
X149667333Y-96644000D01*
X149600666Y-96610666D01*
X149567333Y-96577333D01*
X149534000Y-96510666D01*
X149534000Y-96444000D01*
X149567333Y-96377333D01*
X149600666Y-96344000D01*
X149667333Y-96310666D01*
X149834000Y-96310666D01*
X149934000Y-96344000D01*
X150167333Y-96310666D02*
X150334000Y-97010666D01*
X150467333Y-96510666D01*
X150600666Y-97010666D01*
X150767333Y-96310666D01*
X149454666Y-98850666D02*
X149688000Y-99550666D01*
X149921333Y-98850666D01*
X150554666Y-99484000D02*
X150521333Y-99517333D01*
X150421333Y-99550666D01*
X150354666Y-99550666D01*
X150254666Y-99517333D01*
X150188000Y-99450666D01*
X150154666Y-99384000D01*
X150121333Y-99250666D01*
X150121333Y-99150666D01*
X150154666Y-99017333D01*
X150188000Y-98950666D01*
X150254666Y-98884000D01*
X150354666Y-98850666D01*
X150421333Y-98850666D01*
X150521333Y-98884000D01*
X150554666Y-98917333D01*
X151254666Y-99484000D02*
X151221333Y-99517333D01*
X151121333Y-99550666D01*
X151054666Y-99550666D01*
X150954666Y-99517333D01*
X150888000Y-99450666D01*
X150854666Y-99384000D01*
X150821333Y-99250666D01*
X150821333Y-99150666D01*
X150854666Y-99017333D01*
X150888000Y-98950666D01*
X150954666Y-98884000D01*
X151054666Y-98850666D01*
X151121333Y-98850666D01*
X151221333Y-98884000D01*
X151254666Y-98917333D01*
X149854666Y-101170000D02*
X149788000Y-101136666D01*
X149688000Y-101136666D01*
X149588000Y-101170000D01*
X149521333Y-101236666D01*
X149488000Y-101303333D01*
X149454666Y-101436666D01*
X149454666Y-101536666D01*
X149488000Y-101670000D01*
X149521333Y-101736666D01*
X149588000Y-101803333D01*
X149688000Y-101836666D01*
X149754666Y-101836666D01*
X149854666Y-101803333D01*
X149888000Y-101770000D01*
X149888000Y-101536666D01*
X149754666Y-101536666D01*
X150188000Y-101836666D02*
X150188000Y-101136666D01*
X150588000Y-101836666D01*
X150588000Y-101136666D01*
X150921333Y-101836666D02*
X150921333Y-101136666D01*
X151088000Y-101136666D01*
X151188000Y-101170000D01*
X151254666Y-101236666D01*
X151288000Y-101303333D01*
X151321333Y-101436666D01*
X151321333Y-101536666D01*
X151288000Y-101670000D01*
X151254666Y-101736666D01*
X151188000Y-101803333D01*
X151088000Y-101836666D01*
X150921333Y-101836666D01*
D15*
X179498000Y-120550000D02*
X179498000Y-114272000D01*
X179498000Y-114272000D02*
X191690000Y-114272000D01*
X179498000Y-120550000D02*
X191690000Y-120550000D01*
X191700000Y-122850000D02*
X191690000Y-114272000D01*
D16*
X190600000Y-115250000D02*
G75*
G03X190600000Y-115250000I0J0D01*
G01*
D15*
X191700000Y-122850000D02*
X179500000Y-122850000D01*
X179500000Y-122850000D02*
X179500000Y-120550000D01*
X180630000Y-89109000D02*
X182140000Y-89109000D01*
X180630000Y-92810000D02*
X182140000Y-92810000D01*
X182140000Y-96080000D02*
X182140000Y-85840000D01*
X180630000Y-85840000D02*
X185271000Y-85840000D01*
X180630000Y-96080000D02*
X185271000Y-96080000D01*
X185271000Y-96080000D02*
X185271000Y-85840000D01*
X180630000Y-96080000D02*
X180630000Y-85840000D01*
D10*
X155575000Y-69088000D02*
X154305000Y-69088000D01*
X177165000Y-69088000D02*
X175895000Y-69088000D01*
X155575000Y-122428000D02*
X154305000Y-122428000D01*
X177165000Y-122428000D02*
X175895000Y-122428000D01*
X175895000Y-122428000D02*
X155575000Y-122428000D01*
X175895000Y-69088000D02*
X155575000Y-69088000D01*
X154305000Y-87630000D02*
X154305000Y-69088000D01*
X177165000Y-72898000D02*
X177165000Y-90678000D01*
X177419000Y-113538000D02*
X177419000Y-116586000D01*
X154305000Y-117602000D02*
X154305000Y-122428000D01*
X179700000Y-85000000D02*
X198700000Y-85000000D01*
X198700000Y-74206000D02*
X198700000Y-69000000D01*
X198700000Y-69000000D02*
X179700000Y-69000000D01*
X198700000Y-85000000D02*
X198700000Y-81572000D01*
D15*
X199990000Y-95880000D02*
X199990000Y-106040000D01*
X201260000Y-95880000D02*
X193640000Y-95880000D01*
X193640000Y-95880000D02*
X193640000Y-106040000D01*
X193640000Y-106040000D02*
X201260000Y-106040000D01*
X201260000Y-106040000D02*
X201260000Y-95880000D01*
X199990000Y-85780000D02*
X199990000Y-95940000D01*
X201260000Y-85780000D02*
X193640000Y-85780000D01*
X193640000Y-85780000D02*
X193640000Y-95940000D01*
X193640000Y-95940000D02*
X201260000Y-95940000D01*
X201260000Y-95940000D02*
X201260000Y-85780000D01*
X169810000Y-74861252D02*
X169810000Y-74338748D01*
X168390000Y-74861252D02*
X168390000Y-74338748D01*
X180630000Y-100209000D02*
X182140000Y-100209000D01*
X180630000Y-103910000D02*
X182140000Y-103910000D01*
X182140000Y-107180000D02*
X182140000Y-96940000D01*
X180630000Y-96940000D02*
X185271000Y-96940000D01*
X180630000Y-107180000D02*
X185271000Y-107180000D01*
X185271000Y-107180000D02*
X185271000Y-96940000D01*
X180630000Y-107180000D02*
X180630000Y-96940000D01*
X176290000Y-70738748D02*
X176290000Y-71261252D01*
X177710000Y-70738748D02*
X177710000Y-71261252D01*
X150700000Y-74450000D02*
X149200000Y-74450000D01*
X146700000Y-75700000D02*
X146700000Y-80200000D01*
X149200000Y-81450000D02*
X150700000Y-81450000D01*
X153200000Y-80200000D02*
X153200000Y-75700000D01*
X176540000Y-119311252D02*
X176540000Y-118788748D01*
X177960000Y-119311252D02*
X177960000Y-118788748D01*
X199990000Y-105980000D02*
X199990000Y-116140000D01*
X201260000Y-105980000D02*
X193640000Y-105980000D01*
X193640000Y-105980000D02*
X193640000Y-116140000D01*
X193640000Y-116140000D02*
X201260000Y-116140000D01*
X201260000Y-116140000D02*
X201260000Y-105980000D01*
X188350000Y-94100000D02*
X191650000Y-94100000D01*
X191650000Y-94100000D02*
X191650000Y-88700000D01*
X188350000Y-94100000D02*
X188350000Y-88700000D01*
X167961252Y-100790000D02*
X167438748Y-100790000D01*
X167961252Y-102210000D02*
X167438748Y-102210000D01*
X167961252Y-99610000D02*
X167438748Y-99610000D01*
X167961252Y-98190000D02*
X167438748Y-98190000D01*
X176590000Y-111661252D02*
X176590000Y-111138748D01*
X178010000Y-111661252D02*
X178010000Y-111138748D01*
D10*
X166975000Y-70725000D02*
X166925000Y-70725000D01*
X166975000Y-74875000D02*
X166830000Y-74875000D01*
X161825000Y-74875000D02*
X161970000Y-74875000D01*
X161825000Y-70725000D02*
X161970000Y-70725000D01*
X166975000Y-70725000D02*
X166975000Y-74875000D01*
X161825000Y-70725000D02*
X161825000Y-74875000D01*
X166925000Y-70725000D02*
X166925000Y-69325000D01*
D15*
X188350000Y-104100000D02*
X191650000Y-104100000D01*
X191650000Y-104100000D02*
X191650000Y-98700000D01*
X188350000Y-104100000D02*
X188350000Y-98700000D01*
X146568000Y-102800000D02*
X149228000Y-102800000D01*
X146568000Y-92580000D02*
X146568000Y-102800000D01*
X149228000Y-92580000D02*
X149228000Y-102800000D01*
X146568000Y-92580000D02*
X149228000Y-92580000D01*
X146568000Y-91310000D02*
X146568000Y-89980000D01*
X146568000Y-89980000D02*
X147898000Y-89980000D01*
X146568000Y-118040000D02*
X149228000Y-118040000D01*
X146568000Y-107820000D02*
X146568000Y-118040000D01*
X149228000Y-107820000D02*
X149228000Y-118040000D01*
X146568000Y-107820000D02*
X149228000Y-107820000D01*
X146568000Y-106550000D02*
X146568000Y-105220000D01*
X146568000Y-105220000D02*
X147898000Y-105220000D01*
X184880000Y-108650000D02*
X181280000Y-108650000D01*
X184918478Y-108661522D02*
G75*
G02X183080000Y-113100000I-1838478J-1838478D01*
G01*
X181241522Y-108661522D02*
G75*
G03X183080000Y-113100000I1838478J-1838478D01*
G01*
X152970748Y-90600000D02*
X153493252Y-90600000D01*
X152970748Y-92020000D02*
X153493252Y-92020000D01*
X152970748Y-106144000D02*
X153493252Y-106144000D01*
X152970748Y-107564000D02*
X153493252Y-107564000D01*
X153493252Y-100252000D02*
X152970748Y-100252000D01*
X153493252Y-101672000D02*
X152970748Y-101672000D01*
X153493252Y-115288000D02*
X152970748Y-115288000D01*
X153493252Y-116708000D02*
X152970748Y-116708000D01*
X153493252Y-95068000D02*
X152970748Y-95068000D01*
X153493252Y-93648000D02*
X152970748Y-93648000D01*
X153493252Y-96950000D02*
X152970748Y-96950000D01*
X153493252Y-98370000D02*
X152970748Y-98370000D01*
X153493252Y-110612000D02*
X152970748Y-110612000D01*
X153493252Y-109192000D02*
X152970748Y-109192000D01*
X153493252Y-112240000D02*
X152970748Y-112240000D01*
X153493252Y-113660000D02*
X152970748Y-113660000D01*
X178010000Y-102461252D02*
X178010000Y-101938748D01*
X176590000Y-102461252D02*
X176590000Y-101938748D01*
X176590000Y-106561252D02*
X176590000Y-106038748D01*
X178010000Y-106561252D02*
X178010000Y-106038748D01*
X176590000Y-97538748D02*
X176590000Y-98061252D01*
X178010000Y-97538748D02*
X178010000Y-98061252D01*
X178010000Y-93438748D02*
X178010000Y-93961252D01*
X176590000Y-93438748D02*
X176590000Y-93961252D01*
D10*
X192038095Y-121852380D02*
X192038095Y-122661904D01*
X192085714Y-122757142D01*
X192133333Y-122804761D01*
X192228571Y-122852380D01*
X192419047Y-122852380D01*
X192514285Y-122804761D01*
X192561904Y-122757142D01*
X192609523Y-122661904D01*
X192609523Y-121852380D01*
X193609523Y-122852380D02*
X193038095Y-122852380D01*
X193323809Y-122852380D02*
X193323809Y-121852380D01*
X193228571Y-121995238D01*
X193133333Y-122090476D01*
X193038095Y-122138095D01*
X182261904Y-119611904D02*
X181880952Y-119611904D01*
X181880952Y-118811904D01*
X182985714Y-119535714D02*
X182947619Y-119573809D01*
X182833333Y-119611904D01*
X182757142Y-119611904D01*
X182642857Y-119573809D01*
X182566666Y-119497619D01*
X182528571Y-119421428D01*
X182490476Y-119269047D01*
X182490476Y-119154761D01*
X182528571Y-119002380D01*
X182566666Y-118926190D01*
X182642857Y-118850000D01*
X182757142Y-118811904D01*
X182833333Y-118811904D01*
X182947619Y-118850000D01*
X182985714Y-118888095D01*
X183252380Y-118811904D02*
X183785714Y-118811904D01*
X183442857Y-119611904D01*
X184204761Y-119154761D02*
X184128571Y-119116666D01*
X184090476Y-119078571D01*
X184052380Y-119002380D01*
X184052380Y-118964285D01*
X184090476Y-118888095D01*
X184128571Y-118850000D01*
X184204761Y-118811904D01*
X184357142Y-118811904D01*
X184433333Y-118850000D01*
X184471428Y-118888095D01*
X184509523Y-118964285D01*
X184509523Y-119002380D01*
X184471428Y-119078571D01*
X184433333Y-119116666D01*
X184357142Y-119154761D01*
X184204761Y-119154761D01*
X184128571Y-119192857D01*
X184090476Y-119230952D01*
X184052380Y-119307142D01*
X184052380Y-119459523D01*
X184090476Y-119535714D01*
X184128571Y-119573809D01*
X184204761Y-119611904D01*
X184357142Y-119611904D01*
X184433333Y-119573809D01*
X184471428Y-119535714D01*
X184509523Y-119459523D01*
X184509523Y-119307142D01*
X184471428Y-119230952D01*
X184433333Y-119192857D01*
X184357142Y-119154761D01*
X184661904Y-119688095D02*
X185271428Y-119688095D01*
X185614285Y-118811904D02*
X185690476Y-118811904D01*
X185766666Y-118850000D01*
X185804761Y-118888095D01*
X185842857Y-118964285D01*
X185880952Y-119116666D01*
X185880952Y-119307142D01*
X185842857Y-119459523D01*
X185804761Y-119535714D01*
X185766666Y-119573809D01*
X185690476Y-119611904D01*
X185614285Y-119611904D01*
X185538095Y-119573809D01*
X185500000Y-119535714D01*
X185461904Y-119459523D01*
X185423809Y-119307142D01*
X185423809Y-119116666D01*
X185461904Y-118964285D01*
X185500000Y-118888095D01*
X185538095Y-118850000D01*
X185614285Y-118811904D01*
X186147619Y-118811904D02*
X186642857Y-118811904D01*
X186376190Y-119116666D01*
X186490476Y-119116666D01*
X186566666Y-119154761D01*
X186604761Y-119192857D01*
X186642857Y-119269047D01*
X186642857Y-119459523D01*
X186604761Y-119535714D01*
X186566666Y-119573809D01*
X186490476Y-119611904D01*
X186261904Y-119611904D01*
X186185714Y-119573809D01*
X186147619Y-119535714D01*
X186985714Y-119307142D02*
X187595238Y-119307142D01*
X188128571Y-118811904D02*
X188204761Y-118811904D01*
X188280952Y-118850000D01*
X188319047Y-118888095D01*
X188357142Y-118964285D01*
X188395238Y-119116666D01*
X188395238Y-119307142D01*
X188357142Y-119459523D01*
X188319047Y-119535714D01*
X188280952Y-119573809D01*
X188204761Y-119611904D01*
X188128571Y-119611904D01*
X188052380Y-119573809D01*
X188014285Y-119535714D01*
X187976190Y-119459523D01*
X187938095Y-119307142D01*
X187938095Y-119116666D01*
X187976190Y-118964285D01*
X188014285Y-118888095D01*
X188052380Y-118850000D01*
X188128571Y-118811904D01*
X189119047Y-118811904D02*
X188738095Y-118811904D01*
X188700000Y-119192857D01*
X188738095Y-119154761D01*
X188814285Y-119116666D01*
X189004761Y-119116666D01*
X189080952Y-119154761D01*
X189119047Y-119192857D01*
X189157142Y-119269047D01*
X189157142Y-119459523D01*
X189119047Y-119535714D01*
X189080952Y-119573809D01*
X189004761Y-119611904D01*
X188814285Y-119611904D01*
X188738095Y-119573809D01*
X188700000Y-119535714D01*
D17*
X181771428Y-121421428D02*
X181914285Y-122021428D01*
X182028571Y-121592857D01*
X182142857Y-122021428D01*
X182285714Y-121421428D01*
X182514285Y-122021428D02*
X182514285Y-121421428D01*
X182742857Y-121421428D01*
X182800000Y-121450000D01*
X182828571Y-121478571D01*
X182857142Y-121535714D01*
X182857142Y-121621428D01*
X182828571Y-121678571D01*
X182800000Y-121707142D01*
X182742857Y-121735714D01*
X182514285Y-121735714D01*
X183114285Y-122021428D02*
X183114285Y-121421428D01*
X183314285Y-121850000D01*
X183514285Y-121421428D01*
X183514285Y-122021428D01*
X183800000Y-122021428D02*
X183800000Y-121421428D01*
X183942857Y-121421428D01*
X184028571Y-121450000D01*
X184085714Y-121507142D01*
X184114285Y-121564285D01*
X184142857Y-121678571D01*
X184142857Y-121764285D01*
X184114285Y-121878571D01*
X184085714Y-121935714D01*
X184028571Y-121992857D01*
X183942857Y-122021428D01*
X183800000Y-122021428D01*
X184685714Y-122021428D02*
X184400000Y-122021428D01*
X184400000Y-121421428D01*
X184914285Y-122021428D02*
X185028571Y-122021428D01*
X185085714Y-121992857D01*
X185114285Y-121964285D01*
X185171428Y-121878571D01*
X185200000Y-121764285D01*
X185200000Y-121535714D01*
X185171428Y-121478571D01*
X185142857Y-121450000D01*
X185085714Y-121421428D01*
X184971428Y-121421428D01*
X184914285Y-121450000D01*
X184885714Y-121478571D01*
X184857142Y-121535714D01*
X184857142Y-121678571D01*
X184885714Y-121735714D01*
X184914285Y-121764285D01*
X184971428Y-121792857D01*
X185085714Y-121792857D01*
X185142857Y-121764285D01*
X185171428Y-121735714D01*
X185200000Y-121678571D01*
X185742857Y-121421428D02*
X185457142Y-121421428D01*
X185428571Y-121707142D01*
X185457142Y-121678571D01*
X185514285Y-121650000D01*
X185657142Y-121650000D01*
X185714285Y-121678571D01*
X185742857Y-121707142D01*
X185771428Y-121764285D01*
X185771428Y-121907142D01*
X185742857Y-121964285D01*
X185714285Y-121992857D01*
X185657142Y-122021428D01*
X185514285Y-122021428D01*
X185457142Y-121992857D01*
X185428571Y-121964285D01*
X186142857Y-121421428D02*
X186200000Y-121421428D01*
X186257142Y-121450000D01*
X186285714Y-121478571D01*
X186314285Y-121535714D01*
X186342857Y-121650000D01*
X186342857Y-121792857D01*
X186314285Y-121907142D01*
X186285714Y-121964285D01*
X186257142Y-121992857D01*
X186200000Y-122021428D01*
X186142857Y-122021428D01*
X186085714Y-121992857D01*
X186057142Y-121964285D01*
X186028571Y-121907142D01*
X186000000Y-121792857D01*
X186000000Y-121650000D01*
X186028571Y-121535714D01*
X186057142Y-121478571D01*
X186085714Y-121450000D01*
X186142857Y-121421428D01*
X186714285Y-121421428D02*
X186771428Y-121421428D01*
X186828571Y-121450000D01*
X186857142Y-121478571D01*
X186885714Y-121535714D01*
X186914285Y-121650000D01*
X186914285Y-121792857D01*
X186885714Y-121907142D01*
X186857142Y-121964285D01*
X186828571Y-121992857D01*
X186771428Y-122021428D01*
X186714285Y-122021428D01*
X186657142Y-121992857D01*
X186628571Y-121964285D01*
X186600000Y-121907142D01*
X186571428Y-121792857D01*
X186571428Y-121650000D01*
X186600000Y-121535714D01*
X186628571Y-121478571D01*
X186657142Y-121450000D01*
X186714285Y-121421428D01*
X187457142Y-121421428D02*
X187171428Y-121421428D01*
X187142857Y-121707142D01*
X187171428Y-121678571D01*
X187228571Y-121650000D01*
X187371428Y-121650000D01*
X187428571Y-121678571D01*
X187457142Y-121707142D01*
X187485714Y-121764285D01*
X187485714Y-121907142D01*
X187457142Y-121964285D01*
X187428571Y-121992857D01*
X187371428Y-122021428D01*
X187228571Y-122021428D01*
X187171428Y-121992857D01*
X187142857Y-121964285D01*
X187857142Y-121421428D02*
X187914285Y-121421428D01*
X187971428Y-121450000D01*
X188000000Y-121478571D01*
X188028571Y-121535714D01*
X188057142Y-121650000D01*
X188057142Y-121792857D01*
X188028571Y-121907142D01*
X188000000Y-121964285D01*
X187971428Y-121992857D01*
X187914285Y-122021428D01*
X187857142Y-122021428D01*
X187800000Y-121992857D01*
X187771428Y-121964285D01*
X187742857Y-121907142D01*
X187714285Y-121792857D01*
X187714285Y-121650000D01*
X187742857Y-121535714D01*
X187771428Y-121478571D01*
X187800000Y-121450000D01*
X187857142Y-121421428D01*
X188628571Y-122021428D02*
X188285714Y-122021428D01*
X188457142Y-122021428D02*
X188457142Y-121421428D01*
X188400000Y-121507142D01*
X188342857Y-121564285D01*
X188285714Y-121592857D01*
X188857142Y-121992857D02*
X188942857Y-122021428D01*
X189085714Y-122021428D01*
X189142857Y-121992857D01*
X189171428Y-121964285D01*
X189200000Y-121907142D01*
X189200000Y-121850000D01*
X189171428Y-121792857D01*
X189142857Y-121764285D01*
X189085714Y-121735714D01*
X188971428Y-121707142D01*
X188914285Y-121678571D01*
X188885714Y-121650000D01*
X188857142Y-121592857D01*
X188857142Y-121535714D01*
X188885714Y-121478571D01*
X188914285Y-121450000D01*
X188971428Y-121421428D01*
X189114285Y-121421428D01*
X189200000Y-121450000D01*
D10*
X180177619Y-91055238D02*
X180130000Y-91150476D01*
X180034761Y-91245714D01*
X179891904Y-91388571D01*
X179844285Y-91483809D01*
X179844285Y-91579047D01*
X180082380Y-91531428D02*
X180034761Y-91626666D01*
X179939523Y-91721904D01*
X179749047Y-91769523D01*
X179415714Y-91769523D01*
X179225238Y-91721904D01*
X179130000Y-91626666D01*
X179082380Y-91531428D01*
X179082380Y-91340952D01*
X179130000Y-91245714D01*
X179225238Y-91150476D01*
X179415714Y-91102857D01*
X179749047Y-91102857D01*
X179939523Y-91150476D01*
X180034761Y-91245714D01*
X180082380Y-91340952D01*
X180082380Y-91531428D01*
X179177619Y-90721904D02*
X179130000Y-90674285D01*
X179082380Y-90579047D01*
X179082380Y-90340952D01*
X179130000Y-90245714D01*
X179177619Y-90198095D01*
X179272857Y-90150476D01*
X179368095Y-90150476D01*
X179510952Y-90198095D01*
X180082380Y-90769523D01*
X180082380Y-90150476D01*
X160638095Y-94452380D02*
X160638095Y-95261904D01*
X160685714Y-95357142D01*
X160733333Y-95404761D01*
X160828571Y-95452380D01*
X161019047Y-95452380D01*
X161114285Y-95404761D01*
X161161904Y-95357142D01*
X161209523Y-95261904D01*
X161209523Y-94452380D01*
X161638095Y-94547619D02*
X161685714Y-94500000D01*
X161780952Y-94452380D01*
X162019047Y-94452380D01*
X162114285Y-94500000D01*
X162161904Y-94547619D01*
X162209523Y-94642857D01*
X162209523Y-94738095D01*
X162161904Y-94880952D01*
X161590476Y-95452380D01*
X162209523Y-95452380D01*
X186334761Y-77357142D02*
X186287142Y-77404761D01*
X186144285Y-77452380D01*
X186049047Y-77452380D01*
X185906190Y-77404761D01*
X185810952Y-77309523D01*
X185763333Y-77214285D01*
X185715714Y-77023809D01*
X185715714Y-76880952D01*
X185763333Y-76690476D01*
X185810952Y-76595238D01*
X185906190Y-76500000D01*
X186049047Y-76452380D01*
X186144285Y-76452380D01*
X186287142Y-76500000D01*
X186334761Y-76547619D01*
X187334761Y-77357142D02*
X187287142Y-77404761D01*
X187144285Y-77452380D01*
X187049047Y-77452380D01*
X186906190Y-77404761D01*
X186810952Y-77309523D01*
X186763333Y-77214285D01*
X186715714Y-77023809D01*
X186715714Y-76880952D01*
X186763333Y-76690476D01*
X186810952Y-76595238D01*
X186906190Y-76500000D01*
X187049047Y-76452380D01*
X187144285Y-76452380D01*
X187287142Y-76500000D01*
X187334761Y-76547619D01*
X188287142Y-77452380D02*
X187715714Y-77452380D01*
X188001428Y-77452380D02*
X188001428Y-76452380D01*
X187906190Y-76595238D01*
X187810952Y-76690476D01*
X187715714Y-76738095D01*
X189239523Y-77452380D02*
X188668095Y-77452380D01*
X188953809Y-77452380D02*
X188953809Y-76452380D01*
X188858571Y-76595238D01*
X188763333Y-76690476D01*
X188668095Y-76738095D01*
X189858571Y-76452380D02*
X189953809Y-76452380D01*
X190049047Y-76500000D01*
X190096666Y-76547619D01*
X190144285Y-76642857D01*
X190191904Y-76833333D01*
X190191904Y-77071428D01*
X190144285Y-77261904D01*
X190096666Y-77357142D01*
X190049047Y-77404761D01*
X189953809Y-77452380D01*
X189858571Y-77452380D01*
X189763333Y-77404761D01*
X189715714Y-77357142D01*
X189668095Y-77261904D01*
X189620476Y-77071428D01*
X189620476Y-76833333D01*
X189668095Y-76642857D01*
X189715714Y-76547619D01*
X189763333Y-76500000D01*
X189858571Y-76452380D01*
X191144285Y-77452380D02*
X190572857Y-77452380D01*
X190858571Y-77452380D02*
X190858571Y-76452380D01*
X190763333Y-76595238D01*
X190668095Y-76690476D01*
X190572857Y-76738095D01*
X194362380Y-101039333D02*
X195076666Y-101039333D01*
X195219523Y-101086952D01*
X195314761Y-101182190D01*
X195362380Y-101325047D01*
X195362380Y-101420285D01*
X194457619Y-100610761D02*
X194410000Y-100563142D01*
X194362380Y-100467904D01*
X194362380Y-100229809D01*
X194410000Y-100134571D01*
X194457619Y-100086952D01*
X194552857Y-100039333D01*
X194648095Y-100039333D01*
X194790952Y-100086952D01*
X195362380Y-100658380D01*
X195362380Y-100039333D01*
X193202380Y-102119047D02*
X193202380Y-102595238D01*
X192202380Y-102595238D01*
X192678571Y-101785714D02*
X192678571Y-101452380D01*
X193202380Y-101309523D02*
X193202380Y-101785714D01*
X192202380Y-101785714D01*
X192202380Y-101309523D01*
X193202380Y-100880952D02*
X192202380Y-100880952D01*
X192202380Y-100642857D01*
X192250000Y-100500000D01*
X192345238Y-100404761D01*
X192440476Y-100357142D01*
X192630952Y-100309523D01*
X192773809Y-100309523D01*
X192964285Y-100357142D01*
X193059523Y-100404761D01*
X193154761Y-100500000D01*
X193202380Y-100642857D01*
X193202380Y-100880952D01*
X193202380Y-99357142D02*
X193202380Y-99928571D01*
X193202380Y-99642857D02*
X192202380Y-99642857D01*
X192345238Y-99738095D01*
X192440476Y-99833333D01*
X192488095Y-99928571D01*
X194362380Y-91193333D02*
X195076666Y-91193333D01*
X195219523Y-91240952D01*
X195314761Y-91336190D01*
X195362380Y-91479047D01*
X195362380Y-91574285D01*
X194362380Y-90240952D02*
X194362380Y-90717142D01*
X194838571Y-90764761D01*
X194790952Y-90717142D01*
X194743333Y-90621904D01*
X194743333Y-90383809D01*
X194790952Y-90288571D01*
X194838571Y-90240952D01*
X194933809Y-90193333D01*
X195171904Y-90193333D01*
X195267142Y-90240952D01*
X195314761Y-90288571D01*
X195362380Y-90383809D01*
X195362380Y-90621904D01*
X195314761Y-90717142D01*
X195267142Y-90764761D01*
X193202380Y-91939047D02*
X193202380Y-92415238D01*
X192202380Y-92415238D01*
X192678571Y-91605714D02*
X192678571Y-91272380D01*
X193202380Y-91129523D02*
X193202380Y-91605714D01*
X192202380Y-91605714D01*
X192202380Y-91129523D01*
X193202380Y-90700952D02*
X192202380Y-90700952D01*
X192202380Y-90462857D01*
X192250000Y-90320000D01*
X192345238Y-90224761D01*
X192440476Y-90177142D01*
X192630952Y-90129523D01*
X192773809Y-90129523D01*
X192964285Y-90177142D01*
X193059523Y-90224761D01*
X193154761Y-90320000D01*
X193202380Y-90462857D01*
X193202380Y-90700952D01*
X192297619Y-89748571D02*
X192250000Y-89700952D01*
X192202380Y-89605714D01*
X192202380Y-89367619D01*
X192250000Y-89272380D01*
X192297619Y-89224761D01*
X192392857Y-89177142D01*
X192488095Y-89177142D01*
X192630952Y-89224761D01*
X193202380Y-89796190D01*
X193202380Y-89177142D01*
X167985714Y-74733333D02*
X168023809Y-74771428D01*
X168061904Y-74885714D01*
X168061904Y-74961904D01*
X168023809Y-75076190D01*
X167947619Y-75152380D01*
X167871428Y-75190476D01*
X167719047Y-75228571D01*
X167604761Y-75228571D01*
X167452380Y-75190476D01*
X167376190Y-75152380D01*
X167300000Y-75076190D01*
X167261904Y-74961904D01*
X167261904Y-74885714D01*
X167300000Y-74771428D01*
X167338095Y-74733333D01*
X167604761Y-74276190D02*
X167566666Y-74352380D01*
X167528571Y-74390476D01*
X167452380Y-74428571D01*
X167414285Y-74428571D01*
X167338095Y-74390476D01*
X167300000Y-74352380D01*
X167261904Y-74276190D01*
X167261904Y-74123809D01*
X167300000Y-74047619D01*
X167338095Y-74009523D01*
X167414285Y-73971428D01*
X167452380Y-73971428D01*
X167528571Y-74009523D01*
X167566666Y-74047619D01*
X167604761Y-74123809D01*
X167604761Y-74276190D01*
X167642857Y-74352380D01*
X167680952Y-74390476D01*
X167757142Y-74428571D01*
X167909523Y-74428571D01*
X167985714Y-74390476D01*
X168023809Y-74352380D01*
X168061904Y-74276190D01*
X168061904Y-74123809D01*
X168023809Y-74047619D01*
X167985714Y-74009523D01*
X167909523Y-73971428D01*
X167757142Y-73971428D01*
X167680952Y-74009523D01*
X167642857Y-74047619D01*
X167604761Y-74123809D01*
X180177619Y-102155238D02*
X180130000Y-102250476D01*
X180034761Y-102345714D01*
X179891904Y-102488571D01*
X179844285Y-102583809D01*
X179844285Y-102679047D01*
X180082380Y-102631428D02*
X180034761Y-102726666D01*
X179939523Y-102821904D01*
X179749047Y-102869523D01*
X179415714Y-102869523D01*
X179225238Y-102821904D01*
X179130000Y-102726666D01*
X179082380Y-102631428D01*
X179082380Y-102440952D01*
X179130000Y-102345714D01*
X179225238Y-102250476D01*
X179415714Y-102202857D01*
X179749047Y-102202857D01*
X179939523Y-102250476D01*
X180034761Y-102345714D01*
X180082380Y-102440952D01*
X180082380Y-102631428D01*
X180082380Y-101250476D02*
X180082380Y-101821904D01*
X180082380Y-101536190D02*
X179082380Y-101536190D01*
X179225238Y-101631428D01*
X179320476Y-101726666D01*
X179368095Y-101821904D01*
X175857142Y-71166666D02*
X175904761Y-71214285D01*
X175952380Y-71357142D01*
X175952380Y-71452380D01*
X175904761Y-71595238D01*
X175809523Y-71690476D01*
X175714285Y-71738095D01*
X175523809Y-71785714D01*
X175380952Y-71785714D01*
X175190476Y-71738095D01*
X175095238Y-71690476D01*
X175000000Y-71595238D01*
X174952380Y-71452380D01*
X174952380Y-71357142D01*
X175000000Y-71214285D01*
X175047619Y-71166666D01*
X174952380Y-70833333D02*
X174952380Y-70214285D01*
X175333333Y-70547619D01*
X175333333Y-70404761D01*
X175380952Y-70309523D01*
X175428571Y-70261904D01*
X175523809Y-70214285D01*
X175761904Y-70214285D01*
X175857142Y-70261904D01*
X175904761Y-70309523D01*
X175952380Y-70404761D01*
X175952380Y-70690476D01*
X175904761Y-70785714D01*
X175857142Y-70833333D01*
X150470000Y-72667142D02*
X150436666Y-72714761D01*
X150336666Y-72762380D01*
X150270000Y-72762380D01*
X150170000Y-72714761D01*
X150103333Y-72619523D01*
X150070000Y-72524285D01*
X150036666Y-72333809D01*
X150036666Y-72190952D01*
X150070000Y-72000476D01*
X150103333Y-71905238D01*
X150170000Y-71810000D01*
X150270000Y-71762380D01*
X150336666Y-71762380D01*
X150436666Y-71810000D01*
X150470000Y-71857619D01*
X150870000Y-72762380D02*
X150803333Y-72714761D01*
X150770000Y-72667142D01*
X150736666Y-72571904D01*
X150736666Y-72286190D01*
X150770000Y-72190952D01*
X150803333Y-72143333D01*
X150870000Y-72095714D01*
X150970000Y-72095714D01*
X151036666Y-72143333D01*
X151070000Y-72190952D01*
X151103333Y-72286190D01*
X151103333Y-72571904D01*
X151070000Y-72667142D01*
X151036666Y-72714761D01*
X150970000Y-72762380D01*
X150870000Y-72762380D01*
X151403333Y-72095714D02*
X151403333Y-72762380D01*
X151403333Y-72190952D02*
X151436666Y-72143333D01*
X151503333Y-72095714D01*
X151603333Y-72095714D01*
X151670000Y-72143333D01*
X151703333Y-72238571D01*
X151703333Y-72762380D01*
X151936666Y-72095714D02*
X152203333Y-72095714D01*
X152036666Y-72762380D02*
X152036666Y-71905238D01*
X152070000Y-71810000D01*
X152136666Y-71762380D01*
X152203333Y-71762380D01*
X152436666Y-72762380D02*
X152436666Y-72095714D01*
X152436666Y-71762380D02*
X152403333Y-71810000D01*
X152436666Y-71857619D01*
X152470000Y-71810000D01*
X152436666Y-71762380D01*
X152436666Y-71857619D01*
X153070000Y-72095714D02*
X153070000Y-72905238D01*
X153036666Y-73000476D01*
X153003333Y-73048095D01*
X152936666Y-73095714D01*
X152836666Y-73095714D01*
X152770000Y-73048095D01*
X153070000Y-72714761D02*
X153003333Y-72762380D01*
X152870000Y-72762380D01*
X152803333Y-72714761D01*
X152770000Y-72667142D01*
X152736666Y-72571904D01*
X152736666Y-72286190D01*
X152770000Y-72190952D01*
X152803333Y-72143333D01*
X152870000Y-72095714D01*
X153003333Y-72095714D01*
X153070000Y-72143333D01*
X175907142Y-119216666D02*
X175954761Y-119264285D01*
X176002380Y-119407142D01*
X176002380Y-119502380D01*
X175954761Y-119645238D01*
X175859523Y-119740476D01*
X175764285Y-119788095D01*
X175573809Y-119835714D01*
X175430952Y-119835714D01*
X175240476Y-119788095D01*
X175145238Y-119740476D01*
X175050000Y-119645238D01*
X175002380Y-119502380D01*
X175002380Y-119407142D01*
X175050000Y-119264285D01*
X175097619Y-119216666D01*
X175097619Y-118835714D02*
X175050000Y-118788095D01*
X175002380Y-118692857D01*
X175002380Y-118454761D01*
X175050000Y-118359523D01*
X175097619Y-118311904D01*
X175192857Y-118264285D01*
X175288095Y-118264285D01*
X175430952Y-118311904D01*
X176002380Y-118883333D01*
X176002380Y-118264285D01*
X194362380Y-111393333D02*
X195076666Y-111393333D01*
X195219523Y-111440952D01*
X195314761Y-111536190D01*
X195362380Y-111679047D01*
X195362380Y-111774285D01*
X195362380Y-110393333D02*
X195362380Y-110964761D01*
X195362380Y-110679047D02*
X194362380Y-110679047D01*
X194505238Y-110774285D01*
X194600476Y-110869523D01*
X194648095Y-110964761D01*
X193202380Y-112876190D02*
X192202380Y-112876190D01*
X192202380Y-112495238D01*
X192250000Y-112400000D01*
X192297619Y-112352380D01*
X192392857Y-112304761D01*
X192535714Y-112304761D01*
X192630952Y-112352380D01*
X192678571Y-112400000D01*
X192726190Y-112495238D01*
X192726190Y-112876190D01*
X193202380Y-111733333D02*
X193154761Y-111828571D01*
X193107142Y-111876190D01*
X193011904Y-111923809D01*
X192726190Y-111923809D01*
X192630952Y-111876190D01*
X192583333Y-111828571D01*
X192535714Y-111733333D01*
X192535714Y-111590476D01*
X192583333Y-111495238D01*
X192630952Y-111447619D01*
X192726190Y-111400000D01*
X193011904Y-111400000D01*
X193107142Y-111447619D01*
X193154761Y-111495238D01*
X193202380Y-111590476D01*
X193202380Y-111733333D01*
X192535714Y-111066666D02*
X193202380Y-110876190D01*
X192726190Y-110685714D01*
X193202380Y-110495238D01*
X192535714Y-110304761D01*
X193154761Y-109542857D02*
X193202380Y-109638095D01*
X193202380Y-109828571D01*
X193154761Y-109923809D01*
X193059523Y-109971428D01*
X192678571Y-109971428D01*
X192583333Y-109923809D01*
X192535714Y-109828571D01*
X192535714Y-109638095D01*
X192583333Y-109542857D01*
X192678571Y-109495238D01*
X192773809Y-109495238D01*
X192869047Y-109971428D01*
X193202380Y-109066666D02*
X192535714Y-109066666D01*
X192726190Y-109066666D02*
X192630952Y-109019047D01*
X192583333Y-108971428D01*
X192535714Y-108876190D01*
X192535714Y-108780952D01*
X187952380Y-93838095D02*
X186952380Y-93838095D01*
X186952380Y-93600000D01*
X187000000Y-93457142D01*
X187095238Y-93361904D01*
X187190476Y-93314285D01*
X187380952Y-93266666D01*
X187523809Y-93266666D01*
X187714285Y-93314285D01*
X187809523Y-93361904D01*
X187904761Y-93457142D01*
X187952380Y-93600000D01*
X187952380Y-93838095D01*
X187047619Y-92885714D02*
X187000000Y-92838095D01*
X186952380Y-92742857D01*
X186952380Y-92504761D01*
X187000000Y-92409523D01*
X187047619Y-92361904D01*
X187142857Y-92314285D01*
X187238095Y-92314285D01*
X187380952Y-92361904D01*
X187952380Y-92933333D01*
X187952380Y-92314285D01*
X167533333Y-103552380D02*
X167200000Y-103076190D01*
X166961904Y-103552380D02*
X166961904Y-102552380D01*
X167342857Y-102552380D01*
X167438095Y-102600000D01*
X167485714Y-102647619D01*
X167533333Y-102742857D01*
X167533333Y-102885714D01*
X167485714Y-102980952D01*
X167438095Y-103028571D01*
X167342857Y-103076190D01*
X166961904Y-103076190D01*
X168485714Y-103552380D02*
X167914285Y-103552380D01*
X168200000Y-103552380D02*
X168200000Y-102552380D01*
X168104761Y-102695238D01*
X168009523Y-102790476D01*
X167914285Y-102838095D01*
X167533333Y-97852380D02*
X167200000Y-97376190D01*
X166961904Y-97852380D02*
X166961904Y-96852380D01*
X167342857Y-96852380D01*
X167438095Y-96900000D01*
X167485714Y-96947619D01*
X167533333Y-97042857D01*
X167533333Y-97185714D01*
X167485714Y-97280952D01*
X167438095Y-97328571D01*
X167342857Y-97376190D01*
X166961904Y-97376190D01*
X167914285Y-96947619D02*
X167961904Y-96900000D01*
X168057142Y-96852380D01*
X168295238Y-96852380D01*
X168390476Y-96900000D01*
X168438095Y-96947619D01*
X168485714Y-97042857D01*
X168485714Y-97138095D01*
X168438095Y-97280952D01*
X167866666Y-97852380D01*
X168485714Y-97852380D01*
X176102380Y-111566666D02*
X175626190Y-111900000D01*
X176102380Y-112138095D02*
X175102380Y-112138095D01*
X175102380Y-111757142D01*
X175150000Y-111661904D01*
X175197619Y-111614285D01*
X175292857Y-111566666D01*
X175435714Y-111566666D01*
X175530952Y-111614285D01*
X175578571Y-111661904D01*
X175626190Y-111757142D01*
X175626190Y-112138095D01*
X175102380Y-111233333D02*
X175102380Y-110614285D01*
X175483333Y-110947619D01*
X175483333Y-110804761D01*
X175530952Y-110709523D01*
X175578571Y-110661904D01*
X175673809Y-110614285D01*
X175911904Y-110614285D01*
X176007142Y-110661904D01*
X176054761Y-110709523D01*
X176102380Y-110804761D01*
X176102380Y-111090476D01*
X176054761Y-111185714D01*
X176007142Y-111233333D01*
X163511095Y-72379380D02*
X163511095Y-73188904D01*
X163558714Y-73284142D01*
X163606333Y-73331761D01*
X163701571Y-73379380D01*
X163892047Y-73379380D01*
X163987285Y-73331761D01*
X164034904Y-73284142D01*
X164082523Y-73188904D01*
X164082523Y-72379380D01*
X164987285Y-72712714D02*
X164987285Y-73379380D01*
X164749190Y-72331761D02*
X164511095Y-73046047D01*
X165130142Y-73046047D01*
X187912380Y-103851095D02*
X186912380Y-103851095D01*
X186912380Y-103613000D01*
X186960000Y-103470142D01*
X187055238Y-103374904D01*
X187150476Y-103327285D01*
X187340952Y-103279666D01*
X187483809Y-103279666D01*
X187674285Y-103327285D01*
X187769523Y-103374904D01*
X187864761Y-103470142D01*
X187912380Y-103613000D01*
X187912380Y-103851095D01*
X187912380Y-102327285D02*
X187912380Y-102898714D01*
X187912380Y-102613000D02*
X186912380Y-102613000D01*
X187055238Y-102708238D01*
X187150476Y-102803476D01*
X187198095Y-102898714D01*
X146628571Y-89028571D02*
X146895238Y-89028571D01*
X147009523Y-89552380D02*
X146628571Y-89552380D01*
X146628571Y-88552380D01*
X147009523Y-88552380D01*
X147352380Y-88885714D02*
X147352380Y-89552380D01*
X147352380Y-88980952D02*
X147390476Y-88933333D01*
X147466666Y-88885714D01*
X147580952Y-88885714D01*
X147657142Y-88933333D01*
X147695238Y-89028571D01*
X147695238Y-89552380D01*
X148419047Y-89504761D02*
X148342857Y-89552380D01*
X148190476Y-89552380D01*
X148114285Y-89504761D01*
X148076190Y-89457142D01*
X148038095Y-89361904D01*
X148038095Y-89076190D01*
X148076190Y-88980952D01*
X148114285Y-88933333D01*
X148190476Y-88885714D01*
X148342857Y-88885714D01*
X148419047Y-88933333D01*
X148876190Y-89552380D02*
X148800000Y-89504761D01*
X148761904Y-89457142D01*
X148723809Y-89361904D01*
X148723809Y-89076190D01*
X148761904Y-88980952D01*
X148800000Y-88933333D01*
X148876190Y-88885714D01*
X148990476Y-88885714D01*
X149066666Y-88933333D01*
X149104761Y-88980952D01*
X149142857Y-89076190D01*
X149142857Y-89361904D01*
X149104761Y-89457142D01*
X149066666Y-89504761D01*
X148990476Y-89552380D01*
X148876190Y-89552380D01*
X149828571Y-89552380D02*
X149828571Y-88552380D01*
X149828571Y-89504761D02*
X149752380Y-89552380D01*
X149600000Y-89552380D01*
X149523809Y-89504761D01*
X149485714Y-89457142D01*
X149447619Y-89361904D01*
X149447619Y-89076190D01*
X149485714Y-88980952D01*
X149523809Y-88933333D01*
X149600000Y-88885714D01*
X149752380Y-88885714D01*
X149828571Y-88933333D01*
X150514285Y-89504761D02*
X150438095Y-89552380D01*
X150285714Y-89552380D01*
X150209523Y-89504761D01*
X150171428Y-89409523D01*
X150171428Y-89028571D01*
X150209523Y-88933333D01*
X150285714Y-88885714D01*
X150438095Y-88885714D01*
X150514285Y-88933333D01*
X150552380Y-89028571D01*
X150552380Y-89123809D01*
X150171428Y-89219047D01*
X150895238Y-89552380D02*
X150895238Y-88885714D01*
X150895238Y-89076190D02*
X150933333Y-88980952D01*
X150971428Y-88933333D01*
X151047619Y-88885714D01*
X151123809Y-88885714D01*
X151809523Y-89552380D02*
X151352380Y-89552380D01*
X151580952Y-89552380D02*
X151580952Y-88552380D01*
X151504761Y-88695238D01*
X151428571Y-88790476D01*
X151352380Y-88838095D01*
X146628571Y-104228571D02*
X146895238Y-104228571D01*
X147009523Y-104752380D02*
X146628571Y-104752380D01*
X146628571Y-103752380D01*
X147009523Y-103752380D01*
X147352380Y-104085714D02*
X147352380Y-104752380D01*
X147352380Y-104180952D02*
X147390476Y-104133333D01*
X147466666Y-104085714D01*
X147580952Y-104085714D01*
X147657142Y-104133333D01*
X147695238Y-104228571D01*
X147695238Y-104752380D01*
X148419047Y-104704761D02*
X148342857Y-104752380D01*
X148190476Y-104752380D01*
X148114285Y-104704761D01*
X148076190Y-104657142D01*
X148038095Y-104561904D01*
X148038095Y-104276190D01*
X148076190Y-104180952D01*
X148114285Y-104133333D01*
X148190476Y-104085714D01*
X148342857Y-104085714D01*
X148419047Y-104133333D01*
X148876190Y-104752380D02*
X148800000Y-104704761D01*
X148761904Y-104657142D01*
X148723809Y-104561904D01*
X148723809Y-104276190D01*
X148761904Y-104180952D01*
X148800000Y-104133333D01*
X148876190Y-104085714D01*
X148990476Y-104085714D01*
X149066666Y-104133333D01*
X149104761Y-104180952D01*
X149142857Y-104276190D01*
X149142857Y-104561904D01*
X149104761Y-104657142D01*
X149066666Y-104704761D01*
X148990476Y-104752380D01*
X148876190Y-104752380D01*
X149828571Y-104752380D02*
X149828571Y-103752380D01*
X149828571Y-104704761D02*
X149752380Y-104752380D01*
X149600000Y-104752380D01*
X149523809Y-104704761D01*
X149485714Y-104657142D01*
X149447619Y-104561904D01*
X149447619Y-104276190D01*
X149485714Y-104180952D01*
X149523809Y-104133333D01*
X149600000Y-104085714D01*
X149752380Y-104085714D01*
X149828571Y-104133333D01*
X150514285Y-104704761D02*
X150438095Y-104752380D01*
X150285714Y-104752380D01*
X150209523Y-104704761D01*
X150171428Y-104609523D01*
X150171428Y-104228571D01*
X150209523Y-104133333D01*
X150285714Y-104085714D01*
X150438095Y-104085714D01*
X150514285Y-104133333D01*
X150552380Y-104228571D01*
X150552380Y-104323809D01*
X150171428Y-104419047D01*
X150895238Y-104752380D02*
X150895238Y-104085714D01*
X150895238Y-104276190D02*
X150933333Y-104180952D01*
X150971428Y-104133333D01*
X151047619Y-104085714D01*
X151123809Y-104085714D01*
X151352380Y-103847619D02*
X151390476Y-103800000D01*
X151466666Y-103752380D01*
X151657142Y-103752380D01*
X151733333Y-103800000D01*
X151771428Y-103847619D01*
X151809523Y-103942857D01*
X151809523Y-104038095D01*
X151771428Y-104180952D01*
X151314285Y-104752380D01*
X151809523Y-104752380D01*
X182254595Y-111666880D02*
X182254595Y-112476404D01*
X182302214Y-112571642D01*
X182349833Y-112619261D01*
X182445071Y-112666880D01*
X182635547Y-112666880D01*
X182730785Y-112619261D01*
X182778404Y-112571642D01*
X182826023Y-112476404D01*
X182826023Y-111666880D01*
X183778404Y-111666880D02*
X183302214Y-111666880D01*
X183254595Y-112143071D01*
X183302214Y-112095452D01*
X183397452Y-112047833D01*
X183635547Y-112047833D01*
X183730785Y-112095452D01*
X183778404Y-112143071D01*
X183826023Y-112238309D01*
X183826023Y-112476404D01*
X183778404Y-112571642D01*
X183730785Y-112619261D01*
X183635547Y-112666880D01*
X183397452Y-112666880D01*
X183302214Y-112619261D01*
X183254595Y-112571642D01*
X153063333Y-90157142D02*
X153015714Y-90204761D01*
X152872857Y-90252380D01*
X152777619Y-90252380D01*
X152634761Y-90204761D01*
X152539523Y-90109523D01*
X152491904Y-90014285D01*
X152444285Y-89823809D01*
X152444285Y-89680952D01*
X152491904Y-89490476D01*
X152539523Y-89395238D01*
X152634761Y-89300000D01*
X152777619Y-89252380D01*
X152872857Y-89252380D01*
X153015714Y-89300000D01*
X153063333Y-89347619D01*
X153920476Y-89585714D02*
X153920476Y-90252380D01*
X153682380Y-89204761D02*
X153444285Y-89919047D01*
X154063333Y-89919047D01*
X153133333Y-105807142D02*
X153085714Y-105854761D01*
X152942857Y-105902380D01*
X152847619Y-105902380D01*
X152704761Y-105854761D01*
X152609523Y-105759523D01*
X152561904Y-105664285D01*
X152514285Y-105473809D01*
X152514285Y-105330952D01*
X152561904Y-105140476D01*
X152609523Y-105045238D01*
X152704761Y-104950000D01*
X152847619Y-104902380D01*
X152942857Y-104902380D01*
X153085714Y-104950000D01*
X153133333Y-104997619D01*
X153990476Y-104902380D02*
X153800000Y-104902380D01*
X153704761Y-104950000D01*
X153657142Y-104997619D01*
X153561904Y-105140476D01*
X153514285Y-105330952D01*
X153514285Y-105711904D01*
X153561904Y-105807142D01*
X153609523Y-105854761D01*
X153704761Y-105902380D01*
X153895238Y-105902380D01*
X153990476Y-105854761D01*
X154038095Y-105807142D01*
X154085714Y-105711904D01*
X154085714Y-105473809D01*
X154038095Y-105378571D01*
X153990476Y-105330952D01*
X153895238Y-105283333D01*
X153704761Y-105283333D01*
X153609523Y-105330952D01*
X153561904Y-105378571D01*
X153514285Y-105473809D01*
X153063333Y-99757142D02*
X153015714Y-99804761D01*
X152872857Y-99852380D01*
X152777619Y-99852380D01*
X152634761Y-99804761D01*
X152539523Y-99709523D01*
X152491904Y-99614285D01*
X152444285Y-99423809D01*
X152444285Y-99280952D01*
X152491904Y-99090476D01*
X152539523Y-98995238D01*
X152634761Y-98900000D01*
X152777619Y-98852380D01*
X152872857Y-98852380D01*
X153015714Y-98900000D01*
X153063333Y-98947619D01*
X153968095Y-98852380D02*
X153491904Y-98852380D01*
X153444285Y-99328571D01*
X153491904Y-99280952D01*
X153587142Y-99233333D01*
X153825238Y-99233333D01*
X153920476Y-99280952D01*
X153968095Y-99328571D01*
X154015714Y-99423809D01*
X154015714Y-99661904D01*
X153968095Y-99757142D01*
X153920476Y-99804761D01*
X153825238Y-99852380D01*
X153587142Y-99852380D01*
X153491904Y-99804761D01*
X153444285Y-99757142D01*
X153133333Y-114907142D02*
X153085714Y-114954761D01*
X152942857Y-115002380D01*
X152847619Y-115002380D01*
X152704761Y-114954761D01*
X152609523Y-114859523D01*
X152561904Y-114764285D01*
X152514285Y-114573809D01*
X152514285Y-114430952D01*
X152561904Y-114240476D01*
X152609523Y-114145238D01*
X152704761Y-114050000D01*
X152847619Y-114002380D01*
X152942857Y-114002380D01*
X153085714Y-114050000D01*
X153133333Y-114097619D01*
X153466666Y-114002380D02*
X154133333Y-114002380D01*
X153704761Y-115002380D01*
X153063333Y-93352380D02*
X152730000Y-92876190D01*
X152491904Y-93352380D02*
X152491904Y-92352380D01*
X152872857Y-92352380D01*
X152968095Y-92400000D01*
X153015714Y-92447619D01*
X153063333Y-92542857D01*
X153063333Y-92685714D01*
X153015714Y-92780952D01*
X152968095Y-92828571D01*
X152872857Y-92876190D01*
X152491904Y-92876190D01*
X153920476Y-92685714D02*
X153920476Y-93352380D01*
X153682380Y-92304761D02*
X153444285Y-93019047D01*
X154063333Y-93019047D01*
X153063333Y-96652380D02*
X152730000Y-96176190D01*
X152491904Y-96652380D02*
X152491904Y-95652380D01*
X152872857Y-95652380D01*
X152968095Y-95700000D01*
X153015714Y-95747619D01*
X153063333Y-95842857D01*
X153063333Y-95985714D01*
X153015714Y-96080952D01*
X152968095Y-96128571D01*
X152872857Y-96176190D01*
X152491904Y-96176190D01*
X153968095Y-95652380D02*
X153491904Y-95652380D01*
X153444285Y-96128571D01*
X153491904Y-96080952D01*
X153587142Y-96033333D01*
X153825238Y-96033333D01*
X153920476Y-96080952D01*
X153968095Y-96128571D01*
X154015714Y-96223809D01*
X154015714Y-96461904D01*
X153968095Y-96557142D01*
X153920476Y-96604761D01*
X153825238Y-96652380D01*
X153587142Y-96652380D01*
X153491904Y-96604761D01*
X153444285Y-96557142D01*
X153133333Y-108902380D02*
X152800000Y-108426190D01*
X152561904Y-108902380D02*
X152561904Y-107902380D01*
X152942857Y-107902380D01*
X153038095Y-107950000D01*
X153085714Y-107997619D01*
X153133333Y-108092857D01*
X153133333Y-108235714D01*
X153085714Y-108330952D01*
X153038095Y-108378571D01*
X152942857Y-108426190D01*
X152561904Y-108426190D01*
X153704761Y-108330952D02*
X153609523Y-108283333D01*
X153561904Y-108235714D01*
X153514285Y-108140476D01*
X153514285Y-108092857D01*
X153561904Y-107997619D01*
X153609523Y-107950000D01*
X153704761Y-107902380D01*
X153895238Y-107902380D01*
X153990476Y-107950000D01*
X154038095Y-107997619D01*
X154085714Y-108092857D01*
X154085714Y-108140476D01*
X154038095Y-108235714D01*
X153990476Y-108283333D01*
X153895238Y-108330952D01*
X153704761Y-108330952D01*
X153609523Y-108378571D01*
X153561904Y-108426190D01*
X153514285Y-108521428D01*
X153514285Y-108711904D01*
X153561904Y-108807142D01*
X153609523Y-108854761D01*
X153704761Y-108902380D01*
X153895238Y-108902380D01*
X153990476Y-108854761D01*
X154038095Y-108807142D01*
X154085714Y-108711904D01*
X154085714Y-108521428D01*
X154038095Y-108426190D01*
X153990476Y-108378571D01*
X153895238Y-108330952D01*
X153133333Y-112002380D02*
X152800000Y-111526190D01*
X152561904Y-112002380D02*
X152561904Y-111002380D01*
X152942857Y-111002380D01*
X153038095Y-111050000D01*
X153085714Y-111097619D01*
X153133333Y-111192857D01*
X153133333Y-111335714D01*
X153085714Y-111430952D01*
X153038095Y-111478571D01*
X152942857Y-111526190D01*
X152561904Y-111526190D01*
X153609523Y-112002380D02*
X153800000Y-112002380D01*
X153895238Y-111954761D01*
X153942857Y-111907142D01*
X154038095Y-111764285D01*
X154085714Y-111573809D01*
X154085714Y-111192857D01*
X154038095Y-111097619D01*
X153990476Y-111050000D01*
X153895238Y-111002380D01*
X153704761Y-111002380D01*
X153609523Y-111050000D01*
X153561904Y-111097619D01*
X153514285Y-111192857D01*
X153514285Y-111430952D01*
X153561904Y-111526190D01*
X153609523Y-111573809D01*
X153704761Y-111621428D01*
X153895238Y-111621428D01*
X153990476Y-111573809D01*
X154038095Y-111526190D01*
X154085714Y-111430952D01*
X176152380Y-102366666D02*
X175676190Y-102700000D01*
X176152380Y-102938095D02*
X175152380Y-102938095D01*
X175152380Y-102557142D01*
X175200000Y-102461904D01*
X175247619Y-102414285D01*
X175342857Y-102366666D01*
X175485714Y-102366666D01*
X175580952Y-102414285D01*
X175628571Y-102461904D01*
X175676190Y-102557142D01*
X175676190Y-102938095D01*
X175152380Y-101509523D02*
X175152380Y-101700000D01*
X175200000Y-101795238D01*
X175247619Y-101842857D01*
X175390476Y-101938095D01*
X175580952Y-101985714D01*
X175961904Y-101985714D01*
X176057142Y-101938095D01*
X176104761Y-101890476D01*
X176152380Y-101795238D01*
X176152380Y-101604761D01*
X176104761Y-101509523D01*
X176057142Y-101461904D01*
X175961904Y-101414285D01*
X175723809Y-101414285D01*
X175628571Y-101461904D01*
X175580952Y-101509523D01*
X175533333Y-101604761D01*
X175533333Y-101795238D01*
X175580952Y-101890476D01*
X175628571Y-101938095D01*
X175723809Y-101985714D01*
X176152380Y-106366666D02*
X175676190Y-106700000D01*
X176152380Y-106938095D02*
X175152380Y-106938095D01*
X175152380Y-106557142D01*
X175200000Y-106461904D01*
X175247619Y-106414285D01*
X175342857Y-106366666D01*
X175485714Y-106366666D01*
X175580952Y-106414285D01*
X175628571Y-106461904D01*
X175676190Y-106557142D01*
X175676190Y-106938095D01*
X175152380Y-106033333D02*
X175152380Y-105366666D01*
X176152380Y-105795238D01*
X176152380Y-98342857D02*
X175676190Y-98676190D01*
X176152380Y-98914285D02*
X175152380Y-98914285D01*
X175152380Y-98533333D01*
X175200000Y-98438095D01*
X175247619Y-98390476D01*
X175342857Y-98342857D01*
X175485714Y-98342857D01*
X175580952Y-98390476D01*
X175628571Y-98438095D01*
X175676190Y-98533333D01*
X175676190Y-98914285D01*
X176152380Y-97390476D02*
X176152380Y-97961904D01*
X176152380Y-97676190D02*
X175152380Y-97676190D01*
X175295238Y-97771428D01*
X175390476Y-97866666D01*
X175438095Y-97961904D01*
X175152380Y-96771428D02*
X175152380Y-96676190D01*
X175200000Y-96580952D01*
X175247619Y-96533333D01*
X175342857Y-96485714D01*
X175533333Y-96438095D01*
X175771428Y-96438095D01*
X175961904Y-96485714D01*
X176057142Y-96533333D01*
X176104761Y-96580952D01*
X176152380Y-96676190D01*
X176152380Y-96771428D01*
X176104761Y-96866666D01*
X176057142Y-96914285D01*
X175961904Y-96961904D01*
X175771428Y-97009523D01*
X175533333Y-97009523D01*
X175342857Y-96961904D01*
X175247619Y-96914285D01*
X175200000Y-96866666D01*
X175152380Y-96771428D01*
X176152380Y-94342857D02*
X175676190Y-94676190D01*
X176152380Y-94914285D02*
X175152380Y-94914285D01*
X175152380Y-94533333D01*
X175200000Y-94438095D01*
X175247619Y-94390476D01*
X175342857Y-94342857D01*
X175485714Y-94342857D01*
X175580952Y-94390476D01*
X175628571Y-94438095D01*
X175676190Y-94533333D01*
X175676190Y-94914285D01*
X176152380Y-93390476D02*
X176152380Y-93961904D01*
X176152380Y-93676190D02*
X175152380Y-93676190D01*
X175295238Y-93771428D01*
X175390476Y-93866666D01*
X175438095Y-93961904D01*
X176152380Y-92438095D02*
X176152380Y-93009523D01*
X176152380Y-92723809D02*
X175152380Y-92723809D01*
X175295238Y-92819047D01*
X175390476Y-92914285D01*
X175438095Y-93009523D01*
M02*
