M48
; DRILL file {KiCad (5.1.2)-2} date 16.11.2019 00:04:29
; FORMAT={-:-/ absolute / inch / decimal}
; #@! TF.CreationDate,2019-11-16T00:04:29+01:00
; #@! TF.GenerationSoftware,Kicad,Pcbnew,(5.1.2)-2
; #@! TF.FileFunction,Plated,1,2,PTH
FMAT,2
INCH
T1C0.0157
T2C0.0236
T3C0.0394
T4C0.0433
T5C0.0598
%
G90
G05
T1
X5.9055Y-4.8031
X5.9843Y-4.8031
X6.063Y-4.8031
X6.0748Y-4.4469
X6.1417Y-4.8031
X6.2992Y-4.8031
X6.3386Y-3.8976
X6.378Y-3.8583
X6.378Y-4.0945
X6.378Y-4.8031
X6.4173Y-3.8976
X6.4173Y-4.1339
X6.4567Y-3.8583
X6.4567Y-4.0945
X6.4567Y-4.8031
X6.4961Y-4.1339
X6.5236Y-3.8366
X6.5354Y-4.8031
X6.562Y-3.9961
X6.6535Y-4.3307
X6.6535Y-4.4094
X6.6535Y-4.4882
X6.6535Y-4.5669
X6.6535Y-4.6457
X6.8898Y-4.1732
X7.0669Y-3.2283
X7.0748Y-2.9921
X7.2047Y-2.7953
X7.2047Y-2.9134
X7.2047Y-3.0315
X7.2047Y-3.1496
X7.2047Y-3.2677
X7.3228Y-2.7953
X7.3228Y-2.9134
X7.3228Y-3.0315
X7.3228Y-3.1496
X7.3228Y-3.2677
X7.3622Y-3.7008
X7.3622Y-3.7795
X7.4409Y-2.7953
X7.4409Y-2.9134
X7.4409Y-3.0315
X7.4409Y-3.1496
X7.4409Y-3.2677
X7.4409Y-3.7795
X7.5591Y-2.7953
X7.5591Y-2.9134
X7.5591Y-3.0315
X7.5591Y-3.1496
X7.5591Y-3.2677
X7.6378Y-4.6457
X7.6378Y-4.7638
X7.6772Y-2.7953
X7.6772Y-2.9134
X7.6772Y-3.0315
X7.6772Y-3.1496
X7.6772Y-3.2677
X7.7559Y-4.6457
X7.7559Y-4.7638
X7.874Y-4.6457
T2
X7.1579Y-4.3504
X7.2079Y-4.3504
X7.2579Y-4.3504
T3
X5.8228Y-3.5949
X5.8228Y-3.6949
X5.8228Y-3.7949
X5.8228Y-3.8949
X5.8228Y-3.9949
X7.2055Y-4.5768
X7.3055Y-4.5768
X7.4055Y-4.5768
X5.8228Y-4.1949
X5.8228Y-4.2949
X5.8228Y-4.3949
X5.8228Y-4.4949
X5.8228Y-4.5949
X6.225Y-2.82
X6.225Y-2.92
X6.225Y-3.02
X6.225Y-3.12
X6.225Y-3.22
X6.225Y-3.32
X6.225Y-3.42
X6.225Y-3.52
X6.225Y-3.62
X6.225Y-3.72
X6.225Y-3.82
X6.225Y-3.92
X6.225Y-4.02
X6.225Y-4.12
X6.225Y-4.22
X6.225Y-4.32
X6.225Y-4.42
X6.225Y-4.52
X6.225Y-4.62
X6.225Y-4.72
X6.825Y-2.82
X6.825Y-2.92
X6.825Y-3.02
X6.825Y-3.12
X6.825Y-3.22
X6.825Y-3.32
X6.825Y-3.42
X6.825Y-3.52
X6.825Y-3.62
X6.825Y-3.72
X6.825Y-3.82
X6.825Y-3.92
X6.825Y-4.02
X6.825Y-4.12
X6.825Y-4.22
X6.825Y-4.32
X6.825Y-4.42
X6.825Y-4.52
X6.825Y-4.62
X6.825Y-4.72
T4
X7.2402Y-3.9181
X7.2402Y-4.0181
X7.2402Y-4.1181
X7.2402Y-3.4811
X7.2402Y-3.5811
X7.2402Y-3.6811
X5.815Y-2.9409
X5.815Y-3.1969
X5.9921Y-2.9409
X5.9921Y-3.1969
T5
X7.7736Y-4.2724
X7.7736Y-4.4724
X7.7736Y-3.8748
X7.7736Y-4.0748
X7.7736Y-3.4772
X7.7736Y-3.6772
T0
M30
