G04 #@! TF.GenerationSoftware,KiCad,Pcbnew,(5.1.4)-1*
G04 #@! TF.CreationDate,2019-12-28T21:24:24+01:00*
G04 #@! TF.ProjectId,STM32_2CH_Dimmer,53544d33-325f-4324-9348-5f44696d6d65,rev?*
G04 #@! TF.SameCoordinates,Original*
G04 #@! TF.FileFunction,Copper,L2,Bot*
G04 #@! TF.FilePolarity,Positive*
%FSLAX46Y46*%
G04 Gerber Fmt 4.6, Leading zero omitted, Abs format (unit mm)*
G04 Created by KiCad (PCBNEW (5.1.4)-1) date 2019-12-28 21:24:24*
%MOMM*%
%LPD*%
G04 APERTURE LIST*
%ADD10O,1.700000X1.700000*%
%ADD11R,1.700000X1.700000*%
%ADD12O,2.000000X1.905000*%
%ADD13R,2.000000X1.905000*%
%ADD14C,1.700000*%
%ADD15C,1.500000*%
%ADD16C,3.000000*%
%ADD17C,2.000000*%
%ADD18R,3.000000X3.000000*%
%ADD19O,0.900000X1.500000*%
%ADD20R,0.900000X1.500000*%
%ADD21C,0.600000*%
%ADD22C,2.000000*%
%ADD23C,0.500000*%
%ADD24C,0.250000*%
%ADD25C,3.500000*%
%ADD26C,0.254000*%
G04 APERTURE END LIST*
D10*
X183020000Y-116250000D03*
X185560000Y-116250000D03*
D11*
X188100000Y-116250000D03*
D12*
X183900000Y-88420000D03*
X183900000Y-90960000D03*
D13*
X183900000Y-93500000D03*
D11*
X158115000Y-119888000D03*
D14*
X158115000Y-117348000D03*
X158115000Y-114808000D03*
X158115000Y-112268000D03*
X158115000Y-109728000D03*
X158115000Y-107188000D03*
X158115000Y-104648000D03*
X158115000Y-102108000D03*
X158115000Y-99568000D03*
X158115000Y-97028000D03*
X158115000Y-94488000D03*
X158115000Y-91948000D03*
X158115000Y-89408000D03*
X158115000Y-86868000D03*
X158115000Y-84328000D03*
X158115000Y-81788000D03*
X158115000Y-79248000D03*
X158115000Y-76708000D03*
X158115000Y-74168000D03*
X158115000Y-71628000D03*
X173355000Y-71628000D03*
X173355000Y-74168000D03*
X173355000Y-76708000D03*
X173355000Y-79248000D03*
X173355000Y-81788000D03*
X173355000Y-84328000D03*
X173355000Y-86868000D03*
X173355000Y-89408000D03*
X173355000Y-91948000D03*
X173355000Y-94488000D03*
X173355000Y-97028000D03*
X173355000Y-99568000D03*
X173355000Y-102108000D03*
X173355000Y-104648000D03*
X173355000Y-107188000D03*
X173355000Y-109728000D03*
X173355000Y-112268000D03*
X173355000Y-114808000D03*
X173355000Y-117348000D03*
D11*
X173355000Y-119888000D03*
D15*
X168410200Y-76678800D03*
X163330200Y-71598800D03*
X163330200Y-76678800D03*
X168410200Y-71598800D03*
D16*
X197450000Y-103500000D03*
X197450000Y-98420000D03*
X197450000Y-93400000D03*
X197450000Y-88320000D03*
D12*
X183900000Y-99520000D03*
X183900000Y-102060000D03*
D13*
X183900000Y-104600000D03*
D17*
X147700000Y-74700000D03*
X152200000Y-74700000D03*
X147700000Y-81200000D03*
X152200000Y-81200000D03*
D18*
X197450000Y-113600000D03*
D16*
X197450000Y-108520000D03*
D11*
X147898000Y-91310000D03*
D10*
X147898000Y-93850000D03*
X147898000Y-96390000D03*
X147898000Y-98930000D03*
X147898000Y-101470000D03*
D11*
X147898000Y-106550000D03*
D10*
X147898000Y-109090000D03*
X147898000Y-111630000D03*
X147898000Y-114170000D03*
X147898000Y-116710000D03*
D19*
X183080000Y-110500000D03*
X181810000Y-110500000D03*
D20*
X184350000Y-110500000D03*
D21*
X200000000Y-118000000D03*
X197000000Y-118000000D03*
X194000000Y-118000000D03*
X194000000Y-121000000D03*
X197000000Y-121000000D03*
X189000000Y-96000000D03*
X187000000Y-96000000D03*
X187000000Y-94000000D03*
X183000000Y-71000000D03*
X186000000Y-71000000D03*
X189000000Y-71000000D03*
X192000000Y-71000000D03*
X195000000Y-71000000D03*
X195000000Y-74000000D03*
X195000000Y-77000000D03*
X195000000Y-80000000D03*
X195000000Y-83000000D03*
X192000000Y-74000000D03*
X192000000Y-77000000D03*
X192000000Y-80000000D03*
X192000000Y-83000000D03*
X189000000Y-74000000D03*
X186000000Y-74000000D03*
X183000000Y-74000000D03*
X183000000Y-77000000D03*
X186000000Y-77000000D03*
X189000000Y-77000000D03*
X189000000Y-80000000D03*
X186000000Y-80000000D03*
X183000000Y-80000000D03*
X183000000Y-83000000D03*
X186000000Y-83000000D03*
X189000000Y-83000000D03*
X150000000Y-122000000D03*
X152000000Y-122000000D03*
X154000000Y-122000000D03*
X156000000Y-122000000D03*
X160000000Y-122000000D03*
X162000000Y-122000000D03*
X164000000Y-122000000D03*
X166000000Y-122000000D03*
X169000000Y-110000000D03*
X169000000Y-112000000D03*
X169000000Y-114000000D03*
X169000000Y-116000000D03*
X169000000Y-118000000D03*
X175000000Y-106000000D03*
X161000000Y-99000000D03*
X163000000Y-99000000D03*
X164000000Y-98000000D03*
X162000000Y-98000000D03*
X162000000Y-104000000D03*
X164000000Y-104000000D03*
X163000000Y-105000000D03*
X165000000Y-105000000D03*
X179700000Y-76000000D03*
X179500000Y-82000000D03*
X154300000Y-112950000D03*
X166675000Y-101500000D03*
X165700000Y-97450000D03*
X177300000Y-110400000D03*
D22*
X184480000Y-99520000D02*
X183900000Y-99520000D01*
X183900000Y-99100000D02*
X183900000Y-99520000D01*
X183900000Y-99520000D02*
X182770000Y-99520000D01*
X183900000Y-99520000D02*
X183900000Y-99400000D01*
X183900000Y-99400000D02*
X183000000Y-98500000D01*
X183900000Y-99520000D02*
X183900000Y-99350000D01*
X183900000Y-99350000D02*
X184750000Y-98500000D01*
X183900000Y-88420000D02*
X184580000Y-88420000D01*
X183900000Y-87900000D02*
X183900000Y-88420000D01*
X183080000Y-88420000D02*
X183900000Y-88420000D01*
X183900000Y-88150000D02*
X183900000Y-88420000D01*
X183900000Y-88150000D02*
X183000000Y-87250000D01*
X183900000Y-88100000D02*
X184750000Y-87250000D01*
X183900000Y-88420000D02*
X183900000Y-88100000D01*
D23*
X154170000Y-114220000D02*
X147898000Y-114220000D01*
X156765000Y-119888000D02*
X158115000Y-119888000D01*
X156400000Y-119523000D02*
X156765000Y-119888000D01*
X156400000Y-115650000D02*
X156400000Y-119523000D01*
X154170000Y-114220000D02*
X154970000Y-114220000D01*
X154970000Y-114220000D02*
X156400000Y-115650000D01*
X146597999Y-112869999D02*
X146569999Y-112869999D01*
X147898000Y-114170000D02*
X146597999Y-112869999D01*
X146569999Y-112869999D02*
X146400000Y-112700000D01*
X146400000Y-100428000D02*
X147898000Y-98930000D01*
X146400000Y-112700000D02*
X146400000Y-100428000D01*
X168439400Y-76708000D02*
X168410200Y-76678800D01*
X173355000Y-76708000D02*
X168439400Y-76708000D01*
X180500721Y-76800721D02*
X179700000Y-76000000D01*
X179700000Y-76000000D02*
X179700000Y-76000000D01*
X175800000Y-88300000D02*
X175800000Y-84400000D01*
X175800000Y-84400000D02*
X176700000Y-83500000D01*
X179500000Y-83500000D02*
X180500721Y-82499279D01*
X176700000Y-83500000D02*
X179500000Y-83500000D01*
X180500721Y-82499279D02*
X180500721Y-76800721D01*
X174875000Y-95508000D02*
X174875000Y-89225000D01*
X173355000Y-97028000D02*
X174875000Y-95508000D01*
X174875000Y-89225000D02*
X175800000Y-88300000D01*
X173355000Y-89408000D02*
X174204999Y-88558001D01*
X179000000Y-82000000D02*
X179500000Y-82000000D01*
X179500000Y-82000000D02*
X179500000Y-82000000D01*
X175800000Y-82000000D02*
X179500000Y-82000000D01*
X174830000Y-87969606D02*
X174830000Y-82970000D01*
X174830000Y-82970000D02*
X175800000Y-82000000D01*
X174793394Y-87969606D02*
X173355000Y-89408000D01*
X150210000Y-96390000D02*
X147898000Y-96390000D01*
X156500000Y-90100000D02*
X150210000Y-96390000D01*
X156500000Y-80850000D02*
X156500000Y-90100000D01*
X157252001Y-80097999D02*
X156500000Y-80850000D01*
X158115000Y-79248000D02*
X157265001Y-80097999D01*
X157265001Y-80097999D02*
X157252001Y-80097999D01*
X156400000Y-111443000D02*
X158115000Y-109728000D01*
X154893000Y-112950000D02*
X154300000Y-112950000D01*
X158115000Y-109728000D02*
X154893000Y-112950000D01*
D24*
X156900000Y-100850000D02*
X159200000Y-100850000D01*
D23*
X148747999Y-110830001D02*
X147898000Y-111680000D01*
X154469999Y-110830001D02*
X148747999Y-110830001D01*
X156400000Y-108900000D02*
X154469999Y-110830001D01*
X156400000Y-101350000D02*
X156400000Y-108900000D01*
X156900000Y-100850000D02*
X156400000Y-101350000D01*
X171847000Y-85833000D02*
X171850000Y-85833000D01*
X171665000Y-86015000D02*
X171847000Y-85833000D01*
X171850000Y-85833000D02*
X173355000Y-84328000D01*
X159200000Y-100850000D02*
X160500010Y-102150010D01*
X160500010Y-102150010D02*
X160500010Y-107200010D01*
X160500010Y-107200010D02*
X160900000Y-107600000D01*
X160900000Y-107600000D02*
X170500000Y-107600000D01*
X170500000Y-107600000D02*
X171665000Y-106435000D01*
X171665000Y-106435000D02*
X171665000Y-86015000D01*
X166675000Y-101500000D02*
X165690000Y-100515000D01*
X165700000Y-100505000D02*
X165700000Y-97450000D01*
X165690000Y-100515000D02*
X165700000Y-100505000D01*
D24*
X172000000Y-108450000D02*
X174500000Y-108450000D01*
D23*
X174500000Y-108450000D02*
X175350000Y-108450000D01*
X158115000Y-102108000D02*
X159800000Y-103793000D01*
X159800000Y-103793000D02*
X159800000Y-107800000D01*
X160450000Y-108450000D02*
X172000000Y-108450000D01*
X159800000Y-107800000D02*
X160450000Y-108450000D01*
X177300000Y-110400000D02*
X177300000Y-110400000D01*
X175350000Y-108450000D02*
X177300000Y-110400000D01*
X177300000Y-110400000D02*
X177300000Y-110400000D01*
D25*
X194625000Y-103500000D02*
X197450000Y-103500000D01*
X193375000Y-102250000D02*
X194625000Y-103500000D01*
X193375000Y-95353680D02*
X193375000Y-102250000D01*
X197450000Y-93400000D02*
X195328680Y-93400000D01*
X195328680Y-93400000D02*
X193375000Y-95353680D01*
X197450000Y-103500000D02*
X195325000Y-103500000D01*
X195325000Y-103500000D02*
X193300000Y-105525000D01*
X193300000Y-105525000D02*
X193300000Y-111625000D01*
X195275000Y-113600000D02*
X197450000Y-113600000D01*
X193300000Y-111625000D02*
X195275000Y-113600000D01*
D23*
X158115000Y-86868000D02*
X161476000Y-83507000D01*
X161476000Y-78533000D02*
X163330200Y-76678800D01*
X161476000Y-83507000D02*
X161476000Y-78533000D01*
X158115000Y-84328000D02*
X160460000Y-81983000D01*
X160460000Y-74469000D02*
X163330200Y-71598800D01*
X160460000Y-81983000D02*
X160460000Y-74469000D01*
D26*
G36*
X199955425Y-68789981D02*
G01*
X200125531Y-68806497D01*
X200255267Y-68845532D01*
X200374956Y-68909024D01*
X200480031Y-68994554D01*
X200566493Y-69098867D01*
X200631043Y-69217978D01*
X200671229Y-69347362D01*
X200688961Y-69514535D01*
X200729974Y-121965887D01*
X200713503Y-122135531D01*
X200674469Y-122265267D01*
X200610974Y-122384959D01*
X200525445Y-122490031D01*
X200421137Y-122576490D01*
X200302022Y-122641043D01*
X200172634Y-122681231D01*
X200005470Y-122698961D01*
X185103440Y-122709998D01*
X146854206Y-122729983D01*
X146684469Y-122713503D01*
X146554733Y-122674469D01*
X146435041Y-122610974D01*
X146329969Y-122525445D01*
X146243510Y-122421137D01*
X146178957Y-122302022D01*
X146138769Y-122172634D01*
X146121052Y-122005585D01*
X146120781Y-120838967D01*
X146165000Y-120838967D01*
X146165000Y-121161033D01*
X146227832Y-121476912D01*
X146351082Y-121774463D01*
X146530013Y-122042252D01*
X146757748Y-122269987D01*
X147025537Y-122448918D01*
X147323088Y-122572168D01*
X147638967Y-122635000D01*
X147961033Y-122635000D01*
X148276912Y-122572168D01*
X148574463Y-122448918D01*
X148842252Y-122269987D01*
X149069987Y-122042252D01*
X149248918Y-121774463D01*
X149372168Y-121476912D01*
X149435000Y-121161033D01*
X149435000Y-120838967D01*
X149372168Y-120523088D01*
X149248918Y-120225537D01*
X149069987Y-119957748D01*
X148842252Y-119730013D01*
X148574463Y-119551082D01*
X148276912Y-119427832D01*
X147961033Y-119365000D01*
X147638967Y-119365000D01*
X147323088Y-119427832D01*
X147025537Y-119551082D01*
X146757748Y-119730013D01*
X146530013Y-119957748D01*
X146351082Y-120225537D01*
X146227832Y-120523088D01*
X146165000Y-120838967D01*
X146120781Y-120838967D01*
X146119902Y-117066890D01*
X146456524Y-117066890D01*
X146501175Y-117214099D01*
X146626359Y-117476920D01*
X146800412Y-117710269D01*
X147016645Y-117905178D01*
X147266748Y-118054157D01*
X147541109Y-118151481D01*
X147771000Y-118030814D01*
X147771000Y-116837000D01*
X148025000Y-116837000D01*
X148025000Y-118030814D01*
X148254891Y-118151481D01*
X148529252Y-118054157D01*
X148779355Y-117905178D01*
X148995588Y-117710269D01*
X149169641Y-117476920D01*
X149294825Y-117214099D01*
X149339476Y-117066890D01*
X149218155Y-116837000D01*
X148025000Y-116837000D01*
X147771000Y-116837000D01*
X146577845Y-116837000D01*
X146456524Y-117066890D01*
X146119902Y-117066890D01*
X146119104Y-113642682D01*
X146427388Y-113950966D01*
X146405815Y-114170000D01*
X146434487Y-114461111D01*
X146519401Y-114741034D01*
X146657294Y-114999014D01*
X146842866Y-115225134D01*
X147068986Y-115410706D01*
X147133523Y-115445201D01*
X147016645Y-115514822D01*
X146800412Y-115709731D01*
X146626359Y-115943080D01*
X146501175Y-116205901D01*
X146456524Y-116353110D01*
X146577845Y-116583000D01*
X147771000Y-116583000D01*
X147771000Y-116563000D01*
X148025000Y-116563000D01*
X148025000Y-116583000D01*
X149218155Y-116583000D01*
X149339476Y-116353110D01*
X149294825Y-116205901D01*
X149169641Y-115943080D01*
X148995588Y-115709731D01*
X148779355Y-115514822D01*
X148662477Y-115445201D01*
X148727014Y-115410706D01*
X148953134Y-115225134D01*
X149051725Y-115105000D01*
X154603422Y-115105000D01*
X155515000Y-116016579D01*
X155515001Y-119479521D01*
X155510719Y-119523000D01*
X155527805Y-119696490D01*
X155578412Y-119863313D01*
X155660590Y-120017059D01*
X155743468Y-120118046D01*
X155743471Y-120118049D01*
X155771184Y-120151817D01*
X155804952Y-120179530D01*
X156108466Y-120483044D01*
X156136183Y-120516817D01*
X156270941Y-120627411D01*
X156424687Y-120709589D01*
X156518344Y-120738000D01*
X156591509Y-120760195D01*
X156606306Y-120761652D01*
X156629482Y-120763935D01*
X156639188Y-120862482D01*
X156675498Y-120982180D01*
X156734463Y-121092494D01*
X156813815Y-121189185D01*
X156910506Y-121268537D01*
X157020820Y-121327502D01*
X157140518Y-121363812D01*
X157265000Y-121376072D01*
X158965000Y-121376072D01*
X159089482Y-121363812D01*
X159209180Y-121327502D01*
X159319494Y-121268537D01*
X159416185Y-121189185D01*
X159495537Y-121092494D01*
X159554502Y-120982180D01*
X159590812Y-120862482D01*
X159603072Y-120738000D01*
X159603072Y-119038000D01*
X159590812Y-118913518D01*
X159554502Y-118793820D01*
X159495537Y-118683506D01*
X159416185Y-118586815D01*
X159319494Y-118507463D01*
X159209180Y-118448498D01*
X159089482Y-118412188D01*
X158965000Y-118399928D01*
X158956458Y-118399928D01*
X158963792Y-118376397D01*
X158115000Y-117527605D01*
X158100858Y-117541748D01*
X157921253Y-117362143D01*
X157935395Y-117348000D01*
X158294605Y-117348000D01*
X159143397Y-118196792D01*
X159392472Y-118119157D01*
X159518371Y-117855117D01*
X159590339Y-117571589D01*
X159605611Y-117279469D01*
X159563599Y-116989981D01*
X159465919Y-116714253D01*
X159392472Y-116576843D01*
X159143397Y-116499208D01*
X158294605Y-117348000D01*
X157935395Y-117348000D01*
X157921253Y-117333858D01*
X158100858Y-117154253D01*
X158115000Y-117168395D01*
X158963792Y-116319603D01*
X158888271Y-116077311D01*
X159061632Y-115961475D01*
X159268475Y-115754632D01*
X159430990Y-115511411D01*
X159542932Y-115241158D01*
X159600000Y-114954260D01*
X159600000Y-114661740D01*
X159542932Y-114374842D01*
X159430990Y-114104589D01*
X159268475Y-113861368D01*
X159061632Y-113654525D01*
X158887240Y-113538000D01*
X159061632Y-113421475D01*
X159268475Y-113214632D01*
X159430990Y-112971411D01*
X159542932Y-112701158D01*
X159600000Y-112414260D01*
X159600000Y-112121740D01*
X159542932Y-111834842D01*
X159430990Y-111564589D01*
X159268475Y-111321368D01*
X159061632Y-111114525D01*
X158887240Y-110998000D01*
X159061632Y-110881475D01*
X159268475Y-110674632D01*
X159430990Y-110431411D01*
X159542932Y-110161158D01*
X159600000Y-109874260D01*
X159600000Y-109581740D01*
X159542932Y-109294842D01*
X159430990Y-109024589D01*
X159268475Y-108781368D01*
X159061632Y-108574525D01*
X158887240Y-108458000D01*
X159061632Y-108341475D01*
X159082433Y-108320674D01*
X159143468Y-108395046D01*
X159143471Y-108395049D01*
X159171184Y-108428817D01*
X159204951Y-108456529D01*
X159793470Y-109045049D01*
X159821183Y-109078817D01*
X159854951Y-109106530D01*
X159854953Y-109106532D01*
X159876467Y-109124188D01*
X159955941Y-109189411D01*
X160109687Y-109271589D01*
X160276510Y-109322195D01*
X160406523Y-109335000D01*
X160406531Y-109335000D01*
X160450000Y-109339281D01*
X160493469Y-109335000D01*
X171919080Y-109335000D01*
X171870000Y-109581740D01*
X171870000Y-109874260D01*
X171927068Y-110161158D01*
X172039010Y-110431411D01*
X172201525Y-110674632D01*
X172408368Y-110881475D01*
X172582760Y-110998000D01*
X172408368Y-111114525D01*
X172201525Y-111321368D01*
X172039010Y-111564589D01*
X171927068Y-111834842D01*
X171870000Y-112121740D01*
X171870000Y-112414260D01*
X171927068Y-112701158D01*
X172039010Y-112971411D01*
X172201525Y-113214632D01*
X172408368Y-113421475D01*
X172582760Y-113538000D01*
X172408368Y-113654525D01*
X172201525Y-113861368D01*
X172039010Y-114104589D01*
X171927068Y-114374842D01*
X171870000Y-114661740D01*
X171870000Y-114954260D01*
X171927068Y-115241158D01*
X172039010Y-115511411D01*
X172201525Y-115754632D01*
X172408368Y-115961475D01*
X172582760Y-116078000D01*
X172408368Y-116194525D01*
X172201525Y-116401368D01*
X172039010Y-116644589D01*
X171927068Y-116914842D01*
X171870000Y-117201740D01*
X171870000Y-117494260D01*
X171927068Y-117781158D01*
X172039010Y-118051411D01*
X172201525Y-118294632D01*
X172333380Y-118426487D01*
X172260820Y-118448498D01*
X172150506Y-118507463D01*
X172053815Y-118586815D01*
X171974463Y-118683506D01*
X171915498Y-118793820D01*
X171879188Y-118913518D01*
X171866928Y-119038000D01*
X171866928Y-120738000D01*
X171879188Y-120862482D01*
X171915498Y-120982180D01*
X171974463Y-121092494D01*
X172053815Y-121189185D01*
X172150506Y-121268537D01*
X172260820Y-121327502D01*
X172380518Y-121363812D01*
X172505000Y-121376072D01*
X174205000Y-121376072D01*
X174329482Y-121363812D01*
X174449180Y-121327502D01*
X174559494Y-121268537D01*
X174656185Y-121189185D01*
X174735537Y-121092494D01*
X174794502Y-120982180D01*
X174830812Y-120862482D01*
X174842976Y-120738967D01*
X197365000Y-120738967D01*
X197365000Y-121061033D01*
X197427832Y-121376912D01*
X197551082Y-121674463D01*
X197730013Y-121942252D01*
X197957748Y-122169987D01*
X198225537Y-122348918D01*
X198523088Y-122472168D01*
X198838967Y-122535000D01*
X199161033Y-122535000D01*
X199476912Y-122472168D01*
X199774463Y-122348918D01*
X200042252Y-122169987D01*
X200269987Y-121942252D01*
X200448918Y-121674463D01*
X200572168Y-121376912D01*
X200635000Y-121061033D01*
X200635000Y-120738967D01*
X200572168Y-120423088D01*
X200448918Y-120125537D01*
X200269987Y-119857748D01*
X200042252Y-119630013D01*
X199774463Y-119451082D01*
X199476912Y-119327832D01*
X199161033Y-119265000D01*
X198838967Y-119265000D01*
X198523088Y-119327832D01*
X198225537Y-119451082D01*
X197957748Y-119630013D01*
X197730013Y-119857748D01*
X197551082Y-120125537D01*
X197427832Y-120423088D01*
X197365000Y-120738967D01*
X174842976Y-120738967D01*
X174843072Y-120738000D01*
X174843072Y-119038000D01*
X174830812Y-118913518D01*
X174794502Y-118793820D01*
X174735537Y-118683506D01*
X174656185Y-118586815D01*
X174559494Y-118507463D01*
X174449180Y-118448498D01*
X174376620Y-118426487D01*
X174508475Y-118294632D01*
X174670990Y-118051411D01*
X174782932Y-117781158D01*
X174840000Y-117494260D01*
X174840000Y-117201740D01*
X174782932Y-116914842D01*
X174670990Y-116644589D01*
X174508475Y-116401368D01*
X174357107Y-116250000D01*
X181527815Y-116250000D01*
X181556487Y-116541111D01*
X181641401Y-116821034D01*
X181779294Y-117079014D01*
X181964866Y-117305134D01*
X182190986Y-117490706D01*
X182448966Y-117628599D01*
X182728889Y-117713513D01*
X182947050Y-117735000D01*
X183092950Y-117735000D01*
X183311111Y-117713513D01*
X183591034Y-117628599D01*
X183849014Y-117490706D01*
X184075134Y-117305134D01*
X184260706Y-117079014D01*
X184295201Y-117014477D01*
X184364822Y-117131355D01*
X184559731Y-117347588D01*
X184793080Y-117521641D01*
X185055901Y-117646825D01*
X185203110Y-117691476D01*
X185433000Y-117570155D01*
X185433000Y-116377000D01*
X185413000Y-116377000D01*
X185413000Y-116123000D01*
X185433000Y-116123000D01*
X185433000Y-114929845D01*
X185687000Y-114929845D01*
X185687000Y-116123000D01*
X185707000Y-116123000D01*
X185707000Y-116377000D01*
X185687000Y-116377000D01*
X185687000Y-117570155D01*
X185916890Y-117691476D01*
X186064099Y-117646825D01*
X186326920Y-117521641D01*
X186560269Y-117347588D01*
X186636034Y-117263534D01*
X186660498Y-117344180D01*
X186719463Y-117454494D01*
X186798815Y-117551185D01*
X186895506Y-117630537D01*
X187005820Y-117689502D01*
X187125518Y-117725812D01*
X187250000Y-117738072D01*
X188950000Y-117738072D01*
X189074482Y-117725812D01*
X189194180Y-117689502D01*
X189304494Y-117630537D01*
X189401185Y-117551185D01*
X189480537Y-117454494D01*
X189539502Y-117344180D01*
X189575812Y-117224482D01*
X189588072Y-117100000D01*
X189588072Y-115400000D01*
X189575812Y-115275518D01*
X189539502Y-115155820D01*
X189480537Y-115045506D01*
X189401185Y-114948815D01*
X189304494Y-114869463D01*
X189194180Y-114810498D01*
X189074482Y-114774188D01*
X188950000Y-114761928D01*
X187250000Y-114761928D01*
X187125518Y-114774188D01*
X187005820Y-114810498D01*
X186895506Y-114869463D01*
X186798815Y-114948815D01*
X186719463Y-115045506D01*
X186660498Y-115155820D01*
X186636034Y-115236466D01*
X186560269Y-115152412D01*
X186326920Y-114978359D01*
X186064099Y-114853175D01*
X185916890Y-114808524D01*
X185687000Y-114929845D01*
X185433000Y-114929845D01*
X185203110Y-114808524D01*
X185055901Y-114853175D01*
X184793080Y-114978359D01*
X184559731Y-115152412D01*
X184364822Y-115368645D01*
X184295201Y-115485523D01*
X184260706Y-115420986D01*
X184075134Y-115194866D01*
X183849014Y-115009294D01*
X183591034Y-114871401D01*
X183311111Y-114786487D01*
X183092950Y-114765000D01*
X182947050Y-114765000D01*
X182728889Y-114786487D01*
X182448966Y-114871401D01*
X182190986Y-115009294D01*
X181964866Y-115194866D01*
X181779294Y-115420986D01*
X181641401Y-115678966D01*
X181556487Y-115958889D01*
X181527815Y-116250000D01*
X174357107Y-116250000D01*
X174301632Y-116194525D01*
X174127240Y-116078000D01*
X174301632Y-115961475D01*
X174508475Y-115754632D01*
X174670990Y-115511411D01*
X174782932Y-115241158D01*
X174840000Y-114954260D01*
X174840000Y-114661740D01*
X174782932Y-114374842D01*
X174670990Y-114104589D01*
X174508475Y-113861368D01*
X174301632Y-113654525D01*
X174127240Y-113538000D01*
X174301632Y-113421475D01*
X174508475Y-113214632D01*
X174670990Y-112971411D01*
X174782932Y-112701158D01*
X174840000Y-112414260D01*
X174840000Y-112121740D01*
X174782932Y-111834842D01*
X174670990Y-111564589D01*
X174508475Y-111321368D01*
X174301632Y-111114525D01*
X174127240Y-110998000D01*
X174301632Y-110881475D01*
X174508475Y-110674632D01*
X174670990Y-110431411D01*
X174782932Y-110161158D01*
X174840000Y-109874260D01*
X174840000Y-109581740D01*
X174790920Y-109335000D01*
X174983422Y-109335000D01*
X176457346Y-110808924D01*
X176471414Y-110842889D01*
X176573738Y-110996028D01*
X176703972Y-111126262D01*
X176857111Y-111228586D01*
X177027271Y-111299068D01*
X177207911Y-111335000D01*
X177392089Y-111335000D01*
X177572729Y-111299068D01*
X177742889Y-111228586D01*
X177896028Y-111126262D01*
X178026262Y-110996028D01*
X178128586Y-110842889D01*
X178199068Y-110672729D01*
X178235000Y-110492089D01*
X178235000Y-110307911D01*
X178202935Y-110146707D01*
X180725000Y-110146707D01*
X180725000Y-110853294D01*
X180740700Y-111012697D01*
X180802742Y-111217220D01*
X180903492Y-111405710D01*
X181039079Y-111570922D01*
X181204291Y-111706509D01*
X181392781Y-111807259D01*
X181597304Y-111869300D01*
X181810000Y-111890249D01*
X182022697Y-111869300D01*
X182227220Y-111807259D01*
X182415710Y-111706509D01*
X182445001Y-111682471D01*
X182474291Y-111706509D01*
X182662781Y-111807259D01*
X182867304Y-111869300D01*
X183080000Y-111890249D01*
X183292697Y-111869300D01*
X183497220Y-111807259D01*
X183546360Y-111780993D01*
X183655820Y-111839502D01*
X183775518Y-111875812D01*
X183900000Y-111888072D01*
X184064250Y-111885000D01*
X184223000Y-111726250D01*
X184223000Y-110627000D01*
X184477000Y-110627000D01*
X184477000Y-111726250D01*
X184635750Y-111885000D01*
X184800000Y-111888072D01*
X184924482Y-111875812D01*
X185044180Y-111839502D01*
X185154494Y-111780537D01*
X185251185Y-111701185D01*
X185330537Y-111604494D01*
X185389502Y-111494180D01*
X185425812Y-111374482D01*
X185438072Y-111250000D01*
X185435000Y-110785750D01*
X185276250Y-110627000D01*
X184477000Y-110627000D01*
X184223000Y-110627000D01*
X184203000Y-110627000D01*
X184203000Y-110373000D01*
X184223000Y-110373000D01*
X184223000Y-109273750D01*
X184477000Y-109273750D01*
X184477000Y-110373000D01*
X185276250Y-110373000D01*
X185435000Y-110214250D01*
X185438072Y-109750000D01*
X185425812Y-109625518D01*
X185389502Y-109505820D01*
X185330537Y-109395506D01*
X185251185Y-109298815D01*
X185154494Y-109219463D01*
X185044180Y-109160498D01*
X184924482Y-109124188D01*
X184800000Y-109111928D01*
X184635750Y-109115000D01*
X184477000Y-109273750D01*
X184223000Y-109273750D01*
X184064250Y-109115000D01*
X183900000Y-109111928D01*
X183775518Y-109124188D01*
X183655820Y-109160498D01*
X183546359Y-109219007D01*
X183497219Y-109192741D01*
X183292696Y-109130700D01*
X183080000Y-109109751D01*
X182867303Y-109130700D01*
X182662780Y-109192741D01*
X182474290Y-109293491D01*
X182445000Y-109317529D01*
X182415710Y-109293491D01*
X182227219Y-109192741D01*
X182022696Y-109130700D01*
X181810000Y-109109751D01*
X181597303Y-109130700D01*
X181392780Y-109192741D01*
X181204290Y-109293491D01*
X181039078Y-109429078D01*
X180903491Y-109594290D01*
X180802741Y-109782781D01*
X180740700Y-109987304D01*
X180725000Y-110146707D01*
X178202935Y-110146707D01*
X178199068Y-110127271D01*
X178128586Y-109957111D01*
X178026262Y-109803972D01*
X177896028Y-109673738D01*
X177742889Y-109571414D01*
X177708924Y-109557346D01*
X176006534Y-107854956D01*
X175978817Y-107821183D01*
X175844059Y-107710589D01*
X175690313Y-107628411D01*
X175523490Y-107577805D01*
X175393477Y-107565000D01*
X175393469Y-107565000D01*
X175350000Y-107560719D01*
X175306531Y-107565000D01*
X174794103Y-107565000D01*
X174840000Y-107334260D01*
X174840000Y-107041740D01*
X174782932Y-106754842D01*
X174670990Y-106484589D01*
X174508475Y-106241368D01*
X174301632Y-106034525D01*
X174127240Y-105918000D01*
X174301632Y-105801475D01*
X174508475Y-105594632D01*
X174670990Y-105351411D01*
X174782932Y-105081158D01*
X174840000Y-104794260D01*
X174840000Y-104501740D01*
X174782932Y-104214842D01*
X174670990Y-103944589D01*
X174508475Y-103701368D01*
X174301632Y-103494525D01*
X174127240Y-103378000D01*
X174301632Y-103261475D01*
X174508475Y-103054632D01*
X174670990Y-102811411D01*
X174782932Y-102541158D01*
X174840000Y-102254260D01*
X174840000Y-102060000D01*
X182257319Y-102060000D01*
X182287970Y-102371204D01*
X182378745Y-102670449D01*
X182526155Y-102946235D01*
X182629446Y-103072095D01*
X182545506Y-103116963D01*
X182448815Y-103196315D01*
X182369463Y-103293006D01*
X182310498Y-103403320D01*
X182274188Y-103523018D01*
X182261928Y-103647500D01*
X182261928Y-105552500D01*
X182274188Y-105676982D01*
X182310498Y-105796680D01*
X182369463Y-105906994D01*
X182448815Y-106003685D01*
X182545506Y-106083037D01*
X182655820Y-106142002D01*
X182775518Y-106178312D01*
X182900000Y-106190572D01*
X184900000Y-106190572D01*
X185024482Y-106178312D01*
X185144180Y-106142002D01*
X185254494Y-106083037D01*
X185351185Y-106003685D01*
X185430537Y-105906994D01*
X185489502Y-105796680D01*
X185525812Y-105676982D01*
X185538072Y-105552500D01*
X185538072Y-105525000D01*
X190903461Y-105525000D01*
X190915000Y-105642157D01*
X190915001Y-111507833D01*
X190903461Y-111625000D01*
X190949510Y-112092541D01*
X191085887Y-112542115D01*
X191307351Y-112956445D01*
X191530708Y-113228607D01*
X191530712Y-113228611D01*
X191605392Y-113319609D01*
X191696390Y-113394289D01*
X193505710Y-115203610D01*
X193580391Y-115294609D01*
X193671389Y-115369289D01*
X193671392Y-115369292D01*
X193802037Y-115476509D01*
X193943554Y-115592649D01*
X194357884Y-115814113D01*
X194807458Y-115950490D01*
X195157843Y-115985000D01*
X195275000Y-115996539D01*
X195392157Y-115985000D01*
X197567157Y-115985000D01*
X197917542Y-115950490D01*
X198367116Y-115814113D01*
X198509379Y-115738072D01*
X198950000Y-115738072D01*
X199074482Y-115725812D01*
X199194180Y-115689502D01*
X199304494Y-115630537D01*
X199401185Y-115551185D01*
X199480537Y-115454494D01*
X199539502Y-115344180D01*
X199575812Y-115224482D01*
X199588072Y-115100000D01*
X199588072Y-114659379D01*
X199664113Y-114517116D01*
X199800490Y-114067542D01*
X199846539Y-113600000D01*
X199800490Y-113132458D01*
X199664113Y-112682884D01*
X199588072Y-112540621D01*
X199588072Y-112100000D01*
X199575812Y-111975518D01*
X199539502Y-111855820D01*
X199480537Y-111745506D01*
X199401185Y-111648815D01*
X199304494Y-111569463D01*
X199194180Y-111510498D01*
X199074482Y-111474188D01*
X198950000Y-111461928D01*
X198509379Y-111461928D01*
X198367116Y-111385887D01*
X197917542Y-111249510D01*
X197567157Y-111215000D01*
X196262900Y-111215000D01*
X195685000Y-110637101D01*
X195685000Y-110011653D01*
X196137952Y-110011653D01*
X196293962Y-110327214D01*
X196668745Y-110518020D01*
X197073551Y-110632044D01*
X197492824Y-110664902D01*
X197910451Y-110615334D01*
X198310383Y-110485243D01*
X198606038Y-110327214D01*
X198762048Y-110011653D01*
X197450000Y-108699605D01*
X196137952Y-110011653D01*
X195685000Y-110011653D01*
X195685000Y-109696908D01*
X195958347Y-109832048D01*
X197270395Y-108520000D01*
X197629605Y-108520000D01*
X198941653Y-109832048D01*
X199257214Y-109676038D01*
X199448020Y-109301255D01*
X199562044Y-108896449D01*
X199594902Y-108477176D01*
X199545334Y-108059549D01*
X199415243Y-107659617D01*
X199257214Y-107363962D01*
X198941653Y-107207952D01*
X197629605Y-108520000D01*
X197270395Y-108520000D01*
X195958347Y-107207952D01*
X195685000Y-107343092D01*
X195685000Y-107028347D01*
X196137952Y-107028347D01*
X197450000Y-108340395D01*
X198762048Y-107028347D01*
X198606038Y-106712786D01*
X198231255Y-106521980D01*
X197826449Y-106407956D01*
X197407176Y-106375098D01*
X196989549Y-106424666D01*
X196589617Y-106554757D01*
X196293962Y-106712786D01*
X196137952Y-107028347D01*
X195685000Y-107028347D01*
X195685000Y-106512899D01*
X196312899Y-105885000D01*
X197567157Y-105885000D01*
X197917542Y-105850490D01*
X198367116Y-105714113D01*
X198781446Y-105492649D01*
X199144609Y-105194609D01*
X199442649Y-104831446D01*
X199664113Y-104417116D01*
X199800490Y-103967542D01*
X199846539Y-103500000D01*
X199800490Y-103032458D01*
X199664113Y-102582884D01*
X199442649Y-102168554D01*
X199144609Y-101805391D01*
X198781446Y-101507351D01*
X198367116Y-101285887D01*
X197917542Y-101149510D01*
X197567157Y-101115000D01*
X195760000Y-101115000D01*
X195760000Y-99733635D01*
X195791637Y-99780983D01*
X196089017Y-100078363D01*
X196438698Y-100312012D01*
X196827244Y-100472953D01*
X197239721Y-100555000D01*
X197660279Y-100555000D01*
X198072756Y-100472953D01*
X198461302Y-100312012D01*
X198810983Y-100078363D01*
X199108363Y-99780983D01*
X199342012Y-99431302D01*
X199502953Y-99042756D01*
X199585000Y-98630279D01*
X199585000Y-98209721D01*
X199502953Y-97797244D01*
X199342012Y-97408698D01*
X199108363Y-97059017D01*
X198810983Y-96761637D01*
X198461302Y-96527988D01*
X198072756Y-96367047D01*
X197660279Y-96285000D01*
X197239721Y-96285000D01*
X196827244Y-96367047D01*
X196438698Y-96527988D01*
X196089017Y-96761637D01*
X195791637Y-97059017D01*
X195760000Y-97106365D01*
X195760000Y-96341579D01*
X196316579Y-95785000D01*
X197567157Y-95785000D01*
X197917542Y-95750490D01*
X198367116Y-95614113D01*
X198781446Y-95392649D01*
X199144609Y-95094609D01*
X199442649Y-94731446D01*
X199664113Y-94317116D01*
X199800490Y-93867542D01*
X199846539Y-93400000D01*
X199800490Y-92932458D01*
X199664113Y-92482884D01*
X199442649Y-92068554D01*
X199144609Y-91705391D01*
X198781446Y-91407351D01*
X198367116Y-91185887D01*
X197917542Y-91049510D01*
X197567157Y-91015000D01*
X195445837Y-91015000D01*
X195328680Y-91003461D01*
X195211523Y-91015000D01*
X194861138Y-91049510D01*
X194411564Y-91185887D01*
X193997234Y-91407351D01*
X193634071Y-91705391D01*
X193559386Y-91796395D01*
X191771395Y-93584386D01*
X191680391Y-93659071D01*
X191523700Y-93850000D01*
X191382351Y-94022235D01*
X191160887Y-94436565D01*
X191024510Y-94886139D01*
X190978461Y-95353680D01*
X190990000Y-95470837D01*
X190990001Y-102132833D01*
X190978461Y-102250000D01*
X191024510Y-102717541D01*
X191160887Y-103167115D01*
X191382351Y-103581445D01*
X191596023Y-103841806D01*
X191365454Y-104122756D01*
X191307351Y-104193555D01*
X191085887Y-104607885D01*
X190949510Y-105057459D01*
X190903461Y-105525000D01*
X185538072Y-105525000D01*
X185538072Y-103647500D01*
X185525812Y-103523018D01*
X185489502Y-103403320D01*
X185430537Y-103293006D01*
X185351185Y-103196315D01*
X185254494Y-103116963D01*
X185170554Y-103072095D01*
X185273845Y-102946235D01*
X185421255Y-102670449D01*
X185512030Y-102371204D01*
X185542681Y-102060000D01*
X185512030Y-101748796D01*
X185421255Y-101449551D01*
X185273845Y-101173765D01*
X185075463Y-100932037D01*
X184896101Y-100784837D01*
X185081315Y-100629437D01*
X185275969Y-100386923D01*
X185419571Y-100111094D01*
X185490563Y-99892980D01*
X185370594Y-99647000D01*
X184027000Y-99647000D01*
X184027000Y-99667000D01*
X183773000Y-99667000D01*
X183773000Y-99647000D01*
X182429406Y-99647000D01*
X182309437Y-99892980D01*
X182380429Y-100111094D01*
X182524031Y-100386923D01*
X182718685Y-100629437D01*
X182903899Y-100784837D01*
X182724537Y-100932037D01*
X182526155Y-101173765D01*
X182378745Y-101449551D01*
X182287970Y-101748796D01*
X182257319Y-102060000D01*
X174840000Y-102060000D01*
X174840000Y-101961740D01*
X174782932Y-101674842D01*
X174670990Y-101404589D01*
X174508475Y-101161368D01*
X174301632Y-100954525D01*
X174127240Y-100838000D01*
X174301632Y-100721475D01*
X174508475Y-100514632D01*
X174670990Y-100271411D01*
X174782932Y-100001158D01*
X174840000Y-99714260D01*
X174840000Y-99421740D01*
X174785355Y-99147020D01*
X182309437Y-99147020D01*
X182429406Y-99393000D01*
X183773000Y-99393000D01*
X183773000Y-98094430D01*
X184027000Y-98094430D01*
X184027000Y-99393000D01*
X185370594Y-99393000D01*
X185490563Y-99147020D01*
X185419571Y-98928906D01*
X185275969Y-98653077D01*
X185081315Y-98410563D01*
X184843089Y-98210684D01*
X184570446Y-98061121D01*
X184273863Y-97967622D01*
X184027000Y-98094430D01*
X183773000Y-98094430D01*
X183526137Y-97967622D01*
X183229554Y-98061121D01*
X182956911Y-98210684D01*
X182718685Y-98410563D01*
X182524031Y-98653077D01*
X182380429Y-98928906D01*
X182309437Y-99147020D01*
X174785355Y-99147020D01*
X174782932Y-99134842D01*
X174670990Y-98864589D01*
X174508475Y-98621368D01*
X174301632Y-98414525D01*
X174127240Y-98298000D01*
X174301632Y-98181475D01*
X174508475Y-97974632D01*
X174670990Y-97731411D01*
X174782932Y-97461158D01*
X174840000Y-97174260D01*
X174840000Y-96881740D01*
X174825539Y-96809040D01*
X175470050Y-96164529D01*
X175503817Y-96136817D01*
X175549324Y-96081368D01*
X175614411Y-96002059D01*
X175696589Y-95848314D01*
X175747195Y-95681490D01*
X175755214Y-95600068D01*
X175760000Y-95551477D01*
X175760000Y-95551469D01*
X175764281Y-95508000D01*
X175760000Y-95464531D01*
X175760000Y-90960000D01*
X182257319Y-90960000D01*
X182287970Y-91271204D01*
X182378745Y-91570449D01*
X182526155Y-91846235D01*
X182629446Y-91972095D01*
X182545506Y-92016963D01*
X182448815Y-92096315D01*
X182369463Y-92193006D01*
X182310498Y-92303320D01*
X182274188Y-92423018D01*
X182261928Y-92547500D01*
X182261928Y-94452500D01*
X182274188Y-94576982D01*
X182310498Y-94696680D01*
X182369463Y-94806994D01*
X182448815Y-94903685D01*
X182545506Y-94983037D01*
X182655820Y-95042002D01*
X182775518Y-95078312D01*
X182900000Y-95090572D01*
X184900000Y-95090572D01*
X185024482Y-95078312D01*
X185144180Y-95042002D01*
X185254494Y-94983037D01*
X185351185Y-94903685D01*
X185430537Y-94806994D01*
X185489502Y-94696680D01*
X185525812Y-94576982D01*
X185538072Y-94452500D01*
X185538072Y-92547500D01*
X185525812Y-92423018D01*
X185489502Y-92303320D01*
X185430537Y-92193006D01*
X185351185Y-92096315D01*
X185254494Y-92016963D01*
X185170554Y-91972095D01*
X185273845Y-91846235D01*
X185421255Y-91570449D01*
X185512030Y-91271204D01*
X185542681Y-90960000D01*
X185512030Y-90648796D01*
X185421255Y-90349551D01*
X185273845Y-90073765D01*
X185075463Y-89832037D01*
X184896101Y-89684837D01*
X185081315Y-89529437D01*
X185275969Y-89286923D01*
X185419571Y-89011094D01*
X185490563Y-88792980D01*
X185370594Y-88547000D01*
X184027000Y-88547000D01*
X184027000Y-88567000D01*
X183773000Y-88567000D01*
X183773000Y-88547000D01*
X182429406Y-88547000D01*
X182309437Y-88792980D01*
X182380429Y-89011094D01*
X182524031Y-89286923D01*
X182718685Y-89529437D01*
X182903899Y-89684837D01*
X182724537Y-89832037D01*
X182526155Y-90073765D01*
X182378745Y-90349551D01*
X182287970Y-90648796D01*
X182257319Y-90960000D01*
X175760000Y-90960000D01*
X175760000Y-89591578D01*
X176395050Y-88956529D01*
X176428817Y-88928817D01*
X176539411Y-88794059D01*
X176540942Y-88791195D01*
X176621589Y-88640314D01*
X176672195Y-88473490D01*
X176680958Y-88384512D01*
X176685000Y-88343477D01*
X176685000Y-88343469D01*
X176689281Y-88300000D01*
X176685000Y-88256531D01*
X176685000Y-88047020D01*
X182309437Y-88047020D01*
X182429406Y-88293000D01*
X183773000Y-88293000D01*
X183773000Y-86994430D01*
X184027000Y-86994430D01*
X184027000Y-88293000D01*
X185370594Y-88293000D01*
X185459982Y-88109721D01*
X195315000Y-88109721D01*
X195315000Y-88530279D01*
X195397047Y-88942756D01*
X195557988Y-89331302D01*
X195791637Y-89680983D01*
X196089017Y-89978363D01*
X196438698Y-90212012D01*
X196827244Y-90372953D01*
X197239721Y-90455000D01*
X197660279Y-90455000D01*
X198072756Y-90372953D01*
X198461302Y-90212012D01*
X198810983Y-89978363D01*
X199108363Y-89680983D01*
X199342012Y-89331302D01*
X199502953Y-88942756D01*
X199585000Y-88530279D01*
X199585000Y-88109721D01*
X199502953Y-87697244D01*
X199342012Y-87308698D01*
X199108363Y-86959017D01*
X198810983Y-86661637D01*
X198461302Y-86427988D01*
X198072756Y-86267047D01*
X197660279Y-86185000D01*
X197239721Y-86185000D01*
X196827244Y-86267047D01*
X196438698Y-86427988D01*
X196089017Y-86661637D01*
X195791637Y-86959017D01*
X195557988Y-87308698D01*
X195397047Y-87697244D01*
X195315000Y-88109721D01*
X185459982Y-88109721D01*
X185490563Y-88047020D01*
X185419571Y-87828906D01*
X185275969Y-87553077D01*
X185081315Y-87310563D01*
X184843089Y-87110684D01*
X184570446Y-86961121D01*
X184273863Y-86867622D01*
X184027000Y-86994430D01*
X183773000Y-86994430D01*
X183526137Y-86867622D01*
X183229554Y-86961121D01*
X182956911Y-87110684D01*
X182718685Y-87310563D01*
X182524031Y-87553077D01*
X182380429Y-87828906D01*
X182309437Y-88047020D01*
X176685000Y-88047020D01*
X176685000Y-84766578D01*
X177066579Y-84385000D01*
X179456531Y-84385000D01*
X179500000Y-84389281D01*
X179543469Y-84385000D01*
X179543477Y-84385000D01*
X179673490Y-84372195D01*
X179840313Y-84321589D01*
X179994059Y-84239411D01*
X180128817Y-84128817D01*
X180156534Y-84095044D01*
X181095771Y-83155808D01*
X181129538Y-83128096D01*
X181240132Y-82993338D01*
X181322310Y-82839592D01*
X181372916Y-82672769D01*
X181385721Y-82542756D01*
X181385721Y-82542746D01*
X181390002Y-82499280D01*
X181385721Y-82455814D01*
X181385721Y-77838967D01*
X197065000Y-77838967D01*
X197065000Y-78161033D01*
X197127832Y-78476912D01*
X197251082Y-78774463D01*
X197430013Y-79042252D01*
X197657748Y-79269987D01*
X197925537Y-79448918D01*
X198223088Y-79572168D01*
X198538967Y-79635000D01*
X198861033Y-79635000D01*
X199176912Y-79572168D01*
X199474463Y-79448918D01*
X199742252Y-79269987D01*
X199969987Y-79042252D01*
X200148918Y-78774463D01*
X200272168Y-78476912D01*
X200335000Y-78161033D01*
X200335000Y-77838967D01*
X200272168Y-77523088D01*
X200148918Y-77225537D01*
X199969987Y-76957748D01*
X199742252Y-76730013D01*
X199474463Y-76551082D01*
X199176912Y-76427832D01*
X198861033Y-76365000D01*
X198538967Y-76365000D01*
X198223088Y-76427832D01*
X197925537Y-76551082D01*
X197657748Y-76730013D01*
X197430013Y-76957748D01*
X197251082Y-77225537D01*
X197127832Y-77523088D01*
X197065000Y-77838967D01*
X181385721Y-77838967D01*
X181385721Y-76844186D01*
X181390002Y-76800720D01*
X181385721Y-76757254D01*
X181385721Y-76757244D01*
X181372916Y-76627231D01*
X181322310Y-76460408D01*
X181240132Y-76306662D01*
X181186001Y-76240704D01*
X181157253Y-76205674D01*
X181157251Y-76205672D01*
X181129538Y-76171904D01*
X181095770Y-76144191D01*
X180542655Y-75591077D01*
X180528586Y-75557111D01*
X180426262Y-75403972D01*
X180296028Y-75273738D01*
X180142889Y-75171414D01*
X179972729Y-75100932D01*
X179792089Y-75065000D01*
X179607911Y-75065000D01*
X179427271Y-75100932D01*
X179257111Y-75171414D01*
X179103972Y-75273738D01*
X178973738Y-75403972D01*
X178871414Y-75557111D01*
X178800932Y-75727271D01*
X178765000Y-75907911D01*
X178765000Y-76092089D01*
X178800932Y-76272729D01*
X178871414Y-76442889D01*
X178973738Y-76596028D01*
X179103972Y-76726262D01*
X179257111Y-76828586D01*
X179291077Y-76842655D01*
X179615722Y-77167301D01*
X179615721Y-81069701D01*
X179592089Y-81065000D01*
X179407911Y-81065000D01*
X179227271Y-81100932D01*
X179193308Y-81115000D01*
X175843465Y-81115000D01*
X175799999Y-81110719D01*
X175756533Y-81115000D01*
X175756523Y-81115000D01*
X175626510Y-81127805D01*
X175459687Y-81178411D01*
X175305941Y-81260589D01*
X175305939Y-81260590D01*
X175305940Y-81260590D01*
X175204953Y-81343468D01*
X175204951Y-81343470D01*
X175171183Y-81371183D01*
X175143470Y-81404951D01*
X174840000Y-81708421D01*
X174840000Y-81641740D01*
X174782932Y-81354842D01*
X174670990Y-81084589D01*
X174508475Y-80841368D01*
X174301632Y-80634525D01*
X174127240Y-80518000D01*
X174301632Y-80401475D01*
X174508475Y-80194632D01*
X174670990Y-79951411D01*
X174782932Y-79681158D01*
X174840000Y-79394260D01*
X174840000Y-79101740D01*
X174782932Y-78814842D01*
X174670990Y-78544589D01*
X174508475Y-78301368D01*
X174301632Y-78094525D01*
X174127240Y-77978000D01*
X174301632Y-77861475D01*
X174508475Y-77654632D01*
X174670990Y-77411411D01*
X174782932Y-77141158D01*
X174840000Y-76854260D01*
X174840000Y-76561740D01*
X174782932Y-76274842D01*
X174670990Y-76004589D01*
X174508475Y-75761368D01*
X174301632Y-75554525D01*
X174128271Y-75438689D01*
X174203792Y-75196397D01*
X173355000Y-74347605D01*
X172506208Y-75196397D01*
X172581729Y-75438689D01*
X172408368Y-75554525D01*
X172201525Y-75761368D01*
X172160344Y-75823000D01*
X169504097Y-75823000D01*
X169485999Y-75795914D01*
X169293086Y-75603001D01*
X169066243Y-75451429D01*
X168814189Y-75347025D01*
X168546611Y-75293800D01*
X168273789Y-75293800D01*
X168006211Y-75347025D01*
X167754157Y-75451429D01*
X167527314Y-75603001D01*
X167334401Y-75795914D01*
X167182829Y-76022757D01*
X167078425Y-76274811D01*
X167025200Y-76542389D01*
X167025200Y-76815211D01*
X167078425Y-77082789D01*
X167182829Y-77334843D01*
X167334401Y-77561686D01*
X167527314Y-77754599D01*
X167754157Y-77906171D01*
X168006211Y-78010575D01*
X168273789Y-78063800D01*
X168546611Y-78063800D01*
X168814189Y-78010575D01*
X169066243Y-77906171D01*
X169293086Y-77754599D01*
X169454685Y-77593000D01*
X172160344Y-77593000D01*
X172201525Y-77654632D01*
X172408368Y-77861475D01*
X172582760Y-77978000D01*
X172408368Y-78094525D01*
X172201525Y-78301368D01*
X172039010Y-78544589D01*
X171927068Y-78814842D01*
X171870000Y-79101740D01*
X171870000Y-79394260D01*
X171927068Y-79681158D01*
X172039010Y-79951411D01*
X172201525Y-80194632D01*
X172408368Y-80401475D01*
X172582760Y-80518000D01*
X172408368Y-80634525D01*
X172201525Y-80841368D01*
X172039010Y-81084589D01*
X171927068Y-81354842D01*
X171870000Y-81641740D01*
X171870000Y-81934260D01*
X171927068Y-82221158D01*
X172039010Y-82491411D01*
X172201525Y-82734632D01*
X172408368Y-82941475D01*
X172582760Y-83058000D01*
X172408368Y-83174525D01*
X172201525Y-83381368D01*
X172039010Y-83624589D01*
X171927068Y-83894842D01*
X171870000Y-84181740D01*
X171870000Y-84474260D01*
X171884461Y-84546960D01*
X171268686Y-85162736D01*
X171218183Y-85204183D01*
X171190468Y-85237954D01*
X171069952Y-85358470D01*
X171036184Y-85386183D01*
X171008471Y-85419951D01*
X171008468Y-85419954D01*
X170925590Y-85520941D01*
X170843412Y-85674687D01*
X170792805Y-85841510D01*
X170775719Y-86015000D01*
X170780001Y-86058479D01*
X170780000Y-106068421D01*
X170133422Y-106715000D01*
X161385010Y-106715000D01*
X161385010Y-102193479D01*
X161389291Y-102150010D01*
X161385010Y-102106541D01*
X161385010Y-102106533D01*
X161372205Y-101976520D01*
X161321599Y-101809697D01*
X161239421Y-101655951D01*
X161201710Y-101610000D01*
X161156542Y-101554963D01*
X161156540Y-101554961D01*
X161128827Y-101521193D01*
X161095060Y-101493481D01*
X159795046Y-100193468D01*
X159694059Y-100110590D01*
X159540313Y-100028412D01*
X159532611Y-100026076D01*
X159542932Y-100001158D01*
X159600000Y-99714260D01*
X159600000Y-99421740D01*
X159542932Y-99134842D01*
X159430990Y-98864589D01*
X159268475Y-98621368D01*
X159061632Y-98414525D01*
X158887240Y-98298000D01*
X159061632Y-98181475D01*
X159268475Y-97974632D01*
X159430990Y-97731411D01*
X159542932Y-97461158D01*
X159563469Y-97357911D01*
X164765000Y-97357911D01*
X164765000Y-97542089D01*
X164800932Y-97722729D01*
X164815001Y-97756695D01*
X164815000Y-100369991D01*
X164800719Y-100515000D01*
X164817805Y-100688490D01*
X164868412Y-100855313D01*
X164950590Y-101009059D01*
X165061183Y-101143817D01*
X165094954Y-101171532D01*
X165832345Y-101908924D01*
X165846414Y-101942889D01*
X165948738Y-102096028D01*
X166078972Y-102226262D01*
X166232111Y-102328586D01*
X166402271Y-102399068D01*
X166582911Y-102435000D01*
X166767089Y-102435000D01*
X166947729Y-102399068D01*
X167117889Y-102328586D01*
X167271028Y-102226262D01*
X167401262Y-102096028D01*
X167503586Y-101942889D01*
X167574068Y-101772729D01*
X167610000Y-101592089D01*
X167610000Y-101407911D01*
X167574068Y-101227271D01*
X167503586Y-101057111D01*
X167401262Y-100903972D01*
X167271028Y-100773738D01*
X167117889Y-100671414D01*
X167083924Y-100657345D01*
X166585000Y-100158422D01*
X166585000Y-97756692D01*
X166599068Y-97722729D01*
X166635000Y-97542089D01*
X166635000Y-97357911D01*
X166599068Y-97177271D01*
X166528586Y-97007111D01*
X166426262Y-96853972D01*
X166296028Y-96723738D01*
X166142889Y-96621414D01*
X165972729Y-96550932D01*
X165792089Y-96515000D01*
X165607911Y-96515000D01*
X165427271Y-96550932D01*
X165257111Y-96621414D01*
X165103972Y-96723738D01*
X164973738Y-96853972D01*
X164871414Y-97007111D01*
X164800932Y-97177271D01*
X164765000Y-97357911D01*
X159563469Y-97357911D01*
X159600000Y-97174260D01*
X159600000Y-96881740D01*
X159542932Y-96594842D01*
X159430990Y-96324589D01*
X159268475Y-96081368D01*
X159061632Y-95874525D01*
X158887240Y-95758000D01*
X159061632Y-95641475D01*
X159268475Y-95434632D01*
X159430990Y-95191411D01*
X159542932Y-94921158D01*
X159600000Y-94634260D01*
X159600000Y-94341740D01*
X159542932Y-94054842D01*
X159430990Y-93784589D01*
X159268475Y-93541368D01*
X159061632Y-93334525D01*
X158887240Y-93218000D01*
X159061632Y-93101475D01*
X159268475Y-92894632D01*
X159430990Y-92651411D01*
X159542932Y-92381158D01*
X159600000Y-92094260D01*
X159600000Y-91801740D01*
X159542932Y-91514842D01*
X159430990Y-91244589D01*
X159268475Y-91001368D01*
X159061632Y-90794525D01*
X158887240Y-90678000D01*
X159061632Y-90561475D01*
X159268475Y-90354632D01*
X159430990Y-90111411D01*
X159542932Y-89841158D01*
X159600000Y-89554260D01*
X159600000Y-89261740D01*
X159542932Y-88974842D01*
X159430990Y-88704589D01*
X159268475Y-88461368D01*
X159061632Y-88254525D01*
X158887240Y-88138000D01*
X159061632Y-88021475D01*
X159268475Y-87814632D01*
X159430990Y-87571411D01*
X159542932Y-87301158D01*
X159600000Y-87014260D01*
X159600000Y-86721740D01*
X159585539Y-86649039D01*
X162071050Y-84163529D01*
X162104817Y-84135817D01*
X162138277Y-84095047D01*
X162215411Y-84001059D01*
X162266252Y-83905941D01*
X162297589Y-83847313D01*
X162348195Y-83680490D01*
X162361000Y-83550477D01*
X162361000Y-83550469D01*
X162365281Y-83507000D01*
X162361000Y-83463531D01*
X162361000Y-78899578D01*
X163196779Y-78063800D01*
X163466611Y-78063800D01*
X163734189Y-78010575D01*
X163986243Y-77906171D01*
X164213086Y-77754599D01*
X164405999Y-77561686D01*
X164557571Y-77334843D01*
X164661975Y-77082789D01*
X164715200Y-76815211D01*
X164715200Y-76542389D01*
X164661975Y-76274811D01*
X164557571Y-76022757D01*
X164405999Y-75795914D01*
X164213086Y-75603001D01*
X163986243Y-75451429D01*
X163734189Y-75347025D01*
X163466611Y-75293800D01*
X163193789Y-75293800D01*
X162926211Y-75347025D01*
X162674157Y-75451429D01*
X162447314Y-75603001D01*
X162254401Y-75795914D01*
X162102829Y-76022757D01*
X161998425Y-76274811D01*
X161945200Y-76542389D01*
X161945200Y-76812221D01*
X161345000Y-77412422D01*
X161345000Y-74835578D01*
X161944047Y-74236531D01*
X171864389Y-74236531D01*
X171906401Y-74526019D01*
X172004081Y-74801747D01*
X172077528Y-74939157D01*
X172326603Y-75016792D01*
X173175395Y-74168000D01*
X173534605Y-74168000D01*
X174383397Y-75016792D01*
X174632472Y-74939157D01*
X174758371Y-74675117D01*
X174830339Y-74391589D01*
X174845611Y-74099469D01*
X174803599Y-73809981D01*
X174705919Y-73534253D01*
X174632472Y-73396843D01*
X174383397Y-73319208D01*
X173534605Y-74168000D01*
X173175395Y-74168000D01*
X172326603Y-73319208D01*
X172077528Y-73396843D01*
X171951629Y-73660883D01*
X171879661Y-73944411D01*
X171864389Y-74236531D01*
X161944047Y-74236531D01*
X163196779Y-72983800D01*
X163466611Y-72983800D01*
X163734189Y-72930575D01*
X163986243Y-72826171D01*
X164213086Y-72674599D01*
X164331892Y-72555793D01*
X167632812Y-72555793D01*
X167698337Y-72794660D01*
X167945316Y-72910560D01*
X168210160Y-72976050D01*
X168482692Y-72988612D01*
X168752438Y-72947765D01*
X169009032Y-72855077D01*
X169122063Y-72794660D01*
X169159990Y-72656397D01*
X172506208Y-72656397D01*
X172581514Y-72898000D01*
X172506208Y-73139603D01*
X173355000Y-73988395D01*
X174203792Y-73139603D01*
X174128486Y-72898000D01*
X174203792Y-72656397D01*
X173355000Y-71807605D01*
X172506208Y-72656397D01*
X169159990Y-72656397D01*
X169187588Y-72555793D01*
X168410200Y-71778405D01*
X167632812Y-72555793D01*
X164331892Y-72555793D01*
X164405999Y-72481686D01*
X164557571Y-72254843D01*
X164661975Y-72002789D01*
X164715200Y-71735211D01*
X164715200Y-71671292D01*
X167020388Y-71671292D01*
X167061235Y-71941038D01*
X167153923Y-72197632D01*
X167214340Y-72310663D01*
X167453207Y-72376188D01*
X168230595Y-71598800D01*
X168589805Y-71598800D01*
X169367193Y-72376188D01*
X169606060Y-72310663D01*
X169721960Y-72063684D01*
X169787450Y-71798840D01*
X169792165Y-71696531D01*
X171864389Y-71696531D01*
X171906401Y-71986019D01*
X172004081Y-72261747D01*
X172077528Y-72399157D01*
X172326603Y-72476792D01*
X173175395Y-71628000D01*
X173534605Y-71628000D01*
X174383397Y-72476792D01*
X174632472Y-72399157D01*
X174758371Y-72135117D01*
X174830339Y-71851589D01*
X174845611Y-71559469D01*
X174803599Y-71269981D01*
X174705919Y-70994253D01*
X174632472Y-70856843D01*
X174383397Y-70779208D01*
X173534605Y-71628000D01*
X173175395Y-71628000D01*
X172326603Y-70779208D01*
X172077528Y-70856843D01*
X171951629Y-71120883D01*
X171879661Y-71404411D01*
X171864389Y-71696531D01*
X169792165Y-71696531D01*
X169800012Y-71526308D01*
X169759165Y-71256562D01*
X169666477Y-70999968D01*
X169606060Y-70886937D01*
X169367193Y-70821412D01*
X168589805Y-71598800D01*
X168230595Y-71598800D01*
X167453207Y-70821412D01*
X167214340Y-70886937D01*
X167098440Y-71133916D01*
X167032950Y-71398760D01*
X167020388Y-71671292D01*
X164715200Y-71671292D01*
X164715200Y-71462389D01*
X164661975Y-71194811D01*
X164557571Y-70942757D01*
X164405999Y-70715914D01*
X164331892Y-70641807D01*
X167632812Y-70641807D01*
X168410200Y-71419195D01*
X169187588Y-70641807D01*
X169176011Y-70599603D01*
X172506208Y-70599603D01*
X173355000Y-71448395D01*
X174203792Y-70599603D01*
X174126157Y-70350528D01*
X173862117Y-70224629D01*
X173578589Y-70152661D01*
X173286469Y-70137389D01*
X172996981Y-70179401D01*
X172721253Y-70277081D01*
X172583843Y-70350528D01*
X172506208Y-70599603D01*
X169176011Y-70599603D01*
X169122063Y-70402940D01*
X168875084Y-70287040D01*
X168610240Y-70221550D01*
X168337708Y-70208988D01*
X168067962Y-70249835D01*
X167811368Y-70342523D01*
X167698337Y-70402940D01*
X167632812Y-70641807D01*
X164331892Y-70641807D01*
X164213086Y-70523001D01*
X163986243Y-70371429D01*
X163734189Y-70267025D01*
X163466611Y-70213800D01*
X163193789Y-70213800D01*
X162926211Y-70267025D01*
X162674157Y-70371429D01*
X162447314Y-70523001D01*
X162254401Y-70715914D01*
X162102829Y-70942757D01*
X161998425Y-71194811D01*
X161945200Y-71462389D01*
X161945200Y-71732221D01*
X159864951Y-73812471D01*
X159831184Y-73840183D01*
X159803471Y-73873951D01*
X159803468Y-73873954D01*
X159720590Y-73974941D01*
X159638412Y-74128687D01*
X159600000Y-74255310D01*
X159600000Y-74021740D01*
X159542932Y-73734842D01*
X159430990Y-73464589D01*
X159268475Y-73221368D01*
X159061632Y-73014525D01*
X158887240Y-72898000D01*
X159061632Y-72781475D01*
X159268475Y-72574632D01*
X159430990Y-72331411D01*
X159542932Y-72061158D01*
X159600000Y-71774260D01*
X159600000Y-71481740D01*
X159542932Y-71194842D01*
X159430990Y-70924589D01*
X159268475Y-70681368D01*
X159061632Y-70474525D01*
X158818411Y-70312010D01*
X158548158Y-70200068D01*
X158261260Y-70143000D01*
X157968740Y-70143000D01*
X157681842Y-70200068D01*
X157411589Y-70312010D01*
X157168368Y-70474525D01*
X156961525Y-70681368D01*
X156799010Y-70924589D01*
X156687068Y-71194842D01*
X156630000Y-71481740D01*
X156630000Y-71774260D01*
X156687068Y-72061158D01*
X156799010Y-72331411D01*
X156961525Y-72574632D01*
X157168368Y-72781475D01*
X157342760Y-72898000D01*
X157168368Y-73014525D01*
X156961525Y-73221368D01*
X156799010Y-73464589D01*
X156687068Y-73734842D01*
X156630000Y-74021740D01*
X156630000Y-74314260D01*
X156687068Y-74601158D01*
X156799010Y-74871411D01*
X156961525Y-75114632D01*
X157168368Y-75321475D01*
X157342760Y-75438000D01*
X157168368Y-75554525D01*
X156961525Y-75761368D01*
X156799010Y-76004589D01*
X156687068Y-76274842D01*
X156630000Y-76561740D01*
X156630000Y-76854260D01*
X156687068Y-77141158D01*
X156799010Y-77411411D01*
X156961525Y-77654632D01*
X157168368Y-77861475D01*
X157342760Y-77978000D01*
X157168368Y-78094525D01*
X156961525Y-78301368D01*
X156799010Y-78544589D01*
X156687068Y-78814842D01*
X156630000Y-79101740D01*
X156630000Y-79394260D01*
X156641855Y-79453859D01*
X156623184Y-79469182D01*
X156595471Y-79502950D01*
X155904956Y-80193466D01*
X155871183Y-80221183D01*
X155760589Y-80355942D01*
X155678411Y-80509688D01*
X155653424Y-80592058D01*
X155627981Y-80675932D01*
X155627805Y-80676511D01*
X155615000Y-80806524D01*
X155615000Y-80806531D01*
X155610719Y-80850000D01*
X155615000Y-80893469D01*
X155615001Y-89733420D01*
X149843422Y-95505000D01*
X149092759Y-95505000D01*
X148953134Y-95334866D01*
X148727014Y-95149294D01*
X148672209Y-95120000D01*
X148727014Y-95090706D01*
X148953134Y-94905134D01*
X149138706Y-94679014D01*
X149276599Y-94421034D01*
X149361513Y-94141111D01*
X149390185Y-93850000D01*
X149361513Y-93558889D01*
X149276599Y-93278966D01*
X149138706Y-93020986D01*
X148953134Y-92794866D01*
X148923313Y-92770393D01*
X148992180Y-92749502D01*
X149102494Y-92690537D01*
X149199185Y-92611185D01*
X149278537Y-92514494D01*
X149337502Y-92404180D01*
X149373812Y-92284482D01*
X149386072Y-92160000D01*
X149386072Y-90460000D01*
X149373812Y-90335518D01*
X149337502Y-90215820D01*
X149278537Y-90105506D01*
X149199185Y-90008815D01*
X149102494Y-89929463D01*
X148992180Y-89870498D01*
X148872482Y-89834188D01*
X148748000Y-89821928D01*
X147048000Y-89821928D01*
X146923518Y-89834188D01*
X146803820Y-89870498D01*
X146693506Y-89929463D01*
X146596815Y-90008815D01*
X146517463Y-90105506D01*
X146458498Y-90215820D01*
X146422188Y-90335518D01*
X146409928Y-90460000D01*
X146409928Y-92160000D01*
X146422188Y-92284482D01*
X146458498Y-92404180D01*
X146517463Y-92514494D01*
X146596815Y-92611185D01*
X146693506Y-92690537D01*
X146803820Y-92749502D01*
X146872687Y-92770393D01*
X146842866Y-92794866D01*
X146657294Y-93020986D01*
X146519401Y-93278966D01*
X146434487Y-93558889D01*
X146405815Y-93850000D01*
X146434487Y-94141111D01*
X146519401Y-94421034D01*
X146657294Y-94679014D01*
X146842866Y-94905134D01*
X147068986Y-95090706D01*
X147123791Y-95120000D01*
X147068986Y-95149294D01*
X146842866Y-95334866D01*
X146657294Y-95560986D01*
X146519401Y-95818966D01*
X146434487Y-96098889D01*
X146405815Y-96390000D01*
X146434487Y-96681111D01*
X146519401Y-96961034D01*
X146657294Y-97219014D01*
X146842866Y-97445134D01*
X147068986Y-97630706D01*
X147123791Y-97660000D01*
X147068986Y-97689294D01*
X146842866Y-97874866D01*
X146657294Y-98100986D01*
X146519401Y-98358966D01*
X146434487Y-98638889D01*
X146405815Y-98930000D01*
X146427388Y-99149034D01*
X146115801Y-99460621D01*
X146111813Y-82335413D01*
X146744192Y-82335413D01*
X146839956Y-82599814D01*
X147129571Y-82740704D01*
X147441108Y-82822384D01*
X147762595Y-82841718D01*
X148081675Y-82797961D01*
X148386088Y-82692795D01*
X148560044Y-82599814D01*
X148655808Y-82335413D01*
X147700000Y-81379605D01*
X146744192Y-82335413D01*
X146111813Y-82335413D01*
X146111643Y-81609476D01*
X146207205Y-81886088D01*
X146300186Y-82060044D01*
X146564587Y-82155808D01*
X147520395Y-81200000D01*
X147879605Y-81200000D01*
X148835413Y-82155808D01*
X149099814Y-82060044D01*
X149240704Y-81770429D01*
X149322384Y-81458892D01*
X149341718Y-81137405D01*
X149328219Y-81038967D01*
X150565000Y-81038967D01*
X150565000Y-81361033D01*
X150627832Y-81676912D01*
X150751082Y-81974463D01*
X150930013Y-82242252D01*
X151157748Y-82469987D01*
X151425537Y-82648918D01*
X151723088Y-82772168D01*
X152038967Y-82835000D01*
X152361033Y-82835000D01*
X152676912Y-82772168D01*
X152974463Y-82648918D01*
X153242252Y-82469987D01*
X153469987Y-82242252D01*
X153648918Y-81974463D01*
X153772168Y-81676912D01*
X153835000Y-81361033D01*
X153835000Y-81038967D01*
X153772168Y-80723088D01*
X153648918Y-80425537D01*
X153469987Y-80157748D01*
X153242252Y-79930013D01*
X152974463Y-79751082D01*
X152676912Y-79627832D01*
X152361033Y-79565000D01*
X152038967Y-79565000D01*
X151723088Y-79627832D01*
X151425537Y-79751082D01*
X151157748Y-79930013D01*
X150930013Y-80157748D01*
X150751082Y-80425537D01*
X150627832Y-80723088D01*
X150565000Y-81038967D01*
X149328219Y-81038967D01*
X149297961Y-80818325D01*
X149192795Y-80513912D01*
X149099814Y-80339956D01*
X148835413Y-80244192D01*
X147879605Y-81200000D01*
X147520395Y-81200000D01*
X146564587Y-80244192D01*
X146300186Y-80339956D01*
X146159296Y-80629571D01*
X146111458Y-80812032D01*
X146111284Y-80064587D01*
X146744192Y-80064587D01*
X147700000Y-81020395D01*
X148655808Y-80064587D01*
X148560044Y-79800186D01*
X148270429Y-79659296D01*
X147958892Y-79577616D01*
X147637405Y-79558282D01*
X147318325Y-79602039D01*
X147013912Y-79707205D01*
X146839956Y-79800186D01*
X146744192Y-80064587D01*
X146111284Y-80064587D01*
X146110299Y-75835413D01*
X146744192Y-75835413D01*
X146839956Y-76099814D01*
X147129571Y-76240704D01*
X147441108Y-76322384D01*
X147762595Y-76341718D01*
X148081675Y-76297961D01*
X148386088Y-76192795D01*
X148560044Y-76099814D01*
X148655808Y-75835413D01*
X147700000Y-74879605D01*
X146744192Y-75835413D01*
X146110299Y-75835413D01*
X146110128Y-75105091D01*
X146207205Y-75386088D01*
X146300186Y-75560044D01*
X146564587Y-75655808D01*
X147520395Y-74700000D01*
X147879605Y-74700000D01*
X148835413Y-75655808D01*
X149099814Y-75560044D01*
X149240704Y-75270429D01*
X149322384Y-74958892D01*
X149341718Y-74637405D01*
X149328219Y-74538967D01*
X150565000Y-74538967D01*
X150565000Y-74861033D01*
X150627832Y-75176912D01*
X150751082Y-75474463D01*
X150930013Y-75742252D01*
X151157748Y-75969987D01*
X151425537Y-76148918D01*
X151723088Y-76272168D01*
X152038967Y-76335000D01*
X152361033Y-76335000D01*
X152676912Y-76272168D01*
X152974463Y-76148918D01*
X153242252Y-75969987D01*
X153469987Y-75742252D01*
X153648918Y-75474463D01*
X153772168Y-75176912D01*
X153835000Y-74861033D01*
X153835000Y-74538967D01*
X153772168Y-74223088D01*
X153648918Y-73925537D01*
X153469987Y-73657748D01*
X153242252Y-73430013D01*
X152974463Y-73251082D01*
X152676912Y-73127832D01*
X152361033Y-73065000D01*
X152038967Y-73065000D01*
X151723088Y-73127832D01*
X151425537Y-73251082D01*
X151157748Y-73430013D01*
X150930013Y-73657748D01*
X150751082Y-73925537D01*
X150627832Y-74223088D01*
X150565000Y-74538967D01*
X149328219Y-74538967D01*
X149297961Y-74318325D01*
X149192795Y-74013912D01*
X149099814Y-73839956D01*
X148835413Y-73744192D01*
X147879605Y-74700000D01*
X147520395Y-74700000D01*
X146564587Y-73744192D01*
X146300186Y-73839956D01*
X146159296Y-74129571D01*
X146109945Y-74317801D01*
X146109770Y-73564587D01*
X146744192Y-73564587D01*
X147700000Y-74520395D01*
X148655808Y-73564587D01*
X148560044Y-73300186D01*
X148270429Y-73159296D01*
X147958892Y-73077616D01*
X147637405Y-73058282D01*
X147318325Y-73102039D01*
X147013912Y-73207205D01*
X146839956Y-73300186D01*
X146744192Y-73564587D01*
X146109770Y-73564587D01*
X146109042Y-70438967D01*
X146265000Y-70438967D01*
X146265000Y-70761033D01*
X146327832Y-71076912D01*
X146451082Y-71374463D01*
X146630013Y-71642252D01*
X146857748Y-71869987D01*
X147125537Y-72048918D01*
X147423088Y-72172168D01*
X147738967Y-72235000D01*
X148061033Y-72235000D01*
X148376912Y-72172168D01*
X148674463Y-72048918D01*
X148942252Y-71869987D01*
X149169987Y-71642252D01*
X149348918Y-71374463D01*
X149472168Y-71076912D01*
X149535000Y-70761033D01*
X149535000Y-70438967D01*
X149472168Y-70123088D01*
X149348918Y-69825537D01*
X149169987Y-69557748D01*
X148942252Y-69330013D01*
X148674463Y-69151082D01*
X148376912Y-69027832D01*
X148061033Y-68965000D01*
X147738967Y-68965000D01*
X147423088Y-69027832D01*
X147125537Y-69151082D01*
X146857748Y-69330013D01*
X146630013Y-69557748D01*
X146451082Y-69825537D01*
X146327832Y-70123088D01*
X146265000Y-70438967D01*
X146109042Y-70438967D01*
X146108833Y-69543253D01*
X146125323Y-69373412D01*
X146164358Y-69243676D01*
X146227850Y-69123987D01*
X146313380Y-69018912D01*
X146417693Y-68932450D01*
X146536804Y-68867900D01*
X146666188Y-68827714D01*
X146833355Y-68809983D01*
X184900262Y-68782000D01*
X199955425Y-68789981D01*
X199955425Y-68789981D01*
G37*
X199955425Y-68789981D02*
X200125531Y-68806497D01*
X200255267Y-68845532D01*
X200374956Y-68909024D01*
X200480031Y-68994554D01*
X200566493Y-69098867D01*
X200631043Y-69217978D01*
X200671229Y-69347362D01*
X200688961Y-69514535D01*
X200729974Y-121965887D01*
X200713503Y-122135531D01*
X200674469Y-122265267D01*
X200610974Y-122384959D01*
X200525445Y-122490031D01*
X200421137Y-122576490D01*
X200302022Y-122641043D01*
X200172634Y-122681231D01*
X200005470Y-122698961D01*
X185103440Y-122709998D01*
X146854206Y-122729983D01*
X146684469Y-122713503D01*
X146554733Y-122674469D01*
X146435041Y-122610974D01*
X146329969Y-122525445D01*
X146243510Y-122421137D01*
X146178957Y-122302022D01*
X146138769Y-122172634D01*
X146121052Y-122005585D01*
X146120781Y-120838967D01*
X146165000Y-120838967D01*
X146165000Y-121161033D01*
X146227832Y-121476912D01*
X146351082Y-121774463D01*
X146530013Y-122042252D01*
X146757748Y-122269987D01*
X147025537Y-122448918D01*
X147323088Y-122572168D01*
X147638967Y-122635000D01*
X147961033Y-122635000D01*
X148276912Y-122572168D01*
X148574463Y-122448918D01*
X148842252Y-122269987D01*
X149069987Y-122042252D01*
X149248918Y-121774463D01*
X149372168Y-121476912D01*
X149435000Y-121161033D01*
X149435000Y-120838967D01*
X149372168Y-120523088D01*
X149248918Y-120225537D01*
X149069987Y-119957748D01*
X148842252Y-119730013D01*
X148574463Y-119551082D01*
X148276912Y-119427832D01*
X147961033Y-119365000D01*
X147638967Y-119365000D01*
X147323088Y-119427832D01*
X147025537Y-119551082D01*
X146757748Y-119730013D01*
X146530013Y-119957748D01*
X146351082Y-120225537D01*
X146227832Y-120523088D01*
X146165000Y-120838967D01*
X146120781Y-120838967D01*
X146119902Y-117066890D01*
X146456524Y-117066890D01*
X146501175Y-117214099D01*
X146626359Y-117476920D01*
X146800412Y-117710269D01*
X147016645Y-117905178D01*
X147266748Y-118054157D01*
X147541109Y-118151481D01*
X147771000Y-118030814D01*
X147771000Y-116837000D01*
X148025000Y-116837000D01*
X148025000Y-118030814D01*
X148254891Y-118151481D01*
X148529252Y-118054157D01*
X148779355Y-117905178D01*
X148995588Y-117710269D01*
X149169641Y-117476920D01*
X149294825Y-117214099D01*
X149339476Y-117066890D01*
X149218155Y-116837000D01*
X148025000Y-116837000D01*
X147771000Y-116837000D01*
X146577845Y-116837000D01*
X146456524Y-117066890D01*
X146119902Y-117066890D01*
X146119104Y-113642682D01*
X146427388Y-113950966D01*
X146405815Y-114170000D01*
X146434487Y-114461111D01*
X146519401Y-114741034D01*
X146657294Y-114999014D01*
X146842866Y-115225134D01*
X147068986Y-115410706D01*
X147133523Y-115445201D01*
X147016645Y-115514822D01*
X146800412Y-115709731D01*
X146626359Y-115943080D01*
X146501175Y-116205901D01*
X146456524Y-116353110D01*
X146577845Y-116583000D01*
X147771000Y-116583000D01*
X147771000Y-116563000D01*
X148025000Y-116563000D01*
X148025000Y-116583000D01*
X149218155Y-116583000D01*
X149339476Y-116353110D01*
X149294825Y-116205901D01*
X149169641Y-115943080D01*
X148995588Y-115709731D01*
X148779355Y-115514822D01*
X148662477Y-115445201D01*
X148727014Y-115410706D01*
X148953134Y-115225134D01*
X149051725Y-115105000D01*
X154603422Y-115105000D01*
X155515000Y-116016579D01*
X155515001Y-119479521D01*
X155510719Y-119523000D01*
X155527805Y-119696490D01*
X155578412Y-119863313D01*
X155660590Y-120017059D01*
X155743468Y-120118046D01*
X155743471Y-120118049D01*
X155771184Y-120151817D01*
X155804952Y-120179530D01*
X156108466Y-120483044D01*
X156136183Y-120516817D01*
X156270941Y-120627411D01*
X156424687Y-120709589D01*
X156518344Y-120738000D01*
X156591509Y-120760195D01*
X156606306Y-120761652D01*
X156629482Y-120763935D01*
X156639188Y-120862482D01*
X156675498Y-120982180D01*
X156734463Y-121092494D01*
X156813815Y-121189185D01*
X156910506Y-121268537D01*
X157020820Y-121327502D01*
X157140518Y-121363812D01*
X157265000Y-121376072D01*
X158965000Y-121376072D01*
X159089482Y-121363812D01*
X159209180Y-121327502D01*
X159319494Y-121268537D01*
X159416185Y-121189185D01*
X159495537Y-121092494D01*
X159554502Y-120982180D01*
X159590812Y-120862482D01*
X159603072Y-120738000D01*
X159603072Y-119038000D01*
X159590812Y-118913518D01*
X159554502Y-118793820D01*
X159495537Y-118683506D01*
X159416185Y-118586815D01*
X159319494Y-118507463D01*
X159209180Y-118448498D01*
X159089482Y-118412188D01*
X158965000Y-118399928D01*
X158956458Y-118399928D01*
X158963792Y-118376397D01*
X158115000Y-117527605D01*
X158100858Y-117541748D01*
X157921253Y-117362143D01*
X157935395Y-117348000D01*
X158294605Y-117348000D01*
X159143397Y-118196792D01*
X159392472Y-118119157D01*
X159518371Y-117855117D01*
X159590339Y-117571589D01*
X159605611Y-117279469D01*
X159563599Y-116989981D01*
X159465919Y-116714253D01*
X159392472Y-116576843D01*
X159143397Y-116499208D01*
X158294605Y-117348000D01*
X157935395Y-117348000D01*
X157921253Y-117333858D01*
X158100858Y-117154253D01*
X158115000Y-117168395D01*
X158963792Y-116319603D01*
X158888271Y-116077311D01*
X159061632Y-115961475D01*
X159268475Y-115754632D01*
X159430990Y-115511411D01*
X159542932Y-115241158D01*
X159600000Y-114954260D01*
X159600000Y-114661740D01*
X159542932Y-114374842D01*
X159430990Y-114104589D01*
X159268475Y-113861368D01*
X159061632Y-113654525D01*
X158887240Y-113538000D01*
X159061632Y-113421475D01*
X159268475Y-113214632D01*
X159430990Y-112971411D01*
X159542932Y-112701158D01*
X159600000Y-112414260D01*
X159600000Y-112121740D01*
X159542932Y-111834842D01*
X159430990Y-111564589D01*
X159268475Y-111321368D01*
X159061632Y-111114525D01*
X158887240Y-110998000D01*
X159061632Y-110881475D01*
X159268475Y-110674632D01*
X159430990Y-110431411D01*
X159542932Y-110161158D01*
X159600000Y-109874260D01*
X159600000Y-109581740D01*
X159542932Y-109294842D01*
X159430990Y-109024589D01*
X159268475Y-108781368D01*
X159061632Y-108574525D01*
X158887240Y-108458000D01*
X159061632Y-108341475D01*
X159082433Y-108320674D01*
X159143468Y-108395046D01*
X159143471Y-108395049D01*
X159171184Y-108428817D01*
X159204951Y-108456529D01*
X159793470Y-109045049D01*
X159821183Y-109078817D01*
X159854951Y-109106530D01*
X159854953Y-109106532D01*
X159876467Y-109124188D01*
X159955941Y-109189411D01*
X160109687Y-109271589D01*
X160276510Y-109322195D01*
X160406523Y-109335000D01*
X160406531Y-109335000D01*
X160450000Y-109339281D01*
X160493469Y-109335000D01*
X171919080Y-109335000D01*
X171870000Y-109581740D01*
X171870000Y-109874260D01*
X171927068Y-110161158D01*
X172039010Y-110431411D01*
X172201525Y-110674632D01*
X172408368Y-110881475D01*
X172582760Y-110998000D01*
X172408368Y-111114525D01*
X172201525Y-111321368D01*
X172039010Y-111564589D01*
X171927068Y-111834842D01*
X171870000Y-112121740D01*
X171870000Y-112414260D01*
X171927068Y-112701158D01*
X172039010Y-112971411D01*
X172201525Y-113214632D01*
X172408368Y-113421475D01*
X172582760Y-113538000D01*
X172408368Y-113654525D01*
X172201525Y-113861368D01*
X172039010Y-114104589D01*
X171927068Y-114374842D01*
X171870000Y-114661740D01*
X171870000Y-114954260D01*
X171927068Y-115241158D01*
X172039010Y-115511411D01*
X172201525Y-115754632D01*
X172408368Y-115961475D01*
X172582760Y-116078000D01*
X172408368Y-116194525D01*
X172201525Y-116401368D01*
X172039010Y-116644589D01*
X171927068Y-116914842D01*
X171870000Y-117201740D01*
X171870000Y-117494260D01*
X171927068Y-117781158D01*
X172039010Y-118051411D01*
X172201525Y-118294632D01*
X172333380Y-118426487D01*
X172260820Y-118448498D01*
X172150506Y-118507463D01*
X172053815Y-118586815D01*
X171974463Y-118683506D01*
X171915498Y-118793820D01*
X171879188Y-118913518D01*
X171866928Y-119038000D01*
X171866928Y-120738000D01*
X171879188Y-120862482D01*
X171915498Y-120982180D01*
X171974463Y-121092494D01*
X172053815Y-121189185D01*
X172150506Y-121268537D01*
X172260820Y-121327502D01*
X172380518Y-121363812D01*
X172505000Y-121376072D01*
X174205000Y-121376072D01*
X174329482Y-121363812D01*
X174449180Y-121327502D01*
X174559494Y-121268537D01*
X174656185Y-121189185D01*
X174735537Y-121092494D01*
X174794502Y-120982180D01*
X174830812Y-120862482D01*
X174842976Y-120738967D01*
X197365000Y-120738967D01*
X197365000Y-121061033D01*
X197427832Y-121376912D01*
X197551082Y-121674463D01*
X197730013Y-121942252D01*
X197957748Y-122169987D01*
X198225537Y-122348918D01*
X198523088Y-122472168D01*
X198838967Y-122535000D01*
X199161033Y-122535000D01*
X199476912Y-122472168D01*
X199774463Y-122348918D01*
X200042252Y-122169987D01*
X200269987Y-121942252D01*
X200448918Y-121674463D01*
X200572168Y-121376912D01*
X200635000Y-121061033D01*
X200635000Y-120738967D01*
X200572168Y-120423088D01*
X200448918Y-120125537D01*
X200269987Y-119857748D01*
X200042252Y-119630013D01*
X199774463Y-119451082D01*
X199476912Y-119327832D01*
X199161033Y-119265000D01*
X198838967Y-119265000D01*
X198523088Y-119327832D01*
X198225537Y-119451082D01*
X197957748Y-119630013D01*
X197730013Y-119857748D01*
X197551082Y-120125537D01*
X197427832Y-120423088D01*
X197365000Y-120738967D01*
X174842976Y-120738967D01*
X174843072Y-120738000D01*
X174843072Y-119038000D01*
X174830812Y-118913518D01*
X174794502Y-118793820D01*
X174735537Y-118683506D01*
X174656185Y-118586815D01*
X174559494Y-118507463D01*
X174449180Y-118448498D01*
X174376620Y-118426487D01*
X174508475Y-118294632D01*
X174670990Y-118051411D01*
X174782932Y-117781158D01*
X174840000Y-117494260D01*
X174840000Y-117201740D01*
X174782932Y-116914842D01*
X174670990Y-116644589D01*
X174508475Y-116401368D01*
X174357107Y-116250000D01*
X181527815Y-116250000D01*
X181556487Y-116541111D01*
X181641401Y-116821034D01*
X181779294Y-117079014D01*
X181964866Y-117305134D01*
X182190986Y-117490706D01*
X182448966Y-117628599D01*
X182728889Y-117713513D01*
X182947050Y-117735000D01*
X183092950Y-117735000D01*
X183311111Y-117713513D01*
X183591034Y-117628599D01*
X183849014Y-117490706D01*
X184075134Y-117305134D01*
X184260706Y-117079014D01*
X184295201Y-117014477D01*
X184364822Y-117131355D01*
X184559731Y-117347588D01*
X184793080Y-117521641D01*
X185055901Y-117646825D01*
X185203110Y-117691476D01*
X185433000Y-117570155D01*
X185433000Y-116377000D01*
X185413000Y-116377000D01*
X185413000Y-116123000D01*
X185433000Y-116123000D01*
X185433000Y-114929845D01*
X185687000Y-114929845D01*
X185687000Y-116123000D01*
X185707000Y-116123000D01*
X185707000Y-116377000D01*
X185687000Y-116377000D01*
X185687000Y-117570155D01*
X185916890Y-117691476D01*
X186064099Y-117646825D01*
X186326920Y-117521641D01*
X186560269Y-117347588D01*
X186636034Y-117263534D01*
X186660498Y-117344180D01*
X186719463Y-117454494D01*
X186798815Y-117551185D01*
X186895506Y-117630537D01*
X187005820Y-117689502D01*
X187125518Y-117725812D01*
X187250000Y-117738072D01*
X188950000Y-117738072D01*
X189074482Y-117725812D01*
X189194180Y-117689502D01*
X189304494Y-117630537D01*
X189401185Y-117551185D01*
X189480537Y-117454494D01*
X189539502Y-117344180D01*
X189575812Y-117224482D01*
X189588072Y-117100000D01*
X189588072Y-115400000D01*
X189575812Y-115275518D01*
X189539502Y-115155820D01*
X189480537Y-115045506D01*
X189401185Y-114948815D01*
X189304494Y-114869463D01*
X189194180Y-114810498D01*
X189074482Y-114774188D01*
X188950000Y-114761928D01*
X187250000Y-114761928D01*
X187125518Y-114774188D01*
X187005820Y-114810498D01*
X186895506Y-114869463D01*
X186798815Y-114948815D01*
X186719463Y-115045506D01*
X186660498Y-115155820D01*
X186636034Y-115236466D01*
X186560269Y-115152412D01*
X186326920Y-114978359D01*
X186064099Y-114853175D01*
X185916890Y-114808524D01*
X185687000Y-114929845D01*
X185433000Y-114929845D01*
X185203110Y-114808524D01*
X185055901Y-114853175D01*
X184793080Y-114978359D01*
X184559731Y-115152412D01*
X184364822Y-115368645D01*
X184295201Y-115485523D01*
X184260706Y-115420986D01*
X184075134Y-115194866D01*
X183849014Y-115009294D01*
X183591034Y-114871401D01*
X183311111Y-114786487D01*
X183092950Y-114765000D01*
X182947050Y-114765000D01*
X182728889Y-114786487D01*
X182448966Y-114871401D01*
X182190986Y-115009294D01*
X181964866Y-115194866D01*
X181779294Y-115420986D01*
X181641401Y-115678966D01*
X181556487Y-115958889D01*
X181527815Y-116250000D01*
X174357107Y-116250000D01*
X174301632Y-116194525D01*
X174127240Y-116078000D01*
X174301632Y-115961475D01*
X174508475Y-115754632D01*
X174670990Y-115511411D01*
X174782932Y-115241158D01*
X174840000Y-114954260D01*
X174840000Y-114661740D01*
X174782932Y-114374842D01*
X174670990Y-114104589D01*
X174508475Y-113861368D01*
X174301632Y-113654525D01*
X174127240Y-113538000D01*
X174301632Y-113421475D01*
X174508475Y-113214632D01*
X174670990Y-112971411D01*
X174782932Y-112701158D01*
X174840000Y-112414260D01*
X174840000Y-112121740D01*
X174782932Y-111834842D01*
X174670990Y-111564589D01*
X174508475Y-111321368D01*
X174301632Y-111114525D01*
X174127240Y-110998000D01*
X174301632Y-110881475D01*
X174508475Y-110674632D01*
X174670990Y-110431411D01*
X174782932Y-110161158D01*
X174840000Y-109874260D01*
X174840000Y-109581740D01*
X174790920Y-109335000D01*
X174983422Y-109335000D01*
X176457346Y-110808924D01*
X176471414Y-110842889D01*
X176573738Y-110996028D01*
X176703972Y-111126262D01*
X176857111Y-111228586D01*
X177027271Y-111299068D01*
X177207911Y-111335000D01*
X177392089Y-111335000D01*
X177572729Y-111299068D01*
X177742889Y-111228586D01*
X177896028Y-111126262D01*
X178026262Y-110996028D01*
X178128586Y-110842889D01*
X178199068Y-110672729D01*
X178235000Y-110492089D01*
X178235000Y-110307911D01*
X178202935Y-110146707D01*
X180725000Y-110146707D01*
X180725000Y-110853294D01*
X180740700Y-111012697D01*
X180802742Y-111217220D01*
X180903492Y-111405710D01*
X181039079Y-111570922D01*
X181204291Y-111706509D01*
X181392781Y-111807259D01*
X181597304Y-111869300D01*
X181810000Y-111890249D01*
X182022697Y-111869300D01*
X182227220Y-111807259D01*
X182415710Y-111706509D01*
X182445001Y-111682471D01*
X182474291Y-111706509D01*
X182662781Y-111807259D01*
X182867304Y-111869300D01*
X183080000Y-111890249D01*
X183292697Y-111869300D01*
X183497220Y-111807259D01*
X183546360Y-111780993D01*
X183655820Y-111839502D01*
X183775518Y-111875812D01*
X183900000Y-111888072D01*
X184064250Y-111885000D01*
X184223000Y-111726250D01*
X184223000Y-110627000D01*
X184477000Y-110627000D01*
X184477000Y-111726250D01*
X184635750Y-111885000D01*
X184800000Y-111888072D01*
X184924482Y-111875812D01*
X185044180Y-111839502D01*
X185154494Y-111780537D01*
X185251185Y-111701185D01*
X185330537Y-111604494D01*
X185389502Y-111494180D01*
X185425812Y-111374482D01*
X185438072Y-111250000D01*
X185435000Y-110785750D01*
X185276250Y-110627000D01*
X184477000Y-110627000D01*
X184223000Y-110627000D01*
X184203000Y-110627000D01*
X184203000Y-110373000D01*
X184223000Y-110373000D01*
X184223000Y-109273750D01*
X184477000Y-109273750D01*
X184477000Y-110373000D01*
X185276250Y-110373000D01*
X185435000Y-110214250D01*
X185438072Y-109750000D01*
X185425812Y-109625518D01*
X185389502Y-109505820D01*
X185330537Y-109395506D01*
X185251185Y-109298815D01*
X185154494Y-109219463D01*
X185044180Y-109160498D01*
X184924482Y-109124188D01*
X184800000Y-109111928D01*
X184635750Y-109115000D01*
X184477000Y-109273750D01*
X184223000Y-109273750D01*
X184064250Y-109115000D01*
X183900000Y-109111928D01*
X183775518Y-109124188D01*
X183655820Y-109160498D01*
X183546359Y-109219007D01*
X183497219Y-109192741D01*
X183292696Y-109130700D01*
X183080000Y-109109751D01*
X182867303Y-109130700D01*
X182662780Y-109192741D01*
X182474290Y-109293491D01*
X182445000Y-109317529D01*
X182415710Y-109293491D01*
X182227219Y-109192741D01*
X182022696Y-109130700D01*
X181810000Y-109109751D01*
X181597303Y-109130700D01*
X181392780Y-109192741D01*
X181204290Y-109293491D01*
X181039078Y-109429078D01*
X180903491Y-109594290D01*
X180802741Y-109782781D01*
X180740700Y-109987304D01*
X180725000Y-110146707D01*
X178202935Y-110146707D01*
X178199068Y-110127271D01*
X178128586Y-109957111D01*
X178026262Y-109803972D01*
X177896028Y-109673738D01*
X177742889Y-109571414D01*
X177708924Y-109557346D01*
X176006534Y-107854956D01*
X175978817Y-107821183D01*
X175844059Y-107710589D01*
X175690313Y-107628411D01*
X175523490Y-107577805D01*
X175393477Y-107565000D01*
X175393469Y-107565000D01*
X175350000Y-107560719D01*
X175306531Y-107565000D01*
X174794103Y-107565000D01*
X174840000Y-107334260D01*
X174840000Y-107041740D01*
X174782932Y-106754842D01*
X174670990Y-106484589D01*
X174508475Y-106241368D01*
X174301632Y-106034525D01*
X174127240Y-105918000D01*
X174301632Y-105801475D01*
X174508475Y-105594632D01*
X174670990Y-105351411D01*
X174782932Y-105081158D01*
X174840000Y-104794260D01*
X174840000Y-104501740D01*
X174782932Y-104214842D01*
X174670990Y-103944589D01*
X174508475Y-103701368D01*
X174301632Y-103494525D01*
X174127240Y-103378000D01*
X174301632Y-103261475D01*
X174508475Y-103054632D01*
X174670990Y-102811411D01*
X174782932Y-102541158D01*
X174840000Y-102254260D01*
X174840000Y-102060000D01*
X182257319Y-102060000D01*
X182287970Y-102371204D01*
X182378745Y-102670449D01*
X182526155Y-102946235D01*
X182629446Y-103072095D01*
X182545506Y-103116963D01*
X182448815Y-103196315D01*
X182369463Y-103293006D01*
X182310498Y-103403320D01*
X182274188Y-103523018D01*
X182261928Y-103647500D01*
X182261928Y-105552500D01*
X182274188Y-105676982D01*
X182310498Y-105796680D01*
X182369463Y-105906994D01*
X182448815Y-106003685D01*
X182545506Y-106083037D01*
X182655820Y-106142002D01*
X182775518Y-106178312D01*
X182900000Y-106190572D01*
X184900000Y-106190572D01*
X185024482Y-106178312D01*
X185144180Y-106142002D01*
X185254494Y-106083037D01*
X185351185Y-106003685D01*
X185430537Y-105906994D01*
X185489502Y-105796680D01*
X185525812Y-105676982D01*
X185538072Y-105552500D01*
X185538072Y-105525000D01*
X190903461Y-105525000D01*
X190915000Y-105642157D01*
X190915001Y-111507833D01*
X190903461Y-111625000D01*
X190949510Y-112092541D01*
X191085887Y-112542115D01*
X191307351Y-112956445D01*
X191530708Y-113228607D01*
X191530712Y-113228611D01*
X191605392Y-113319609D01*
X191696390Y-113394289D01*
X193505710Y-115203610D01*
X193580391Y-115294609D01*
X193671389Y-115369289D01*
X193671392Y-115369292D01*
X193802037Y-115476509D01*
X193943554Y-115592649D01*
X194357884Y-115814113D01*
X194807458Y-115950490D01*
X195157843Y-115985000D01*
X195275000Y-115996539D01*
X195392157Y-115985000D01*
X197567157Y-115985000D01*
X197917542Y-115950490D01*
X198367116Y-115814113D01*
X198509379Y-115738072D01*
X198950000Y-115738072D01*
X199074482Y-115725812D01*
X199194180Y-115689502D01*
X199304494Y-115630537D01*
X199401185Y-115551185D01*
X199480537Y-115454494D01*
X199539502Y-115344180D01*
X199575812Y-115224482D01*
X199588072Y-115100000D01*
X199588072Y-114659379D01*
X199664113Y-114517116D01*
X199800490Y-114067542D01*
X199846539Y-113600000D01*
X199800490Y-113132458D01*
X199664113Y-112682884D01*
X199588072Y-112540621D01*
X199588072Y-112100000D01*
X199575812Y-111975518D01*
X199539502Y-111855820D01*
X199480537Y-111745506D01*
X199401185Y-111648815D01*
X199304494Y-111569463D01*
X199194180Y-111510498D01*
X199074482Y-111474188D01*
X198950000Y-111461928D01*
X198509379Y-111461928D01*
X198367116Y-111385887D01*
X197917542Y-111249510D01*
X197567157Y-111215000D01*
X196262900Y-111215000D01*
X195685000Y-110637101D01*
X195685000Y-110011653D01*
X196137952Y-110011653D01*
X196293962Y-110327214D01*
X196668745Y-110518020D01*
X197073551Y-110632044D01*
X197492824Y-110664902D01*
X197910451Y-110615334D01*
X198310383Y-110485243D01*
X198606038Y-110327214D01*
X198762048Y-110011653D01*
X197450000Y-108699605D01*
X196137952Y-110011653D01*
X195685000Y-110011653D01*
X195685000Y-109696908D01*
X195958347Y-109832048D01*
X197270395Y-108520000D01*
X197629605Y-108520000D01*
X198941653Y-109832048D01*
X199257214Y-109676038D01*
X199448020Y-109301255D01*
X199562044Y-108896449D01*
X199594902Y-108477176D01*
X199545334Y-108059549D01*
X199415243Y-107659617D01*
X199257214Y-107363962D01*
X198941653Y-107207952D01*
X197629605Y-108520000D01*
X197270395Y-108520000D01*
X195958347Y-107207952D01*
X195685000Y-107343092D01*
X195685000Y-107028347D01*
X196137952Y-107028347D01*
X197450000Y-108340395D01*
X198762048Y-107028347D01*
X198606038Y-106712786D01*
X198231255Y-106521980D01*
X197826449Y-106407956D01*
X197407176Y-106375098D01*
X196989549Y-106424666D01*
X196589617Y-106554757D01*
X196293962Y-106712786D01*
X196137952Y-107028347D01*
X195685000Y-107028347D01*
X195685000Y-106512899D01*
X196312899Y-105885000D01*
X197567157Y-105885000D01*
X197917542Y-105850490D01*
X198367116Y-105714113D01*
X198781446Y-105492649D01*
X199144609Y-105194609D01*
X199442649Y-104831446D01*
X199664113Y-104417116D01*
X199800490Y-103967542D01*
X199846539Y-103500000D01*
X199800490Y-103032458D01*
X199664113Y-102582884D01*
X199442649Y-102168554D01*
X199144609Y-101805391D01*
X198781446Y-101507351D01*
X198367116Y-101285887D01*
X197917542Y-101149510D01*
X197567157Y-101115000D01*
X195760000Y-101115000D01*
X195760000Y-99733635D01*
X195791637Y-99780983D01*
X196089017Y-100078363D01*
X196438698Y-100312012D01*
X196827244Y-100472953D01*
X197239721Y-100555000D01*
X197660279Y-100555000D01*
X198072756Y-100472953D01*
X198461302Y-100312012D01*
X198810983Y-100078363D01*
X199108363Y-99780983D01*
X199342012Y-99431302D01*
X199502953Y-99042756D01*
X199585000Y-98630279D01*
X199585000Y-98209721D01*
X199502953Y-97797244D01*
X199342012Y-97408698D01*
X199108363Y-97059017D01*
X198810983Y-96761637D01*
X198461302Y-96527988D01*
X198072756Y-96367047D01*
X197660279Y-96285000D01*
X197239721Y-96285000D01*
X196827244Y-96367047D01*
X196438698Y-96527988D01*
X196089017Y-96761637D01*
X195791637Y-97059017D01*
X195760000Y-97106365D01*
X195760000Y-96341579D01*
X196316579Y-95785000D01*
X197567157Y-95785000D01*
X197917542Y-95750490D01*
X198367116Y-95614113D01*
X198781446Y-95392649D01*
X199144609Y-95094609D01*
X199442649Y-94731446D01*
X199664113Y-94317116D01*
X199800490Y-93867542D01*
X199846539Y-93400000D01*
X199800490Y-92932458D01*
X199664113Y-92482884D01*
X199442649Y-92068554D01*
X199144609Y-91705391D01*
X198781446Y-91407351D01*
X198367116Y-91185887D01*
X197917542Y-91049510D01*
X197567157Y-91015000D01*
X195445837Y-91015000D01*
X195328680Y-91003461D01*
X195211523Y-91015000D01*
X194861138Y-91049510D01*
X194411564Y-91185887D01*
X193997234Y-91407351D01*
X193634071Y-91705391D01*
X193559386Y-91796395D01*
X191771395Y-93584386D01*
X191680391Y-93659071D01*
X191523700Y-93850000D01*
X191382351Y-94022235D01*
X191160887Y-94436565D01*
X191024510Y-94886139D01*
X190978461Y-95353680D01*
X190990000Y-95470837D01*
X190990001Y-102132833D01*
X190978461Y-102250000D01*
X191024510Y-102717541D01*
X191160887Y-103167115D01*
X191382351Y-103581445D01*
X191596023Y-103841806D01*
X191365454Y-104122756D01*
X191307351Y-104193555D01*
X191085887Y-104607885D01*
X190949510Y-105057459D01*
X190903461Y-105525000D01*
X185538072Y-105525000D01*
X185538072Y-103647500D01*
X185525812Y-103523018D01*
X185489502Y-103403320D01*
X185430537Y-103293006D01*
X185351185Y-103196315D01*
X185254494Y-103116963D01*
X185170554Y-103072095D01*
X185273845Y-102946235D01*
X185421255Y-102670449D01*
X185512030Y-102371204D01*
X185542681Y-102060000D01*
X185512030Y-101748796D01*
X185421255Y-101449551D01*
X185273845Y-101173765D01*
X185075463Y-100932037D01*
X184896101Y-100784837D01*
X185081315Y-100629437D01*
X185275969Y-100386923D01*
X185419571Y-100111094D01*
X185490563Y-99892980D01*
X185370594Y-99647000D01*
X184027000Y-99647000D01*
X184027000Y-99667000D01*
X183773000Y-99667000D01*
X183773000Y-99647000D01*
X182429406Y-99647000D01*
X182309437Y-99892980D01*
X182380429Y-100111094D01*
X182524031Y-100386923D01*
X182718685Y-100629437D01*
X182903899Y-100784837D01*
X182724537Y-100932037D01*
X182526155Y-101173765D01*
X182378745Y-101449551D01*
X182287970Y-101748796D01*
X182257319Y-102060000D01*
X174840000Y-102060000D01*
X174840000Y-101961740D01*
X174782932Y-101674842D01*
X174670990Y-101404589D01*
X174508475Y-101161368D01*
X174301632Y-100954525D01*
X174127240Y-100838000D01*
X174301632Y-100721475D01*
X174508475Y-100514632D01*
X174670990Y-100271411D01*
X174782932Y-100001158D01*
X174840000Y-99714260D01*
X174840000Y-99421740D01*
X174785355Y-99147020D01*
X182309437Y-99147020D01*
X182429406Y-99393000D01*
X183773000Y-99393000D01*
X183773000Y-98094430D01*
X184027000Y-98094430D01*
X184027000Y-99393000D01*
X185370594Y-99393000D01*
X185490563Y-99147020D01*
X185419571Y-98928906D01*
X185275969Y-98653077D01*
X185081315Y-98410563D01*
X184843089Y-98210684D01*
X184570446Y-98061121D01*
X184273863Y-97967622D01*
X184027000Y-98094430D01*
X183773000Y-98094430D01*
X183526137Y-97967622D01*
X183229554Y-98061121D01*
X182956911Y-98210684D01*
X182718685Y-98410563D01*
X182524031Y-98653077D01*
X182380429Y-98928906D01*
X182309437Y-99147020D01*
X174785355Y-99147020D01*
X174782932Y-99134842D01*
X174670990Y-98864589D01*
X174508475Y-98621368D01*
X174301632Y-98414525D01*
X174127240Y-98298000D01*
X174301632Y-98181475D01*
X174508475Y-97974632D01*
X174670990Y-97731411D01*
X174782932Y-97461158D01*
X174840000Y-97174260D01*
X174840000Y-96881740D01*
X174825539Y-96809040D01*
X175470050Y-96164529D01*
X175503817Y-96136817D01*
X175549324Y-96081368D01*
X175614411Y-96002059D01*
X175696589Y-95848314D01*
X175747195Y-95681490D01*
X175755214Y-95600068D01*
X175760000Y-95551477D01*
X175760000Y-95551469D01*
X175764281Y-95508000D01*
X175760000Y-95464531D01*
X175760000Y-90960000D01*
X182257319Y-90960000D01*
X182287970Y-91271204D01*
X182378745Y-91570449D01*
X182526155Y-91846235D01*
X182629446Y-91972095D01*
X182545506Y-92016963D01*
X182448815Y-92096315D01*
X182369463Y-92193006D01*
X182310498Y-92303320D01*
X182274188Y-92423018D01*
X182261928Y-92547500D01*
X182261928Y-94452500D01*
X182274188Y-94576982D01*
X182310498Y-94696680D01*
X182369463Y-94806994D01*
X182448815Y-94903685D01*
X182545506Y-94983037D01*
X182655820Y-95042002D01*
X182775518Y-95078312D01*
X182900000Y-95090572D01*
X184900000Y-95090572D01*
X185024482Y-95078312D01*
X185144180Y-95042002D01*
X185254494Y-94983037D01*
X185351185Y-94903685D01*
X185430537Y-94806994D01*
X185489502Y-94696680D01*
X185525812Y-94576982D01*
X185538072Y-94452500D01*
X185538072Y-92547500D01*
X185525812Y-92423018D01*
X185489502Y-92303320D01*
X185430537Y-92193006D01*
X185351185Y-92096315D01*
X185254494Y-92016963D01*
X185170554Y-91972095D01*
X185273845Y-91846235D01*
X185421255Y-91570449D01*
X185512030Y-91271204D01*
X185542681Y-90960000D01*
X185512030Y-90648796D01*
X185421255Y-90349551D01*
X185273845Y-90073765D01*
X185075463Y-89832037D01*
X184896101Y-89684837D01*
X185081315Y-89529437D01*
X185275969Y-89286923D01*
X185419571Y-89011094D01*
X185490563Y-88792980D01*
X185370594Y-88547000D01*
X184027000Y-88547000D01*
X184027000Y-88567000D01*
X183773000Y-88567000D01*
X183773000Y-88547000D01*
X182429406Y-88547000D01*
X182309437Y-88792980D01*
X182380429Y-89011094D01*
X182524031Y-89286923D01*
X182718685Y-89529437D01*
X182903899Y-89684837D01*
X182724537Y-89832037D01*
X182526155Y-90073765D01*
X182378745Y-90349551D01*
X182287970Y-90648796D01*
X182257319Y-90960000D01*
X175760000Y-90960000D01*
X175760000Y-89591578D01*
X176395050Y-88956529D01*
X176428817Y-88928817D01*
X176539411Y-88794059D01*
X176540942Y-88791195D01*
X176621589Y-88640314D01*
X176672195Y-88473490D01*
X176680958Y-88384512D01*
X176685000Y-88343477D01*
X176685000Y-88343469D01*
X176689281Y-88300000D01*
X176685000Y-88256531D01*
X176685000Y-88047020D01*
X182309437Y-88047020D01*
X182429406Y-88293000D01*
X183773000Y-88293000D01*
X183773000Y-86994430D01*
X184027000Y-86994430D01*
X184027000Y-88293000D01*
X185370594Y-88293000D01*
X185459982Y-88109721D01*
X195315000Y-88109721D01*
X195315000Y-88530279D01*
X195397047Y-88942756D01*
X195557988Y-89331302D01*
X195791637Y-89680983D01*
X196089017Y-89978363D01*
X196438698Y-90212012D01*
X196827244Y-90372953D01*
X197239721Y-90455000D01*
X197660279Y-90455000D01*
X198072756Y-90372953D01*
X198461302Y-90212012D01*
X198810983Y-89978363D01*
X199108363Y-89680983D01*
X199342012Y-89331302D01*
X199502953Y-88942756D01*
X199585000Y-88530279D01*
X199585000Y-88109721D01*
X199502953Y-87697244D01*
X199342012Y-87308698D01*
X199108363Y-86959017D01*
X198810983Y-86661637D01*
X198461302Y-86427988D01*
X198072756Y-86267047D01*
X197660279Y-86185000D01*
X197239721Y-86185000D01*
X196827244Y-86267047D01*
X196438698Y-86427988D01*
X196089017Y-86661637D01*
X195791637Y-86959017D01*
X195557988Y-87308698D01*
X195397047Y-87697244D01*
X195315000Y-88109721D01*
X185459982Y-88109721D01*
X185490563Y-88047020D01*
X185419571Y-87828906D01*
X185275969Y-87553077D01*
X185081315Y-87310563D01*
X184843089Y-87110684D01*
X184570446Y-86961121D01*
X184273863Y-86867622D01*
X184027000Y-86994430D01*
X183773000Y-86994430D01*
X183526137Y-86867622D01*
X183229554Y-86961121D01*
X182956911Y-87110684D01*
X182718685Y-87310563D01*
X182524031Y-87553077D01*
X182380429Y-87828906D01*
X182309437Y-88047020D01*
X176685000Y-88047020D01*
X176685000Y-84766578D01*
X177066579Y-84385000D01*
X179456531Y-84385000D01*
X179500000Y-84389281D01*
X179543469Y-84385000D01*
X179543477Y-84385000D01*
X179673490Y-84372195D01*
X179840313Y-84321589D01*
X179994059Y-84239411D01*
X180128817Y-84128817D01*
X180156534Y-84095044D01*
X181095771Y-83155808D01*
X181129538Y-83128096D01*
X181240132Y-82993338D01*
X181322310Y-82839592D01*
X181372916Y-82672769D01*
X181385721Y-82542756D01*
X181385721Y-82542746D01*
X181390002Y-82499280D01*
X181385721Y-82455814D01*
X181385721Y-77838967D01*
X197065000Y-77838967D01*
X197065000Y-78161033D01*
X197127832Y-78476912D01*
X197251082Y-78774463D01*
X197430013Y-79042252D01*
X197657748Y-79269987D01*
X197925537Y-79448918D01*
X198223088Y-79572168D01*
X198538967Y-79635000D01*
X198861033Y-79635000D01*
X199176912Y-79572168D01*
X199474463Y-79448918D01*
X199742252Y-79269987D01*
X199969987Y-79042252D01*
X200148918Y-78774463D01*
X200272168Y-78476912D01*
X200335000Y-78161033D01*
X200335000Y-77838967D01*
X200272168Y-77523088D01*
X200148918Y-77225537D01*
X199969987Y-76957748D01*
X199742252Y-76730013D01*
X199474463Y-76551082D01*
X199176912Y-76427832D01*
X198861033Y-76365000D01*
X198538967Y-76365000D01*
X198223088Y-76427832D01*
X197925537Y-76551082D01*
X197657748Y-76730013D01*
X197430013Y-76957748D01*
X197251082Y-77225537D01*
X197127832Y-77523088D01*
X197065000Y-77838967D01*
X181385721Y-77838967D01*
X181385721Y-76844186D01*
X181390002Y-76800720D01*
X181385721Y-76757254D01*
X181385721Y-76757244D01*
X181372916Y-76627231D01*
X181322310Y-76460408D01*
X181240132Y-76306662D01*
X181186001Y-76240704D01*
X181157253Y-76205674D01*
X181157251Y-76205672D01*
X181129538Y-76171904D01*
X181095770Y-76144191D01*
X180542655Y-75591077D01*
X180528586Y-75557111D01*
X180426262Y-75403972D01*
X180296028Y-75273738D01*
X180142889Y-75171414D01*
X179972729Y-75100932D01*
X179792089Y-75065000D01*
X179607911Y-75065000D01*
X179427271Y-75100932D01*
X179257111Y-75171414D01*
X179103972Y-75273738D01*
X178973738Y-75403972D01*
X178871414Y-75557111D01*
X178800932Y-75727271D01*
X178765000Y-75907911D01*
X178765000Y-76092089D01*
X178800932Y-76272729D01*
X178871414Y-76442889D01*
X178973738Y-76596028D01*
X179103972Y-76726262D01*
X179257111Y-76828586D01*
X179291077Y-76842655D01*
X179615722Y-77167301D01*
X179615721Y-81069701D01*
X179592089Y-81065000D01*
X179407911Y-81065000D01*
X179227271Y-81100932D01*
X179193308Y-81115000D01*
X175843465Y-81115000D01*
X175799999Y-81110719D01*
X175756533Y-81115000D01*
X175756523Y-81115000D01*
X175626510Y-81127805D01*
X175459687Y-81178411D01*
X175305941Y-81260589D01*
X175305939Y-81260590D01*
X175305940Y-81260590D01*
X175204953Y-81343468D01*
X175204951Y-81343470D01*
X175171183Y-81371183D01*
X175143470Y-81404951D01*
X174840000Y-81708421D01*
X174840000Y-81641740D01*
X174782932Y-81354842D01*
X174670990Y-81084589D01*
X174508475Y-80841368D01*
X174301632Y-80634525D01*
X174127240Y-80518000D01*
X174301632Y-80401475D01*
X174508475Y-80194632D01*
X174670990Y-79951411D01*
X174782932Y-79681158D01*
X174840000Y-79394260D01*
X174840000Y-79101740D01*
X174782932Y-78814842D01*
X174670990Y-78544589D01*
X174508475Y-78301368D01*
X174301632Y-78094525D01*
X174127240Y-77978000D01*
X174301632Y-77861475D01*
X174508475Y-77654632D01*
X174670990Y-77411411D01*
X174782932Y-77141158D01*
X174840000Y-76854260D01*
X174840000Y-76561740D01*
X174782932Y-76274842D01*
X174670990Y-76004589D01*
X174508475Y-75761368D01*
X174301632Y-75554525D01*
X174128271Y-75438689D01*
X174203792Y-75196397D01*
X173355000Y-74347605D01*
X172506208Y-75196397D01*
X172581729Y-75438689D01*
X172408368Y-75554525D01*
X172201525Y-75761368D01*
X172160344Y-75823000D01*
X169504097Y-75823000D01*
X169485999Y-75795914D01*
X169293086Y-75603001D01*
X169066243Y-75451429D01*
X168814189Y-75347025D01*
X168546611Y-75293800D01*
X168273789Y-75293800D01*
X168006211Y-75347025D01*
X167754157Y-75451429D01*
X167527314Y-75603001D01*
X167334401Y-75795914D01*
X167182829Y-76022757D01*
X167078425Y-76274811D01*
X167025200Y-76542389D01*
X167025200Y-76815211D01*
X167078425Y-77082789D01*
X167182829Y-77334843D01*
X167334401Y-77561686D01*
X167527314Y-77754599D01*
X167754157Y-77906171D01*
X168006211Y-78010575D01*
X168273789Y-78063800D01*
X168546611Y-78063800D01*
X168814189Y-78010575D01*
X169066243Y-77906171D01*
X169293086Y-77754599D01*
X169454685Y-77593000D01*
X172160344Y-77593000D01*
X172201525Y-77654632D01*
X172408368Y-77861475D01*
X172582760Y-77978000D01*
X172408368Y-78094525D01*
X172201525Y-78301368D01*
X172039010Y-78544589D01*
X171927068Y-78814842D01*
X171870000Y-79101740D01*
X171870000Y-79394260D01*
X171927068Y-79681158D01*
X172039010Y-79951411D01*
X172201525Y-80194632D01*
X172408368Y-80401475D01*
X172582760Y-80518000D01*
X172408368Y-80634525D01*
X172201525Y-80841368D01*
X172039010Y-81084589D01*
X171927068Y-81354842D01*
X171870000Y-81641740D01*
X171870000Y-81934260D01*
X171927068Y-82221158D01*
X172039010Y-82491411D01*
X172201525Y-82734632D01*
X172408368Y-82941475D01*
X172582760Y-83058000D01*
X172408368Y-83174525D01*
X172201525Y-83381368D01*
X172039010Y-83624589D01*
X171927068Y-83894842D01*
X171870000Y-84181740D01*
X171870000Y-84474260D01*
X171884461Y-84546960D01*
X171268686Y-85162736D01*
X171218183Y-85204183D01*
X171190468Y-85237954D01*
X171069952Y-85358470D01*
X171036184Y-85386183D01*
X171008471Y-85419951D01*
X171008468Y-85419954D01*
X170925590Y-85520941D01*
X170843412Y-85674687D01*
X170792805Y-85841510D01*
X170775719Y-86015000D01*
X170780001Y-86058479D01*
X170780000Y-106068421D01*
X170133422Y-106715000D01*
X161385010Y-106715000D01*
X161385010Y-102193479D01*
X161389291Y-102150010D01*
X161385010Y-102106541D01*
X161385010Y-102106533D01*
X161372205Y-101976520D01*
X161321599Y-101809697D01*
X161239421Y-101655951D01*
X161201710Y-101610000D01*
X161156542Y-101554963D01*
X161156540Y-101554961D01*
X161128827Y-101521193D01*
X161095060Y-101493481D01*
X159795046Y-100193468D01*
X159694059Y-100110590D01*
X159540313Y-100028412D01*
X159532611Y-100026076D01*
X159542932Y-100001158D01*
X159600000Y-99714260D01*
X159600000Y-99421740D01*
X159542932Y-99134842D01*
X159430990Y-98864589D01*
X159268475Y-98621368D01*
X159061632Y-98414525D01*
X158887240Y-98298000D01*
X159061632Y-98181475D01*
X159268475Y-97974632D01*
X159430990Y-97731411D01*
X159542932Y-97461158D01*
X159563469Y-97357911D01*
X164765000Y-97357911D01*
X164765000Y-97542089D01*
X164800932Y-97722729D01*
X164815001Y-97756695D01*
X164815000Y-100369991D01*
X164800719Y-100515000D01*
X164817805Y-100688490D01*
X164868412Y-100855313D01*
X164950590Y-101009059D01*
X165061183Y-101143817D01*
X165094954Y-101171532D01*
X165832345Y-101908924D01*
X165846414Y-101942889D01*
X165948738Y-102096028D01*
X166078972Y-102226262D01*
X166232111Y-102328586D01*
X166402271Y-102399068D01*
X166582911Y-102435000D01*
X166767089Y-102435000D01*
X166947729Y-102399068D01*
X167117889Y-102328586D01*
X167271028Y-102226262D01*
X167401262Y-102096028D01*
X167503586Y-101942889D01*
X167574068Y-101772729D01*
X167610000Y-101592089D01*
X167610000Y-101407911D01*
X167574068Y-101227271D01*
X167503586Y-101057111D01*
X167401262Y-100903972D01*
X167271028Y-100773738D01*
X167117889Y-100671414D01*
X167083924Y-100657345D01*
X166585000Y-100158422D01*
X166585000Y-97756692D01*
X166599068Y-97722729D01*
X166635000Y-97542089D01*
X166635000Y-97357911D01*
X166599068Y-97177271D01*
X166528586Y-97007111D01*
X166426262Y-96853972D01*
X166296028Y-96723738D01*
X166142889Y-96621414D01*
X165972729Y-96550932D01*
X165792089Y-96515000D01*
X165607911Y-96515000D01*
X165427271Y-96550932D01*
X165257111Y-96621414D01*
X165103972Y-96723738D01*
X164973738Y-96853972D01*
X164871414Y-97007111D01*
X164800932Y-97177271D01*
X164765000Y-97357911D01*
X159563469Y-97357911D01*
X159600000Y-97174260D01*
X159600000Y-96881740D01*
X159542932Y-96594842D01*
X159430990Y-96324589D01*
X159268475Y-96081368D01*
X159061632Y-95874525D01*
X158887240Y-95758000D01*
X159061632Y-95641475D01*
X159268475Y-95434632D01*
X159430990Y-95191411D01*
X159542932Y-94921158D01*
X159600000Y-94634260D01*
X159600000Y-94341740D01*
X159542932Y-94054842D01*
X159430990Y-93784589D01*
X159268475Y-93541368D01*
X159061632Y-93334525D01*
X158887240Y-93218000D01*
X159061632Y-93101475D01*
X159268475Y-92894632D01*
X159430990Y-92651411D01*
X159542932Y-92381158D01*
X159600000Y-92094260D01*
X159600000Y-91801740D01*
X159542932Y-91514842D01*
X159430990Y-91244589D01*
X159268475Y-91001368D01*
X159061632Y-90794525D01*
X158887240Y-90678000D01*
X159061632Y-90561475D01*
X159268475Y-90354632D01*
X159430990Y-90111411D01*
X159542932Y-89841158D01*
X159600000Y-89554260D01*
X159600000Y-89261740D01*
X159542932Y-88974842D01*
X159430990Y-88704589D01*
X159268475Y-88461368D01*
X159061632Y-88254525D01*
X158887240Y-88138000D01*
X159061632Y-88021475D01*
X159268475Y-87814632D01*
X159430990Y-87571411D01*
X159542932Y-87301158D01*
X159600000Y-87014260D01*
X159600000Y-86721740D01*
X159585539Y-86649039D01*
X162071050Y-84163529D01*
X162104817Y-84135817D01*
X162138277Y-84095047D01*
X162215411Y-84001059D01*
X162266252Y-83905941D01*
X162297589Y-83847313D01*
X162348195Y-83680490D01*
X162361000Y-83550477D01*
X162361000Y-83550469D01*
X162365281Y-83507000D01*
X162361000Y-83463531D01*
X162361000Y-78899578D01*
X163196779Y-78063800D01*
X163466611Y-78063800D01*
X163734189Y-78010575D01*
X163986243Y-77906171D01*
X164213086Y-77754599D01*
X164405999Y-77561686D01*
X164557571Y-77334843D01*
X164661975Y-77082789D01*
X164715200Y-76815211D01*
X164715200Y-76542389D01*
X164661975Y-76274811D01*
X164557571Y-76022757D01*
X164405999Y-75795914D01*
X164213086Y-75603001D01*
X163986243Y-75451429D01*
X163734189Y-75347025D01*
X163466611Y-75293800D01*
X163193789Y-75293800D01*
X162926211Y-75347025D01*
X162674157Y-75451429D01*
X162447314Y-75603001D01*
X162254401Y-75795914D01*
X162102829Y-76022757D01*
X161998425Y-76274811D01*
X161945200Y-76542389D01*
X161945200Y-76812221D01*
X161345000Y-77412422D01*
X161345000Y-74835578D01*
X161944047Y-74236531D01*
X171864389Y-74236531D01*
X171906401Y-74526019D01*
X172004081Y-74801747D01*
X172077528Y-74939157D01*
X172326603Y-75016792D01*
X173175395Y-74168000D01*
X173534605Y-74168000D01*
X174383397Y-75016792D01*
X174632472Y-74939157D01*
X174758371Y-74675117D01*
X174830339Y-74391589D01*
X174845611Y-74099469D01*
X174803599Y-73809981D01*
X174705919Y-73534253D01*
X174632472Y-73396843D01*
X174383397Y-73319208D01*
X173534605Y-74168000D01*
X173175395Y-74168000D01*
X172326603Y-73319208D01*
X172077528Y-73396843D01*
X171951629Y-73660883D01*
X171879661Y-73944411D01*
X171864389Y-74236531D01*
X161944047Y-74236531D01*
X163196779Y-72983800D01*
X163466611Y-72983800D01*
X163734189Y-72930575D01*
X163986243Y-72826171D01*
X164213086Y-72674599D01*
X164331892Y-72555793D01*
X167632812Y-72555793D01*
X167698337Y-72794660D01*
X167945316Y-72910560D01*
X168210160Y-72976050D01*
X168482692Y-72988612D01*
X168752438Y-72947765D01*
X169009032Y-72855077D01*
X169122063Y-72794660D01*
X169159990Y-72656397D01*
X172506208Y-72656397D01*
X172581514Y-72898000D01*
X172506208Y-73139603D01*
X173355000Y-73988395D01*
X174203792Y-73139603D01*
X174128486Y-72898000D01*
X174203792Y-72656397D01*
X173355000Y-71807605D01*
X172506208Y-72656397D01*
X169159990Y-72656397D01*
X169187588Y-72555793D01*
X168410200Y-71778405D01*
X167632812Y-72555793D01*
X164331892Y-72555793D01*
X164405999Y-72481686D01*
X164557571Y-72254843D01*
X164661975Y-72002789D01*
X164715200Y-71735211D01*
X164715200Y-71671292D01*
X167020388Y-71671292D01*
X167061235Y-71941038D01*
X167153923Y-72197632D01*
X167214340Y-72310663D01*
X167453207Y-72376188D01*
X168230595Y-71598800D01*
X168589805Y-71598800D01*
X169367193Y-72376188D01*
X169606060Y-72310663D01*
X169721960Y-72063684D01*
X169787450Y-71798840D01*
X169792165Y-71696531D01*
X171864389Y-71696531D01*
X171906401Y-71986019D01*
X172004081Y-72261747D01*
X172077528Y-72399157D01*
X172326603Y-72476792D01*
X173175395Y-71628000D01*
X173534605Y-71628000D01*
X174383397Y-72476792D01*
X174632472Y-72399157D01*
X174758371Y-72135117D01*
X174830339Y-71851589D01*
X174845611Y-71559469D01*
X174803599Y-71269981D01*
X174705919Y-70994253D01*
X174632472Y-70856843D01*
X174383397Y-70779208D01*
X173534605Y-71628000D01*
X173175395Y-71628000D01*
X172326603Y-70779208D01*
X172077528Y-70856843D01*
X171951629Y-71120883D01*
X171879661Y-71404411D01*
X171864389Y-71696531D01*
X169792165Y-71696531D01*
X169800012Y-71526308D01*
X169759165Y-71256562D01*
X169666477Y-70999968D01*
X169606060Y-70886937D01*
X169367193Y-70821412D01*
X168589805Y-71598800D01*
X168230595Y-71598800D01*
X167453207Y-70821412D01*
X167214340Y-70886937D01*
X167098440Y-71133916D01*
X167032950Y-71398760D01*
X167020388Y-71671292D01*
X164715200Y-71671292D01*
X164715200Y-71462389D01*
X164661975Y-71194811D01*
X164557571Y-70942757D01*
X164405999Y-70715914D01*
X164331892Y-70641807D01*
X167632812Y-70641807D01*
X168410200Y-71419195D01*
X169187588Y-70641807D01*
X169176011Y-70599603D01*
X172506208Y-70599603D01*
X173355000Y-71448395D01*
X174203792Y-70599603D01*
X174126157Y-70350528D01*
X173862117Y-70224629D01*
X173578589Y-70152661D01*
X173286469Y-70137389D01*
X172996981Y-70179401D01*
X172721253Y-70277081D01*
X172583843Y-70350528D01*
X172506208Y-70599603D01*
X169176011Y-70599603D01*
X169122063Y-70402940D01*
X168875084Y-70287040D01*
X168610240Y-70221550D01*
X168337708Y-70208988D01*
X168067962Y-70249835D01*
X167811368Y-70342523D01*
X167698337Y-70402940D01*
X167632812Y-70641807D01*
X164331892Y-70641807D01*
X164213086Y-70523001D01*
X163986243Y-70371429D01*
X163734189Y-70267025D01*
X163466611Y-70213800D01*
X163193789Y-70213800D01*
X162926211Y-70267025D01*
X162674157Y-70371429D01*
X162447314Y-70523001D01*
X162254401Y-70715914D01*
X162102829Y-70942757D01*
X161998425Y-71194811D01*
X161945200Y-71462389D01*
X161945200Y-71732221D01*
X159864951Y-73812471D01*
X159831184Y-73840183D01*
X159803471Y-73873951D01*
X159803468Y-73873954D01*
X159720590Y-73974941D01*
X159638412Y-74128687D01*
X159600000Y-74255310D01*
X159600000Y-74021740D01*
X159542932Y-73734842D01*
X159430990Y-73464589D01*
X159268475Y-73221368D01*
X159061632Y-73014525D01*
X158887240Y-72898000D01*
X159061632Y-72781475D01*
X159268475Y-72574632D01*
X159430990Y-72331411D01*
X159542932Y-72061158D01*
X159600000Y-71774260D01*
X159600000Y-71481740D01*
X159542932Y-71194842D01*
X159430990Y-70924589D01*
X159268475Y-70681368D01*
X159061632Y-70474525D01*
X158818411Y-70312010D01*
X158548158Y-70200068D01*
X158261260Y-70143000D01*
X157968740Y-70143000D01*
X157681842Y-70200068D01*
X157411589Y-70312010D01*
X157168368Y-70474525D01*
X156961525Y-70681368D01*
X156799010Y-70924589D01*
X156687068Y-71194842D01*
X156630000Y-71481740D01*
X156630000Y-71774260D01*
X156687068Y-72061158D01*
X156799010Y-72331411D01*
X156961525Y-72574632D01*
X157168368Y-72781475D01*
X157342760Y-72898000D01*
X157168368Y-73014525D01*
X156961525Y-73221368D01*
X156799010Y-73464589D01*
X156687068Y-73734842D01*
X156630000Y-74021740D01*
X156630000Y-74314260D01*
X156687068Y-74601158D01*
X156799010Y-74871411D01*
X156961525Y-75114632D01*
X157168368Y-75321475D01*
X157342760Y-75438000D01*
X157168368Y-75554525D01*
X156961525Y-75761368D01*
X156799010Y-76004589D01*
X156687068Y-76274842D01*
X156630000Y-76561740D01*
X156630000Y-76854260D01*
X156687068Y-77141158D01*
X156799010Y-77411411D01*
X156961525Y-77654632D01*
X157168368Y-77861475D01*
X157342760Y-77978000D01*
X157168368Y-78094525D01*
X156961525Y-78301368D01*
X156799010Y-78544589D01*
X156687068Y-78814842D01*
X156630000Y-79101740D01*
X156630000Y-79394260D01*
X156641855Y-79453859D01*
X156623184Y-79469182D01*
X156595471Y-79502950D01*
X155904956Y-80193466D01*
X155871183Y-80221183D01*
X155760589Y-80355942D01*
X155678411Y-80509688D01*
X155653424Y-80592058D01*
X155627981Y-80675932D01*
X155627805Y-80676511D01*
X155615000Y-80806524D01*
X155615000Y-80806531D01*
X155610719Y-80850000D01*
X155615000Y-80893469D01*
X155615001Y-89733420D01*
X149843422Y-95505000D01*
X149092759Y-95505000D01*
X148953134Y-95334866D01*
X148727014Y-95149294D01*
X148672209Y-95120000D01*
X148727014Y-95090706D01*
X148953134Y-94905134D01*
X149138706Y-94679014D01*
X149276599Y-94421034D01*
X149361513Y-94141111D01*
X149390185Y-93850000D01*
X149361513Y-93558889D01*
X149276599Y-93278966D01*
X149138706Y-93020986D01*
X148953134Y-92794866D01*
X148923313Y-92770393D01*
X148992180Y-92749502D01*
X149102494Y-92690537D01*
X149199185Y-92611185D01*
X149278537Y-92514494D01*
X149337502Y-92404180D01*
X149373812Y-92284482D01*
X149386072Y-92160000D01*
X149386072Y-90460000D01*
X149373812Y-90335518D01*
X149337502Y-90215820D01*
X149278537Y-90105506D01*
X149199185Y-90008815D01*
X149102494Y-89929463D01*
X148992180Y-89870498D01*
X148872482Y-89834188D01*
X148748000Y-89821928D01*
X147048000Y-89821928D01*
X146923518Y-89834188D01*
X146803820Y-89870498D01*
X146693506Y-89929463D01*
X146596815Y-90008815D01*
X146517463Y-90105506D01*
X146458498Y-90215820D01*
X146422188Y-90335518D01*
X146409928Y-90460000D01*
X146409928Y-92160000D01*
X146422188Y-92284482D01*
X146458498Y-92404180D01*
X146517463Y-92514494D01*
X146596815Y-92611185D01*
X146693506Y-92690537D01*
X146803820Y-92749502D01*
X146872687Y-92770393D01*
X146842866Y-92794866D01*
X146657294Y-93020986D01*
X146519401Y-93278966D01*
X146434487Y-93558889D01*
X146405815Y-93850000D01*
X146434487Y-94141111D01*
X146519401Y-94421034D01*
X146657294Y-94679014D01*
X146842866Y-94905134D01*
X147068986Y-95090706D01*
X147123791Y-95120000D01*
X147068986Y-95149294D01*
X146842866Y-95334866D01*
X146657294Y-95560986D01*
X146519401Y-95818966D01*
X146434487Y-96098889D01*
X146405815Y-96390000D01*
X146434487Y-96681111D01*
X146519401Y-96961034D01*
X146657294Y-97219014D01*
X146842866Y-97445134D01*
X147068986Y-97630706D01*
X147123791Y-97660000D01*
X147068986Y-97689294D01*
X146842866Y-97874866D01*
X146657294Y-98100986D01*
X146519401Y-98358966D01*
X146434487Y-98638889D01*
X146405815Y-98930000D01*
X146427388Y-99149034D01*
X146115801Y-99460621D01*
X146111813Y-82335413D01*
X146744192Y-82335413D01*
X146839956Y-82599814D01*
X147129571Y-82740704D01*
X147441108Y-82822384D01*
X147762595Y-82841718D01*
X148081675Y-82797961D01*
X148386088Y-82692795D01*
X148560044Y-82599814D01*
X148655808Y-82335413D01*
X147700000Y-81379605D01*
X146744192Y-82335413D01*
X146111813Y-82335413D01*
X146111643Y-81609476D01*
X146207205Y-81886088D01*
X146300186Y-82060044D01*
X146564587Y-82155808D01*
X147520395Y-81200000D01*
X147879605Y-81200000D01*
X148835413Y-82155808D01*
X149099814Y-82060044D01*
X149240704Y-81770429D01*
X149322384Y-81458892D01*
X149341718Y-81137405D01*
X149328219Y-81038967D01*
X150565000Y-81038967D01*
X150565000Y-81361033D01*
X150627832Y-81676912D01*
X150751082Y-81974463D01*
X150930013Y-82242252D01*
X151157748Y-82469987D01*
X151425537Y-82648918D01*
X151723088Y-82772168D01*
X152038967Y-82835000D01*
X152361033Y-82835000D01*
X152676912Y-82772168D01*
X152974463Y-82648918D01*
X153242252Y-82469987D01*
X153469987Y-82242252D01*
X153648918Y-81974463D01*
X153772168Y-81676912D01*
X153835000Y-81361033D01*
X153835000Y-81038967D01*
X153772168Y-80723088D01*
X153648918Y-80425537D01*
X153469987Y-80157748D01*
X153242252Y-79930013D01*
X152974463Y-79751082D01*
X152676912Y-79627832D01*
X152361033Y-79565000D01*
X152038967Y-79565000D01*
X151723088Y-79627832D01*
X151425537Y-79751082D01*
X151157748Y-79930013D01*
X150930013Y-80157748D01*
X150751082Y-80425537D01*
X150627832Y-80723088D01*
X150565000Y-81038967D01*
X149328219Y-81038967D01*
X149297961Y-80818325D01*
X149192795Y-80513912D01*
X149099814Y-80339956D01*
X148835413Y-80244192D01*
X147879605Y-81200000D01*
X147520395Y-81200000D01*
X146564587Y-80244192D01*
X146300186Y-80339956D01*
X146159296Y-80629571D01*
X146111458Y-80812032D01*
X146111284Y-80064587D01*
X146744192Y-80064587D01*
X147700000Y-81020395D01*
X148655808Y-80064587D01*
X148560044Y-79800186D01*
X148270429Y-79659296D01*
X147958892Y-79577616D01*
X147637405Y-79558282D01*
X147318325Y-79602039D01*
X147013912Y-79707205D01*
X146839956Y-79800186D01*
X146744192Y-80064587D01*
X146111284Y-80064587D01*
X146110299Y-75835413D01*
X146744192Y-75835413D01*
X146839956Y-76099814D01*
X147129571Y-76240704D01*
X147441108Y-76322384D01*
X147762595Y-76341718D01*
X148081675Y-76297961D01*
X148386088Y-76192795D01*
X148560044Y-76099814D01*
X148655808Y-75835413D01*
X147700000Y-74879605D01*
X146744192Y-75835413D01*
X146110299Y-75835413D01*
X146110128Y-75105091D01*
X146207205Y-75386088D01*
X146300186Y-75560044D01*
X146564587Y-75655808D01*
X147520395Y-74700000D01*
X147879605Y-74700000D01*
X148835413Y-75655808D01*
X149099814Y-75560044D01*
X149240704Y-75270429D01*
X149322384Y-74958892D01*
X149341718Y-74637405D01*
X149328219Y-74538967D01*
X150565000Y-74538967D01*
X150565000Y-74861033D01*
X150627832Y-75176912D01*
X150751082Y-75474463D01*
X150930013Y-75742252D01*
X151157748Y-75969987D01*
X151425537Y-76148918D01*
X151723088Y-76272168D01*
X152038967Y-76335000D01*
X152361033Y-76335000D01*
X152676912Y-76272168D01*
X152974463Y-76148918D01*
X153242252Y-75969987D01*
X153469987Y-75742252D01*
X153648918Y-75474463D01*
X153772168Y-75176912D01*
X153835000Y-74861033D01*
X153835000Y-74538967D01*
X153772168Y-74223088D01*
X153648918Y-73925537D01*
X153469987Y-73657748D01*
X153242252Y-73430013D01*
X152974463Y-73251082D01*
X152676912Y-73127832D01*
X152361033Y-73065000D01*
X152038967Y-73065000D01*
X151723088Y-73127832D01*
X151425537Y-73251082D01*
X151157748Y-73430013D01*
X150930013Y-73657748D01*
X150751082Y-73925537D01*
X150627832Y-74223088D01*
X150565000Y-74538967D01*
X149328219Y-74538967D01*
X149297961Y-74318325D01*
X149192795Y-74013912D01*
X149099814Y-73839956D01*
X148835413Y-73744192D01*
X147879605Y-74700000D01*
X147520395Y-74700000D01*
X146564587Y-73744192D01*
X146300186Y-73839956D01*
X146159296Y-74129571D01*
X146109945Y-74317801D01*
X146109770Y-73564587D01*
X146744192Y-73564587D01*
X147700000Y-74520395D01*
X148655808Y-73564587D01*
X148560044Y-73300186D01*
X148270429Y-73159296D01*
X147958892Y-73077616D01*
X147637405Y-73058282D01*
X147318325Y-73102039D01*
X147013912Y-73207205D01*
X146839956Y-73300186D01*
X146744192Y-73564587D01*
X146109770Y-73564587D01*
X146109042Y-70438967D01*
X146265000Y-70438967D01*
X146265000Y-70761033D01*
X146327832Y-71076912D01*
X146451082Y-71374463D01*
X146630013Y-71642252D01*
X146857748Y-71869987D01*
X147125537Y-72048918D01*
X147423088Y-72172168D01*
X147738967Y-72235000D01*
X148061033Y-72235000D01*
X148376912Y-72172168D01*
X148674463Y-72048918D01*
X148942252Y-71869987D01*
X149169987Y-71642252D01*
X149348918Y-71374463D01*
X149472168Y-71076912D01*
X149535000Y-70761033D01*
X149535000Y-70438967D01*
X149472168Y-70123088D01*
X149348918Y-69825537D01*
X149169987Y-69557748D01*
X148942252Y-69330013D01*
X148674463Y-69151082D01*
X148376912Y-69027832D01*
X148061033Y-68965000D01*
X147738967Y-68965000D01*
X147423088Y-69027832D01*
X147125537Y-69151082D01*
X146857748Y-69330013D01*
X146630013Y-69557748D01*
X146451082Y-69825537D01*
X146327832Y-70123088D01*
X146265000Y-70438967D01*
X146109042Y-70438967D01*
X146108833Y-69543253D01*
X146125323Y-69373412D01*
X146164358Y-69243676D01*
X146227850Y-69123987D01*
X146313380Y-69018912D01*
X146417693Y-68932450D01*
X146536804Y-68867900D01*
X146666188Y-68827714D01*
X146833355Y-68809983D01*
X184900262Y-68782000D01*
X199955425Y-68789981D01*
G36*
X157342760Y-90678000D02*
G01*
X157168368Y-90794525D01*
X156961525Y-91001368D01*
X156799010Y-91244589D01*
X156687068Y-91514842D01*
X156630000Y-91801740D01*
X156630000Y-92094260D01*
X156687068Y-92381158D01*
X156799010Y-92651411D01*
X156961525Y-92894632D01*
X157168368Y-93101475D01*
X157342760Y-93218000D01*
X157168368Y-93334525D01*
X156961525Y-93541368D01*
X156799010Y-93784589D01*
X156687068Y-94054842D01*
X156630000Y-94341740D01*
X156630000Y-94634260D01*
X156687068Y-94921158D01*
X156799010Y-95191411D01*
X156961525Y-95434632D01*
X157168368Y-95641475D01*
X157342760Y-95758000D01*
X157168368Y-95874525D01*
X156961525Y-96081368D01*
X156799010Y-96324589D01*
X156687068Y-96594842D01*
X156630000Y-96881740D01*
X156630000Y-97174260D01*
X156687068Y-97461158D01*
X156799010Y-97731411D01*
X156961525Y-97974632D01*
X157168368Y-98181475D01*
X157342760Y-98298000D01*
X157168368Y-98414525D01*
X156961525Y-98621368D01*
X156799010Y-98864589D01*
X156687068Y-99134842D01*
X156630000Y-99421740D01*
X156630000Y-99714260D01*
X156684932Y-99990418D01*
X156559686Y-100028412D01*
X156405941Y-100110589D01*
X156304954Y-100193468D01*
X155804956Y-100693466D01*
X155771183Y-100721183D01*
X155660589Y-100855942D01*
X155578411Y-101009688D01*
X155543157Y-101125904D01*
X155532399Y-101161368D01*
X155527805Y-101176511D01*
X155515000Y-101306524D01*
X155515000Y-101306531D01*
X155510719Y-101350000D01*
X155515000Y-101393469D01*
X155515001Y-108533420D01*
X154103421Y-109945001D01*
X149117379Y-109945001D01*
X149138706Y-109919014D01*
X149276599Y-109661034D01*
X149361513Y-109381111D01*
X149390185Y-109090000D01*
X149361513Y-108798889D01*
X149276599Y-108518966D01*
X149138706Y-108260986D01*
X148953134Y-108034866D01*
X148923313Y-108010393D01*
X148992180Y-107989502D01*
X149102494Y-107930537D01*
X149199185Y-107851185D01*
X149278537Y-107754494D01*
X149337502Y-107644180D01*
X149373812Y-107524482D01*
X149386072Y-107400000D01*
X149386072Y-105700000D01*
X149373812Y-105575518D01*
X149337502Y-105455820D01*
X149278537Y-105345506D01*
X149199185Y-105248815D01*
X149102494Y-105169463D01*
X148992180Y-105110498D01*
X148872482Y-105074188D01*
X148748000Y-105061928D01*
X147285000Y-105061928D01*
X147285000Y-102820632D01*
X147541109Y-102911481D01*
X147771000Y-102790814D01*
X147771000Y-101597000D01*
X148025000Y-101597000D01*
X148025000Y-102790814D01*
X148254891Y-102911481D01*
X148529252Y-102814157D01*
X148779355Y-102665178D01*
X148995588Y-102470269D01*
X149169641Y-102236920D01*
X149294825Y-101974099D01*
X149339476Y-101826890D01*
X149218155Y-101597000D01*
X148025000Y-101597000D01*
X147771000Y-101597000D01*
X147751000Y-101597000D01*
X147751000Y-101343000D01*
X147771000Y-101343000D01*
X147771000Y-101323000D01*
X148025000Y-101323000D01*
X148025000Y-101343000D01*
X149218155Y-101343000D01*
X149339476Y-101113110D01*
X149294825Y-100965901D01*
X149169641Y-100703080D01*
X148995588Y-100469731D01*
X148779355Y-100274822D01*
X148662477Y-100205201D01*
X148727014Y-100170706D01*
X148953134Y-99985134D01*
X149138706Y-99759014D01*
X149276599Y-99501034D01*
X149361513Y-99221111D01*
X149390185Y-98930000D01*
X149361513Y-98638889D01*
X149276599Y-98358966D01*
X149138706Y-98100986D01*
X148953134Y-97874866D01*
X148727014Y-97689294D01*
X148672209Y-97660000D01*
X148727014Y-97630706D01*
X148953134Y-97445134D01*
X149092759Y-97275000D01*
X150166531Y-97275000D01*
X150210000Y-97279281D01*
X150253469Y-97275000D01*
X150253477Y-97275000D01*
X150383490Y-97262195D01*
X150550313Y-97211589D01*
X150704059Y-97129411D01*
X150838817Y-97018817D01*
X150866534Y-96985044D01*
X157095049Y-90756530D01*
X157128817Y-90728817D01*
X157231521Y-90603673D01*
X157342760Y-90678000D01*
X157342760Y-90678000D01*
G37*
X157342760Y-90678000D02*
X157168368Y-90794525D01*
X156961525Y-91001368D01*
X156799010Y-91244589D01*
X156687068Y-91514842D01*
X156630000Y-91801740D01*
X156630000Y-92094260D01*
X156687068Y-92381158D01*
X156799010Y-92651411D01*
X156961525Y-92894632D01*
X157168368Y-93101475D01*
X157342760Y-93218000D01*
X157168368Y-93334525D01*
X156961525Y-93541368D01*
X156799010Y-93784589D01*
X156687068Y-94054842D01*
X156630000Y-94341740D01*
X156630000Y-94634260D01*
X156687068Y-94921158D01*
X156799010Y-95191411D01*
X156961525Y-95434632D01*
X157168368Y-95641475D01*
X157342760Y-95758000D01*
X157168368Y-95874525D01*
X156961525Y-96081368D01*
X156799010Y-96324589D01*
X156687068Y-96594842D01*
X156630000Y-96881740D01*
X156630000Y-97174260D01*
X156687068Y-97461158D01*
X156799010Y-97731411D01*
X156961525Y-97974632D01*
X157168368Y-98181475D01*
X157342760Y-98298000D01*
X157168368Y-98414525D01*
X156961525Y-98621368D01*
X156799010Y-98864589D01*
X156687068Y-99134842D01*
X156630000Y-99421740D01*
X156630000Y-99714260D01*
X156684932Y-99990418D01*
X156559686Y-100028412D01*
X156405941Y-100110589D01*
X156304954Y-100193468D01*
X155804956Y-100693466D01*
X155771183Y-100721183D01*
X155660589Y-100855942D01*
X155578411Y-101009688D01*
X155543157Y-101125904D01*
X155532399Y-101161368D01*
X155527805Y-101176511D01*
X155515000Y-101306524D01*
X155515000Y-101306531D01*
X155510719Y-101350000D01*
X155515000Y-101393469D01*
X155515001Y-108533420D01*
X154103421Y-109945001D01*
X149117379Y-109945001D01*
X149138706Y-109919014D01*
X149276599Y-109661034D01*
X149361513Y-109381111D01*
X149390185Y-109090000D01*
X149361513Y-108798889D01*
X149276599Y-108518966D01*
X149138706Y-108260986D01*
X148953134Y-108034866D01*
X148923313Y-108010393D01*
X148992180Y-107989502D01*
X149102494Y-107930537D01*
X149199185Y-107851185D01*
X149278537Y-107754494D01*
X149337502Y-107644180D01*
X149373812Y-107524482D01*
X149386072Y-107400000D01*
X149386072Y-105700000D01*
X149373812Y-105575518D01*
X149337502Y-105455820D01*
X149278537Y-105345506D01*
X149199185Y-105248815D01*
X149102494Y-105169463D01*
X148992180Y-105110498D01*
X148872482Y-105074188D01*
X148748000Y-105061928D01*
X147285000Y-105061928D01*
X147285000Y-102820632D01*
X147541109Y-102911481D01*
X147771000Y-102790814D01*
X147771000Y-101597000D01*
X148025000Y-101597000D01*
X148025000Y-102790814D01*
X148254891Y-102911481D01*
X148529252Y-102814157D01*
X148779355Y-102665178D01*
X148995588Y-102470269D01*
X149169641Y-102236920D01*
X149294825Y-101974099D01*
X149339476Y-101826890D01*
X149218155Y-101597000D01*
X148025000Y-101597000D01*
X147771000Y-101597000D01*
X147751000Y-101597000D01*
X147751000Y-101343000D01*
X147771000Y-101343000D01*
X147771000Y-101323000D01*
X148025000Y-101323000D01*
X148025000Y-101343000D01*
X149218155Y-101343000D01*
X149339476Y-101113110D01*
X149294825Y-100965901D01*
X149169641Y-100703080D01*
X148995588Y-100469731D01*
X148779355Y-100274822D01*
X148662477Y-100205201D01*
X148727014Y-100170706D01*
X148953134Y-99985134D01*
X149138706Y-99759014D01*
X149276599Y-99501034D01*
X149361513Y-99221111D01*
X149390185Y-98930000D01*
X149361513Y-98638889D01*
X149276599Y-98358966D01*
X149138706Y-98100986D01*
X148953134Y-97874866D01*
X148727014Y-97689294D01*
X148672209Y-97660000D01*
X148727014Y-97630706D01*
X148953134Y-97445134D01*
X149092759Y-97275000D01*
X150166531Y-97275000D01*
X150210000Y-97279281D01*
X150253469Y-97275000D01*
X150253477Y-97275000D01*
X150383490Y-97262195D01*
X150550313Y-97211589D01*
X150704059Y-97129411D01*
X150838817Y-97018817D01*
X150866534Y-96985044D01*
X157095049Y-90756530D01*
X157128817Y-90728817D01*
X157231521Y-90603673D01*
X157342760Y-90678000D01*
M02*
