G04 #@! TF.GenerationSoftware,KiCad,Pcbnew,(5.1.2)-2*
G04 #@! TF.CreationDate,2019-11-04T20:52:10+01:00*
G04 #@! TF.ProjectId,STM32_2CH_Dimmer,53544d33-325f-4324-9348-5f44696d6d65,rev?*
G04 #@! TF.SameCoordinates,Original*
G04 #@! TF.FileFunction,Legend,Top*
G04 #@! TF.FilePolarity,Positive*
%FSLAX46Y46*%
G04 Gerber Fmt 4.6, Leading zero omitted, Abs format (unit mm)*
G04 Created by KiCad (PCBNEW (5.1.2)-2) date 2019-11-04 20:52:10*
%MOMM*%
%LPD*%
G04 APERTURE LIST*
%ADD10C,0.300000*%
%ADD11C,0.125000*%
%ADD12C,0.150000*%
%ADD13C,0.250000*%
%ADD14C,0.200000*%
%ADD15C,0.120000*%
%ADD16C,1.000000*%
G04 APERTURE END LIST*
D10*
X166541421Y-71658579D02*
G75*
G03X166541421Y-71658579I-141421J0D01*
G01*
D11*
X200700000Y-113742857D02*
X200700000Y-113285714D01*
X200966666Y-113514285D02*
X200433333Y-113514285D01*
X200966666Y-112085714D02*
X200266666Y-112085714D01*
X200266666Y-111857142D01*
X200300000Y-111800000D01*
X200333333Y-111771428D01*
X200400000Y-111742857D01*
X200500000Y-111742857D01*
X200566666Y-111771428D01*
X200600000Y-111800000D01*
X200633333Y-111857142D01*
X200633333Y-112085714D01*
X200966666Y-111400000D02*
X200933333Y-111457142D01*
X200900000Y-111485714D01*
X200833333Y-111514285D01*
X200633333Y-111514285D01*
X200566666Y-111485714D01*
X200533333Y-111457142D01*
X200500000Y-111400000D01*
X200500000Y-111314285D01*
X200533333Y-111257142D01*
X200566666Y-111228571D01*
X200633333Y-111200000D01*
X200833333Y-111200000D01*
X200900000Y-111228571D01*
X200933333Y-111257142D01*
X200966666Y-111314285D01*
X200966666Y-111400000D01*
X200500000Y-111000000D02*
X200966666Y-110885714D01*
X200633333Y-110771428D01*
X200966666Y-110657142D01*
X200500000Y-110542857D01*
X200933333Y-110085714D02*
X200966666Y-110142857D01*
X200966666Y-110257142D01*
X200933333Y-110314285D01*
X200866666Y-110342857D01*
X200600000Y-110342857D01*
X200533333Y-110314285D01*
X200500000Y-110257142D01*
X200500000Y-110142857D01*
X200533333Y-110085714D01*
X200600000Y-110057142D01*
X200666666Y-110057142D01*
X200733333Y-110342857D01*
X200966666Y-109800000D02*
X200500000Y-109800000D01*
X200633333Y-109800000D02*
X200566666Y-109771428D01*
X200533333Y-109742857D01*
X200500000Y-109685714D01*
X200500000Y-109628571D01*
X200700000Y-108514285D02*
X200700000Y-108057142D01*
X200700000Y-103742857D02*
X200700000Y-103285714D01*
X200966666Y-103514285D02*
X200433333Y-103514285D01*
X200966666Y-101800000D02*
X200966666Y-102085714D01*
X200266666Y-102085714D01*
X200600000Y-101600000D02*
X200600000Y-101400000D01*
X200966666Y-101314285D02*
X200966666Y-101600000D01*
X200266666Y-101600000D01*
X200266666Y-101314285D01*
X200966666Y-101057142D02*
X200266666Y-101057142D01*
X200266666Y-100914285D01*
X200300000Y-100828571D01*
X200366666Y-100771428D01*
X200433333Y-100742857D01*
X200566666Y-100714285D01*
X200666666Y-100714285D01*
X200800000Y-100742857D01*
X200866666Y-100771428D01*
X200933333Y-100828571D01*
X200966666Y-100914285D01*
X200966666Y-101057142D01*
X200966666Y-99685714D02*
X200966666Y-100028571D01*
X200966666Y-99857142D02*
X200266666Y-99857142D01*
X200366666Y-99914285D01*
X200433333Y-99971428D01*
X200466666Y-100028571D01*
X200700000Y-98514285D02*
X200700000Y-98057142D01*
X200650000Y-93592857D02*
X200650000Y-93135714D01*
X200916666Y-93364285D02*
X200383333Y-93364285D01*
X200916666Y-91650000D02*
X200916666Y-91935714D01*
X200216666Y-91935714D01*
X200550000Y-91450000D02*
X200550000Y-91250000D01*
X200916666Y-91164285D02*
X200916666Y-91450000D01*
X200216666Y-91450000D01*
X200216666Y-91164285D01*
X200916666Y-90907142D02*
X200216666Y-90907142D01*
X200216666Y-90764285D01*
X200250000Y-90678571D01*
X200316666Y-90621428D01*
X200383333Y-90592857D01*
X200516666Y-90564285D01*
X200616666Y-90564285D01*
X200750000Y-90592857D01*
X200816666Y-90621428D01*
X200883333Y-90678571D01*
X200916666Y-90764285D01*
X200916666Y-90907142D01*
X200283333Y-89878571D02*
X200250000Y-89850000D01*
X200216666Y-89792857D01*
X200216666Y-89650000D01*
X200250000Y-89592857D01*
X200283333Y-89564285D01*
X200350000Y-89535714D01*
X200416666Y-89535714D01*
X200516666Y-89564285D01*
X200916666Y-89907142D01*
X200916666Y-89535714D01*
X200650000Y-88364285D02*
X200650000Y-87907142D01*
D12*
X192771428Y-108380952D02*
X192771428Y-107619047D01*
X192419047Y-113571428D02*
X193180952Y-113571428D01*
X192800000Y-113952380D02*
X192800000Y-113190476D01*
D13*
X193566666Y-117908095D02*
X194433333Y-117908095D01*
X193876190Y-119208095D01*
X194928571Y-118712857D02*
X195919047Y-118712857D01*
X196476190Y-118031904D02*
X196538095Y-117970000D01*
X196661904Y-117908095D01*
X196971428Y-117908095D01*
X197095238Y-117970000D01*
X197157142Y-118031904D01*
X197219047Y-118155714D01*
X197219047Y-118279523D01*
X197157142Y-118465238D01*
X196414285Y-119208095D01*
X197219047Y-119208095D01*
X198333333Y-118341428D02*
X198333333Y-119208095D01*
X198023809Y-117846190D02*
X197714285Y-118774761D01*
X198519047Y-118774761D01*
X198828571Y-117908095D02*
X199261904Y-119208095D01*
X199695238Y-117908095D01*
D12*
X192671428Y-98580952D02*
X192671428Y-97819047D01*
X192671428Y-88380952D02*
X192671428Y-87619047D01*
X192219047Y-93171428D02*
X192980952Y-93171428D01*
X192600000Y-93552380D02*
X192600000Y-92790476D01*
X192219047Y-103471428D02*
X192980952Y-103471428D01*
X192600000Y-103852380D02*
X192600000Y-103090476D01*
D14*
X166362857Y-115431428D02*
X165162857Y-115431428D01*
X165734285Y-115431428D02*
X165734285Y-114745714D01*
X166362857Y-114745714D02*
X165162857Y-114745714D01*
X166362857Y-114174285D02*
X165162857Y-114174285D01*
X166020000Y-113774285D01*
X165162857Y-113374285D01*
X166362857Y-113374285D01*
X166305714Y-111945714D02*
X166362857Y-111774285D01*
X166362857Y-111488571D01*
X166305714Y-111374285D01*
X166248571Y-111317142D01*
X166134285Y-111260000D01*
X166020000Y-111260000D01*
X165905714Y-111317142D01*
X165848571Y-111374285D01*
X165791428Y-111488571D01*
X165734285Y-111717142D01*
X165677142Y-111831428D01*
X165620000Y-111888571D01*
X165505714Y-111945714D01*
X165391428Y-111945714D01*
X165277142Y-111888571D01*
X165220000Y-111831428D01*
X165162857Y-111717142D01*
X165162857Y-111431428D01*
X165220000Y-111260000D01*
X165162857Y-110917142D02*
X165162857Y-110231428D01*
X166362857Y-110574285D02*
X165162857Y-110574285D01*
X166362857Y-109831428D02*
X165162857Y-109831428D01*
X166020000Y-109431428D01*
X165162857Y-109031428D01*
X166362857Y-109031428D01*
X165162857Y-108574285D02*
X165162857Y-107831428D01*
X165620000Y-108231428D01*
X165620000Y-108060000D01*
X165677142Y-107945714D01*
X165734285Y-107888571D01*
X165848571Y-107831428D01*
X166134285Y-107831428D01*
X166248571Y-107888571D01*
X166305714Y-107945714D01*
X166362857Y-108060000D01*
X166362857Y-108402857D01*
X166305714Y-108517142D01*
X166248571Y-108574285D01*
X165277142Y-107374285D02*
X165220000Y-107317142D01*
X165162857Y-107202857D01*
X165162857Y-106917142D01*
X165220000Y-106802857D01*
X165277142Y-106745714D01*
X165391428Y-106688571D01*
X165505714Y-106688571D01*
X165677142Y-106745714D01*
X166362857Y-107431428D01*
X166362857Y-106688571D01*
X167277142Y-117488571D02*
X167220000Y-117431428D01*
X167162857Y-117317142D01*
X167162857Y-117031428D01*
X167220000Y-116917142D01*
X167277142Y-116860000D01*
X167391428Y-116802857D01*
X167505714Y-116802857D01*
X167677142Y-116860000D01*
X168362857Y-117545714D01*
X168362857Y-116802857D01*
X168248571Y-115602857D02*
X168305714Y-115660000D01*
X168362857Y-115831428D01*
X168362857Y-115945714D01*
X168305714Y-116117142D01*
X168191428Y-116231428D01*
X168077142Y-116288571D01*
X167848571Y-116345714D01*
X167677142Y-116345714D01*
X167448571Y-116288571D01*
X167334285Y-116231428D01*
X167220000Y-116117142D01*
X167162857Y-115945714D01*
X167162857Y-115831428D01*
X167220000Y-115660000D01*
X167277142Y-115602857D01*
X168362857Y-115088571D02*
X167162857Y-115088571D01*
X167734285Y-115088571D02*
X167734285Y-114402857D01*
X168362857Y-114402857D02*
X167162857Y-114402857D01*
X168362857Y-112917142D02*
X167162857Y-112917142D01*
X167162857Y-112631428D01*
X167220000Y-112460000D01*
X167334285Y-112345714D01*
X167448571Y-112288571D01*
X167677142Y-112231428D01*
X167848571Y-112231428D01*
X168077142Y-112288571D01*
X168191428Y-112345714D01*
X168305714Y-112460000D01*
X168362857Y-112631428D01*
X168362857Y-112917142D01*
X168362857Y-111717142D02*
X167562857Y-111717142D01*
X167162857Y-111717142D02*
X167220000Y-111774285D01*
X167277142Y-111717142D01*
X167220000Y-111660000D01*
X167162857Y-111717142D01*
X167277142Y-111717142D01*
X168362857Y-111145714D02*
X167562857Y-111145714D01*
X167677142Y-111145714D02*
X167620000Y-111088571D01*
X167562857Y-110974285D01*
X167562857Y-110802857D01*
X167620000Y-110688571D01*
X167734285Y-110631428D01*
X168362857Y-110631428D01*
X167734285Y-110631428D02*
X167620000Y-110574285D01*
X167562857Y-110460000D01*
X167562857Y-110288571D01*
X167620000Y-110174285D01*
X167734285Y-110117142D01*
X168362857Y-110117142D01*
X168362857Y-109545714D02*
X167562857Y-109545714D01*
X167677142Y-109545714D02*
X167620000Y-109488571D01*
X167562857Y-109374285D01*
X167562857Y-109202857D01*
X167620000Y-109088571D01*
X167734285Y-109031428D01*
X168362857Y-109031428D01*
X167734285Y-109031428D02*
X167620000Y-108974285D01*
X167562857Y-108860000D01*
X167562857Y-108688571D01*
X167620000Y-108574285D01*
X167734285Y-108517142D01*
X168362857Y-108517142D01*
X168305714Y-107488571D02*
X168362857Y-107602857D01*
X168362857Y-107831428D01*
X168305714Y-107945714D01*
X168191428Y-108002857D01*
X167734285Y-108002857D01*
X167620000Y-107945714D01*
X167562857Y-107831428D01*
X167562857Y-107602857D01*
X167620000Y-107488571D01*
X167734285Y-107431428D01*
X167848571Y-107431428D01*
X167962857Y-108002857D01*
X168362857Y-106917142D02*
X167562857Y-106917142D01*
X167791428Y-106917142D02*
X167677142Y-106860000D01*
X167620000Y-106802857D01*
X167562857Y-106688571D01*
X167562857Y-106574285D01*
D12*
X149854666Y-116460000D02*
X149788000Y-116426666D01*
X149688000Y-116426666D01*
X149588000Y-116460000D01*
X149521333Y-116526666D01*
X149488000Y-116593333D01*
X149454666Y-116726666D01*
X149454666Y-116826666D01*
X149488000Y-116960000D01*
X149521333Y-117026666D01*
X149588000Y-117093333D01*
X149688000Y-117126666D01*
X149754666Y-117126666D01*
X149854666Y-117093333D01*
X149888000Y-117060000D01*
X149888000Y-116826666D01*
X149754666Y-116826666D01*
X150188000Y-117126666D02*
X150188000Y-116426666D01*
X150588000Y-117126666D01*
X150588000Y-116426666D01*
X150921333Y-117126666D02*
X150921333Y-116426666D01*
X151088000Y-116426666D01*
X151188000Y-116460000D01*
X151254666Y-116526666D01*
X151288000Y-116593333D01*
X151321333Y-116726666D01*
X151321333Y-116826666D01*
X151288000Y-116960000D01*
X151254666Y-117026666D01*
X151188000Y-117093333D01*
X151088000Y-117126666D01*
X150921333Y-117126666D01*
X149454666Y-113886666D02*
X149688000Y-114586666D01*
X149921333Y-113886666D01*
X150554666Y-114520000D02*
X150521333Y-114553333D01*
X150421333Y-114586666D01*
X150354666Y-114586666D01*
X150254666Y-114553333D01*
X150188000Y-114486666D01*
X150154666Y-114420000D01*
X150121333Y-114286666D01*
X150121333Y-114186666D01*
X150154666Y-114053333D01*
X150188000Y-113986666D01*
X150254666Y-113920000D01*
X150354666Y-113886666D01*
X150421333Y-113886666D01*
X150521333Y-113920000D01*
X150554666Y-113953333D01*
X151254666Y-114520000D02*
X151221333Y-114553333D01*
X151121333Y-114586666D01*
X151054666Y-114586666D01*
X150954666Y-114553333D01*
X150888000Y-114486666D01*
X150854666Y-114420000D01*
X150821333Y-114286666D01*
X150821333Y-114186666D01*
X150854666Y-114053333D01*
X150888000Y-113986666D01*
X150954666Y-113920000D01*
X151054666Y-113886666D01*
X151121333Y-113886666D01*
X151221333Y-113920000D01*
X151254666Y-113953333D01*
X149534000Y-112013333D02*
X149634000Y-112046666D01*
X149800666Y-112046666D01*
X149867333Y-112013333D01*
X149900666Y-111980000D01*
X149934000Y-111913333D01*
X149934000Y-111846666D01*
X149900666Y-111780000D01*
X149867333Y-111746666D01*
X149800666Y-111713333D01*
X149667333Y-111680000D01*
X149600666Y-111646666D01*
X149567333Y-111613333D01*
X149534000Y-111546666D01*
X149534000Y-111480000D01*
X149567333Y-111413333D01*
X149600666Y-111380000D01*
X149667333Y-111346666D01*
X149834000Y-111346666D01*
X149934000Y-111380000D01*
X150167333Y-111346666D02*
X150334000Y-112046666D01*
X150467333Y-111546666D01*
X150600666Y-112046666D01*
X150767333Y-111346666D01*
X149430000Y-109506666D02*
X149430000Y-108806666D01*
X149596666Y-108806666D01*
X149696666Y-108840000D01*
X149763333Y-108906666D01*
X149796666Y-108973333D01*
X149830000Y-109106666D01*
X149830000Y-109206666D01*
X149796666Y-109340000D01*
X149763333Y-109406666D01*
X149696666Y-109473333D01*
X149596666Y-109506666D01*
X149430000Y-109506666D01*
X150030000Y-108806666D02*
X150430000Y-108806666D01*
X150230000Y-109506666D02*
X150230000Y-108806666D01*
X149717333Y-106900000D02*
X149684000Y-106933333D01*
X149584000Y-106966666D01*
X149517333Y-106966666D01*
X149417333Y-106933333D01*
X149350666Y-106866666D01*
X149317333Y-106800000D01*
X149284000Y-106666666D01*
X149284000Y-106566666D01*
X149317333Y-106433333D01*
X149350666Y-106366666D01*
X149417333Y-106300000D01*
X149517333Y-106266666D01*
X149584000Y-106266666D01*
X149684000Y-106300000D01*
X149717333Y-106333333D01*
X150350666Y-106966666D02*
X150017333Y-106966666D01*
X150017333Y-106266666D01*
X150584000Y-106966666D02*
X150584000Y-106266666D01*
X150984000Y-106966666D02*
X150684000Y-106566666D01*
X150984000Y-106266666D02*
X150584000Y-106666666D01*
X149717333Y-91610000D02*
X149684000Y-91643333D01*
X149584000Y-91676666D01*
X149517333Y-91676666D01*
X149417333Y-91643333D01*
X149350666Y-91576666D01*
X149317333Y-91510000D01*
X149284000Y-91376666D01*
X149284000Y-91276666D01*
X149317333Y-91143333D01*
X149350666Y-91076666D01*
X149417333Y-91010000D01*
X149517333Y-90976666D01*
X149584000Y-90976666D01*
X149684000Y-91010000D01*
X149717333Y-91043333D01*
X150350666Y-91676666D02*
X150017333Y-91676666D01*
X150017333Y-90976666D01*
X150584000Y-91676666D02*
X150584000Y-90976666D01*
X150984000Y-91676666D02*
X150684000Y-91276666D01*
X150984000Y-90976666D02*
X150584000Y-91376666D01*
X149430000Y-94216666D02*
X149430000Y-93516666D01*
X149596666Y-93516666D01*
X149696666Y-93550000D01*
X149763333Y-93616666D01*
X149796666Y-93683333D01*
X149830000Y-93816666D01*
X149830000Y-93916666D01*
X149796666Y-94050000D01*
X149763333Y-94116666D01*
X149696666Y-94183333D01*
X149596666Y-94216666D01*
X149430000Y-94216666D01*
X150030000Y-93516666D02*
X150430000Y-93516666D01*
X150230000Y-94216666D02*
X150230000Y-93516666D01*
X149534000Y-96977333D02*
X149634000Y-97010666D01*
X149800666Y-97010666D01*
X149867333Y-96977333D01*
X149900666Y-96944000D01*
X149934000Y-96877333D01*
X149934000Y-96810666D01*
X149900666Y-96744000D01*
X149867333Y-96710666D01*
X149800666Y-96677333D01*
X149667333Y-96644000D01*
X149600666Y-96610666D01*
X149567333Y-96577333D01*
X149534000Y-96510666D01*
X149534000Y-96444000D01*
X149567333Y-96377333D01*
X149600666Y-96344000D01*
X149667333Y-96310666D01*
X149834000Y-96310666D01*
X149934000Y-96344000D01*
X150167333Y-96310666D02*
X150334000Y-97010666D01*
X150467333Y-96510666D01*
X150600666Y-97010666D01*
X150767333Y-96310666D01*
X149454666Y-98850666D02*
X149688000Y-99550666D01*
X149921333Y-98850666D01*
X150554666Y-99484000D02*
X150521333Y-99517333D01*
X150421333Y-99550666D01*
X150354666Y-99550666D01*
X150254666Y-99517333D01*
X150188000Y-99450666D01*
X150154666Y-99384000D01*
X150121333Y-99250666D01*
X150121333Y-99150666D01*
X150154666Y-99017333D01*
X150188000Y-98950666D01*
X150254666Y-98884000D01*
X150354666Y-98850666D01*
X150421333Y-98850666D01*
X150521333Y-98884000D01*
X150554666Y-98917333D01*
X151254666Y-99484000D02*
X151221333Y-99517333D01*
X151121333Y-99550666D01*
X151054666Y-99550666D01*
X150954666Y-99517333D01*
X150888000Y-99450666D01*
X150854666Y-99384000D01*
X150821333Y-99250666D01*
X150821333Y-99150666D01*
X150854666Y-99017333D01*
X150888000Y-98950666D01*
X150954666Y-98884000D01*
X151054666Y-98850666D01*
X151121333Y-98850666D01*
X151221333Y-98884000D01*
X151254666Y-98917333D01*
X149854666Y-101170000D02*
X149788000Y-101136666D01*
X149688000Y-101136666D01*
X149588000Y-101170000D01*
X149521333Y-101236666D01*
X149488000Y-101303333D01*
X149454666Y-101436666D01*
X149454666Y-101536666D01*
X149488000Y-101670000D01*
X149521333Y-101736666D01*
X149588000Y-101803333D01*
X149688000Y-101836666D01*
X149754666Y-101836666D01*
X149854666Y-101803333D01*
X149888000Y-101770000D01*
X149888000Y-101536666D01*
X149754666Y-101536666D01*
X150188000Y-101836666D02*
X150188000Y-101136666D01*
X150588000Y-101836666D01*
X150588000Y-101136666D01*
X150921333Y-101836666D02*
X150921333Y-101136666D01*
X151088000Y-101136666D01*
X151188000Y-101170000D01*
X151254666Y-101236666D01*
X151288000Y-101303333D01*
X151321333Y-101436666D01*
X151321333Y-101536666D01*
X151288000Y-101670000D01*
X151254666Y-101736666D01*
X151188000Y-101803333D01*
X151088000Y-101836666D01*
X150921333Y-101836666D01*
D15*
X188840000Y-111102064D02*
X188840000Y-109897936D01*
X191560000Y-111102064D02*
X191560000Y-109897936D01*
D12*
X179700000Y-85000000D02*
X198700000Y-85000000D01*
X198700000Y-74206000D02*
X198700000Y-69000000D01*
X198700000Y-69000000D02*
X179700000Y-69000000D01*
X198700000Y-85000000D02*
X198700000Y-81572000D01*
D16*
X191300000Y-117140000D02*
G75*
G03X191300000Y-117140000I-200000J0D01*
G01*
D15*
X192190000Y-122440000D02*
X192190000Y-116162000D01*
X179998000Y-122440000D02*
X192190000Y-122440000D01*
X179998000Y-116162000D02*
X192190000Y-116162000D01*
X179998000Y-122440000D02*
X179998000Y-116162000D01*
X180630000Y-89109000D02*
X182140000Y-89109000D01*
X180630000Y-92810000D02*
X182140000Y-92810000D01*
X182140000Y-96080000D02*
X182140000Y-85840000D01*
X180630000Y-85840000D02*
X185271000Y-85840000D01*
X180630000Y-96080000D02*
X185271000Y-96080000D01*
X185271000Y-96080000D02*
X185271000Y-85840000D01*
X180630000Y-96080000D02*
X180630000Y-85840000D01*
D12*
X155575000Y-69088000D02*
X154305000Y-69088000D01*
X177165000Y-69088000D02*
X175895000Y-69088000D01*
X155575000Y-122428000D02*
X154305000Y-122428000D01*
X177165000Y-122428000D02*
X175895000Y-122428000D01*
X175895000Y-122428000D02*
X155575000Y-122428000D01*
X175895000Y-69088000D02*
X155575000Y-69088000D01*
X154305000Y-87630000D02*
X154305000Y-69088000D01*
X177165000Y-72898000D02*
X177165000Y-90678000D01*
X177419000Y-113538000D02*
X177419000Y-116586000D01*
X154305000Y-117602000D02*
X154305000Y-122428000D01*
D15*
X199990000Y-95880000D02*
X199990000Y-106040000D01*
X201260000Y-95880000D02*
X193640000Y-95880000D01*
X193640000Y-95880000D02*
X193640000Y-106040000D01*
X193640000Y-106040000D02*
X201260000Y-106040000D01*
X201260000Y-106040000D02*
X201260000Y-95880000D01*
X199990000Y-85780000D02*
X199990000Y-95940000D01*
X201260000Y-85780000D02*
X193640000Y-85780000D01*
X193640000Y-85780000D02*
X193640000Y-95940000D01*
X193640000Y-95940000D02*
X201260000Y-95940000D01*
X201260000Y-95940000D02*
X201260000Y-85780000D01*
X169810000Y-74861252D02*
X169810000Y-74338748D01*
X168390000Y-74861252D02*
X168390000Y-74338748D01*
X180630000Y-100209000D02*
X182140000Y-100209000D01*
X180630000Y-103910000D02*
X182140000Y-103910000D01*
X182140000Y-107180000D02*
X182140000Y-96940000D01*
X180630000Y-96940000D02*
X185271000Y-96940000D01*
X180630000Y-107180000D02*
X185271000Y-107180000D01*
X185271000Y-107180000D02*
X185271000Y-96940000D01*
X180630000Y-107180000D02*
X180630000Y-96940000D01*
X176290000Y-70738748D02*
X176290000Y-71261252D01*
X177710000Y-70738748D02*
X177710000Y-71261252D01*
X150700000Y-74450000D02*
X149200000Y-74450000D01*
X146700000Y-75700000D02*
X146700000Y-80200000D01*
X149200000Y-81450000D02*
X150700000Y-81450000D01*
X153200000Y-80200000D02*
X153200000Y-75700000D01*
X176540000Y-119311252D02*
X176540000Y-118788748D01*
X177960000Y-119311252D02*
X177960000Y-118788748D01*
X199990000Y-105980000D02*
X199990000Y-116140000D01*
X201260000Y-105980000D02*
X193640000Y-105980000D01*
X193640000Y-105980000D02*
X193640000Y-116140000D01*
X193640000Y-116140000D02*
X201260000Y-116140000D01*
X201260000Y-116140000D02*
X201260000Y-105980000D01*
X188350000Y-94100000D02*
X191650000Y-94100000D01*
X191650000Y-94100000D02*
X191650000Y-88700000D01*
X188350000Y-94100000D02*
X188350000Y-88700000D01*
X167961252Y-100790000D02*
X167438748Y-100790000D01*
X167961252Y-102210000D02*
X167438748Y-102210000D01*
X167961252Y-99610000D02*
X167438748Y-99610000D01*
X167961252Y-98190000D02*
X167438748Y-98190000D01*
X176590000Y-111661252D02*
X176590000Y-111138748D01*
X178010000Y-111661252D02*
X178010000Y-111138748D01*
D12*
X166975000Y-70725000D02*
X166925000Y-70725000D01*
X166975000Y-74875000D02*
X166830000Y-74875000D01*
X161825000Y-74875000D02*
X161970000Y-74875000D01*
X161825000Y-70725000D02*
X161970000Y-70725000D01*
X166975000Y-70725000D02*
X166975000Y-74875000D01*
X161825000Y-70725000D02*
X161825000Y-74875000D01*
X166925000Y-70725000D02*
X166925000Y-69325000D01*
D15*
X188350000Y-104100000D02*
X191650000Y-104100000D01*
X191650000Y-104100000D02*
X191650000Y-98700000D01*
X188350000Y-104100000D02*
X188350000Y-98700000D01*
X146568000Y-102800000D02*
X149228000Y-102800000D01*
X146568000Y-92580000D02*
X146568000Y-102800000D01*
X149228000Y-92580000D02*
X149228000Y-102800000D01*
X146568000Y-92580000D02*
X149228000Y-92580000D01*
X146568000Y-91310000D02*
X146568000Y-89980000D01*
X146568000Y-89980000D02*
X147898000Y-89980000D01*
X146568000Y-118040000D02*
X149228000Y-118040000D01*
X146568000Y-107820000D02*
X146568000Y-118040000D01*
X149228000Y-107820000D02*
X149228000Y-118040000D01*
X146568000Y-107820000D02*
X149228000Y-107820000D01*
X146568000Y-106550000D02*
X146568000Y-105220000D01*
X146568000Y-105220000D02*
X147898000Y-105220000D01*
X184730000Y-109250000D02*
X181130000Y-109250000D01*
X184768478Y-109261522D02*
G75*
G02X182930000Y-113700000I-1838478J-1838478D01*
G01*
X181091522Y-109261522D02*
G75*
G03X182930000Y-113700000I1838478J-1838478D01*
G01*
X152970748Y-90600000D02*
X153493252Y-90600000D01*
X152970748Y-92020000D02*
X153493252Y-92020000D01*
X152970748Y-106144000D02*
X153493252Y-106144000D01*
X152970748Y-107564000D02*
X153493252Y-107564000D01*
X153493252Y-100252000D02*
X152970748Y-100252000D01*
X153493252Y-101672000D02*
X152970748Y-101672000D01*
X153493252Y-115288000D02*
X152970748Y-115288000D01*
X153493252Y-116708000D02*
X152970748Y-116708000D01*
X153493252Y-95068000D02*
X152970748Y-95068000D01*
X153493252Y-93648000D02*
X152970748Y-93648000D01*
X153493252Y-96950000D02*
X152970748Y-96950000D01*
X153493252Y-98370000D02*
X152970748Y-98370000D01*
X153493252Y-110612000D02*
X152970748Y-110612000D01*
X153493252Y-109192000D02*
X152970748Y-109192000D01*
X153493252Y-112240000D02*
X152970748Y-112240000D01*
X153493252Y-113660000D02*
X152970748Y-113660000D01*
X178010000Y-102461252D02*
X178010000Y-101938748D01*
X176590000Y-102461252D02*
X176590000Y-101938748D01*
X176590000Y-106561252D02*
X176590000Y-106038748D01*
X178010000Y-106561252D02*
X178010000Y-106038748D01*
X176590000Y-97538748D02*
X176590000Y-98061252D01*
X178010000Y-97538748D02*
X178010000Y-98061252D01*
X178010000Y-93438748D02*
X178010000Y-93961252D01*
X176590000Y-93438748D02*
X176590000Y-93961252D01*
D12*
X188277142Y-110666666D02*
X188324761Y-110714285D01*
X188372380Y-110857142D01*
X188372380Y-110952380D01*
X188324761Y-111095238D01*
X188229523Y-111190476D01*
X188134285Y-111238095D01*
X187943809Y-111285714D01*
X187800952Y-111285714D01*
X187610476Y-111238095D01*
X187515238Y-111190476D01*
X187420000Y-111095238D01*
X187372380Y-110952380D01*
X187372380Y-110857142D01*
X187420000Y-110714285D01*
X187467619Y-110666666D01*
X188372380Y-109714285D02*
X188372380Y-110285714D01*
X188372380Y-110000000D02*
X187372380Y-110000000D01*
X187515238Y-110095238D01*
X187610476Y-110190476D01*
X187658095Y-110285714D01*
X186334761Y-77357142D02*
X186287142Y-77404761D01*
X186144285Y-77452380D01*
X186049047Y-77452380D01*
X185906190Y-77404761D01*
X185810952Y-77309523D01*
X185763333Y-77214285D01*
X185715714Y-77023809D01*
X185715714Y-76880952D01*
X185763333Y-76690476D01*
X185810952Y-76595238D01*
X185906190Y-76500000D01*
X186049047Y-76452380D01*
X186144285Y-76452380D01*
X186287142Y-76500000D01*
X186334761Y-76547619D01*
X187334761Y-77357142D02*
X187287142Y-77404761D01*
X187144285Y-77452380D01*
X187049047Y-77452380D01*
X186906190Y-77404761D01*
X186810952Y-77309523D01*
X186763333Y-77214285D01*
X186715714Y-77023809D01*
X186715714Y-76880952D01*
X186763333Y-76690476D01*
X186810952Y-76595238D01*
X186906190Y-76500000D01*
X187049047Y-76452380D01*
X187144285Y-76452380D01*
X187287142Y-76500000D01*
X187334761Y-76547619D01*
X188287142Y-77452380D02*
X187715714Y-77452380D01*
X188001428Y-77452380D02*
X188001428Y-76452380D01*
X187906190Y-76595238D01*
X187810952Y-76690476D01*
X187715714Y-76738095D01*
X189239523Y-77452380D02*
X188668095Y-77452380D01*
X188953809Y-77452380D02*
X188953809Y-76452380D01*
X188858571Y-76595238D01*
X188763333Y-76690476D01*
X188668095Y-76738095D01*
X189858571Y-76452380D02*
X189953809Y-76452380D01*
X190049047Y-76500000D01*
X190096666Y-76547619D01*
X190144285Y-76642857D01*
X190191904Y-76833333D01*
X190191904Y-77071428D01*
X190144285Y-77261904D01*
X190096666Y-77357142D01*
X190049047Y-77404761D01*
X189953809Y-77452380D01*
X189858571Y-77452380D01*
X189763333Y-77404761D01*
X189715714Y-77357142D01*
X189668095Y-77261904D01*
X189620476Y-77071428D01*
X189620476Y-76833333D01*
X189668095Y-76642857D01*
X189715714Y-76547619D01*
X189763333Y-76500000D01*
X189858571Y-76452380D01*
X191144285Y-77452380D02*
X190572857Y-77452380D01*
X190858571Y-77452380D02*
X190858571Y-76452380D01*
X190763333Y-76595238D01*
X190668095Y-76690476D01*
X190572857Y-76738095D01*
X178752380Y-122361904D02*
X179561904Y-122361904D01*
X179657142Y-122314285D01*
X179704761Y-122266666D01*
X179752380Y-122171428D01*
X179752380Y-121980952D01*
X179704761Y-121885714D01*
X179657142Y-121838095D01*
X179561904Y-121790476D01*
X178752380Y-121790476D01*
X179752380Y-120790476D02*
X179752380Y-121361904D01*
X179752380Y-121076190D02*
X178752380Y-121076190D01*
X178895238Y-121171428D01*
X178990476Y-121266666D01*
X179038095Y-121361904D01*
X181952380Y-121592380D02*
X181476190Y-121592380D01*
X181476190Y-120592380D01*
X182857142Y-121497142D02*
X182809523Y-121544761D01*
X182666666Y-121592380D01*
X182571428Y-121592380D01*
X182428571Y-121544761D01*
X182333333Y-121449523D01*
X182285714Y-121354285D01*
X182238095Y-121163809D01*
X182238095Y-121020952D01*
X182285714Y-120830476D01*
X182333333Y-120735238D01*
X182428571Y-120640000D01*
X182571428Y-120592380D01*
X182666666Y-120592380D01*
X182809523Y-120640000D01*
X182857142Y-120687619D01*
X183190476Y-120592380D02*
X183857142Y-120592380D01*
X183428571Y-121592380D01*
X184380952Y-121020952D02*
X184285714Y-120973333D01*
X184238095Y-120925714D01*
X184190476Y-120830476D01*
X184190476Y-120782857D01*
X184238095Y-120687619D01*
X184285714Y-120640000D01*
X184380952Y-120592380D01*
X184571428Y-120592380D01*
X184666666Y-120640000D01*
X184714285Y-120687619D01*
X184761904Y-120782857D01*
X184761904Y-120830476D01*
X184714285Y-120925714D01*
X184666666Y-120973333D01*
X184571428Y-121020952D01*
X184380952Y-121020952D01*
X184285714Y-121068571D01*
X184238095Y-121116190D01*
X184190476Y-121211428D01*
X184190476Y-121401904D01*
X184238095Y-121497142D01*
X184285714Y-121544761D01*
X184380952Y-121592380D01*
X184571428Y-121592380D01*
X184666666Y-121544761D01*
X184714285Y-121497142D01*
X184761904Y-121401904D01*
X184761904Y-121211428D01*
X184714285Y-121116190D01*
X184666666Y-121068571D01*
X184571428Y-121020952D01*
X184952380Y-121687619D02*
X185714285Y-121687619D01*
X186142857Y-120592380D02*
X186238095Y-120592380D01*
X186333333Y-120640000D01*
X186380952Y-120687619D01*
X186428571Y-120782857D01*
X186476190Y-120973333D01*
X186476190Y-121211428D01*
X186428571Y-121401904D01*
X186380952Y-121497142D01*
X186333333Y-121544761D01*
X186238095Y-121592380D01*
X186142857Y-121592380D01*
X186047619Y-121544761D01*
X186000000Y-121497142D01*
X185952380Y-121401904D01*
X185904761Y-121211428D01*
X185904761Y-120973333D01*
X185952380Y-120782857D01*
X186000000Y-120687619D01*
X186047619Y-120640000D01*
X186142857Y-120592380D01*
X186809523Y-120592380D02*
X187428571Y-120592380D01*
X187095238Y-120973333D01*
X187238095Y-120973333D01*
X187333333Y-121020952D01*
X187380952Y-121068571D01*
X187428571Y-121163809D01*
X187428571Y-121401904D01*
X187380952Y-121497142D01*
X187333333Y-121544761D01*
X187238095Y-121592380D01*
X186952380Y-121592380D01*
X186857142Y-121544761D01*
X186809523Y-121497142D01*
X187857142Y-121211428D02*
X188619047Y-121211428D01*
X189285714Y-120592380D02*
X189380952Y-120592380D01*
X189476190Y-120640000D01*
X189523809Y-120687619D01*
X189571428Y-120782857D01*
X189619047Y-120973333D01*
X189619047Y-121211428D01*
X189571428Y-121401904D01*
X189523809Y-121497142D01*
X189476190Y-121544761D01*
X189380952Y-121592380D01*
X189285714Y-121592380D01*
X189190476Y-121544761D01*
X189142857Y-121497142D01*
X189095238Y-121401904D01*
X189047619Y-121211428D01*
X189047619Y-120973333D01*
X189095238Y-120782857D01*
X189142857Y-120687619D01*
X189190476Y-120640000D01*
X189285714Y-120592380D01*
X190523809Y-120592380D02*
X190047619Y-120592380D01*
X190000000Y-121068571D01*
X190047619Y-121020952D01*
X190142857Y-120973333D01*
X190380952Y-120973333D01*
X190476190Y-121020952D01*
X190523809Y-121068571D01*
X190571428Y-121163809D01*
X190571428Y-121401904D01*
X190523809Y-121497142D01*
X190476190Y-121544761D01*
X190380952Y-121592380D01*
X190142857Y-121592380D01*
X190047619Y-121544761D01*
X190000000Y-121497142D01*
X180177619Y-91055238D02*
X180130000Y-91150476D01*
X180034761Y-91245714D01*
X179891904Y-91388571D01*
X179844285Y-91483809D01*
X179844285Y-91579047D01*
X180082380Y-91531428D02*
X180034761Y-91626666D01*
X179939523Y-91721904D01*
X179749047Y-91769523D01*
X179415714Y-91769523D01*
X179225238Y-91721904D01*
X179130000Y-91626666D01*
X179082380Y-91531428D01*
X179082380Y-91340952D01*
X179130000Y-91245714D01*
X179225238Y-91150476D01*
X179415714Y-91102857D01*
X179749047Y-91102857D01*
X179939523Y-91150476D01*
X180034761Y-91245714D01*
X180082380Y-91340952D01*
X180082380Y-91531428D01*
X179177619Y-90721904D02*
X179130000Y-90674285D01*
X179082380Y-90579047D01*
X179082380Y-90340952D01*
X179130000Y-90245714D01*
X179177619Y-90198095D01*
X179272857Y-90150476D01*
X179368095Y-90150476D01*
X179510952Y-90198095D01*
X180082380Y-90769523D01*
X180082380Y-90150476D01*
X162108095Y-85772380D02*
X162108095Y-86581904D01*
X162155714Y-86677142D01*
X162203333Y-86724761D01*
X162298571Y-86772380D01*
X162489047Y-86772380D01*
X162584285Y-86724761D01*
X162631904Y-86677142D01*
X162679523Y-86581904D01*
X162679523Y-85772380D01*
X163108095Y-85867619D02*
X163155714Y-85820000D01*
X163250952Y-85772380D01*
X163489047Y-85772380D01*
X163584285Y-85820000D01*
X163631904Y-85867619D01*
X163679523Y-85962857D01*
X163679523Y-86058095D01*
X163631904Y-86200952D01*
X163060476Y-86772380D01*
X163679523Y-86772380D01*
X194362380Y-101039333D02*
X195076666Y-101039333D01*
X195219523Y-101086952D01*
X195314761Y-101182190D01*
X195362380Y-101325047D01*
X195362380Y-101420285D01*
X194457619Y-100610761D02*
X194410000Y-100563142D01*
X194362380Y-100467904D01*
X194362380Y-100229809D01*
X194410000Y-100134571D01*
X194457619Y-100086952D01*
X194552857Y-100039333D01*
X194648095Y-100039333D01*
X194790952Y-100086952D01*
X195362380Y-100658380D01*
X195362380Y-100039333D01*
X193202380Y-102119047D02*
X193202380Y-102595238D01*
X192202380Y-102595238D01*
X192678571Y-101785714D02*
X192678571Y-101452380D01*
X193202380Y-101309523D02*
X193202380Y-101785714D01*
X192202380Y-101785714D01*
X192202380Y-101309523D01*
X193202380Y-100880952D02*
X192202380Y-100880952D01*
X192202380Y-100642857D01*
X192250000Y-100500000D01*
X192345238Y-100404761D01*
X192440476Y-100357142D01*
X192630952Y-100309523D01*
X192773809Y-100309523D01*
X192964285Y-100357142D01*
X193059523Y-100404761D01*
X193154761Y-100500000D01*
X193202380Y-100642857D01*
X193202380Y-100880952D01*
X193202380Y-99357142D02*
X193202380Y-99928571D01*
X193202380Y-99642857D02*
X192202380Y-99642857D01*
X192345238Y-99738095D01*
X192440476Y-99833333D01*
X192488095Y-99928571D01*
X194362380Y-91193333D02*
X195076666Y-91193333D01*
X195219523Y-91240952D01*
X195314761Y-91336190D01*
X195362380Y-91479047D01*
X195362380Y-91574285D01*
X194362380Y-90240952D02*
X194362380Y-90717142D01*
X194838571Y-90764761D01*
X194790952Y-90717142D01*
X194743333Y-90621904D01*
X194743333Y-90383809D01*
X194790952Y-90288571D01*
X194838571Y-90240952D01*
X194933809Y-90193333D01*
X195171904Y-90193333D01*
X195267142Y-90240952D01*
X195314761Y-90288571D01*
X195362380Y-90383809D01*
X195362380Y-90621904D01*
X195314761Y-90717142D01*
X195267142Y-90764761D01*
X193202380Y-91939047D02*
X193202380Y-92415238D01*
X192202380Y-92415238D01*
X192678571Y-91605714D02*
X192678571Y-91272380D01*
X193202380Y-91129523D02*
X193202380Y-91605714D01*
X192202380Y-91605714D01*
X192202380Y-91129523D01*
X193202380Y-90700952D02*
X192202380Y-90700952D01*
X192202380Y-90462857D01*
X192250000Y-90320000D01*
X192345238Y-90224761D01*
X192440476Y-90177142D01*
X192630952Y-90129523D01*
X192773809Y-90129523D01*
X192964285Y-90177142D01*
X193059523Y-90224761D01*
X193154761Y-90320000D01*
X193202380Y-90462857D01*
X193202380Y-90700952D01*
X192297619Y-89748571D02*
X192250000Y-89700952D01*
X192202380Y-89605714D01*
X192202380Y-89367619D01*
X192250000Y-89272380D01*
X192297619Y-89224761D01*
X192392857Y-89177142D01*
X192488095Y-89177142D01*
X192630952Y-89224761D01*
X193202380Y-89796190D01*
X193202380Y-89177142D01*
X167807142Y-74766666D02*
X167854761Y-74814285D01*
X167902380Y-74957142D01*
X167902380Y-75052380D01*
X167854761Y-75195238D01*
X167759523Y-75290476D01*
X167664285Y-75338095D01*
X167473809Y-75385714D01*
X167330952Y-75385714D01*
X167140476Y-75338095D01*
X167045238Y-75290476D01*
X166950000Y-75195238D01*
X166902380Y-75052380D01*
X166902380Y-74957142D01*
X166950000Y-74814285D01*
X166997619Y-74766666D01*
X167330952Y-74195238D02*
X167283333Y-74290476D01*
X167235714Y-74338095D01*
X167140476Y-74385714D01*
X167092857Y-74385714D01*
X166997619Y-74338095D01*
X166950000Y-74290476D01*
X166902380Y-74195238D01*
X166902380Y-74004761D01*
X166950000Y-73909523D01*
X166997619Y-73861904D01*
X167092857Y-73814285D01*
X167140476Y-73814285D01*
X167235714Y-73861904D01*
X167283333Y-73909523D01*
X167330952Y-74004761D01*
X167330952Y-74195238D01*
X167378571Y-74290476D01*
X167426190Y-74338095D01*
X167521428Y-74385714D01*
X167711904Y-74385714D01*
X167807142Y-74338095D01*
X167854761Y-74290476D01*
X167902380Y-74195238D01*
X167902380Y-74004761D01*
X167854761Y-73909523D01*
X167807142Y-73861904D01*
X167711904Y-73814285D01*
X167521428Y-73814285D01*
X167426190Y-73861904D01*
X167378571Y-73909523D01*
X167330952Y-74004761D01*
X180177619Y-102155238D02*
X180130000Y-102250476D01*
X180034761Y-102345714D01*
X179891904Y-102488571D01*
X179844285Y-102583809D01*
X179844285Y-102679047D01*
X180082380Y-102631428D02*
X180034761Y-102726666D01*
X179939523Y-102821904D01*
X179749047Y-102869523D01*
X179415714Y-102869523D01*
X179225238Y-102821904D01*
X179130000Y-102726666D01*
X179082380Y-102631428D01*
X179082380Y-102440952D01*
X179130000Y-102345714D01*
X179225238Y-102250476D01*
X179415714Y-102202857D01*
X179749047Y-102202857D01*
X179939523Y-102250476D01*
X180034761Y-102345714D01*
X180082380Y-102440952D01*
X180082380Y-102631428D01*
X180082380Y-101250476D02*
X180082380Y-101821904D01*
X180082380Y-101536190D02*
X179082380Y-101536190D01*
X179225238Y-101631428D01*
X179320476Y-101726666D01*
X179368095Y-101821904D01*
X177437142Y-73976666D02*
X177484761Y-74024285D01*
X177532380Y-74167142D01*
X177532380Y-74262380D01*
X177484761Y-74405238D01*
X177389523Y-74500476D01*
X177294285Y-74548095D01*
X177103809Y-74595714D01*
X176960952Y-74595714D01*
X176770476Y-74548095D01*
X176675238Y-74500476D01*
X176580000Y-74405238D01*
X176532380Y-74262380D01*
X176532380Y-74167142D01*
X176580000Y-74024285D01*
X176627619Y-73976666D01*
X176532380Y-73643333D02*
X176532380Y-73024285D01*
X176913333Y-73357619D01*
X176913333Y-73214761D01*
X176960952Y-73119523D01*
X177008571Y-73071904D01*
X177103809Y-73024285D01*
X177341904Y-73024285D01*
X177437142Y-73071904D01*
X177484761Y-73119523D01*
X177532380Y-73214761D01*
X177532380Y-73500476D01*
X177484761Y-73595714D01*
X177437142Y-73643333D01*
X147228571Y-83557142D02*
X147180952Y-83604761D01*
X147038095Y-83652380D01*
X146942857Y-83652380D01*
X146800000Y-83604761D01*
X146704761Y-83509523D01*
X146657142Y-83414285D01*
X146609523Y-83223809D01*
X146609523Y-83080952D01*
X146657142Y-82890476D01*
X146704761Y-82795238D01*
X146800000Y-82700000D01*
X146942857Y-82652380D01*
X147038095Y-82652380D01*
X147180952Y-82700000D01*
X147228571Y-82747619D01*
X147800000Y-83652380D02*
X147704761Y-83604761D01*
X147657142Y-83557142D01*
X147609523Y-83461904D01*
X147609523Y-83176190D01*
X147657142Y-83080952D01*
X147704761Y-83033333D01*
X147800000Y-82985714D01*
X147942857Y-82985714D01*
X148038095Y-83033333D01*
X148085714Y-83080952D01*
X148133333Y-83176190D01*
X148133333Y-83461904D01*
X148085714Y-83557142D01*
X148038095Y-83604761D01*
X147942857Y-83652380D01*
X147800000Y-83652380D01*
X148561904Y-82985714D02*
X148561904Y-83652380D01*
X148561904Y-83080952D02*
X148609523Y-83033333D01*
X148704761Y-82985714D01*
X148847619Y-82985714D01*
X148942857Y-83033333D01*
X148990476Y-83128571D01*
X148990476Y-83652380D01*
X149323809Y-82985714D02*
X149704761Y-82985714D01*
X149466666Y-83652380D02*
X149466666Y-82795238D01*
X149514285Y-82700000D01*
X149609523Y-82652380D01*
X149704761Y-82652380D01*
X150038095Y-83652380D02*
X150038095Y-82985714D01*
X150038095Y-82652380D02*
X149990476Y-82700000D01*
X150038095Y-82747619D01*
X150085714Y-82700000D01*
X150038095Y-82652380D01*
X150038095Y-82747619D01*
X150942857Y-82985714D02*
X150942857Y-83795238D01*
X150895238Y-83890476D01*
X150847619Y-83938095D01*
X150752380Y-83985714D01*
X150609523Y-83985714D01*
X150514285Y-83938095D01*
X150942857Y-83604761D02*
X150847619Y-83652380D01*
X150657142Y-83652380D01*
X150561904Y-83604761D01*
X150514285Y-83557142D01*
X150466666Y-83461904D01*
X150466666Y-83176190D01*
X150514285Y-83080952D01*
X150561904Y-83033333D01*
X150657142Y-82985714D01*
X150847619Y-82985714D01*
X150942857Y-83033333D01*
X175907142Y-119216666D02*
X175954761Y-119264285D01*
X176002380Y-119407142D01*
X176002380Y-119502380D01*
X175954761Y-119645238D01*
X175859523Y-119740476D01*
X175764285Y-119788095D01*
X175573809Y-119835714D01*
X175430952Y-119835714D01*
X175240476Y-119788095D01*
X175145238Y-119740476D01*
X175050000Y-119645238D01*
X175002380Y-119502380D01*
X175002380Y-119407142D01*
X175050000Y-119264285D01*
X175097619Y-119216666D01*
X175097619Y-118835714D02*
X175050000Y-118788095D01*
X175002380Y-118692857D01*
X175002380Y-118454761D01*
X175050000Y-118359523D01*
X175097619Y-118311904D01*
X175192857Y-118264285D01*
X175288095Y-118264285D01*
X175430952Y-118311904D01*
X176002380Y-118883333D01*
X176002380Y-118264285D01*
X194362380Y-111393333D02*
X195076666Y-111393333D01*
X195219523Y-111440952D01*
X195314761Y-111536190D01*
X195362380Y-111679047D01*
X195362380Y-111774285D01*
X195362380Y-110393333D02*
X195362380Y-110964761D01*
X195362380Y-110679047D02*
X194362380Y-110679047D01*
X194505238Y-110774285D01*
X194600476Y-110869523D01*
X194648095Y-110964761D01*
X193202380Y-112876190D02*
X192202380Y-112876190D01*
X192202380Y-112495238D01*
X192250000Y-112400000D01*
X192297619Y-112352380D01*
X192392857Y-112304761D01*
X192535714Y-112304761D01*
X192630952Y-112352380D01*
X192678571Y-112400000D01*
X192726190Y-112495238D01*
X192726190Y-112876190D01*
X193202380Y-111733333D02*
X193154761Y-111828571D01*
X193107142Y-111876190D01*
X193011904Y-111923809D01*
X192726190Y-111923809D01*
X192630952Y-111876190D01*
X192583333Y-111828571D01*
X192535714Y-111733333D01*
X192535714Y-111590476D01*
X192583333Y-111495238D01*
X192630952Y-111447619D01*
X192726190Y-111400000D01*
X193011904Y-111400000D01*
X193107142Y-111447619D01*
X193154761Y-111495238D01*
X193202380Y-111590476D01*
X193202380Y-111733333D01*
X192535714Y-111066666D02*
X193202380Y-110876190D01*
X192726190Y-110685714D01*
X193202380Y-110495238D01*
X192535714Y-110304761D01*
X193154761Y-109542857D02*
X193202380Y-109638095D01*
X193202380Y-109828571D01*
X193154761Y-109923809D01*
X193059523Y-109971428D01*
X192678571Y-109971428D01*
X192583333Y-109923809D01*
X192535714Y-109828571D01*
X192535714Y-109638095D01*
X192583333Y-109542857D01*
X192678571Y-109495238D01*
X192773809Y-109495238D01*
X192869047Y-109971428D01*
X193202380Y-109066666D02*
X192535714Y-109066666D01*
X192726190Y-109066666D02*
X192630952Y-109019047D01*
X192583333Y-108971428D01*
X192535714Y-108876190D01*
X192535714Y-108780952D01*
X187952380Y-93838095D02*
X186952380Y-93838095D01*
X186952380Y-93600000D01*
X187000000Y-93457142D01*
X187095238Y-93361904D01*
X187190476Y-93314285D01*
X187380952Y-93266666D01*
X187523809Y-93266666D01*
X187714285Y-93314285D01*
X187809523Y-93361904D01*
X187904761Y-93457142D01*
X187952380Y-93600000D01*
X187952380Y-93838095D01*
X187047619Y-92885714D02*
X187000000Y-92838095D01*
X186952380Y-92742857D01*
X186952380Y-92504761D01*
X187000000Y-92409523D01*
X187047619Y-92361904D01*
X187142857Y-92314285D01*
X187238095Y-92314285D01*
X187380952Y-92361904D01*
X187952380Y-92933333D01*
X187952380Y-92314285D01*
X164683333Y-101952380D02*
X164350000Y-101476190D01*
X164111904Y-101952380D02*
X164111904Y-100952380D01*
X164492857Y-100952380D01*
X164588095Y-101000000D01*
X164635714Y-101047619D01*
X164683333Y-101142857D01*
X164683333Y-101285714D01*
X164635714Y-101380952D01*
X164588095Y-101428571D01*
X164492857Y-101476190D01*
X164111904Y-101476190D01*
X165635714Y-101952380D02*
X165064285Y-101952380D01*
X165350000Y-101952380D02*
X165350000Y-100952380D01*
X165254761Y-101095238D01*
X165159523Y-101190476D01*
X165064285Y-101238095D01*
X164583333Y-99402380D02*
X164250000Y-98926190D01*
X164011904Y-99402380D02*
X164011904Y-98402380D01*
X164392857Y-98402380D01*
X164488095Y-98450000D01*
X164535714Y-98497619D01*
X164583333Y-98592857D01*
X164583333Y-98735714D01*
X164535714Y-98830952D01*
X164488095Y-98878571D01*
X164392857Y-98926190D01*
X164011904Y-98926190D01*
X164964285Y-98497619D02*
X165011904Y-98450000D01*
X165107142Y-98402380D01*
X165345238Y-98402380D01*
X165440476Y-98450000D01*
X165488095Y-98497619D01*
X165535714Y-98592857D01*
X165535714Y-98688095D01*
X165488095Y-98830952D01*
X164916666Y-99402380D01*
X165535714Y-99402380D01*
X176102380Y-111566666D02*
X175626190Y-111900000D01*
X176102380Y-112138095D02*
X175102380Y-112138095D01*
X175102380Y-111757142D01*
X175150000Y-111661904D01*
X175197619Y-111614285D01*
X175292857Y-111566666D01*
X175435714Y-111566666D01*
X175530952Y-111614285D01*
X175578571Y-111661904D01*
X175626190Y-111757142D01*
X175626190Y-112138095D01*
X175102380Y-111233333D02*
X175102380Y-110614285D01*
X175483333Y-110947619D01*
X175483333Y-110804761D01*
X175530952Y-110709523D01*
X175578571Y-110661904D01*
X175673809Y-110614285D01*
X175911904Y-110614285D01*
X176007142Y-110661904D01*
X176054761Y-110709523D01*
X176102380Y-110804761D01*
X176102380Y-111090476D01*
X176054761Y-111185714D01*
X176007142Y-111233333D01*
X163511095Y-72379380D02*
X163511095Y-73188904D01*
X163558714Y-73284142D01*
X163606333Y-73331761D01*
X163701571Y-73379380D01*
X163892047Y-73379380D01*
X163987285Y-73331761D01*
X164034904Y-73284142D01*
X164082523Y-73188904D01*
X164082523Y-72379380D01*
X164987285Y-72712714D02*
X164987285Y-73379380D01*
X164749190Y-72331761D02*
X164511095Y-73046047D01*
X165130142Y-73046047D01*
X187912380Y-103851095D02*
X186912380Y-103851095D01*
X186912380Y-103613000D01*
X186960000Y-103470142D01*
X187055238Y-103374904D01*
X187150476Y-103327285D01*
X187340952Y-103279666D01*
X187483809Y-103279666D01*
X187674285Y-103327285D01*
X187769523Y-103374904D01*
X187864761Y-103470142D01*
X187912380Y-103613000D01*
X187912380Y-103851095D01*
X187912380Y-102327285D02*
X187912380Y-102898714D01*
X187912380Y-102613000D02*
X186912380Y-102613000D01*
X187055238Y-102708238D01*
X187150476Y-102803476D01*
X187198095Y-102898714D01*
X146628571Y-89028571D02*
X146895238Y-89028571D01*
X147009523Y-89552380D02*
X146628571Y-89552380D01*
X146628571Y-88552380D01*
X147009523Y-88552380D01*
X147352380Y-88885714D02*
X147352380Y-89552380D01*
X147352380Y-88980952D02*
X147390476Y-88933333D01*
X147466666Y-88885714D01*
X147580952Y-88885714D01*
X147657142Y-88933333D01*
X147695238Y-89028571D01*
X147695238Y-89552380D01*
X148419047Y-89504761D02*
X148342857Y-89552380D01*
X148190476Y-89552380D01*
X148114285Y-89504761D01*
X148076190Y-89457142D01*
X148038095Y-89361904D01*
X148038095Y-89076190D01*
X148076190Y-88980952D01*
X148114285Y-88933333D01*
X148190476Y-88885714D01*
X148342857Y-88885714D01*
X148419047Y-88933333D01*
X148876190Y-89552380D02*
X148800000Y-89504761D01*
X148761904Y-89457142D01*
X148723809Y-89361904D01*
X148723809Y-89076190D01*
X148761904Y-88980952D01*
X148800000Y-88933333D01*
X148876190Y-88885714D01*
X148990476Y-88885714D01*
X149066666Y-88933333D01*
X149104761Y-88980952D01*
X149142857Y-89076190D01*
X149142857Y-89361904D01*
X149104761Y-89457142D01*
X149066666Y-89504761D01*
X148990476Y-89552380D01*
X148876190Y-89552380D01*
X149828571Y-89552380D02*
X149828571Y-88552380D01*
X149828571Y-89504761D02*
X149752380Y-89552380D01*
X149600000Y-89552380D01*
X149523809Y-89504761D01*
X149485714Y-89457142D01*
X149447619Y-89361904D01*
X149447619Y-89076190D01*
X149485714Y-88980952D01*
X149523809Y-88933333D01*
X149600000Y-88885714D01*
X149752380Y-88885714D01*
X149828571Y-88933333D01*
X150514285Y-89504761D02*
X150438095Y-89552380D01*
X150285714Y-89552380D01*
X150209523Y-89504761D01*
X150171428Y-89409523D01*
X150171428Y-89028571D01*
X150209523Y-88933333D01*
X150285714Y-88885714D01*
X150438095Y-88885714D01*
X150514285Y-88933333D01*
X150552380Y-89028571D01*
X150552380Y-89123809D01*
X150171428Y-89219047D01*
X150895238Y-89552380D02*
X150895238Y-88885714D01*
X150895238Y-89076190D02*
X150933333Y-88980952D01*
X150971428Y-88933333D01*
X151047619Y-88885714D01*
X151123809Y-88885714D01*
X151809523Y-89552380D02*
X151352380Y-89552380D01*
X151580952Y-89552380D02*
X151580952Y-88552380D01*
X151504761Y-88695238D01*
X151428571Y-88790476D01*
X151352380Y-88838095D01*
X146628571Y-104228571D02*
X146895238Y-104228571D01*
X147009523Y-104752380D02*
X146628571Y-104752380D01*
X146628571Y-103752380D01*
X147009523Y-103752380D01*
X147352380Y-104085714D02*
X147352380Y-104752380D01*
X147352380Y-104180952D02*
X147390476Y-104133333D01*
X147466666Y-104085714D01*
X147580952Y-104085714D01*
X147657142Y-104133333D01*
X147695238Y-104228571D01*
X147695238Y-104752380D01*
X148419047Y-104704761D02*
X148342857Y-104752380D01*
X148190476Y-104752380D01*
X148114285Y-104704761D01*
X148076190Y-104657142D01*
X148038095Y-104561904D01*
X148038095Y-104276190D01*
X148076190Y-104180952D01*
X148114285Y-104133333D01*
X148190476Y-104085714D01*
X148342857Y-104085714D01*
X148419047Y-104133333D01*
X148876190Y-104752380D02*
X148800000Y-104704761D01*
X148761904Y-104657142D01*
X148723809Y-104561904D01*
X148723809Y-104276190D01*
X148761904Y-104180952D01*
X148800000Y-104133333D01*
X148876190Y-104085714D01*
X148990476Y-104085714D01*
X149066666Y-104133333D01*
X149104761Y-104180952D01*
X149142857Y-104276190D01*
X149142857Y-104561904D01*
X149104761Y-104657142D01*
X149066666Y-104704761D01*
X148990476Y-104752380D01*
X148876190Y-104752380D01*
X149828571Y-104752380D02*
X149828571Y-103752380D01*
X149828571Y-104704761D02*
X149752380Y-104752380D01*
X149600000Y-104752380D01*
X149523809Y-104704761D01*
X149485714Y-104657142D01*
X149447619Y-104561904D01*
X149447619Y-104276190D01*
X149485714Y-104180952D01*
X149523809Y-104133333D01*
X149600000Y-104085714D01*
X149752380Y-104085714D01*
X149828571Y-104133333D01*
X150514285Y-104704761D02*
X150438095Y-104752380D01*
X150285714Y-104752380D01*
X150209523Y-104704761D01*
X150171428Y-104609523D01*
X150171428Y-104228571D01*
X150209523Y-104133333D01*
X150285714Y-104085714D01*
X150438095Y-104085714D01*
X150514285Y-104133333D01*
X150552380Y-104228571D01*
X150552380Y-104323809D01*
X150171428Y-104419047D01*
X150895238Y-104752380D02*
X150895238Y-104085714D01*
X150895238Y-104276190D02*
X150933333Y-104180952D01*
X150971428Y-104133333D01*
X151047619Y-104085714D01*
X151123809Y-104085714D01*
X151352380Y-103847619D02*
X151390476Y-103800000D01*
X151466666Y-103752380D01*
X151657142Y-103752380D01*
X151733333Y-103800000D01*
X151771428Y-103847619D01*
X151809523Y-103942857D01*
X151809523Y-104038095D01*
X151771428Y-104180952D01*
X151314285Y-104752380D01*
X151809523Y-104752380D01*
X182104595Y-112266880D02*
X182104595Y-113076404D01*
X182152214Y-113171642D01*
X182199833Y-113219261D01*
X182295071Y-113266880D01*
X182485547Y-113266880D01*
X182580785Y-113219261D01*
X182628404Y-113171642D01*
X182676023Y-113076404D01*
X182676023Y-112266880D01*
X183628404Y-112266880D02*
X183152214Y-112266880D01*
X183104595Y-112743071D01*
X183152214Y-112695452D01*
X183247452Y-112647833D01*
X183485547Y-112647833D01*
X183580785Y-112695452D01*
X183628404Y-112743071D01*
X183676023Y-112838309D01*
X183676023Y-113076404D01*
X183628404Y-113171642D01*
X183580785Y-113219261D01*
X183485547Y-113266880D01*
X183247452Y-113266880D01*
X183152214Y-113219261D01*
X183104595Y-113171642D01*
X154433333Y-90357142D02*
X154385714Y-90404761D01*
X154242857Y-90452380D01*
X154147619Y-90452380D01*
X154004761Y-90404761D01*
X153909523Y-90309523D01*
X153861904Y-90214285D01*
X153814285Y-90023809D01*
X153814285Y-89880952D01*
X153861904Y-89690476D01*
X153909523Y-89595238D01*
X154004761Y-89500000D01*
X154147619Y-89452380D01*
X154242857Y-89452380D01*
X154385714Y-89500000D01*
X154433333Y-89547619D01*
X155290476Y-89785714D02*
X155290476Y-90452380D01*
X155052380Y-89404761D02*
X154814285Y-90119047D01*
X155433333Y-90119047D01*
X154433333Y-105907142D02*
X154385714Y-105954761D01*
X154242857Y-106002380D01*
X154147619Y-106002380D01*
X154004761Y-105954761D01*
X153909523Y-105859523D01*
X153861904Y-105764285D01*
X153814285Y-105573809D01*
X153814285Y-105430952D01*
X153861904Y-105240476D01*
X153909523Y-105145238D01*
X154004761Y-105050000D01*
X154147619Y-105002380D01*
X154242857Y-105002380D01*
X154385714Y-105050000D01*
X154433333Y-105097619D01*
X155290476Y-105002380D02*
X155100000Y-105002380D01*
X155004761Y-105050000D01*
X154957142Y-105097619D01*
X154861904Y-105240476D01*
X154814285Y-105430952D01*
X154814285Y-105811904D01*
X154861904Y-105907142D01*
X154909523Y-105954761D01*
X155004761Y-106002380D01*
X155195238Y-106002380D01*
X155290476Y-105954761D01*
X155338095Y-105907142D01*
X155385714Y-105811904D01*
X155385714Y-105573809D01*
X155338095Y-105478571D01*
X155290476Y-105430952D01*
X155195238Y-105383333D01*
X155004761Y-105383333D01*
X154909523Y-105430952D01*
X154861904Y-105478571D01*
X154814285Y-105573809D01*
X154433333Y-99957142D02*
X154385714Y-100004761D01*
X154242857Y-100052380D01*
X154147619Y-100052380D01*
X154004761Y-100004761D01*
X153909523Y-99909523D01*
X153861904Y-99814285D01*
X153814285Y-99623809D01*
X153814285Y-99480952D01*
X153861904Y-99290476D01*
X153909523Y-99195238D01*
X154004761Y-99100000D01*
X154147619Y-99052380D01*
X154242857Y-99052380D01*
X154385714Y-99100000D01*
X154433333Y-99147619D01*
X155338095Y-99052380D02*
X154861904Y-99052380D01*
X154814285Y-99528571D01*
X154861904Y-99480952D01*
X154957142Y-99433333D01*
X155195238Y-99433333D01*
X155290476Y-99480952D01*
X155338095Y-99528571D01*
X155385714Y-99623809D01*
X155385714Y-99861904D01*
X155338095Y-99957142D01*
X155290476Y-100004761D01*
X155195238Y-100052380D01*
X154957142Y-100052380D01*
X154861904Y-100004761D01*
X154814285Y-99957142D01*
X154433333Y-115007142D02*
X154385714Y-115054761D01*
X154242857Y-115102380D01*
X154147619Y-115102380D01*
X154004761Y-115054761D01*
X153909523Y-114959523D01*
X153861904Y-114864285D01*
X153814285Y-114673809D01*
X153814285Y-114530952D01*
X153861904Y-114340476D01*
X153909523Y-114245238D01*
X154004761Y-114150000D01*
X154147619Y-114102380D01*
X154242857Y-114102380D01*
X154385714Y-114150000D01*
X154433333Y-114197619D01*
X154766666Y-114102380D02*
X155433333Y-114102380D01*
X155004761Y-115102380D01*
X154433333Y-93552380D02*
X154100000Y-93076190D01*
X153861904Y-93552380D02*
X153861904Y-92552380D01*
X154242857Y-92552380D01*
X154338095Y-92600000D01*
X154385714Y-92647619D01*
X154433333Y-92742857D01*
X154433333Y-92885714D01*
X154385714Y-92980952D01*
X154338095Y-93028571D01*
X154242857Y-93076190D01*
X153861904Y-93076190D01*
X155290476Y-92885714D02*
X155290476Y-93552380D01*
X155052380Y-92504761D02*
X154814285Y-93219047D01*
X155433333Y-93219047D01*
X154433333Y-96852380D02*
X154100000Y-96376190D01*
X153861904Y-96852380D02*
X153861904Y-95852380D01*
X154242857Y-95852380D01*
X154338095Y-95900000D01*
X154385714Y-95947619D01*
X154433333Y-96042857D01*
X154433333Y-96185714D01*
X154385714Y-96280952D01*
X154338095Y-96328571D01*
X154242857Y-96376190D01*
X153861904Y-96376190D01*
X155338095Y-95852380D02*
X154861904Y-95852380D01*
X154814285Y-96328571D01*
X154861904Y-96280952D01*
X154957142Y-96233333D01*
X155195238Y-96233333D01*
X155290476Y-96280952D01*
X155338095Y-96328571D01*
X155385714Y-96423809D01*
X155385714Y-96661904D01*
X155338095Y-96757142D01*
X155290476Y-96804761D01*
X155195238Y-96852380D01*
X154957142Y-96852380D01*
X154861904Y-96804761D01*
X154814285Y-96757142D01*
X154433333Y-109002380D02*
X154100000Y-108526190D01*
X153861904Y-109002380D02*
X153861904Y-108002380D01*
X154242857Y-108002380D01*
X154338095Y-108050000D01*
X154385714Y-108097619D01*
X154433333Y-108192857D01*
X154433333Y-108335714D01*
X154385714Y-108430952D01*
X154338095Y-108478571D01*
X154242857Y-108526190D01*
X153861904Y-108526190D01*
X155004761Y-108430952D02*
X154909523Y-108383333D01*
X154861904Y-108335714D01*
X154814285Y-108240476D01*
X154814285Y-108192857D01*
X154861904Y-108097619D01*
X154909523Y-108050000D01*
X155004761Y-108002380D01*
X155195238Y-108002380D01*
X155290476Y-108050000D01*
X155338095Y-108097619D01*
X155385714Y-108192857D01*
X155385714Y-108240476D01*
X155338095Y-108335714D01*
X155290476Y-108383333D01*
X155195238Y-108430952D01*
X155004761Y-108430952D01*
X154909523Y-108478571D01*
X154861904Y-108526190D01*
X154814285Y-108621428D01*
X154814285Y-108811904D01*
X154861904Y-108907142D01*
X154909523Y-108954761D01*
X155004761Y-109002380D01*
X155195238Y-109002380D01*
X155290476Y-108954761D01*
X155338095Y-108907142D01*
X155385714Y-108811904D01*
X155385714Y-108621428D01*
X155338095Y-108526190D01*
X155290476Y-108478571D01*
X155195238Y-108430952D01*
X154433333Y-112102380D02*
X154100000Y-111626190D01*
X153861904Y-112102380D02*
X153861904Y-111102380D01*
X154242857Y-111102380D01*
X154338095Y-111150000D01*
X154385714Y-111197619D01*
X154433333Y-111292857D01*
X154433333Y-111435714D01*
X154385714Y-111530952D01*
X154338095Y-111578571D01*
X154242857Y-111626190D01*
X153861904Y-111626190D01*
X154909523Y-112102380D02*
X155100000Y-112102380D01*
X155195238Y-112054761D01*
X155242857Y-112007142D01*
X155338095Y-111864285D01*
X155385714Y-111673809D01*
X155385714Y-111292857D01*
X155338095Y-111197619D01*
X155290476Y-111150000D01*
X155195238Y-111102380D01*
X155004761Y-111102380D01*
X154909523Y-111150000D01*
X154861904Y-111197619D01*
X154814285Y-111292857D01*
X154814285Y-111530952D01*
X154861904Y-111626190D01*
X154909523Y-111673809D01*
X155004761Y-111721428D01*
X155195238Y-111721428D01*
X155290476Y-111673809D01*
X155338095Y-111626190D01*
X155385714Y-111530952D01*
X176152380Y-102366666D02*
X175676190Y-102700000D01*
X176152380Y-102938095D02*
X175152380Y-102938095D01*
X175152380Y-102557142D01*
X175200000Y-102461904D01*
X175247619Y-102414285D01*
X175342857Y-102366666D01*
X175485714Y-102366666D01*
X175580952Y-102414285D01*
X175628571Y-102461904D01*
X175676190Y-102557142D01*
X175676190Y-102938095D01*
X175152380Y-101509523D02*
X175152380Y-101700000D01*
X175200000Y-101795238D01*
X175247619Y-101842857D01*
X175390476Y-101938095D01*
X175580952Y-101985714D01*
X175961904Y-101985714D01*
X176057142Y-101938095D01*
X176104761Y-101890476D01*
X176152380Y-101795238D01*
X176152380Y-101604761D01*
X176104761Y-101509523D01*
X176057142Y-101461904D01*
X175961904Y-101414285D01*
X175723809Y-101414285D01*
X175628571Y-101461904D01*
X175580952Y-101509523D01*
X175533333Y-101604761D01*
X175533333Y-101795238D01*
X175580952Y-101890476D01*
X175628571Y-101938095D01*
X175723809Y-101985714D01*
X176152380Y-106366666D02*
X175676190Y-106700000D01*
X176152380Y-106938095D02*
X175152380Y-106938095D01*
X175152380Y-106557142D01*
X175200000Y-106461904D01*
X175247619Y-106414285D01*
X175342857Y-106366666D01*
X175485714Y-106366666D01*
X175580952Y-106414285D01*
X175628571Y-106461904D01*
X175676190Y-106557142D01*
X175676190Y-106938095D01*
X175152380Y-106033333D02*
X175152380Y-105366666D01*
X176152380Y-105795238D01*
X176152380Y-98342857D02*
X175676190Y-98676190D01*
X176152380Y-98914285D02*
X175152380Y-98914285D01*
X175152380Y-98533333D01*
X175200000Y-98438095D01*
X175247619Y-98390476D01*
X175342857Y-98342857D01*
X175485714Y-98342857D01*
X175580952Y-98390476D01*
X175628571Y-98438095D01*
X175676190Y-98533333D01*
X175676190Y-98914285D01*
X176152380Y-97390476D02*
X176152380Y-97961904D01*
X176152380Y-97676190D02*
X175152380Y-97676190D01*
X175295238Y-97771428D01*
X175390476Y-97866666D01*
X175438095Y-97961904D01*
X175152380Y-96771428D02*
X175152380Y-96676190D01*
X175200000Y-96580952D01*
X175247619Y-96533333D01*
X175342857Y-96485714D01*
X175533333Y-96438095D01*
X175771428Y-96438095D01*
X175961904Y-96485714D01*
X176057142Y-96533333D01*
X176104761Y-96580952D01*
X176152380Y-96676190D01*
X176152380Y-96771428D01*
X176104761Y-96866666D01*
X176057142Y-96914285D01*
X175961904Y-96961904D01*
X175771428Y-97009523D01*
X175533333Y-97009523D01*
X175342857Y-96961904D01*
X175247619Y-96914285D01*
X175200000Y-96866666D01*
X175152380Y-96771428D01*
X176152380Y-94342857D02*
X175676190Y-94676190D01*
X176152380Y-94914285D02*
X175152380Y-94914285D01*
X175152380Y-94533333D01*
X175200000Y-94438095D01*
X175247619Y-94390476D01*
X175342857Y-94342857D01*
X175485714Y-94342857D01*
X175580952Y-94390476D01*
X175628571Y-94438095D01*
X175676190Y-94533333D01*
X175676190Y-94914285D01*
X176152380Y-93390476D02*
X176152380Y-93961904D01*
X176152380Y-93676190D02*
X175152380Y-93676190D01*
X175295238Y-93771428D01*
X175390476Y-93866666D01*
X175438095Y-93961904D01*
X176152380Y-92438095D02*
X176152380Y-93009523D01*
X176152380Y-92723809D02*
X175152380Y-92723809D01*
X175295238Y-92819047D01*
X175390476Y-92914285D01*
X175438095Y-93009523D01*
M02*
